<?xml version="1.0" standalone="no"?>
<!DOCTYPE svg PUBLIC "-//W3C//DTD SVG 20010904//EN"
 "http://www.w3.org/TR/2001/REC-SVG-20010904/DTD/svg10.dtd">
<svg version="1.0" xmlns="http://www.w3.org/2000/svg"
 width="1152.000000pt" height="1152.000000pt" viewBox="0 0 1152.000000 1152.000000"
 preserveAspectRatio="xMidYMid meet">

<g transform="translate(0.000000,1152.000000) scale(0.100000,-0.100000)"
fill="#000000" stroke="none">
<path d="M5505 9920 c-1076 -94 -2023 -569 -2722 -1363 -534 -607 -876 -1375
-973 -2182 -26 -224 -30 -440 -30 -1877 l0 -1508 60 0 59 0 4 1613 c4 1760 1
1662 62 2002 246 1345 1182 2469 2460 2952 311 118 614 191 975 235 141 17
690 17 830 0 292 -36 567 -97 820 -181 1232 -411 2173 -1400 2529 -2656 42
-151 87 -367 113 -548 22 -151 22 -167 25 -1784 l4 -1633 60 0 60 0 -4 1628
c-3 1598 -4 1630 -25 1777 -72 505 -194 907 -401 1316 -275 545 -657 1008
-1136 1379 -579 448 -1259 724 -2005 815 -157 19 -614 28 -765 15z"/>
<path d="M5440 9705 c-561 -61 -1071 -224 -1530 -488 -643 -370 -1173 -927
-1501 -1579 -79 -158 -143 -307 -135 -316 10 -10 168 29 251 61 110 43 237
130 326 224 40 43 122 146 180 228 137 192 243 319 399 474 464 461 1060 780
1700 911 214 44 371 61 605 67 921 23 1814 -331 2467 -980 154 -154 264 -285
406 -482 175 -245 281 -344 456 -426 81 -38 269 -90 281 -77 9 8 -78 207 -152
348 -533 1013 -1484 1734 -2596 1969 -266 56 -421 72 -742 76 -202 3 -328 0
-415 -10z"/>
<path d="M3963 7346 c-91 -29 -143 -94 -168 -212 -17 -82 -20 -338 -4 -434 27
-168 109 -240 274 -240 131 0 221 45 266 132 21 41 46 186 36 212 -5 13 -24
16 -100 16 l-93 0 -10 -90 c-13 -110 -29 -132 -88 -128 -37 3 -43 7 -61 43
-18 37 -20 60 -20 270 0 214 1 232 20 265 18 30 27 35 62 38 54 4 69 -18 79
-111 l7 -68 96 3 96 3 -2 69 c-6 166 -97 247 -277 245 -39 0 -90 -6 -113 -13z"/>
<path d="M4612 7346 c-97 -32 -152 -109 -173 -246 -16 -103 -6 -388 15 -456
23 -72 66 -127 123 -155 42 -21 62 -24 158 -24 96 0 116 3 158 24 58 28 101
83 125 160 14 45 17 95 17 261 0 228 -10 282 -64 357 -45 62 -106 87 -221 90
-61 2 -110 -2 -138 -11z m177 -145 c11 -11 23 -41 28 -68 10 -61 11 -383 0
-444 -10 -57 -38 -89 -78 -89 -82 0 -94 36 -94 300 0 222 6 271 36 301 25 25
83 25 108 0z"/>
<path d="M7270 7341 c-71 -25 -121 -80 -145 -158 -13 -42 -19 -105 -22 -234
-7 -256 14 -367 85 -434 41 -39 83 -53 157 -54 79 -1 132 15 166 49 l28 27 6
-28 c6 -29 8 -29 76 -29 l69 0 0 230 0 230 -145 0 -145 0 0 -70 0 -70 51 0 52
0 -6 -65 c-7 -70 -27 -119 -52 -129 -32 -12 -75 -6 -94 13 -30 30 -36 78 -36
281 0 272 13 320 88 320 46 0 69 -28 75 -90 l5 -50 98 0 99 0 0 38 c0 97 -47
175 -130 218 -54 27 -208 30 -280 5z"/>
<path d="M5150 6910 l0 -430 90 0 90 0 1 328 1 327 63 -305 c35 -168 67 -315
70 -327 5 -21 11 -23 85 -23 44 0 80 3 80 8 1 4 30 151 65 327 l63 320 1 -327
1 -328 95 0 95 0 0 430 0 430 -148 0 -149 0 -49 -271 c-30 -170 -51 -264 -56
-252 -6 16 -98 498 -98 516 0 4 -67 7 -150 7 l-150 0 0 -430z"/>
<path d="M6080 6910 l0 -430 100 0 100 0 0 430 0 430 -100 0 -100 0 0 -430z"/>
<path d="M6400 6910 l0 -430 90 0 90 0 1 293 0 292 55 -180 c31 -99 71 -231
90 -292 l35 -113 114 0 115 0 0 430 0 430 -95 0 -95 0 -1 -272 0 -273 -82 272
-82 273 -117 0 -118 0 0 -430z"/>
<path d="M4572 5905 c-58 -18 -108 -58 -135 -108 -18 -35 -22 -58 -22 -132 0
-148 40 -198 215 -270 120 -50 158 -94 143 -166 -12 -59 -78 -89 -133 -59 -21
11 -40 60 -40 101 l0 29 -101 0 -102 0 6 -65 c15 -157 88 -210 287 -210 100 1
121 4 163 24 83 41 127 124 127 241 0 135 -53 199 -218 266 -41 16 -90 43
-110 60 -31 27 -35 36 -35 77 0 60 22 87 73 87 46 0 67 -22 76 -78 l7 -42 94
0 c109 0 110 1 93 85 -24 114 -119 176 -268 174 -42 0 -96 -6 -120 -14z"/>
<path d="M5232 5906 c-97 -32 -152 -109 -173 -246 -16 -103 -6 -388 15 -456
23 -72 66 -127 123 -155 42 -21 62 -24 158 -24 96 0 116 3 158 24 58 28 101
83 125 160 25 81 25 441 0 522 -41 131 -113 182 -268 186 -61 2 -110 -2 -138
-11z m177 -145 c11 -11 23 -41 28 -68 10 -61 11 -383 0 -444 -10 -57 -38 -89
-78 -89 -82 0 -94 36 -94 300 0 222 6 271 36 301 25 25 83 25 108 0z"/>
<path d="M5922 5906 c-97 -32 -152 -109 -173 -246 -16 -103 -6 -388 15 -456
23 -72 66 -127 123 -155 42 -21 62 -24 158 -24 96 0 116 3 158 24 58 28 101
83 125 160 25 81 25 441 0 522 -41 131 -113 182 -268 186 -61 2 -110 -2 -138
-11z m177 -145 c11 -11 23 -41 28 -68 10 -61 11 -383 0 -444 -10 -57 -38 -89
-78 -89 -82 0 -94 36 -94 300 0 222 6 271 36 301 25 25 83 25 108 0z"/>
<path d="M6450 5470 l0 -430 90 0 90 0 1 293 0 292 55 -180 c31 -99 71 -231
90 -292 l35 -113 114 0 115 0 0 430 0 430 -95 0 -95 0 -1 -272 0 -273 -82 272
-82 273 -117 0 -118 0 0 -430z"/>
<path d="M3171 5760 c-23 -11 -56 -31 -73 -45 -16 -14 -38 -25 -49 -25 -13 0
-26 -13 -37 -37 -16 -35 -17 -153 -17 -1623 0 -1271 3 -1592 13 -1621 15 -43
107 -134 157 -154 49 -21 138 -19 183 4 92 47 127 115 142 273 14 136 12 2766
-1 2907 -17 185 -57 268 -151 315 -62 31 -108 33 -167 6z"/>
<path d="M8300 5757 c-52 -28 -103 -97 -124 -170 -38 -130 -39 -182 -43 -1532
-5 -1561 -3 -1624 71 -1735 51 -77 183 -108 271 -62 56 28 121 101 137 154 19
63 19 3175 0 3230 -14 40 -80 100 -136 123 -53 22 -125 19 -176 -8z"/>
<path d="M2725 5639 c-396 -165 -610 -301 -674 -427 -56 -111 -55 -80 -59
-1072 -4 -959 0 -1125 24 -1116 9 3 16 -4 20 -22 19 -90 59 -197 92 -245 49
-73 211 -205 406 -332 104 -68 314 -185 331 -185 40 0 40 -6 43 1706 2 1561 2
1644 -16 1690 -9 27 -24 50 -32 51 -8 1 -69 -20 -135 -48z"/>
<path d="M8732 5639 l-22 -50 2 -1637 c4 -1696 4 -1712 43 -1712 16 0 208 106
315 175 107 68 327 234 379 286 53 53 103 154 127 254 11 49 21 72 30 68 21
-8 26 241 22 1152 -5 949 -3 921 -64 1040 -53 105 -181 198 -457 330 -124 59
-328 145 -345 145 -5 0 -18 -23 -30 -51z"/>
<path d="M9967 4823 c-4 -21 -4 -106 0 -191 l6 -153 51 3 51 3 3 188 2 187
-53 0 -54 0 -6 -37z"/>
<path d="M1540 4695 l0 -155 54 0 54 0 7 94 c8 102 -1 197 -19 208 -6 4 -30 8
-53 8 l-43 0 0 -155z"/>
<path d="M9970 3777 c0 -40 2 -43 29 -45 19 -1 31 3 35 14 3 9 13 14 20 11 11
-5 26 11 26 27 0 2 -13 2 -30 1 -24 -1 -28 1 -18 12 18 22 1 27 -28 8 -24 -15
-26 -16 -21 -1 4 9 2 16 -3 16 -6 0 -10 -19 -10 -43z"/>
</g>
</svg>
