<?xml version="1.0" standalone="no"?>
<!DOCTYPE svg PUBLIC "-//W3C//DTD SVG 20010904//EN"
 "http://www.w3.org/TR/2001/REC-SVG-20010904/DTD/svg10.dtd">
<svg version="1.0" xmlns="http://www.w3.org/2000/svg"
 width="241.000000pt" height="209.000000pt" viewBox="0 0 241.000000 209.000000"
 preserveAspectRatio="xMidYMid meet">
<metadata>
Created by potrace 1.16, written by Peter Selinger 2001-2019
</metadata>
<g transform="translate(0.000000,209.000000) scale(0.100000,-0.100000)"
fill="#000000" stroke="none">
<path d="M1020 2044 c-251 -53 -486 -229 -628 -470 -23 -39 -65 -90 -96 -117
-196 -170 -173 -549 42 -674 26 -15 66 -42 89 -59 23 -18 60 -35 83 -39 25 -4
51 -18 69 -36 29 -28 33 -29 128 -29 l99 0 10 -68 c22 -141 98 -246 215 -302
l61 -28 -59 -7 c-32 -3 -74 -12 -93 -19 -33 -12 -35 -15 -33 -55 4 -85 35
-103 210 -122 117 -12 286 0 351 27 34 13 43 23 56 62 9 25 16 52 16 59 0 22
-57 40 -148 48 l-83 7 58 28 c116 54 195 164 215 298 l10 71 102 4 c55 3 125
5 153 6 55 0 129 26 151 54 8 9 33 25 57 37 84 40 161 149 184 258 35 165 -14
333 -127 431 -34 30 -67 73 -93 121 -148 273 -396 464 -667 516 -92 17 -246
17 -332 -2z m366 -30 c261 -63 499 -265 638 -541 14 -28 34 -54 45 -58 11 -3
36 -24 56 -47 78 -86 116 -224 95 -348 -6 -38 -16 -68 -20 -65 -5 3 -12 0 -16
-7 -6 -9 -10 -5 -15 12 -7 24 -7 24 -8 -5 -1 -21 -4 -26 -10 -16 -6 10 -13 10
-29 2 -19 -10 -20 -7 -25 147 -5 149 -17 219 -46 270 -14 24 -13 14 4 -33 8
-22 14 -51 15 -64 0 -22 -2 -23 -45 -17 l-45 7 -1 -103 -2 -103 -8 107 c-11
162 -45 294 -86 340 -14 15 -12 17 16 20 l30 3 -42 62 c-56 82 -134 169 -134
149 0 -8 4 -13 7 -11 4 3 7 -8 7 -23 0 -15 -2 -21 -4 -14 -3 6 -9 10 -14 6 -5
-3 -9 1 -9 9 0 8 -8 21 -17 28 -14 12 -16 12 -8 0 4 -8 -17 4 -47 27 -170 125
-392 183 -585 152 -139 -22 -298 -93 -389 -172 -18 -16 -36 -28 -41 -27 -19 3
-33 -2 -33 -12 0 -8 6 -7 18 2 9 7 6 1 -7 -13 -13 -15 -29 -26 -35 -25 -6 1
-11 -5 -10 -13 1 -9 -8 -15 -21 -15 -22 0 -22 1 5 29 19 18 33 25 42 20 11 -6
11 -5 0 8 -12 15 -16 14 -39 -10 -15 -15 -41 -45 -58 -68 -17 -22 -50 -58 -73
-78 -92 -84 -138 -241 -129 -448 l5 -127 -25 10 c-33 12 -37 11 -23 -6 10 -12
10 -15 -2 -15 -8 0 -20 6 -27 13 -11 10 -11 8 -2 -13 11 -23 11 -24 -3 -6 -12
15 -13 23 -4 33 8 10 7 12 -5 7 -12 -4 -18 7 -28 53 -37 172 14 344 127 428
22 16 58 59 79 95 150 254 382 425 642 475 94 18 241 13 339 -11z m-16 -151
c144 -35 315 -142 415 -258 48 -57 55 -80 13 -51 -20 14 -86 16 -593 16 -441
1 -575 4 -593 13 -22 13 -22 14 41 74 77 74 164 132 260 171 63 26 98 36 217
56 42 7 171 -4 240 -21z m-845 -339 c-44 -65 -78 -216 -88 -394 -2 -30 -4 -4
-5 59 -2 99 -4 112 -18 107 -38 -14 -62 -17 -69 -7 -10 18 24 120 59 175 38
59 54 74 93 86 49 15 53 11 28 -26z m1257 -5 c10 -12 18 -28 18 -36 0 -8 3
-12 8 -9 4 2 7 -176 7 -396 l0 -400 -24 -19 c-19 -16 -40 -19 -127 -19 l-104
0 0 -48 c0 -100 -56 -216 -130 -271 -20 -15 -29 -18 -21 -8 12 15 9 21 -11 18
-16 -2 -7 16 20 42 16 15 31 24 35 20 4 -3 7 1 7 11 0 9 9 35 21 57 11 23 23
70 26 110 l6 69 -27 0 c-33 0 -31 23 2 28 18 3 22 10 22 43 0 35 -3 39 -25 39
-14 0 -25 5 -25 10 0 6 11 10 25 10 14 0 25 5 25 10 0 6 -11 10 -25 10 -22 0
-25 4 -24 38 2 57 13 99 22 84 6 -8 20 -11 41 -7 55 11 64 -13 40 -107 l-6
-28 81 0 c76 0 81 1 98 27 13 20 20 56 24 132 l5 106 2 -110 c2 -94 -1 -115
-18 -142 -11 -18 -24 -34 -30 -34 -5 -1 -14 -3 -20 -4 -5 -1 -39 -3 -75 -4
l-65 -1 0 -35 0 -35 97 0 c86 0 99 3 120 22 23 21 23 23 23 282 0 165 -4 256
-10 246 -14 -23 -19 1 -23 110 l-3 95 -2 -116 c-2 -111 -3 -116 -29 -140 -19
-17 -25 -19 -20 -7 4 12 2 15 -9 11 -7 -3 -14 -8 -14 -12 0 -3 -59 -6 -130 -6
-98 0 -129 3 -126 12 3 7 1 15 -4 18 -6 4 -10 -26 -10 -75 0 -46 -4 -79 -9
-76 -5 3 -7 15 -4 25 3 10 -1 22 -8 27 -9 5 -11 2 -6 -9 7 -19 -3 -23 -18 -8
-6 6 -22 4 -43 -6 -30 -15 -34 -14 -53 3 -17 15 -24 16 -39 6 -25 -15 -63 -15
-78 0 -9 9 -16 8 -30 -5 -21 -19 -48 -22 -57 -7 -11 17 -47 11 -52 -9 -2 -10
-16 -24 -29 -30 l-24 -11 0 65 c0 36 0 68 0 73 1 10 -93 19 -107 9 -6 -4 -20
-4 -30 1 -10 5 -40 20 -68 33 -27 13 -67 39 -87 58 -36 32 -38 36 -38 98 0 67
17 116 45 127 9 3 244 6 521 6 l505 0 24 -25 c28 -27 33 -21 9 13 l-15 22
-530 0 -529 0 -20 -32 c-13 -21 -20 -51 -20 -83 0 -71 -11 -155 -20 -150 -14
9 -20 -71 -20 -275 0 -175 3 -210 18 -240 l17 -35 106 -3 107 -3 -3 33 c-2 18
-4 37 -4 41 -1 5 -29 8 -63 7 -96 -2 -97 -2 -118 33 -18 28 -20 48 -18 177 l2
145 5 -135 c6 -130 16 -173 45 -192 6 -4 41 -8 78 -8 71 0 87 11 60 43 -8 9
-15 31 -15 49 0 42 33 68 88 68 l43 0 4 -73 3 -73 -27 4 c-16 3 -28 0 -28 -7
0 -6 11 -11 24 -11 13 0 26 -6 29 -13 4 -10 -3 -12 -24 -9 -28 4 -29 3 -29
-37 0 -37 2 -41 25 -41 16 0 25 -6 25 -15 0 -9 -9 -15 -25 -15 -23 0 -25 -3
-25 -48 0 -78 25 -144 76 -201 28 -31 44 -57 40 -66 -9 -23 -24 -18 -65 23
-60 59 -93 134 -99 220 l-5 72 -107 0 c-102 0 -108 1 -131 26 -27 28 -26 13
-21 622 2 212 3 223 23 243 l22 22 571 -6 c569 -6 571 -6 588 -28z m-219 -396
c-7 -2 -21 -2 -30 0 -10 3 -4 5 12 5 17 0 24 -2 18 -5z m-38 -23 c3 -6 -1 -7
-9 -4 -18 7 -21 14 -7 14 6 0 13 -4 16 -10z m-436 -395 c1 -165 4 -216 16
-239 22 -41 19 -65 -9 -72 -35 -8 -81 20 -101 62 -15 33 -17 67 -16 288 1 138
5 254 9 258 4 4 25 14 47 21 l40 14 6 -61 c4 -34 7 -155 8 -271z m332 -291
c-27 -35 -63 -62 -105 -79 -62 -26 -63 -15 -1 14 33 16 73 42 89 60 36 38 45
41 17 5z m-386 -40 c17 -12 50 -28 75 -37 34 -12 39 -16 20 -16 -28 -1 -118
47 -140 75 -13 16 -13 17 0 9 8 -5 29 -18 45 -31z m341 -49 c-1 -8 -5 -17 -8
-21 -5 -4 -4 16 1 34 3 9 9 -1 7 -13z m-36 -25 c0 -5 -2 -10 -4 -10 -3 0 -8 5
-11 10 -3 6 -1 10 4 10 6 0 11 -4 11 -10z m-46 -25 c11 -8 16 -15 10 -15 -5 0
-18 7 -28 15 -11 8 -16 15 -10 15 5 0 18 -7 28 -15z m-274 -136 c36 -4 137 -9
225 -10 88 -1 151 -4 141 -6 -15 -4 -16 -7 -5 -14 11 -7 11 -9 -2 -9 -20 0
-33 -27 -16 -34 7 -2 0 -5 -15 -5 -15 -1 -30 -5 -33 -11 -8 -13 -196 -13 -266
0 -76 14 -107 29 -114 54 -18 61 -18 59 1 52 11 -5 48 -12 84 -17z"/>
<path d="M2010 1420 c6 -11 13 -20 16 -20 2 0 0 9 -6 20 -6 11 -13 20 -16 20
-2 0 0 -9 6 -20z"/>
<path d="M610 1530 c-9 -6 -10 -10 -3 -10 6 0 15 5 18 10 8 12 4 12 -15 0z"/>
<path d="M1165 1369 c-9 -13 13 -30 35 -26 8 1 15 9 15 17 0 18 -40 26 -50 9z"/>
<path d="M1122 1313 c-13 -26 -4 -43 23 -43 13 0 25 6 28 13 6 17 -11 47 -28
47 -8 0 -18 -8 -23 -17z"/>
<path d="M1227 1324 c-10 -11 -9 -42 3 -49 20 -12 51 6 48 28 -3 22 -36 35
-51 21z"/>
<path d="M1317 1323 c-8 -14 12 -53 28 -53 18 0 20 31 3 48 -14 14 -25 15 -31
5z"/>
<path d="M1040 1305 c-7 -8 -9 -22 -6 -31 5 -13 9 -14 21 -4 16 13 21 50 6 50
-5 0 -14 -7 -21 -15z"/>
<path d="M1072 1238 c-26 -26 -4 -68 27 -48 15 8 11 52 -4 57 -6 2 -16 -2 -23
-9z"/>
<path d="M1167 1243 c-4 -3 -7 -17 -7 -30 0 -18 5 -23 25 -23 14 0 28 7 31 15
11 27 -30 58 -49 38z"/>
<path d="M1273 1243 c-7 -2 -13 -16 -13 -29 0 -19 5 -24 24 -24 28 0 42 26 25
46 -12 15 -16 16 -36 7z"/>
<path d="M1353 1234 c-8 -20 9 -49 28 -49 18 0 24 32 9 50 -16 20 -29 19 -37
-1z"/>
<path d="M997 1233 c-4 -3 -7 -17 -7 -30 0 -35 34 -26 38 10 3 26 -14 37 -31
20z"/>
<path d="M1270 1156 c-27 -33 18 -72 48 -42 13 13 14 20 6 34 -15 23 -38 26
-54 8z"/>
<path d="M1351 1151 c-13 -24 9 -57 33 -48 19 7 21 38 4 55 -17 17 -26 15 -37
-7z"/>
<path d="M1070 1145 c-17 -21 -5 -45 24 -45 26 0 41 31 23 49 -15 15 -32 14
-47 -4z"/>
<path d="M1000 1126 c0 -32 20 -44 36 -22 16 23 7 46 -17 46 -13 0 -19 -7 -19
-24z"/>
<path d="M1170 1126 c0 -29 28 -42 48 -22 20 20 8 46 -23 46 -20 0 -25 -5 -25
-24z"/>
<path d="M941 361 c13 -11 28 -17 32 -14 5 3 -4 11 -18 19 -37 19 -42 18 -14
-5z"/>
<path d="M1430 376 c0 -2 7 -7 16 -10 8 -3 12 -2 9 4 -6 10 -25 14 -25 6z"/>
<path d="M1425 349 c-4 -6 -4 -13 -1 -16 3 -4 6 -1 6 6 0 7 5 9 12 5 7 -4 8
-3 4 4 -9 15 -13 15 -21 1z"/>
<path d="M985 341 c-3 -5 -2 -12 3 -15 5 -3 9 1 9 9 0 17 -3 19 -12 6z"/>
</g>
</svg>
