<?xml version="1.0" standalone="yes"?>
<svg xmlns="http://www.w3.org/2000/svg" width="600" height="600">
<path style="fill:#171618; stroke:none;" d="M0 0L0 212L1 212L6 207L5 204L9 204L8 200L13 201L12 197L16 196C15.8384 191.474 21.1046 188.975 25 190L28 184L33 185L30 180L35 182L41 178L44 171L53 169L53 168L51 167C54.8981 165.218 56.6594 163.324 57 159L74 146L74 145L71 145L80 136L79 133L80 132L83 133L88 130L94 124L92 128L107 122C110.244 127.206 118.257 128.291 124 128L122 131L129 128L130 128L131 132L134 130L135 133L136 129L139 133C144.873 132.688 152.608 130.519 157 135L166 131C169.631 132.051 178.531 129.866 179 126L180 126L181 130L220 118L219 115L246 105L246 103L254 102L254 103L251 103L251 104L279.09 110.14L296 113L309 110L315 108C314.401 99.1844 312.756 89.5856 315.599 81C321.704 62.5628 343.72 47.8326 363 56.0594C368.991 58.6157 375.459 62.9219 379.53 68.0394C383.028 72.4368 384.558 80.0989 391 80C395.104 88.0074 404.278 87.4006 411.961 88.6999C415.236 89.2538 417.677 91.7579 421.015 92.3264C429.951 93.8485 439.859 92.3392 449 93L447 96L471 98L472 98L476 94L478 98L480 96L508 95L508 96L504 97L504 98L508 96L509 96L539 103L548 106L549 103L560 106L560 107L557 107L557 108L570 109L570 114L573 112L574 115L575 112L580 116L580 112L586 118L591 118L595 116L594 119L599 120L600 81L600 0L0 0z"/>
<path style="fill:#666366; stroke:none;" d="M46 0L46 1L49 1L46 0M50 0L50 1L54 1L50 0M219 8.46375C177.044 15.8799 181.796 81.519 226 74.561C239.825 72.3848 254.073 64.2583 258.351 50C265.536 26.0518 242.05 4.38934 219 8.46375z"/>
<path style="fill:#a6659c; stroke:none;" d="M218 13.4676C182.364 20.1908 192.972 77.7532 230 69.8796C268.222 61.752 254.245 6.62952 218 13.4676z"/>
<path style="fill:#c8bfc6; stroke:none;" d="M223.004 14.7693C191.392 16.1928 190.075 71.0203 224 69.402C236.558 68.8029 248.67 62.0405 251.468 49C254.879 33.0989 239.491 14.0269 223.004 14.7693z"/>
<path style="fill:#666366; stroke:none;" d="M315 108L309 110L308 107L296 113L280.439 110.113L251 104L251 103L254 103L254 102L246 103L246 105C237.262 103.554 226.682 111.345 219 115L220 118L181 130L180 126L179 126L179 129L166 131L157 135C153.899 130.216 144.059 132.13 139 133L136 129C136 131.498 134.465 133.602 134 130L131 132L130 128L129 128L122 131L124 128C117.91 127.878 111.278 126.546 107 122L92 128L94 124L88 130L83 133L80 132L79 133L80 136C76.4103 136.378 67.9632 144.268 74 145L74 146L57 159L53 168L53 169L44 171L41 178L38 177L35 182L30 180L33 185L28 184L25 190C20.43 188.99 16.5495 191.148 16 196L12 197L13 201L8 200L9 204L5 204L6 207C0.233273 208.625 0.026681 213.698 0.000771605 219C-0.052984 229.999 0 241 0 252L0 395L13.4645 379.004L27 366L19 371L18 370C20.3887 362.102 24.8381 354.841 31.4406 349.678C35.7694 346.294 39.3415 347.719 42 342L43 342L41 347L42 347L48 336L46 337L46 336L51 329C56.6336 326.373 67.8437 316.552 68 310L71 310L70 307L85 299L85 298L82 298L82 297L88 295L86 297L86 298C90.5389 295.226 91.4315 289.019 91 284L92 284L92 286L93 286L95 275L98 275L98 274L97 270L98 270L98 273L99 273L102 262L101 262L101 264L100 264L101 259L102 261L103 261L100 256L105 249L102 250L105 242L106 242L105 245L109 243L111 225L112 225L112 232L113 232L113 208L114 208L114 220L115 220L115 202C118.688 201.119 119.618 196.824 123.043 195.029C130.251 191.25 137.094 199.398 140 205L142 203L151 200.443L174 197.039L275 191L275 192L273 192L273 193L282 193L282 192L276 192L276 191L335 189.981L353 187C360.813 191.065 374.139 188 383 188L383 187L381 187L381 186L403 185L403 186L401 186L401 187L434 181L431 180L430 175L436 174L435 170L436 170L437 172L450 169C453.295 172.776 467.989 175.492 473 175L473 177L480 178L480 179L477 181L486 181L486 185L489 184L490 188L501 193L520 199C522.971 203.604 531.951 204.964 536.996 206.978C547.95 211.35 557.567 216.568 565 226L600 247L600 119L598 118L594 119L595 116L591 118L586 118L580 112L580 116C577.986 112.55 576.47 111.266 574 115L573 112L570 114L570 109L557 108L557 107L560 107L560 106L549 103L548 106L539 103C532.211 95.3938 517.484 100.187 509 96L508 96L504 98L504 97L508 96L508 95C499.637 94.1683 485.502 94.0502 478 98L476 94L472 98L471 98L447 96L449 93C439.833 91.8041 429.954 93.6935 421.015 92.0478C417.995 91.4919 415.847 89.1698 412.91 88.5038C404.377 86.5687 397.029 87.7886 391 80C384.604 78.4964 383.345 71.7543 379.53 67.0895C375.667 62.3647 369.587 58.4435 364 56.0594C344.629 47.7937 321.88 61.0319 315.599 80C312.719 88.6973 313.979 99.0785 315 108z"/>
<path style="fill:#a6659c; stroke:none;" d="M348 61.439C341.893 62.3929 335.753 63.9867 331.043 68.213C308.886 88.0972 326.475 126.667 356.039 122.221C395.726 116.254 386.22 55.4694 348 61.439z"/>
<path style="fill:#c8bfc6; stroke:none;" d="M361 64C351.891 64.1063 342.245 61.5521 334.174 67.8032C313.577 83.7552 321.58 112.914 345 120.096C362.313 125.405 383.455 109.746 380.79 91C378.785 76.8968 370.728 72.117 361 64z"/>
<path style="fill:#171618; stroke:none;" d="M413 90L414 91L413 90z"/>
<path style="fill:#666366; stroke:none;" d="M467 93L468 94L467 93M471 94L472 95L471 94M511 95L512 96L511 95z"/>
<path style="fill:#171618; stroke:none;" d="M456 98L457 99L456 98z"/>
<path style="fill:#666366; stroke:none;" d="M256 100L257 101L256 100M257 103L258 104L257 103z"/>
<path style="fill:#171618; stroke:none;" d="M255 106L256 107L255 106z"/>
<path style="fill:#666366; stroke:none;" d="M220 112L221 113L220 112z"/>
<path style="fill:#171618; stroke:none;" d="M567 112L568 113L567 112z"/>
<path style="fill:#666366; stroke:none;" d="M597 115L598 116L597 115z"/>
<path style="fill:#171618; stroke:none;" d="M590 119L591 120L590 119z"/>
<path style="fill:#666366; stroke:none;" d="M96 124L97 125L96 124M87 126L88 127L87 126M141.333 128.667L141.667 129.333L141.333 128.667M152 128L154 131L152 128z"/>
<path style="fill:#171618; stroke:none;" d="M129 133L130 134L129 133M82 134L83 135L82 134z"/>
<path style="fill:#a6659c; stroke:none;" d="M436 170L435 170L436 174L430 175L431 180L434 181L412 184L412 185C423.439 184.999 440.594 180.554 451 186L463 189.397L474.985 187.615L484 194L485 200L487 205L489 204L488 207L490 206L489 209C492.26 209 491.55 212.389 491 215L500 231L501 231L501 224L505 221L516 222L516 220L528 221L527 224C534.661 225.368 546.968 227.721 551 235L555 235L555 239L600 264L600 247L565 226C555.228 208.105 532.206 211.523 520 199L501 193C498.612 189.095 494.488 187.403 490 188L486 185L486 181L477 181L480 179L480 178L473 177L473 175L450 169C445.71 170.489 440.239 172.499 436 170z"/>
<path style="fill:#666366; stroke:none;" d="M454 172L455 173L454 172z"/>
<path style="fill:#a6659c; stroke:none;" d="M431 174L432 175L431 174M430 178L431 179L430 178M403 184L404 185L403 184M405 186L411 186C408.688 184.255 407.021 183.717 405 186z"/>
<path style="fill:#c8bfc6; stroke:none;" d="M410.667 184.333L411.333 184.667L410.667 184.333M422.667 184.333L423.333 184.667L422.667 184.333M427 184L428 185L427 184z"/>
<path style="fill:#666366; stroke:none;" d="M429 184L429 185L446 185L429 184z"/>
<path style="fill:#c8bfc6; stroke:none;" d="M449.667 184.333L450.333 184.667L449.667 184.333z"/>
<path style="fill:#a6659c; stroke:none;" d="M385 185L386 186L385 185M388 185L388 186L399 186L388 185M400 185L401 186L400 185z"/>
<path style="fill:#c8bfc6; stroke:none;" d="M401.667 185.333L402.333 185.667L401.667 185.333z"/>
<path style="fill:#666366; stroke:none;" d="M406 185L406 186L410 186L406 185M411 185L411 186L419 186L411 185z"/>
<path style="fill:#171618; stroke:none;" d="M140 205C137.241 196.886 125.548 188.666 118.97 198.059C111.886 208.174 113.439 227.026 111.066 239C109.742 245.679 105.821 251.651 103.425 258C98.93 269.909 95.1946 283.913 88.6975 294.867C85.5101 300.241 76.6724 301.878 72.3248 307.004C65.517 315.031 57.1012 322.443 51.0432 331C43.8734 341.128 38.8481 352.509 30.6998 362C21.0187 373.277 6.48699 382.009 0.584877 396.376C-1.50354 401.459 0 409.563 0 415L0 456L0 600L600 600C600 572.926 603.768 542.729 599.561 516C597.08 500.238 590.024 484.421 585.745 469C575.18 430.92 565.025 393.104 556 355L557 355L566 392C567.519 387.063 565.683 380.057 564.739 375C560.411 351.811 542.634 337.046 536.291 315C527.016 282.767 509.43 253.982 494.757 224C489.703 213.674 487.79 196.656 477.826 189.603C471.922 185.424 467.469 191.83 461.91 190.512C456.749 189.288 452.44 186.084 447 185.3C429.729 182.81 411.299 186.26 394 186.961C342.979 189.032 292.007 192.727 241 194.961C207.704 196.419 171.125 192.169 140 205z"/>
<path style="fill:#666366; stroke:none;" d="M448 185L448 186L451 186L448 185z"/>
<path style="fill:#c8bfc6; stroke:none;" d="M452 185L452 186L456 187L456 186L452 185z"/>
<path style="fill:#666366; stroke:none;" d="M20 186L21 187L20 186z"/>
<path style="fill:#a6659c; stroke:none;" d="M374 186L374 187L380 187L374 186M381 186L381 187L384 187L381 186z"/>
<path style="fill:#666366; stroke:none;" d="M452.667 186.333L453.333 186.667L452.667 186.333M479 186L480 187L479 186M486 186L487 187L486 186z"/>
<path style="fill:#a6659c; stroke:none;" d="M350 187L351 188L350 187M353 187L355 189L355 187L353 187M357 187L357 188L363 188L357 187M371 187L372 188L371 187z"/>
<path style="fill:#666366; stroke:none;" d="M455 187L455 188L458 189L455 187z"/>
<path style="fill:#c8bfc6; stroke:none;" d="M457 187L458 188L457 187z"/>
<path style="fill:#666366; stroke:none;" d="M469 187L469 188L477 188L469 187z"/>
<path style="fill:#a6659c; stroke:none;" d="M336 188L336 189L339 189L336 188M341 188L341 189L344 189L341 188z"/>
<path style="fill:#c8bfc6; stroke:none;" d="M458 188L458 189L464 191L464 190L458 188z"/>
<path style="fill:#666366; stroke:none;" d="M462 188L463 189L462 188M467.667 188.333L468.333 188.667L467.667 188.333M477 188L478 189L477 188z"/>
<path style="fill:#a6659c; stroke:none;" d="M312.667 189.333L313.333 189.667L312.667 189.333M315.667 189.333L316.333 189.667L315.667 189.333M318 189L318 190L322 190L318 189z"/>
<path style="fill:#666366; stroke:none;" d="M459 189L460 190L459 189M465.667 189.333L466.333 189.667L465.667 189.333M478 189L479 190L478 189M483 189L485 191L483 189z"/>
<path style="fill:#a6659c; stroke:none;" d="M299.667 190.333L300.333 190.667L299.667 190.333z"/>
<path style="fill:#666366; stroke:none;" d="M461 190L462 191L461 190M464 190L462 191L462 192L464 190M479 190L480 191L479 190M481 190L482 191L481 190z"/>
<path style="fill:#171618; stroke:none;" d="M24 191L25 192L24 191z"/>
<path style="fill:#a6659c; stroke:none;" d="M268 191L269 192L268 191M270 193L275 192L270 193M276 191L276 192L283 192L276 191M258 192L259 193L258 192M264 192L265 193L264 192z"/>
<path style="fill:#c8bfc6; stroke:none;" d="M271 192L272 193L271 192z"/>
<path style="fill:#666366; stroke:none;" d="M480 192L482 194L480 192z"/>
<path style="fill:#c8bfc6; stroke:none;" d="M481 192L482 193L481 192z"/>
<path style="fill:#666366; stroke:none;" d="M483 192L484 193L483 192z"/>
<path style="fill:#c8bfc6; stroke:none;" d="M220 193L221 194L220 193z"/>
<path style="fill:#a6659c; stroke:none;" d="M221 193L222 194L221 193z"/>
<path style="fill:#666366; stroke:none;" d="M271 193L272 194L271 193z"/>
<path style="fill:#a6659c; stroke:none;" d="M220 194L221 195L220 194z"/>
<path style="fill:#666366; stroke:none;" d="M482 194L483 195L482 194z"/>
<path style="fill:#c8bfc6; stroke:none;" d="M483 194L484 195L483 194z"/>
<path style="fill:#666366; stroke:none;" d="M483 196L484 197L483 196M484.333 197.667L484.667 198.333L484.333 197.667z"/>
<path style="fill:#c8bfc6; stroke:none;" d="M485 198L486 199L485 198z"/>
<path style="fill:#a6659c; stroke:none;" d="M138 199L139 200L138 199z"/>
<path style="fill:#666366; stroke:none;" d="M414 200L415 201L414 200z"/>
<path style="fill:#a6659c; stroke:none;" d="M415 200L420 211L420 201L415 200z"/>
<path style="fill:#666366; stroke:none;" d="M426 200L427 201L426 200z"/>
<path style="fill:#8d527b; stroke:none;" d="M427 200L428 201L427 200z"/>
<path style="fill:#666366; stroke:none;" d="M485 200L486 201L485 200z"/>
<path style="fill:#c8bfc6; stroke:none;" d="M486 200L487 204L488 204L486 200z"/>
<path style="fill:#666366; stroke:none;" d="M401 201L402 202L401 201z"/>
<path style="fill:#8d527b; stroke:none;" d="M402 201L402 202L405 202L402 201z"/>
<path style="fill:#a6659c; stroke:none;" d="M405 201L399 202L399 203L402 203L398 213L401 210L403 211L403 207L405 201z"/>
<path style="fill:#c8bfc6; stroke:none;" d="M406 201L403 211L401 210C398.786 213.537 398.039 215.176 400 219C390.768 221.59 385.528 234.246 375 229L377 224L376 224L374 231L373 231C372.861 226.828 372.253 224.928 368 224L368 223L374 224L374 210L373 210L370 219L369 219L368 211L367 211L367 217L366 217L366 206L365 206L364 210L363 210L362 207L361 207L361 213L360 213L360 208L350 210L350 207L344 207L355 205L355 204L284 206L284 207L326 206L326 219L322 219L322 215L317 218L316 209L314 209L313 212L312 209L298 212L288 210C286.784 214.269 287.291 216.472 291 219L278 221L277 208L283 208L283 207L270 207L271 210L265 213C259.704 212.218 257.718 216.531 256 221L253 220L250 221L252 225L249 222L248 222L240.299 234.459L236 250L235 250L235 241L234 241L232 252C225.192 252.598 218.952 255.687 212 255.871C209.43 255.939 204.953 254.347 203.043 256.757C201.419 258.806 202.774 262.459 205.139 263.268C209.534 264.771 222.894 263.545 228 263L228 269L223 268L223 274C227.213 272.796 229.796 270.526 229 266L230 265L239 265L238 272L239 272L239 269L240 269L243 273L242 270L242 269C245.576 266.463 244.487 262.943 244 259L246 262L247 262L253 259L251 262L251 263L253 265L256 263L248 273L259 278L257 269L258 268L263 274C266.479 272.383 267.921 273.451 269 277L270 277C272.401 270.543 281.133 260.082 286.972 270.188C288.983 273.668 288.685 280.014 289 284L317 284L320.343 276.889L329 272L334 279L335 279C335.236 267.965 347.824 260.904 350 275L355 274L351 281L352 281L358 272L363 275C360.357 263.33 373.951 265.955 381 261L384 264L384 263L383 260L379 259L379 258L386 263L387 263L388 259L396 263L396 260L405 258L405 254L406 254L407 259C383.176 272.551 422.094 298.02 425.785 273.999C426.301 270.645 425.61 267.286 425 264L426 264L432 270L429 216L428 216C425.779 223.297 418.773 230.069 412 223C417.849 222.808 419.289 220.676 418 215L422 217L422 201L420 201L420 211L416 201L412 202C412.078 204.967 410.61 206.589 414 207L414 208L407 209L406 201z"/>
<path style="fill:#8d527b; stroke:none;" d="M407 201L408 205L409 205L410 201L407 201z"/>
<path style="fill:#a6659c; stroke:none;" d="M410 201L409 205L408 205L408 202L407 202L407 209L414 208L414 207L411 207L412 201L410 201z"/>
<path style="fill:#8d527b; stroke:none;" d="M412 201L413 202L412 201z"/>
<path style="fill:#a6659c; stroke:none;" d="M413 201L414 202L413 201z"/>
<path style="fill:#8d527b; stroke:none;" d="M417 201L418 202L417 201M422 201L423 213C425.1 208.504 428.916 202.157 422 201z"/>
<path style="fill:#a6659c; stroke:none;" d="M426 201L424 213L423 213L423 207L422 207L422 217L418 215L418 216L418 217L420 216L420 217C418.099 221.088 416.58 222.651 412 223C420.184 237.165 437.075 209.085 426 201M115.333 202.667L115.667 203.333L115.333 202.667z"/>
<path style="fill:#8d527b; stroke:none;" d="M371 203L368 205L375 212L376 212L375 208L382 214L391 209C391.689 212.197 393.054 211.746 396 211L394 213L396 217C397.166 215.296 397.604 214.044 398.001 211.981C401.166 195.535 382.12 203.552 371 203z"/>
<path style="fill:#c8bfc6; stroke:none;" d="M410.333 202.667L410.667 203.333L410.333 202.667z"/>
<path style="fill:#a6659c; stroke:none;" d="M422.333 202.667L422.667 203.333L422.333 202.667z"/>
<path style="fill:#666366; stroke:none;" d="M428 202L429 203L428 202M486.333 202.667L486.667 203.333L486.333 202.667z"/>
<path style="fill:#c8bfc6; stroke:none;" d="M141 203L142 204L141 203z"/>
<path style="fill:#666366; stroke:none;" d="M346 203L346 204L356 204L346 203z"/>
<path style="fill:#8d527b; stroke:none;" d="M356 203L357 204L356 203z"/>
<path style="fill:#a6659c; stroke:none;" d="M344 207L350 207L350 210L360 208L360 213L361 213L361 207L362 207L363 210L364 210L363 206L366 206L366 217L367 217L367 211L368 211L369 219L370 219L374 209L368 205L371 205L371 203C363.178 203 350.589 202.501 344 207z"/>
<path style="fill:#8d527b; stroke:none;" d="M358.667 203.333L359.333 203.667L358.667 203.333z"/>
<path style="fill:#a6659c; stroke:none;" d="M372.667 203.333L373.333 203.667L372.667 203.333z"/>
<path style="fill:#c8bfc6; stroke:none;" d="M400 203L400 205L402 205L402 203L400 203z"/>
<path style="fill:#8d527b; stroke:none;" d="M419.333 203.667L419.667 204.333L419.333 203.667M428 203L428 210L429 210L428 203z"/>
<path style="fill:#a6659c; stroke:none;" d="M141 204L142 205L141 204z"/>
<path style="fill:#666366; stroke:none;" d="M313 204L313 205L324 205L313 204z"/>
<path style="fill:#a6659c; stroke:none;" d="M324 204L324 205L341 205L324 204z"/>
<path style="fill:#8d527b; stroke:none;" d="M403 204L404 205L403 204z"/>
<path style="fill:#c8bfc6; stroke:none;" d="M417 204L418 205L417 204M488.333 204.667L488.667 205.333L488.333 204.667z"/>
<path style="fill:#a6659c; stroke:none;" d="M114 205L114 208L115 208L114 205z"/>
<path style="fill:#666366; stroke:none;" d="M290 205L290 206L294 206L290 205z"/>
<path style="fill:#8d527b; stroke:none;" d="M294 205L294 206L297 206L294 205z"/>
<path style="fill:#a6659c; stroke:none;" d="M297 205L297 206L302 206L297 205z"/>
<path style="fill:#8d527b; stroke:none;" d="M366 205L367 206L366 205z"/>
<path style="fill:#666366; stroke:none;" d="M487 205L488 206L487 205M271.667 206.333L272.333 206.667L271.667 206.333z"/>
<path style="fill:#8d527b; stroke:none;" d="M273 206L273 207L278 207L273 206z"/>
<path style="fill:#a6659c; stroke:none;" d="M278.667 206.333L279.333 206.667L278.667 206.333M281 206L281 207L302.004 210.509L312 212L313 212L314 209L316 209L317 218L322 215L322 219L326 219C325.999 214.328 323.169 199.796 316 208L281 206z"/>
<path style="fill:#8d527b; stroke:none;" d="M323 206L326 209L323 206z"/>
<path style="fill:#a6659c; stroke:none;" d="M337 206L338 207L337 206M340 206L340 207L343 207L340 206z"/>
<path style="fill:#8d527b; stroke:none;" d="M363.333 206.667L363.667 207.333L363.333 206.667M416.333 206.667L416.667 207.333L416.333 206.667z"/>
<path style="fill:#c8bfc6; stroke:none;" d="M489.333 206.667L489.667 207.333L489.333 206.667z"/>
<path style="fill:#8d527b; stroke:none;" d="M248 207C239.788 209.433 227.616 206.239 224 216L235 223L235 224L231 224L234 232L233 228C236.526 227.436 237.836 226.642 238 223L246 214L246 218L247 218L247 211L251 214L248 207M253 207L253 208L260 208L253 207z"/>
<path style="fill:#a6659c; stroke:none;" d="M248 208L250 210L250 220L246 214L238 223C237.619 226.408 236.252 227.187 233 228L234 232L231 233L229 246L228 246L228 244L227 244C226.568 249.899 223.595 252.556 218 254L218 255L232 252L234 241L235 241L235 250L236 250L240.43 235.26L248 222L249 222L252 225L250 221L253 220L256 221C258.25 216.955 260.044 213.221 265 213L271 210L270 207L268 209L248 208z"/>
<path style="fill:#c8bfc6; stroke:none;" d="M267 207L267 209L269 209L269 207L267 207z"/>
<path style="fill:#8d527b; stroke:none;" d="M315 207L316 208L315 207M321 207L322 208L321 207z"/>
<path style="fill:#c8bfc6; stroke:none;" d="M401.333 207.667L401.667 208.333L401.333 207.667z"/>
<path style="fill:#8d527b; stroke:none;" d="M403 207L404 208L403 207z"/>
<path style="fill:#c8bfc6; stroke:none;" d="M418 207L419 208L418 207z"/>
<path style="fill:#666366; stroke:none;" d="M488 207L489 208L488 207z"/>
<path style="fill:#a6659c; stroke:none;" d="M113 208L113 213L114 213L113 208M277 208L277 212L278 212L277 208z"/>
<path style="fill:#8d527b; stroke:none;" d="M278 208L278 216L279 216L279 210L284 212L283 209L286 209L285 215L286 215C287.764 209.542 293.153 210.585 298 211C293.334 206.095 284.274 208 278 208M299 208L300 209L299 208M302 208L302 209L305 209L302 208z"/>
<path style="fill:#c8bfc6; stroke:none;" d="M368.333 208.667L368.667 209.333L368.333 208.667z"/>
<path style="fill:#a6659c; stroke:none;" d="M375 208L376 212L375 212L375 210L374 210L374 224L368 223L368 224C371.768 225.384 372.695 227.044 373 231L374 231L376 224L377 224L375 229C384.302 235.473 392.044 222.704 400 219L398 215L397 217L396 217L396 211L391 209L382 214L375 208z"/>
<path style="fill:#c8bfc6; stroke:none;" d="M490 208L491 214L492 214L490 208z"/>
<path style="fill:#666366; stroke:none;" d="M206 209L209 213L206 209z"/>
<path style="fill:#a6659c; stroke:none;" d="M283 209L284 212L279 210L278 221L291 219L287 211L286 211L285 216L283 216L282 213L286 209L283 209z"/>
<path style="fill:#c8bfc6; stroke:none;" d="M370 209L371 210L370 209z"/>
<path style="fill:#666366; stroke:none;" d="M489.333 209.667L489.667 210.333L489.333 209.667z"/>
<path style="fill:#8d527b; stroke:none;" d="M251.333 210.667L251.667 211.333L251.333 210.667z"/>
<path style="fill:#a6659c; stroke:none;" d="M294 210L295 211L294 210z"/>
<path style="fill:#8d527b; stroke:none;" d="M313 210L314 211L313 210z"/>
<path style="fill:#171618; stroke:none;" d="M2 211L3 212L2 211z"/>
<path style="fill:#a6659c; stroke:none;" d="M247 211L247 216L248 216L247 211M297 211L298 212L297 211M352.333 211.667L352.667 212.333L352.333 211.667M356 211L357 212L356 211M415 211L414 216L415 216L415 211M209.333 212.667L209.667 213.333L209.333 212.667M490 212L491 213L490 212z"/>
<path style="fill:#c8bfc6; stroke:none;" d="M113.333 213.667L113.667 214.333L113.333 213.667z"/>
<path style="fill:#666366; stroke:none;" d="M210.333 213.667L210.667 214.333L210.333 213.667z"/>
<path style="fill:#c8bfc6; stroke:none;" d="M248 213L250 220L250 213L248 213M282 213L285 216L282 213z"/>
<path style="fill:#8d527b; stroke:none;" d="M289 213L290 214L289 213M293 213L294 214L293 213z"/>
<path style="fill:#a6659c; stroke:none;" d="M296 213L297 214L296 213M299 213L300 214L299 213M304 213L305 214L304 213z"/>
<path style="fill:#8d527b; stroke:none;" d="M389.667 213.333L390.333 213.667L389.667 213.333z"/>
<path style="fill:#666366; stroke:none;" d="M490 213L491 214L490 213z"/>
<path style="fill:#a6659c; stroke:none;" d="M211 214L212 215L211 214M289 214L290 215L289 214M293 214L294 215L293 214M371.333 214.667L371.667 215.333L371.333 214.667z"/>
<path style="fill:#8d527b; stroke:none;" d="M377 214L378 215L377 214z"/>
<path style="fill:#c8bfc6; stroke:none;" d="M492 214C494.466 230.697 507.251 247.985 514.753 263C525.489 284.489 531.399 307.539 541.489 329C545.932 338.449 554.056 345.53 558.511 355C566.62 372.239 566.853 391.633 570.818 410C574.831 428.592 582.158 446.435 586 465L587 465C586.722 458.911 581.597 447.839 585.032 442.299C588.353 436.941 598.666 438.012 599.852 430.945C601.967 418.348 600 403.782 600 391L600 309L600 278C600 273.961 601.112 267.835 598.973 264.224C597.177 261.192 592.674 259.131 589.925 256.986C581.139 250.131 565.96 241.174 555 239L555 235L551 235C548.428 227.284 534.272 224.492 527 224L528 221L516 220L516 222L505 221L501 224L501 231L500 231L492 214z"/>
<path style="fill:#a6659c; stroke:none;" d="M113 215L112 225L113 225L113 215z"/>
<path style="fill:#c8bfc6; stroke:none;" d="M211 215L213 217L213 215L211 215z"/>
<path style="fill:#8d527b; stroke:none;" d="M415.333 215.667L415.667 216.333L415.333 215.667M423 215L424 216L423 215z"/>
<path style="fill:#666366; stroke:none;" d="M491 215L492 216L491 215z"/>
<path style="fill:#a6659c; stroke:none;" d="M213 216L214 217L213 216z"/>
<path style="fill:#666366; stroke:none;" d="M219 225L214 229L213 229L213 226L212 226L210 229L210 230L208 234L207 239L219 233.333L230 233L220 221L220 220L231 230L231 224L235 224L235 223L226 216C221.494 217.752 218.57 219.906 219 225z"/>
<path style="fill:#a6659c; stroke:none;" d="M291 216C293.188 219.694 295.797 219.656 299 217L295 216L291 216M302 216L303 217L302 216M306 216L307 217L306 216M313.667 216.333L314.333 216.667L313.667 216.333z"/>
<path style="fill:#8d527b; stroke:none;" d="M419.333 216.667L419.667 217.333L419.333 216.667z"/>
<path style="fill:#666366; stroke:none;" d="M212.667 217.333L213.333 217.667L212.667 217.333z"/>
<path style="fill:#c8bfc6; stroke:none;" d="M285 217L284 219L286 219L285 217z"/>
<path style="fill:#a6659c; stroke:none;" d="M415 217L415 221L416 221L417 217L415 217M492 217L493 218L492 217z"/>
<path style="fill:#666366; stroke:none;" d="M492.333 218.667L492.667 219.333L492.333 218.667M179 219L180 220L179 219z"/>
<path style="fill:#a6659c; stroke:none;" d="M180 219L179 221L180 219z"/>
<path style="fill:#666366; stroke:none;" d="M183 219L183 220L187 221L183 219M188.667 219.333L189.333 219.667L188.667 219.333z"/>
<path style="fill:#a6659c; stroke:none;" d="M408 219L409 220L408 219M411 219L413 221L411 219z"/>
<path style="fill:#c8bfc6; stroke:none;" d="M180 220L180 222L182 222L182 220L180 220z"/>
<path style="fill:#666366; stroke:none;" d="M192.667 220.333L193.333 220.667L192.667 220.333z"/>
<path style="fill:#171618; stroke:none;" d="M220 220L220 221L226 225L220 220z"/>
<path style="fill:#8d527b; stroke:none;" d="M408 220L409 221L408 220M411 220L412 221L411 220z"/>
<path style="fill:#a6659c; stroke:none;" d="M493 220L494 221L493 220z"/>
<path style="fill:#c8bfc6; stroke:none;" d="M500 220L501 221L500 220z"/>
<path style="fill:#666366; stroke:none;" d="M113.333 221.667L113.667 222.333L113.333 221.667M179 221L180 222L179 221z"/>
<path style="fill:#171618; stroke:none;" d="M219 221L226 229L219 221z"/>
<path style="fill:#666366; stroke:none;" d="M429 221L429 224L430 224L429 221M493 221L494 222L493 221z"/>
<path style="fill:#c8bfc6; stroke:none;" d="M497 221L499 225L497 221z"/>
<path style="fill:#666366; stroke:none;" d="M180.667 222.333L181.333 222.667L180.667 222.333M183 222L185 225L183 222M187.667 222.333L188.333 222.667L187.667 222.333z"/>
<path style="fill:#c8bfc6; stroke:none;" d="M221 222L229 229L221 222z"/>
<path style="fill:#a6659c; stroke:none;" d="M222 222L223 223L222 222M253 222L254 223L253 222z"/>
<path style="fill:#c8bfc6; stroke:none;" d="M185 223L185 225L191 225L185 223z"/>
<path style="fill:#666366; stroke:none;" d="M190 223L191 225L187 225L187 226L196 226L190 223M202 223L202 226L204 226L204 223L202 223M217 223L218 224L217 223z"/>
<path style="fill:#a6659c; stroke:none;" d="M223 223L224 224L223 223M404 223L407 225L407 224L404 223z"/>
<path style="fill:#c8bfc6; stroke:none;" d="M419 223L418 225L420 225L419 223z"/>
<path style="fill:#666366; stroke:none;" d="M494 223L495 224L494 223z"/>
<path style="fill:#c8bfc6; stroke:none;" d="M203 224L204 225L203 224z"/>
<path style="fill:#a6659c; stroke:none;" d="M408.667 224.333L409.333 224.667L408.667 224.333z"/>
<path style="fill:#8d527b; stroke:none;" d="M429 224L429 227L430 227L429 224z"/>
<path style="fill:#a6659c; stroke:none;" d="M111 225L108 242C111.999 238.099 113.169 230.17 111 225z"/>
<path style="fill:#171618; stroke:none;" d="M227 225L228 226L227 225z"/>
<path style="fill:#a6659c; stroke:none;" d="M235.333 225.667L235.667 226.333L235.333 225.667z"/>
<path style="fill:#c8bfc6; stroke:none;" d="M245.333 225.667L245.667 226.333L245.333 225.667z"/>
<path style="fill:#a6659c; stroke:none;" d="M402 225L403 226L402 225z"/>
<path style="fill:#666366; stroke:none;" d="M465 225C465 240.16 463.699 259.449 468 274L469 274C465.436 259.031 472.349 238.823 465 225M495 225L496 226L495 225z"/>
<path style="fill:#c8bfc6; stroke:none;" d="M500 225L501 226L500 225M538 225L539 226L538 225z"/>
<path style="fill:#a6659c; stroke:none;" d="M250 227L251 228L250 227M429 227L429 230L430 230L429 227z"/>
<path style="fill:#666366; stroke:none;" d="M496 227L497 228L496 227z"/>
<path style="fill:#a6659c; stroke:none;" d="M228 229L230 231L230 229L228 229z"/>
<path style="fill:#666366; stroke:none;" d="M497 229L498 230L497 229z"/>
<path style="fill:#c8bfc6; stroke:none;" d="M230 230L230 232L232 232L230 230z"/>
<path style="fill:#a6659c; stroke:none;" d="M231 230L232 231L231 230z"/>
<path style="fill:#8d527b; stroke:none;" d="M225.667 231.333L226.333 231.667L225.667 231.333z"/>
<path style="fill:#666366; stroke:none;" d="M498 231L499 232L498 231z"/>
<path style="fill:#8d527b; stroke:none;" d="M206 251L203 250C198.556 256.534 196.484 269.308 205 274L213 271L211 268L215 268L214 264L217 265L214 269L219 274L218 270L221 272L227 268C224.835 264.568 209.888 259.67 209 265L204 265C197.814 247.12 226.402 262.661 227 244L228 244L228 246L229 246L232 233C217.45 229.27 209.074 238.095 206 251z"/>
<path style="fill:#a6659c; stroke:none;" d="M499 232L500 233L499 232M501 232L502 233L501 232z"/>
<path style="fill:#666366; stroke:none;" d="M111 234L111 237L112 237L111 234M500 234L501 235L500 234z"/>
<path style="fill:#8d527b; stroke:none;" d="M430 236L430 240L431 240L430 236z"/>
<path style="fill:#666366; stroke:none;" d="M501 236L502 237L501 236z"/>
<path style="fill:#a6659c; stroke:none;" d="M504.333 236.667L504.667 237.333L504.333 236.667z"/>
<path style="fill:#666366; stroke:none;" d="M502 238L503 239L502 238M213 239L212 241L213 239z"/>
<path style="fill:#a6659c; stroke:none;" d="M505 239L505 241L507 241L505 239M106 240L107 241L106 240z"/>
<path style="fill:#666366; stroke:none;" d="M110 240L110 243L111 243L110 240z"/>
<path style="fill:#8d527b; stroke:none;" d="M235 240L236 241L235 240z"/>
<path style="fill:#a6659c; stroke:none;" d="M430.333 240.667L430.667 241.333L430.333 240.667z"/>
<path style="fill:#666366; stroke:none;" d="M503 240L504 241L503 240z"/>
<path style="fill:#a6659c; stroke:none;" d="M99 241L100 242L99 241z"/>
<path style="fill:#c8bfc6; stroke:none;" d="M109 241L108 245L109 245L109 241z"/>
<path style="fill:#a6659c; stroke:none;" d="M101 242L100 245L101 242M105 242L102 250L107 250L109 245L105 245L105 242z"/>
<path style="fill:#666366; stroke:none;" d="M206.333 242.667L206.667 243.333L206.333 242.667M504 242L505 243L504 242z"/>
<path style="fill:#a6659c; stroke:none;" d="M507.333 242.667L507.667 243.333L507.333 242.667M108 243L109 244L108 243z"/>
<path style="fill:#666366; stroke:none;" d="M109 244L110 245L109 244z"/>
<path style="fill:#a6659c; stroke:none;" d="M239 244L240 247L241 247L241 244L239 244M244 244L245 245L244 244z"/>
<path style="fill:#666366; stroke:none;" d="M505 244L506 245L505 244M105 246L106 247L105 246z"/>
<path style="fill:#c8bfc6; stroke:none;" d="M107.333 246.667L107.667 247.333L107.333 246.667z"/>
<path style="fill:#666366; stroke:none;" d="M108 246L109 247L108 246M506 246L507 247L506 246M107 248L108 249L107 248z"/>
<path style="fill:#a6659c; stroke:none;" d="M237.667 248.333L238.333 248.667L237.667 248.333M508 249L509 250L508 249M510 249L511 250L510 249z"/>
<path style="fill:#c8bfc6; stroke:none;" d="M105 250L104 254L105 254L105 250z"/>
<path style="fill:#666366; stroke:none;" d="M106 250L107 251L106 250z"/>
<path style="fill:#8d527b; stroke:none;" d="M431 250L431 260L432 260L431 250z"/>
<path style="fill:#666366; stroke:none;" d="M464.333 250.667L464.667 251.333L464.333 250.667z"/>
<path style="fill:#a6659c; stroke:none;" d="M104 251L105 252L104 251M400.333 251.667L400.667 252.333L400.333 251.667z"/>
<path style="fill:#666366; stroke:none;" d="M509.333 251.667L509.667 252.333L509.333 251.667z"/>
<path style="fill:#a6659c; stroke:none;" d="M103 252L100 256L103 259L103 252z"/>
<path style="fill:#666366; stroke:none;" d="M105 252L106 253L105 252z"/>
<path style="fill:#a6659c; stroke:none;" d="M397 253L398 254L397 253z"/>
<path style="fill:#666366; stroke:none;" d="M104.333 254.667L104.667 255.333L104.333 254.667z"/>
<path style="fill:#a6659c; stroke:none;" d="M405 254L406 255L405 254z"/>
<path style="fill:#666366; stroke:none;" d="M464.333 254.667L464.667 255.333L464.333 254.667M510 254L511 255L510 254z"/>
<path style="fill:#a6659c; stroke:none;" d="M202.667 255.333L203.333 255.667L202.667 255.333M207.667 255.333L208.333 255.667L207.667 255.333M213 255L213 256L216 256L213 255z"/>
<path style="fill:#8d527b; stroke:none;" d="M405 255L406 256L405 255z"/>
<path style="fill:#a6659c; stroke:none;" d="M378 256L379 257L378 256M405 256L396 260L396 263L388 259L387 263L386 263C385.236 259.234 382.64 258.488 379 258L379 259L383 260L384 263L384 264L381 261C373.486 264.932 359.687 263.665 363 275L361 274L364 278C370.789 267.893 380.827 260.185 389 273L385 269L384 269L384 275L395 273L393 270L399 271L401 266L405 256z"/>
<path style="fill:#666366; stroke:none;" d="M511 256L512 257L511 256M103 257L104 258L103 257z"/>
<path style="fill:#a6659c; stroke:none;" d="M201 257L201 260L202 260L201 257M384 258L385 259L384 258z"/>
<path style="fill:#666366; stroke:none;" d="M512 258L513 259L512 258z"/>
<path style="fill:#a6659c; stroke:none;" d="M101 259L100 264L101 264L101 259M244 259L244 263L247 263L244 259M250 259L250 260L251 262L252 262L253 259L250 259z"/>
<path style="fill:#8d527b; stroke:none;" d="M402 259L403 260L402 259M244 260L245 261L244 260z"/>
<path style="fill:#a6659c; stroke:none;" d="M247 260L248 261L247 260z"/>
<path style="fill:#8d527b; stroke:none;" d="M248 260L247 262L248 260z"/>
<path style="fill:#171618; stroke:none;" d="M247 263L250 264L252 260L247 263z"/>
<path style="fill:#a6659c; stroke:none;" d="M257 260L258 261L257 260M378 260L379 261L378 260M431 260L432 261L431 260M513 260L514 261L513 260M202 261L203 262L202 261z"/>
<path style="fill:#171618; stroke:none;" d="M257 261L258 262L257 261z"/>
<path style="fill:#8d527b; stroke:none;" d="M401 261L400 265L401 265L403 261L401 261M431 261L432 262L431 261z"/>
<path style="fill:#a6659c; stroke:none;" d="M208 262L208 263L217 263L208 262z"/>
<path style="fill:#8d527b; stroke:none;" d="M245 262L246 263L245 262M250 262L247 263L247 268L248 268L249 265L250 268L256 265L256 264L251 266L250 262M257 262L258 263L257 262z"/>
<path style="fill:#a6659c; stroke:none;" d="M258 262L257 265L258 262M402 262L403 263L402 262M431 262L431 268L432 268L431 262M218 263L218 264C221.535 264.7 225.398 264.938 226 269L228 263L218 263M251 263L252 264L251 263M254.667 263.333L255.333 263.667L254.667 263.333M408 263L414 265L414 264L408 263z"/>
<path style="fill:#666366; stroke:none;" d="M440 263L440 268L441 268L440 263M465 263L464 272L463 272L463 270L462 270L465 272L466 295L467 295C468.582 286.892 468.093 270.566 465 263z"/>
<path style="fill:#a6659c; stroke:none;" d="M99 264L99 267L100 267L99 264z"/>
<path style="fill:#666366; stroke:none;" d="M177 264L178 265L177 264z"/>
<path style="fill:#a6659c; stroke:none;" d="M204 264L205 265L204 264M207.667 264.333L208.333 264.667L207.667 264.333M210 264L212 266L212 264L210 264M214 264L215 268L211 268L214 271L216 270L216 264L214 264M252 264L253 265L252 264z"/>
<path style="fill:#8d527b; stroke:none;" d="M258 264L259 265L258 264z"/>
<path style="fill:#a6659c; stroke:none;" d="M406 264L404 268L406 264z"/>
<path style="fill:#8d527b; stroke:none;" d="M407 264L408 265L407 264M414 264L413 266L415 266L414 264z"/>
<path style="fill:#a6659c; stroke:none;" d="M415 264L418 266L415 264M425 264L425 267L426 267L425 264M439 264L440 265L439 264z"/>
<path style="fill:#666366; stroke:none;" d="M515 264L516 265L515 264z"/>
<path style="fill:#c8bfc6; stroke:none;" d="M177 265L177 266L188 273L188 272L177 265z"/>
<path style="fill:#666366; stroke:none;" d="M179 265L180 266L179 265z"/>
<path style="fill:#a6659c; stroke:none;" d="M230 265L229 266L230 270L231 270L239 269L239 265L230 265z"/>
<path style="fill:#666366; stroke:none;" d="M248 265L248 267L250 267L248 265z"/>
<path style="fill:#171618; stroke:none;" d="M251.667 265.333L252.333 265.667L251.667 265.333z"/>
<path style="fill:#a6659c; stroke:none;" d="M254 265L255 266L254 265M277 268L273 270L275 268L281 276L286 278C289.219 271.301 282.211 260.202 277 268M341 266L341 267L345 266L341 266z"/>
<path style="fill:#8d527b; stroke:none;" d="M367 281L366 282L363 281C363.388 276.919 361.897 275.157 358 274L362 280L358 280L360 282L360 283L358 286L362 283L363 284L361 287L372 286L375 284L373 282L373 281L378 282L376 278L379 277L379 282L380 282L380 277C385.333 279.263 390.936 278.194 394 273L384 275L384 265C375.929 265.167 362.511 271.208 367 281z"/>
<path style="fill:#c8bfc6; stroke:none;" d="M406 266L408 277C417.877 276.944 418.402 275.39 418 266L406 266z"/>
<path style="fill:#8d527b; stroke:none;" d="M418 265L418 267L420 265L418 265z"/>
<path style="fill:#666366; stroke:none;" d="M420 265L421 266L420 265z"/>
<path style="fill:#8d527b; stroke:none;" d="M425 265L426 266L425 265z"/>
<path style="fill:#c8bfc6; stroke:none;" d="M438 265L438 268L440 268L440 265L438 265z"/>
<path style="fill:#a6659c; stroke:none;" d="M178 266L179 267L178 266z"/>
<path style="fill:#666366; stroke:none;" d="M180 266L181 267L180 266z"/>
<path style="fill:#8d527b; stroke:none;" d="M278 266L279 267L278 266z"/>
<path style="fill:#a6659c; stroke:none;" d="M336 266L337 267L336 266z"/>
<path style="fill:#8d527b; stroke:none;" d="M340 269L344 268L337 269L336 281C333.357 280.169 331.148 278.646 333 276L327 276L329 280L325 279L320 284L320 281L319 281L322 286L323 292L333 294L332 290L335 295L340 295L340 292L337 293C341.331 287.929 342.827 282.486 341 276L346 272L347 268C343.994 266.809 342.108 266.331 340 269z"/>
<path style="fill:#666366; stroke:none;" d="M344.667 266.333L345.333 266.667L344.667 266.333z"/>
<path style="fill:#c8bfc6; stroke:none;" d="M384 266L389 273L384 266z"/>
<path style="fill:#8d527b; stroke:none;" d="M399 266L398 270L399 266z"/>
<path style="fill:#171618; stroke:none;" d="M419 266L419 277C411.96 277.014 407.269 277.283 407 269L404 269C404.838 285.115 425.561 281.464 421 266L419 266z"/>
<path style="fill:#a6659c; stroke:none;" d="M421 266L422 267L421 266z"/>
<path style="fill:#666366; stroke:none;" d="M516 266L517 267L516 266M179 267L180 268L179 267z"/>
<path style="fill:#a6659c; stroke:none;" d="M181 267L182 268L181 267M224.667 267.333L225.333 267.667L224.667 267.333M244 267L242 269L242 270L244 267z"/>
<path style="fill:#8d527b; stroke:none;" d="M276 267L277 268L276 267z"/>
<path style="fill:#a6659c; stroke:none;" d="M337 268L337 269L344 268L340 267L337 268z"/>
<path style="fill:#666366; stroke:none;" d="M346 267L347 268L346 267z"/>
<path style="fill:#a6659c; stroke:none;" d="M418 267L418 272L419 272L418 267M428 267L429 268L428 267z"/>
<path style="fill:#666366; stroke:none;" d="M180 268L181 269L180 268M183 268L184 269L183 268z"/>
<path style="fill:#a6659c; stroke:none;" d="M208 268L208 270L210 270L208 268z"/>
<path style="fill:#8d527b; stroke:none;" d="M231 268L234 273L235 272L232 270L232 269L236 269L231 268z"/>
<path style="fill:#171618; stroke:none;" d="M236 268L232 269L232 270L237 276L238 276L236 268z"/>
<path style="fill:#a6659c; stroke:none;" d="M258 268L258 269L261 270L258 268z"/>
<path style="fill:#8d527b; stroke:none;" d="M275 268L272 277L267 281L263 280L264 277L262 279L261 279L262 270L257 269L260 277L256 278L260 286L258 285L258 286L262 287L261 284L263 285L263 281L270 281L270 280L268 279C270.391 278.359 279.846 274.106 278 279L280 285L275 289C282.661 291.293 282.169 302.19 286.84 307.848C289.619 311.216 293.307 309.843 297 311L299 309L296 304L300 303L301 310L302 310L314 306L312 301L317 302L318 302L329 295C323.92 293.408 319.023 292.75 318 299L313 298L315 295L312 294L312 293C316.44 293.491 322.305 290.292 317.343 285.603C315 283.39 310.943 284.001 308 284C296.291 283.995 292.034 286.829 292 299L290 299L293 286L293 285C288.541 282.751 288.056 279.751 288 275L287 275L286 278L281 276L275 268z"/>
<path style="fill:#171618; stroke:none;" d="M347 268L348 269L347 268z"/>
<path style="fill:#a6659c; stroke:none;" d="M359 268L360 269L359 268z"/>
<path style="fill:#8d527b; stroke:none;" d="M396 268L397 269L396 268M404 268L404 269L407 269L404 268z"/>
<path style="fill:#a6659c; stroke:none;" d="M422 268L423 269L422 268z"/>
<path style="fill:#8d527b; stroke:none;" d="M426 268L427 269L426 268M429 268L430 269L429 268z"/>
<path style="fill:#666366; stroke:none;" d="M438 268L440 271L438 268z"/>
<path style="fill:#a6659c; stroke:none;" d="M439 268L440 269L439 268M517 268L518 269L517 268M98 269L99 270L98 269M204 269L204 271L206 269L204 269M222 269L223 270L222 269z"/>
<path style="fill:#8d527b; stroke:none;" d="M237.333 269.667L237.667 270.333L237.333 269.667z"/>
<path style="fill:#a6659c; stroke:none;" d="M239 269L238 274L240 272L241 272L244 273L244 272L239 269z"/>
<path style="fill:#8d527b; stroke:none;" d="M244 269L244 272L245 272L244 269z"/>
<path style="fill:#a6659c; stroke:none;" d="M249 269L250 270L249 269M252 270L252 271L255 271L255 270L252 270M336 269L337 270L336 269z"/>
<path style="fill:#666366; stroke:none;" d="M345 270L346 272L341 276C342.001 282.594 337.182 294.625 345 297L345 296L342 296L342 291L353 287L356 293L357 293L359 288C357.117 285.971 358.049 284.661 360 283L360 282L360 279L355 280L356 277L355 277L353 284L350 283L348 272L349 269L345 270z"/>
<path style="fill:#a6659c; stroke:none;" d="M407 269L407 275L408 275L407 269z"/>
<path style="fill:#666366; stroke:none;" d="M422 269L422 273L423 273L422 269z"/>
<path style="fill:#a6659c; stroke:none;" d="M426 269L426 274L427 274L426 269M463 269L464 270L463 269M97 270L96 275L97 275L97 270z"/>
<path style="fill:#666366; stroke:none;" d="M183 270L184 271L183 270z"/>
<path style="fill:#a6659c; stroke:none;" d="M185 270L186 271L185 270M218 270L219 274L220 274L218 270M228 270L229 271L228 270z"/>
<path style="fill:#8d527b; stroke:none;" d="M229 270L230 271L229 270M247 270L248 271L247 270z"/>
<path style="fill:#a6659c; stroke:none;" d="M248 270L249 271L248 270z"/>
<path style="fill:#171618; stroke:none;" d="M253 270L254 274L255 274L253 270z"/>
<path style="fill:#a6659c; stroke:none;" d="M257 270L258 271L257 270M338 270L337 271L340 273L338 270z"/>
<path style="fill:#171618; stroke:none;" d="M348.333 270.667L348.667 271.333L348.333 270.667z"/>
<path style="fill:#8d527b; stroke:none;" d="M349 270L350 271L349 270z"/>
<path style="fill:#c8bfc6; stroke:none;" d="M393 270L393 272L398 272L398 270L393 270z"/>
<path style="fill:#666366; stroke:none;" d="M399 270L399 274L400 274L399 270z"/>
<path style="fill:#a6659c; stroke:none;" d="M403 270L403 273L404 273L403 270z"/>
<path style="fill:#c8bfc6; stroke:none;" d="M463 270L464 271L463 270z"/>
<path style="fill:#666366; stroke:none;" d="M518.333 270.667L518.667 271.333L518.333 270.667z"/>
<path style="fill:#a6659c; stroke:none;" d="M184 271L185 272L184 271M186 271L187 272L186 271z"/>
<path style="fill:#666366; stroke:none;" d="M187 271L188 272L187 271z"/>
<path style="fill:#171618; stroke:none;" d="M221 271L221 274L222 274L221 271z"/>
<path style="fill:#a6659c; stroke:none;" d="M222 271L223 272L222 271M233 271L234 272L233 271M247.333 271.667L247.667 272.333L247.333 271.667z"/>
<path style="fill:#8d527b; stroke:none;" d="M252 271L253 272L252 271z"/>
<path style="fill:#171618; stroke:none;" d="M261 271L262 272L261 271z"/>
<path style="fill:#a6659c; stroke:none;" d="M360 271L361 272L360 271z"/>
<path style="fill:#c8bfc6; stroke:none;" d="M384 271L385 272L384 271z"/>
<path style="fill:#8d527b; stroke:none;" d="M389 271L390 272L389 271M398 271L399 272L398 271z"/>
<path style="fill:#a6659c; stroke:none;" d="M463 271L464 272L463 271z"/>
<path style="fill:#8d527b; stroke:none;" d="M199 272L200 273L199 272M212 272L212 273L217 275L212 272z"/>
<path style="fill:#c8bfc6; stroke:none;" d="M220 272L219 277L220 277L220 272z"/>
<path style="fill:#8d527b; stroke:none;" d="M222 272L223 273L222 272z"/>
<path style="fill:#666366; stroke:none;" d="M227 272L228 273L227 272z"/>
<path style="fill:#a6659c; stroke:none;" d="M234 272L234 274L236 274L234 272z"/>
<path style="fill:#8d527b; stroke:none;" d="M240 272L240 277L239 277L239 274L238 274L238 280L239 280L240 272M246 272L247 273L246 272M249.667 272.333L250.333 272.667L249.667 272.333z"/>
<path style="fill:#a6659c; stroke:none;" d="M254 272L255 273L254 272z"/>
<path style="fill:#666366; stroke:none;" d="M258.333 272.667L258.667 273.333L258.333 272.667z"/>
<path style="fill:#a6659c; stroke:none;" d="M262 273L261 279L262 279L266 276L267 276L268 279L267 275L262 273z"/>
<path style="fill:#8d527b; stroke:none;" d="M267 272L268 273L267 272z"/>
<path style="fill:#a6659c; stroke:none;" d="M271 272L272 273L271 272M329 272L328 274L328 275L333 276L331 278L336 281L336 272L335 272L335 279L334 279L329 272M354 272L356 274L354 272M358 272C357.501 275.314 358.059 276.38 361 278L358 275L360 272L358 272z"/>
<path style="fill:#666366; stroke:none;" d="M395 272L382 279L382 280L388 282L391 280L390 278L393 281L400 279L397 272L395 272z"/>
<path style="fill:#a6659c; stroke:none;" d="M397 272L398 273L397 272z"/>
<path style="fill:#171618; stroke:none;" d="M398 272L399 277L400 277L398 272z"/>
<path style="fill:#666366; stroke:none;" d="M187 273L188 274L187 273M192.333 273.667L192.667 274.333L192.333 273.667z"/>
<path style="fill:#c8bfc6; stroke:none;" d="M199 273L199 275L201 273L199 273z"/>
<path style="fill:#666366; stroke:none;" d="M213 273L214 274L213 273M222 273L223 274L222 273z"/>
<path style="fill:#c8bfc6; stroke:none;" d="M239.333 273.667L239.667 274.333L239.333 273.667z"/>
<path style="fill:#8d527b; stroke:none;" d="M243 273L244 274L243 273M251 273L252 274L251 273z"/>
<path style="fill:#a6659c; stroke:none;" d="M255.333 273.667L255.667 274.333L255.333 273.667z"/>
<path style="fill:#8d527b; stroke:none;" d="M268 273L269 274L268 273z"/>
<path style="fill:#a6659c; stroke:none;" d="M290.333 273.667L290.667 274.333L290.333 273.667M315 273L300 278L310 276L312 279L312 280L308 280L308 281L317 281L315 273z"/>
<path style="fill:#8d527b; stroke:none;" d="M345 273L346 274L345 273z"/>
<path style="fill:#a6659c; stroke:none;" d="M352 273L350 276L355 274L352 273z"/>
<path style="fill:#171618; stroke:none;" d="M369 273L370 274L369 273M372 273L372 274L375 275L372 273z"/>
<path style="fill:#a6659c; stroke:none;" d="M422 273L423 274L422 273M519 273L520 274L519 273M200 274L201 275L200 274z"/>
<path style="fill:#666366; stroke:none;" d="M214 274L215 275L214 274z"/>
<path style="fill:#8d527b; stroke:none;" d="M221 274L222 275L221 274z"/>
<path style="fill:#a6659c; stroke:none;" d="M223 274L224 275L223 274z"/>
<path style="fill:#666366; stroke:none;" d="M224 274L225 275L224 274z"/>
<path style="fill:#8d527b; stroke:none;" d="M234 274L235 275L234 274z"/>
<path style="fill:#c8bfc6; stroke:none;" d="M235 274L236 275L235 274z"/>
<path style="fill:#8d527b; stroke:none;" d="M236 274L237 275L236 274M252 274L253 275L252 274z"/>
<path style="fill:#a6659c; stroke:none;" d="M258 274L259 275L258 274z"/>
<path style="fill:#8d527b; stroke:none;" d="M398 274L399 275L398 274M404 274L405 275L404 274M426 274L427 275L426 274z"/>
<path style="fill:#666366; stroke:none;" d="M519 274L520 275L519 274z"/>
<path style="fill:#a6659c; stroke:none;" d="M95.3333 275.667L95.6667 276.333L95.3333 275.667z"/>
<path style="fill:#8d527b; stroke:none;" d="M197 275L199 277L197 275z"/>
<path style="fill:#a6659c; stroke:none;" d="M198 275L199 276L198 275z"/>
<path style="fill:#666366; stroke:none;" d="M208 275L209 276L208 275M215.667 275.333L216.333 275.667L215.667 275.333M234 275L235 276L234 275z"/>
<path style="fill:#a6659c; stroke:none;" d="M235 275L237 279L238 279L235 275M239.333 275.667L239.667 276.333L239.333 275.667z"/>
<path style="fill:#8d527b; stroke:none;" d="M250 275L251 276L250 275M253 275L254 276L253 275M267.667 275.333L268.333 275.667L267.667 275.333z"/>
<path style="fill:#a6659c; stroke:none;" d="M270 275L271 276L270 275z"/>
<path style="fill:#171618; stroke:none;" d="M271.333 275.667L271.667 276.333L271.333 275.667z"/>
<path style="fill:#666366; stroke:none;" d="M270 280L270 281L263 281L262 288L263 288L264 285L281 294L279 289L278 289L279 291L278 291L275 289L275 288L280 285L278 279C286.678 275.328 263.59 277.213 270 280z"/>
<path style="fill:#8d527b; stroke:none;" d="M290 275L290 283L293 282L290 275z"/>
<path style="fill:#a6659c; stroke:none;" d="M293 278L295 276L298 277C295.989 274.953 294.84 276.107 293 278M318 282L320 284L325 279L329 280L328 275C322.635 276.001 318.712 275.811 318 282z"/>
<path style="fill:#666366; stroke:none;" d="M372 275L372 278L373 278L372 275z"/>
<path style="fill:#a6659c; stroke:none;" d="M378 275L380 277L378 275M400 275L401 276L400 275M404 275L405 276L404 275z"/>
<path style="fill:#8d527b; stroke:none;" d="M407 275L408 276L407 275z"/>
<path style="fill:#666366; stroke:none;" d="M421 275L422 276L421 275M218 276L219 277L218 276z"/>
<path style="fill:#a6659c; stroke:none;" d="M220 276L221 277L220 276z"/>
<path style="fill:#8d527b; stroke:none;" d="M235 276L236 277L235 276z"/>
<path style="fill:#a6659c; stroke:none;" d="M254 276L255 277L254 276M259 276L260 277L259 276z"/>
<path style="fill:#8d527b; stroke:none;" d="M266 276L267 277L266 276z"/>
<path style="fill:#a6659c; stroke:none;" d="M329.667 276.333L330.333 276.667L329.667 276.333z"/>
<path style="fill:#8d527b; stroke:none;" d="M350.333 276.667L350.667 277.333L350.333 276.667z"/>
<path style="fill:#a6659c; stroke:none;" d="M355 276L356 277L355 276z"/>
<path style="fill:#8d527b; stroke:none;" d="M356 276L355 280L359 277L356 276z"/>
<path style="fill:#171618; stroke:none;" d="M375 276L373 277L373 278L375 276z"/>
<path style="fill:#8d527b; stroke:none;" d="M400 276L401 277L400 276z"/>
<path style="fill:#666366; stroke:none;" d="M405 276L406 277L405 276z"/>
<path style="fill:#a6659c; stroke:none;" d="M415 276L416 277L415 276M417 276L418 277L417 276z"/>
<path style="fill:#8d527b; stroke:none;" d="M418 276L419 277L418 276z"/>
<path style="fill:#a6659c; stroke:none;" d="M425 276L426 277L425 276z"/>
<path style="fill:#666366; stroke:none;" d="M468.333 276.667L468.667 277.333L468.333 276.667M520 276L521 277L520 276z"/>
<path style="fill:#a6659c; stroke:none;" d="M94 277L92 283L93 283L94 277z"/>
<path style="fill:#666366; stroke:none;" d="M205 277L206 278L205 277z"/>
<path style="fill:#c8bfc6; stroke:none;" d="M205 278L209 281L208 277L205 278z"/>
<path style="fill:#666366; stroke:none;" d="M208 277L209 278L208 277M219 277L220 278L219 277z"/>
<path style="fill:#c8bfc6; stroke:none;" d="M236 277L237 278L236 277z"/>
<path style="fill:#8d527b; stroke:none;" d="M252 277L253 278L252 277M254 277L254 280L255 280L254 277z"/>
<path style="fill:#c8bfc6; stroke:none;" d="M266.333 277.667L266.667 278.333L266.333 277.667z"/>
<path style="fill:#a6659c; stroke:none;" d="M291.333 277.667L291.667 278.333L291.333 277.667M354 277L353 279L354 277z"/>
<path style="fill:#c8bfc6; stroke:none;" d="M364 277L365 281L366 281L364 277z"/>
<path style="fill:#171618; stroke:none;" d="M366 277L370 282L366 277M376 279L379 277L376 279z"/>
<path style="fill:#a6659c; stroke:none;" d="M380 277L380 279L382 279L380 277z"/>
<path style="fill:#8d527b; stroke:none;" d="M409.667 277.333L410.333 277.667L409.667 277.333z"/>
<path style="fill:#a6659c; stroke:none;" d="M521 277L522 278L521 277z"/>
<path style="fill:#c8bfc6; stroke:none;" d="M184 278L184 279L188 281L184 278z"/>
<path style="fill:#a6659c; stroke:none;" d="M185 278L186 279L185 278z"/>
<path style="fill:#666366; stroke:none;" d="M196 278L196 280L198 280L198 278L196 278z"/>
<path style="fill:#a6659c; stroke:none;" d="M209.333 278.667L209.667 279.333L209.333 278.667z"/>
<path style="fill:#8d527b; stroke:none;" d="M236.333 278.667L236.667 279.333L236.333 278.667z"/>
<path style="fill:#666366; stroke:none;" d="M252.333 278.667L252.667 279.333L252.333 278.667z"/>
<path style="fill:#a6659c; stroke:none;" d="M255 278L255 283L252 282L253 285L256 283L260 286L255 278z"/>
<path style="fill:#666366; stroke:none;" d="M263 279L267 280L263 279z"/>
<path style="fill:#a6659c; stroke:none;" d="M350 278L351 281L350 278z"/>
<path style="fill:#171618; stroke:none;" d="M354 278L355 279L354 278z"/>
<path style="fill:#8d527b; stroke:none;" d="M359 278L360 279L359 278z"/>
<path style="fill:#c8bfc6; stroke:none;" d="M360 278L361 279L360 278z"/>
<path style="fill:#171618; stroke:none;" d="M362 278L363 279L362 278M370.667 278.333L371.333 278.667L370.667 278.333M390 278L392 280L392 278L390 278z"/>
<path style="fill:#a6659c; stroke:none;" d="M393 278L394 279L393 278z"/>
<path style="fill:#666366; stroke:none;" d="M424 278L425 279L424 278z"/>
<path style="fill:#a6659c; stroke:none;" d="M184 279L185 280L184 279z"/>
<path style="fill:#666366; stroke:none;" d="M205 279L206 280L205 279z"/>
<path style="fill:#c8bfc6; stroke:none;" d="M237.333 279.667L237.667 280.333L237.333 279.667z"/>
<path style="fill:#a6659c; stroke:none;" d="M286 279L287 280L286 279M288 279L288 283L289 283L288 279M292 279L293 280L292 279M305 279L306 280L305 279z"/>
<path style="fill:#8d527b; stroke:none;" d="M315 279L316 280L315 279z"/>
<path style="fill:#171618; stroke:none;" d="M353 279L354 280L353 279z"/>
<path style="fill:#a6659c; stroke:none;" d="M360.667 279.333L361.333 279.667L360.667 279.333M373.667 279.333L374.333 279.667L373.667 279.333M378 282L379 282L380 280L378 282z"/>
<path style="fill:#171618; stroke:none;" d="M380 280L383 288L384 288L390 283L390 279L389 279L388 282L380 280z"/>
<path style="fill:#a6659c; stroke:none;" d="M408 279L409 280L408 279M417 279L418 280L417 279M186 280L187 281L186 280z"/>
<path style="fill:#666366; stroke:none;" d="M206 280L207 281L206 280z"/>
<path style="fill:#a6659c; stroke:none;" d="M238 280L237 282L239 282L238 280z"/>
<path style="fill:#8d527b; stroke:none;" d="M252 280L253 281L252 280z"/>
<path style="fill:#a6659c; stroke:none;" d="M261 280L262 281L261 280z"/>
<path style="fill:#171618; stroke:none;" d="M266 280L267 281L266 280z"/>
<path style="fill:#a6659c; stroke:none;" d="M293.333 280.667L293.667 281.333L293.333 280.667M295 282L298 281L295 282M302.667 280.333L303.333 280.667L302.667 280.333z"/>
<path style="fill:#8d527b; stroke:none;" d="M304 280L304 282L313 282L304 280z"/>
<path style="fill:#c8bfc6; stroke:none;" d="M313 280L314 281L313 280z"/>
<path style="fill:#8d527b; stroke:none;" d="M352 280L353 281L352 280M354 280L355 281L354 280z"/>
<path style="fill:#171618; stroke:none;" d="M363 280L364 281L363 280z"/>
<path style="fill:#a6659c; stroke:none;" d="M364 280L365 281L364 280M366 280L367 281L366 280M371 280L370 284L371 284L371 280z"/>
<path style="fill:#c8bfc6; stroke:none;" d="M378 280L379 281L378 280z"/>
<path style="fill:#a6659c; stroke:none;" d="M390.333 280.667L390.667 281.333L390.333 280.667z"/>
<path style="fill:#c8bfc6; stroke:none;" d="M391.333 280.667L391.667 281.333L391.333 280.667z"/>
<path style="fill:#666366; stroke:none;" d="M403 280L404 281L403 280z"/>
<path style="fill:#a6659c; stroke:none;" d="M411 280L411 281L415 281L411 280z"/>
<path style="fill:#8d527b; stroke:none;" d="M425 280L425 282L427 280L425 280z"/>
<path style="fill:#666366; stroke:none;" d="M522 280L523 281L522 280z"/>
<path style="fill:#8d527b; stroke:none;" d="M208 281L209 282L208 281z"/>
<path style="fill:#666366; stroke:none;" d="M245 281L246 282L245 281z"/>
<path style="fill:#8d527b; stroke:none;" d="M246 281L245 283L246 281z"/>
<path style="fill:#171618; stroke:none;" d="M290 281L291 282L290 281z"/>
<path style="fill:#a6659c; stroke:none;" d="M298 281L299 283L300 283L301 281L298 281z"/>
<path style="fill:#8d527b; stroke:none;" d="M301.667 281.333L302.333 281.667L301.667 281.333M351 281L352 282L351 281M356 281L357 282L356 281z"/>
<path style="fill:#a6659c; stroke:none;" d="M365 281L366 282L365 281M421 281L422 282L421 281z"/>
<path style="fill:#666366; stroke:none;" d="M426 281L429 283L426 281z"/>
<path style="fill:#8d527b; stroke:none;" d="M238 282L239 283L238 282z"/>
<path style="fill:#a6659c; stroke:none;" d="M246 282L246 283L250 283L246 282z"/>
<path style="fill:#8d527b; stroke:none;" d="M250.667 282.333L251.333 282.667L250.667 282.333M253.667 282.333L254.333 282.667L253.667 282.333z"/>
<path style="fill:#171618; stroke:none;" d="M267 282L268 283L267 282z"/>
<path style="fill:#a6659c; stroke:none;" d="M291.667 282.333L292.333 282.667L291.667 282.333z"/>
<path style="fill:#171618; stroke:none;" d="M350 282L353 284L350 282z"/>
<path style="fill:#666366; stroke:none;" d="M379 282L382 288L383 288L379 282M390 282L391 283L390 282z"/>
<path style="fill:#a6659c; stroke:none;" d="M406 282L407 283L406 282z"/>
<path style="fill:#8d527b; stroke:none;" d="M420 282L421 283L420 282M247 283L247 285L249 285L247 283z"/>
<path style="fill:#c8bfc6; stroke:none;" d="M248 283L248 284L253 284L248 283z"/>
<path style="fill:#8d527b; stroke:none;" d="M255 283L255 285L257 285L255 283z"/>
<path style="fill:#a6659c; stroke:none;" d="M313 283L313 284L316 284L313 283M317 283L319 287L317 283M354 283L355 284L354 283M361 283L358 287L363 285L361 283z"/>
<path style="fill:#666366; stroke:none;" d="M384 287L390 285L390 286L387 290L391 284L384 287z"/>
<path style="fill:#a6659c; stroke:none;" d="M408 283L409 284L408 283z"/>
<path style="fill:#666366; stroke:none;" d="M418 283L419 284L418 283M430 283L430 285L432 285L430 283M524 283L525 284L524 283z"/>
<path style="fill:#a6659c; stroke:none;" d="M91 284L91 287L92 287L91 284z"/>
<path style="fill:#8d527b; stroke:none;" d="M186 286L189 285L186 286z"/>
<path style="fill:#a6659c; stroke:none;" d="M249 284L249 285L252 285L249 284z"/>
<path style="fill:#8d527b; stroke:none;" d="M252 284L253 285L252 284z"/>
<path style="fill:#171618; stroke:none;" d="M261 284L261 286L263 286L261 284z"/>
<path style="fill:#a6659c; stroke:none;" d="M290 284L290 285L293 285L290 284M295 284L295 285L298 285L295 284M347 284L348 285L347 284M349 284L350 285L349 284z"/>
<path style="fill:#8d527b; stroke:none;" d="M354 284L355 285L354 284z"/>
<path style="fill:#c8bfc6; stroke:none;" d="M361 284L359 287L361 284z"/>
<path style="fill:#666366; stroke:none;" d="M367 284L367 286L369 286L369 284L367 284z"/>
<path style="fill:#c8bfc6; stroke:none;" d="M387 284C384.025 287.566 377.964 297.023 385 299L384 302L385 302L387 296L383 295L387 284z"/>
<path style="fill:#666366; stroke:none;" d="M411 284L412 285L411 284z"/>
<path style="fill:#a6659c; stroke:none;" d="M412 284L412 285L415 285L412 284z"/>
<path style="fill:#666366; stroke:none;" d="M415 284L416 285L415 284M188 285L190 287L190 285L188 285M222.333 285.667L222.667 286.333L222.333 285.667M244.667 285.333L245.333 285.667L244.667 285.333z"/>
<path style="fill:#8d527b; stroke:none;" d="M246 285L247 286L246 285z"/>
<path style="fill:#666366; stroke:none;" d="M254 285L255 286L254 285z"/>
<path style="fill:#a6659c; stroke:none;" d="M292 299L295 285C290.436 286.834 288.063 295.542 292 299M309 285L311 288L311 285L309 285M336 285L339 287L336 285z"/>
<path style="fill:#171618; stroke:none;" d="M357 285L358 286L357 285z"/>
<path style="fill:#8d527b; stroke:none;" d="M388 285L389 286L388 285z"/>
<path style="fill:#171618; stroke:none;" d="M389 285L390 286L389 285z"/>
<path style="fill:#666366; stroke:none;" d="M525 285L526 286L525 285M186 286L187 287L186 286M233 286L233 288L235 286L233 286M243 286L244 287L243 286z"/>
<path style="fill:#a6659c; stroke:none;" d="M295 286L296 287L295 286M298 286L299 287L298 286z"/>
<path style="fill:#c8bfc6; stroke:none;" d="M319 286L319 288L321 288L321 286L319 286z"/>
<path style="fill:#a6659c; stroke:none;" d="M321.333 286.667L321.667 287.333L321.333 286.667z"/>
<path style="fill:#8d527b; stroke:none;" d="M355 286L356 287L355 286M367 286L367 288L369 288L369 286L367 286M387 286L388 287L387 286z"/>
<path style="fill:#a6659c; stroke:none;" d="M90 287L91 288L90 287z"/>
<path style="fill:#666366; stroke:none;" d="M241 287L241 289L243 287L241 287z"/>
<path style="fill:#171618; stroke:none;" d="M349 287L350 288L349 287z"/>
<path style="fill:#8d527b; stroke:none;" d="M357 287L357 288L360 288L357 287z"/>
<path style="fill:#a6659c; stroke:none;" d="M386 287L387 288L386 287z"/>
<path style="fill:#666366; stroke:none;" d="M526 287L527 288L526 287z"/>
<path style="fill:#a6659c; stroke:none;" d="M223 288L224 289L223 288M319 288L321 290L321 288L319 288M323 288L324 289L323 288z"/>
<path style="fill:#171618; stroke:none;" d="M344 288L345 289L344 288z"/>
<path style="fill:#666366; stroke:none;" d="M369 288L369 290L371 290L369 288z"/>
<path style="fill:#a6659c; stroke:none;" d="M383 288L384 289L383 288z"/>
<path style="fill:#8d527b; stroke:none;" d="M386 288L385 292L386 292L386 288z"/>
<path style="fill:#666366; stroke:none;" d="M223 289L224 290L223 289M264 289L266 296L264 289z"/>
<path style="fill:#171618; stroke:none;" d="M277 289L277 291L279 291L277 289M340 289L337 293L340 289z"/>
<path style="fill:#a6659c; stroke:none;" d="M385 289L386 290L385 289M527 289L528 290L527 289z"/>
<path style="fill:#c8bfc6; stroke:none;" d="M320 290L318 294L321 292L327 292L322 290L320 290z"/>
<path style="fill:#a6659c; stroke:none;" d="M324 290L324 292L326 290L324 290M332 290L333 294L336 294L332 290z"/>
<path style="fill:#666366; stroke:none;" d="M371 290L372 291L371 290M381 290L381 294L382 294L381 290z"/>
<path style="fill:#8d527b; stroke:none;" d="M223.333 291.667L223.667 292.333L223.333 291.667z"/>
<path style="fill:#a6659c; stroke:none;" d="M319 291L320 292L319 291M322 291L323 292L322 291M326 291L327 292L326 291z"/>
<path style="fill:#666366; stroke:none;" d="M386 291L388 295L386 291M476 291L478 293L478 291L476 291z"/>
<path style="fill:#a6659c; stroke:none;" d="M528 291L529 292L528 291M88 292L89 293L88 292z"/>
<path style="fill:#666366; stroke:none;" d="M224 292L225 293L224 292z"/>
<path style="fill:#171618; stroke:none;" d="M316 292L317 293L316 292z"/>
<path style="fill:#a6659c; stroke:none;" d="M318 292L319 293L318 292M321 292L322 293L321 292M324 293L324 294L332 296L332 295L330 293L328 292L324 293z"/>
<path style="fill:#c8bfc6; stroke:none;" d="M328.333 292.667L328.667 293.333L328.333 292.667z"/>
<path style="fill:#a6659c; stroke:none;" d="M382 292L383 293L382 292M384 292L385 293L384 292z"/>
<path style="fill:#c8bfc6; stroke:none;" d="M476 292C476.985 299.79 475.532 307.538 483 312L476 292z"/>
<path style="fill:#666366; stroke:none;" d="M204 293L205 294L204 293z"/>
<path style="fill:#8d527b; stroke:none;" d="M205 293L206 294L205 293z"/>
<path style="fill:#a6659c; stroke:none;" d="M312 293L313 294L312 293z"/>
<path style="fill:#c8bfc6; stroke:none;" d="M313 293L313 294L317 296L313 293z"/>
<path style="fill:#a6659c; stroke:none;" d="M317 293L317 296L313 298L316 299L315 297L317 299L318 299L317 293M320 293L321 294L320 293z"/>
<path style="fill:#c8bfc6; stroke:none;" d="M329 294L336 297L335 293L329 294z"/>
<path style="fill:#666366; stroke:none;" d="M346 293L347 294L346 293z"/>
<path style="fill:#8d527b; stroke:none;" d="M384 293L384 295L386 295L386 293L384 293z"/>
<path style="fill:#666366; stroke:none;" d="M464 293L467 329L468 329L464 293M529 293L530 294L529 293z"/>
<path style="fill:#a6659c; stroke:none;" d="M205.667 294.333L206.333 294.667L205.667 294.333M336 297L333 296L333 297L342 297L342 296L338 296L338 294L336 297z"/>
<path style="fill:#c8bfc6; stroke:none;" d="M338.333 294.667L338.667 295.333L338.333 294.667z"/>
<path style="fill:#8d527b; stroke:none;" d="M381 294L382 295L381 294z"/>
<path style="fill:#a6659c; stroke:none;" d="M383 294L384 295L383 294M87 295L82 297L82 298C84.3258 297.872 88.047 297.815 87 295z"/>
<path style="fill:#8d527b; stroke:none;" d="M205 295L206 296L205 295z"/>
<path style="fill:#c8bfc6; stroke:none;" d="M206 295L207 299L208 299L206 295z"/>
<path style="fill:#8d527b; stroke:none;" d="M207 295L208 296L207 295z"/>
<path style="fill:#a6659c; stroke:none;" d="M222.667 295.333L223.333 295.667L222.667 295.333z"/>
<path style="fill:#c8bfc6; stroke:none;" d="M291.333 295.667L291.667 296.333L291.333 295.667z"/>
<path style="fill:#a6659c; stroke:none;" d="M385.667 295.333L386.333 295.667L385.667 295.333z"/>
<path style="fill:#8d527b; stroke:none;" d="M387 295L388 296L387 295z"/>
<path style="fill:#666366; stroke:none;" d="M476 295L476 301L477 301L476 295M478 295L479 296L478 295M203 296L204 297L203 296z"/>
<path style="fill:#c8bfc6; stroke:none;" d="M223 296L224 297L223 296z"/>
<path style="fill:#666366; stroke:none;" d="M224.333 296.667L224.667 297.333L224.333 296.667z"/>
<path style="fill:#a6659c; stroke:none;" d="M322 296L323 297L322 296z"/>
<path style="fill:#666366; stroke:none;" d="M326 298L329 296L326 298z"/>
<path style="fill:#8d527b; stroke:none;" d="M331.667 296.333L332.333 296.667L331.667 296.333M337 296L338 297L337 296z"/>
<path style="fill:#c8bfc6; stroke:none;" d="M339 296L347 303L339 296z"/>
<path style="fill:#a6659c; stroke:none;" d="M343 297L346 300L346 296L343 297z"/>
<path style="fill:#666366; stroke:none;" d="M346 296L346 301L347 301L346 296z"/>
<path style="fill:#a6659c; stroke:none;" d="M380 296L380 299L382 298L382 297L380 296z"/>
<path style="fill:#666366; stroke:none;" d="M387 296L388 297L387 296z"/>
<path style="fill:#a6659c; stroke:none;" d="M478 296L479 297L478 296z"/>
<path style="fill:#666366; stroke:none;" d="M530 296L531 297L530 296z"/>
<path style="fill:#8d527b; stroke:none;" d="M203 300L204 300L205 298L210 303C208.328 300.629 204.222 294.415 203 300z"/>
<path style="fill:#a6659c; stroke:none;" d="M206 297L207 298L206 297z"/>
<path style="fill:#8d527b; stroke:none;" d="M208.333 297.667L208.667 298.333L208.333 297.667z"/>
<path style="fill:#c8bfc6; stroke:none;" d="M315 297L317 299L317 297L315 297z"/>
<path style="fill:#a6659c; stroke:none;" d="M323 297L324 298L323 297z"/>
<path style="fill:#666366; stroke:none;" d="M330.333 297.667L330.667 298.333L330.333 297.667z"/>
<path style="fill:#8d527b; stroke:none;" d="M334 297L335 298L334 297M336 297L337 298L336 297M338 297L339 298L338 297z"/>
<path style="fill:#c8bfc6; stroke:none;" d="M345 297L346 298L345 297z"/>
<path style="fill:#666366; stroke:none;" d="M357 297L357 298L359 299L348 308L350 314L351 314C350.94 302.676 361.86 299.721 371 299L371 298L360 299L357 297z"/>
<path style="fill:#a6659c; stroke:none;" d="M360 298L360 299L363 299L363 298L360 298M386 297L387 298L386 297M71 307L82 299C76.9528 298.268 73.3387 303.04 71 307M204 298L205 303L206 303L207 300L206 300L206 302L205 302L204 298z"/>
<path style="fill:#666366; stroke:none;" d="M322 298L322 299L325 299L322 298M338 298L343 302L338 298z"/>
<path style="fill:#a6659c; stroke:none;" d="M339 298L340 299L339 298z"/>
<path style="fill:#666366; stroke:none;" d="M354.667 298.333L355.333 298.667L354.667 298.333z"/>
<path style="fill:#c8bfc6; stroke:none;" d="M350 306L347 305L349 309L358 298C353.691 299.47 351.252 301.578 350 306z"/>
<path style="fill:#a6659c; stroke:none;" d="M358 298L359 299L358 298z"/>
<path style="fill:#c8bfc6; stroke:none;" d="M361 298L362 299L361 298z"/>
<path style="fill:#666366; stroke:none;" d="M379 298L380 299L379 298z"/>
<path style="fill:#8d527b; stroke:none;" d="M381.333 298.667L381.667 299.333L381.333 298.667M386 298L387 299L386 298z"/>
<path style="fill:#666366; stroke:none;" d="M531 298L532 299L531 298z"/>
<path style="fill:#c8bfc6; stroke:none;" d="M205 299L205 302L206 302L205 299z"/>
<path style="fill:#a6659c; stroke:none;" d="M207.667 299.333L208.333 299.667L207.667 299.333M341 299L342 300L341 299z"/>
<path style="fill:#666366; stroke:none;" d="M348 299L346 305L350 305L348 299z"/>
<path style="fill:#a6659c; stroke:none;" d="M353 299L354 300L353 299z"/>
<path style="fill:#666366; stroke:none;" d="M372 299L372 300L379 303L372 299M380 299L381 300L380 299z"/>
<path style="fill:#a6659c; stroke:none;" d="M382 299L381 302L383 301L381 305L385 302L382 299z"/>
<path style="fill:#8d527b; stroke:none;" d="M383.333 299.667L383.667 300.333L383.333 299.667z"/>
<path style="fill:#a6659c; stroke:none;" d="M384 299L385 300L384 299z"/>
<path style="fill:#666366; stroke:none;" d="M386 299L387 300L386 299M479 299L480 300L479 299z"/>
<path style="fill:#c8bfc6; stroke:none;" d="M208 300L210 302L208 300z"/>
<path style="fill:#8d527b; stroke:none;" d="M209 300L210 301L209 300z"/>
<path style="fill:#a6659c; stroke:none;" d="M290 300L292 303L292 300L290 300M312 301L315 304L315 300L312 301M316 300L316 303L317 303L316 300M343 300L344 301L343 300z"/>
<path style="fill:#666366; stroke:none;" d="M352 300L353 301L352 300z"/>
<path style="fill:#a6659c; stroke:none;" d="M208 301L209 302L208 301z"/>
<path style="fill:#c8bfc6; stroke:none;" d="M314 301L314 303L316 303L316 301L314 301z"/>
<path style="fill:#666366; stroke:none;" d="M319 301L320 302L319 301M351 301L352 302L351 301z"/>
<path style="fill:#8d527b; stroke:none;" d="M382 301L381 303L383 303L382 301M385 301L386 302L385 301z"/>
<path style="fill:#666366; stroke:none;" d="M474 301L475 302L474 301M532 301L533 302L532 301z"/>
<path style="fill:#c8bfc6; stroke:none;" d="M206 302L208 305L206 302z"/>
<path style="fill:#666366; stroke:none;" d="M283 302L285 305L283 302M345 302L346 303L345 302M350 302L351 303L350 302z"/>
<path style="fill:#c8bfc6; stroke:none;" d="M474 302L474 306L475 306L474 302z"/>
<path style="fill:#666366; stroke:none;" d="M480 302L481 303L480 302z"/>
<path style="fill:#8d527b; stroke:none;" d="M205 303L206 304L205 303z"/>
<path style="fill:#a6659c; stroke:none;" d="M207 303L207 306C209.006 304.873 209.006 304.127 207 303z"/>
<path style="fill:#c8bfc6; stroke:none;" d="M297 303L300 308L299 303L297 303z"/>
<path style="fill:#666366; stroke:none;" d="M299 303L300 304L299 303z"/>
<path style="fill:#8d527b; stroke:none;" d="M315.667 303.333L316.333 303.667L315.667 303.333z"/>
<path style="fill:#171618; stroke:none;" d="M348 303L349 304L348 303z"/>
<path style="fill:#8d527b; stroke:none;" d="M383 303L384 304L383 303z"/>
<path style="fill:#666366; stroke:none;" d="M384 303L385 304L384 303M475 303L474 309L475 309L476 309L475 303z"/>
<path style="fill:#a6659c; stroke:none;" d="M480 303L481 304L480 303M206 304L207 305L206 304z"/>
<path style="fill:#8d527b; stroke:none;" d="M209 304L209 307L210 307L209 304z"/>
<path style="fill:#a6659c; stroke:none;" d="M296.333 304.667L296.667 305.333L296.333 304.667M347 304L348 305L347 304z"/>
<path style="fill:#666366; stroke:none;" d="M383 304L384 305L383 304M533.333 304.667L533.667 305.333L533.333 304.667z"/>
<path style="fill:#a6659c; stroke:none;" d="M349 305L350 306L349 305z"/>
<path style="fill:#666366; stroke:none;" d="M381 305L381 311L382 311L383 305L381 305M481 305L482 306L481 305z"/>
<path style="fill:#8d527b; stroke:none;" d="M207 306L208 307L207 306z"/>
<path style="fill:#c8bfc6; stroke:none;" d="M208 306L209 307L208 306z"/>
<path style="fill:#666366; stroke:none;" d="M347 306L348 307L347 306z"/>
<path style="fill:#a6659c; stroke:none;" d="M350 306L350 309L351 309L352 306L350 306M474 306L475 307L474 306M481 306L482 307L481 306M70.3333 307.667L70.6667 308.333L70.3333 307.667M208 307L210 309L210 307L208 307z"/>
<path style="fill:#171618; stroke:none;" d="M293.333 307.667L293.667 308.333L293.333 307.667M296 307L297 308L296 307z"/>
<path style="fill:#666366; stroke:none;" d="M300 307L299 309L301 309L300 307z"/>
<path style="fill:#a6659c; stroke:none;" d="M534 307L535 308L534 307z"/>
<path style="fill:#8d527b; stroke:none;" d="M208 308L210 311L208 308z"/>
<path style="fill:#666366; stroke:none;" d="M477 308L478 309L477 308M482 308L483 309L482 308M534 308L535 309L534 308z"/>
<path style="fill:#a6659c; stroke:none;" d="M69 309L70 310L69 309M474 309L474 312L475 312L476 309L474 309M482 309L483 310L482 309M68.3333 310.667L68.6667 311.333L68.3333 310.667z"/>
<path style="fill:#c8bfc6; stroke:none;" d="M475 310L475 315L476 315L475 310z"/>
<path style="fill:#666366; stroke:none;" d="M480 310L481 311L480 310M481 311L482 312L481 311M483 311L484 312L483 311M535.333 311.667L535.667 312.333L535.333 311.667z"/>
<path style="fill:#a6659c; stroke:none;" d="M67 312L66 314L67 312z"/>
<path style="fill:#8d527b; stroke:none;" d="M233 312L234 316L235 316L235 312L233 312z"/>
<path style="fill:#666366; stroke:none;" d="M235 312L236 313L235 312M474 312L476 316L474 312z"/>
<path style="fill:#8d527b; stroke:none;" d="M237 313L239 316L237 313z"/>
<path style="fill:#666366; stroke:none;" d="M238 313L239 314L238 313z"/>
<path style="fill:#a6659c; stroke:none;" d="M65 314L63 318L65 314M238 314L239 315L238 314z"/>
<path style="fill:#666366; stroke:none;" d="M269 314L269 316L271 314L269 314M536 315L537 316L536 315M65 316L66 317L65 316M235 316L237 318L237 316L235 316M64 317L65 318L64 317z"/>
<path style="fill:#a6659c; stroke:none;" d="M61 318L54 326L61 318z"/>
<path style="fill:#666366; stroke:none;" d="M218 318L219 319L218 318M413 318L414 319L413 318z"/>
<path style="fill:#c8bfc6; stroke:none;" d="M414.004 318.693C401.827 321.939 407.076 340.762 418.996 337.332C430.771 333.943 425.391 315.658 414.004 318.693z"/>
<path style="fill:#a6659c; stroke:none;" d="M418 318L419 319L418 318M537 318L538 319L537 318z"/>
<path style="fill:#666366; stroke:none;" d="M230 319L230 320L233 320L230 319M382 319L381 322L382 322L382 319z"/>
<path style="fill:#a6659c; stroke:none;" d="M411 319L412 320L411 319z"/>
<path style="fill:#666366; stroke:none;" d="M537 319L538 320L537 319z"/>
<path style="fill:#8d527b; stroke:none;" d="M230 320L230 321L234 320L230 320z"/>
<path style="fill:#a6659c; stroke:none;" d="M232 320L233 321L232 320z"/>
<path style="fill:#666366; stroke:none;" d="M265.333 320.667L265.667 321.333L265.333 320.667M282 320L283 321L282 320M422 320L423 321L422 320z"/>
<path style="fill:#8d527b; stroke:none;" d="M266 321L270 324L270 323L269 321L266 321M281.333 321.667L281.667 322.333L281.333 321.667z"/>
<path style="fill:#a6659c; stroke:none;" d="M282 321L285 325L282 321z"/>
<path style="fill:#8d527b; stroke:none;" d="M283 321L284 322L283 321z"/>
<path style="fill:#666366; stroke:none;" d="M423 321L424 322L423 321z"/>
<path style="fill:#a6659c; stroke:none;" d="M538 321L539 322L538 321M268 322L269 323L268 322z"/>
<path style="fill:#666366; stroke:none;" d="M269 322L270 323L269 322z"/>
<path style="fill:#c8bfc6; stroke:none;" d="M282 322L283 323L282 322z"/>
<path style="fill:#8d527b; stroke:none;" d="M284 322L284 323L286 325L287 325L284 322z"/>
<path style="fill:#666366; stroke:none;" d="M424 322L425 323L424 322M538 322L539 323L538 322M270 323L271 324L270 323z"/>
<path style="fill:#c8bfc6; stroke:none;" d="M284 323L286 325L286 323L284 323z"/>
<path style="fill:#666366; stroke:none;" d="M407 323L408 324L407 323z"/>
<path style="fill:#8d527b; stroke:none;" d="M283 324L284 325L283 324z"/>
<path style="fill:#a6659c; stroke:none;" d="M425 324L426 325L425 324M539 324L540 325L539 324z"/>
<path style="fill:#666366; stroke:none;" d="M406 326L407 327L406 326M426 326L426 330L427 330L426 326z"/>
<path style="fill:#a6659c; stroke:none;" d="M540 326L541 327L540 326z"/>
<path style="fill:#666366; stroke:none;" d="M540 327L541 328L540 327z"/>
<path style="fill:#a6659c; stroke:none;" d="M406 328L407 329L406 328z"/>
<path style="fill:#c8bfc6; stroke:none;" d="M468 328L470 331L468 328z"/>
<path style="fill:#666366; stroke:none;" d="M469 328L470 329L469 328z"/>
<path style="fill:#a6659c; stroke:none;" d="M51 329L52 330L51 329z"/>
<path style="fill:#666366; stroke:none;" d="M406 329L407 330L406 329z"/>
<path style="fill:#a6659c; stroke:none;" d="M50 330L49 332L50 330z"/>
<path style="fill:#666366; stroke:none;" d="M259 330L262 334L263 334L259 330z"/>
<path style="fill:#8d527b; stroke:none;" d="M260 331L261 332L260 331z"/>
<path style="fill:#666366; stroke:none;" d="M468 331L469 332L468 331M542 331L543 332L542 331z"/>
<path style="fill:#8d527b; stroke:none;" d="M240 332L248 338L248 337L244 334L250 336C250.799 340.34 253.95 341.116 258 342L259 341L259 339L240 332z"/>
<path style="fill:#666366; stroke:none;" d="M242 332L243 333L242 332z"/>
<path style="fill:#8d527b; stroke:none;" d="M261 332L260 335L261 332z"/>
<path style="fill:#666366; stroke:none;" d="M425 332L426 333L425 332z"/>
<path style="fill:#a6659c; stroke:none;" d="M543 332L544 333L543 332z"/>
<path style="fill:#666366; stroke:none;" d="M247 333L248 334L247 333z"/>
<path style="fill:#a6659c; stroke:none;" d="M244 334L250 337L250 336L244 334z"/>
<path style="fill:#666366; stroke:none;" d="M544 334L545 335L544 334z"/>
<path style="fill:#a6659c; stroke:none;" d="M46 335L46 337L48 335L46 335z"/>
<path style="fill:#666366; stroke:none;" d="M257 335L256 337L258 337L257 335M260 335L261 336L260 335M133 336L133 337L135 340L136 340L133 336z"/>
<path style="fill:#c8bfc6; stroke:none;" d="M248 336L249 337L248 336z"/>
<path style="fill:#666366; stroke:none;" d="M411 336L412 337L411 336z"/>
<path style="fill:#a6659c; stroke:none;" d="M421 336L422 337L421 336M45 337L43 342L44 342L45 337z"/>
<path style="fill:#666366; stroke:none;" d="M127 337L127 338L130 338L127 337z"/>
<path style="fill:#a6659c; stroke:none;" d="M130.667 337.333L131.333 337.667L130.667 337.333z"/>
<path style="fill:#c8bfc6; stroke:none;" d="M126 338C124.56 342.99 120.444 347.097 119.309 352C115.756 367.349 130.206 380.585 137 393L138 393L135 337L126 338z"/>
<path style="fill:#666366; stroke:none;" d="M273.667 337.333L274.333 337.667L273.667 337.333M413 337L414 338L413 337z"/>
<path style="fill:#a6659c; stroke:none;" d="M419 337L420 338L419 337M251 338L251 339L258 341L251 338z"/>
<path style="fill:#c8bfc6; stroke:none;" d="M252 338L253 339L252 338z"/>
<path style="fill:#666366; stroke:none;" d="M270 338L269 340L270 338z"/>
<path style="fill:#8d527b; stroke:none;" d="M273 340L268 340L269 343L263 339C263.732 342.504 268.926 345.988 270 341L278 342L281 339L273 340z"/>
<path style="fill:#666366; stroke:none;" d="M547 338L548 339L547 338M125 339L126 340L125 339z"/>
<path style="fill:#a6659c; stroke:none;" d="M276 339L277 340L276 339z"/>
<path style="fill:#c8bfc6; stroke:none;" d="M279.667 339.333L280.333 339.667L279.667 339.333z"/>
<path style="fill:#666366; stroke:none;" d="M281 339L282 340L281 339M548 339L549 340L548 339z"/>
<path style="fill:#a6659c; stroke:none;" d="M125 340L126 341L125 340M135 340L135 345L136 345L135 340z"/>
<path style="fill:#666366; stroke:none;" d="M267 340L268 341L267 340z"/>
<path style="fill:#a6659c; stroke:none;" d="M277 340L277 341L283 343L284 340L277 340z"/>
<path style="fill:#8d527b; stroke:none;" d="M281.667 340.333L282.333 340.667L281.667 340.333M284 340L285 341L284 340z"/>
<path style="fill:#666366; stroke:none;" d="M124.333 341.667L124.667 342.333L124.333 341.667M249.333 341.667L249.667 342.333L249.333 341.667M262 341L263 342L262 341z"/>
<path style="fill:#a6659c; stroke:none;" d="M267 341L268 342L267 341z"/>
<path style="fill:#c8bfc6; stroke:none;" d="M268 341L267 343L269 343L268 341z"/>
<path style="fill:#8d527b; stroke:none;" d="M280 341L281 342L280 341z"/>
<path style="fill:#c8bfc6; stroke:none;" d="M283 341L283 343L288 343L288 341L283 341z"/>
<path style="fill:#8d527b; stroke:none;" d="M288 341L289 342L288 341z"/>
<path style="fill:#a6659c; stroke:none;" d="M42 342C38.8638 346.627 35.6786 346.216 31.4552 349.086C24.4912 353.818 19.7263 361.959 18 370L19 371L26 365L28 363L32 358L35 357L42 342z"/>
<path style="fill:#8d527b; stroke:none;" d="M281 342L282 343L281 342z"/>
<path style="fill:#a6659c; stroke:none;" d="M288 342L291 344L288 342z"/>
<path style="fill:#8d527b; stroke:none;" d="M290 342L290 343L294 345L294 342L290 342z"/>
<path style="fill:#666366; stroke:none;" d="M550 342L551 343L550 342M123.333 343.667L123.667 344.333L123.333 343.667z"/>
<path style="fill:#8d527b; stroke:none;" d="M284.667 343.333L285.333 343.667L284.667 343.333z"/>
<path style="fill:#a6659c; stroke:none;" d="M286 343L287 344L286 343z"/>
<path style="fill:#8d527b; stroke:none;" d="M287.667 343.333L288.333 343.667L287.667 343.333z"/>
<path style="fill:#a6659c; stroke:none;" d="M293 343L293 344L296 345L296 344L296 343L293 343z"/>
<path style="fill:#c8bfc6; stroke:none;" d="M294 343L295 344L294 343z"/>
<path style="fill:#8d527b; stroke:none;" d="M296 343L296 345L298 345L296 343z"/>
<path style="fill:#666366; stroke:none;" d="M551 343L552 344L551 343z"/>
<path style="fill:#a6659c; stroke:none;" d="M39 344L38 346L39 344M36 345L37 346L36 345z"/>
<path style="fill:#666366; stroke:none;" d="M122.333 345.667L122.667 346.333L122.333 345.667M551 346L552 347L551 346M121 347L122 348L121 347M554 347L555 348L554 347M40 348L41 349L40 348M120 348L119 351L120 348M39 349L40 350L39 349M555 349L556 350L555 349M38 351L39 352L38 351M118 351L119 352L118 351M554 351L554 353L556 353L554 351M556 351L557 352L556 351M117 352L118 353L117 352z"/>
<path style="fill:#a6659c; stroke:none;" d="M557 352L558 353L557 352z"/>
<path style="fill:#c8bfc6; stroke:none;" d="M36 353L34 356L36 353z"/>
<path style="fill:#666366; stroke:none;" d="M37 353L38 354L37 353M118.333 353.667L118.667 354.333L118.333 353.667M36 354L37 355L36 354M558 354L559 355L558 354M35 355L36 356L35 355z"/>
<path style="fill:#a6659c; stroke:none;" d="M119 355L120 356L119 355z"/>
<path style="fill:#666366; stroke:none;" d="M556 355C561.857 394.102 575.131 431.743 585.745 470C589.823 484.696 597.681 500.893 599 516L600 516L594.091 477L588.149 456.001L600 438C595.911 438.419 587.599 440.324 585.603 444.418C583.38 448.98 585.976 455.507 587.105 460C590.295 472.698 593.531 486.772 598 499L595 492L585.709 464L572.845 418L566 396L567 396L567 398L568 398C567.828 392.211 564.704 387.594 563.518 382C561.483 372.408 562.686 363.245 556 355M119 356L118 365L119 365L119 356z"/>
<path style="fill:#c8bfc6; stroke:none;" d="M33 357L32 359L33 357z"/>
<path style="fill:#666366; stroke:none;" d="M34 357L35 358L34 357M559 357L560 358L559 357M33 358L34 359L33 358M560 359L561 360L560 359M31 361L32 362L31 361M136.333 361.667L136.667 362.333L136.333 361.667M30 362L31 363L30 362M561 362L562 363L561 362z"/>
<path style="fill:#c8bfc6; stroke:none;" d="M28 363L29 364L28 363z"/>
<path style="fill:#666366; stroke:none;" d="M29 363L30 364L29 363z"/>
<path style="fill:#a6659c; stroke:none;" d="M119.333 363.667L119.667 364.333L119.333 363.667M136.333 363.667L136.667 364.333L136.333 363.667z"/>
<path style="fill:#c8bfc6; stroke:none;" d="M27 364L28 365L27 364z"/>
<path style="fill:#a6659c; stroke:none;" d="M562 364L563 365L562 364z"/>
<path style="fill:#c8bfc6; stroke:none;" d="M26 365L27 366L26 365z"/>
<path style="fill:#666366; stroke:none;" d="M562 365L563 366L562 365M119 366L120 367L119 366M120 368L121 369L120 368z"/>
<path style="fill:#a6659c; stroke:none;" d="M560 368L562 372L560 368z"/>
<path style="fill:#666366; stroke:none;" d="M563.333 368.667L563.667 369.333L563.333 368.667M121 369L122 370L121 369M122 370L123 371L122 370z"/>
<path style="fill:#a6659c; stroke:none;" d="M123 371L124 372L123 371z"/>
<path style="fill:#666366; stroke:none;" d="M137 371L137 376L138 376L137 371M564.333 372.667L564.667 373.333L564.333 372.667M124 373L125 374L124 373M125 374L126 375L125 374z"/>
<path style="fill:#c8bfc6; stroke:none;" d="M560 374L560 378L562 378L562 374L560 374z"/>
<path style="fill:#a6659c; stroke:none;" d="M126 375L127 376L126 375M137.333 376.667L137.667 377.333L137.333 376.667z"/>
<path style="fill:#666366; stroke:none;" d="M127 377L128 378L127 377M565 377L565 380L566 380L565 377M128 378L129 379L128 378z"/>
<path style="fill:#a6659c; stroke:none;" d="M561.333 378.667L561.667 379.333L561.333 378.667z"/>
<path style="fill:#666366; stroke:none;" d="M129 380L130 381L129 380z"/>
<path style="fill:#a6659c; stroke:none;" d="M130 381L131 382L130 381z"/>
<path style="fill:#666366; stroke:none;" d="M131 383L132 384L131 383z"/>
<path style="fill:#a6659c; stroke:none;" d="M132 384L133 385L132 384z"/>
<path style="fill:#666366; stroke:none;" d="M132 385L133 386L132 385z"/>
<path style="fill:#a6659c; stroke:none;" d="M566 385L567 386L566 385z"/>
<path style="fill:#666366; stroke:none;" d="M566 386L566 389L567 389L566 386M133 387L134 388L133 387z"/>
<path style="fill:#a6659c; stroke:none;" d="M563 387L564 391L565 391L563 387z"/>
<path style="fill:#666366; stroke:none;" d="M134 388L135 389L134 388z"/>
<path style="fill:#a6659c; stroke:none;" d="M135 389L136 390L135 389z"/>
<path style="fill:#666366; stroke:none;" d="M135 390L136 391L135 390z"/>
<path style="fill:#a6659c; stroke:none;" d="M567 391L568 392L567 391z"/>
<path style="fill:#666366; stroke:none;" d="M136 392L137 393L136 392M138 392L137 395L138 392z"/>
<path style="fill:#a6659c; stroke:none;" d="M137 393L138 394L137 393M566 396L569 407L570 407L567 399L569 396L568 396L566 396z"/>
<path style="fill:#c8bfc6; stroke:none;" d="M567.333 399.667L567.667 400.333L567.333 399.667z"/>
<path style="fill:#666366; stroke:none;" d="M568 400L569 401L568 400z"/>
<path style="fill:#a6659c; stroke:none;" d="M570 408L570 413L571 413L570 408M571 413L572 414L571 413M572.333 415.667L572.667 416.333L572.333 415.667M573 420L574 421L573 420M574 423L575 424L574 423M575 427L576 428L575 427M599 434C590.939 437.82 584.035 439.135 584 449L585 449C585.561 441.74 593.563 439.147 600 438L599 434M577 436L578 437L577 436M578 439L579 440L578 439M579.333 441.667L579.667 442.333L579.333 441.667M580.333 445.667L580.667 446.333L580.333 445.667z"/>
<path style="fill:#171618; stroke:none;" d="M599 497L600 497L600 445C577.603 452.515 595.536 480.217 599 497z"/>
<path style="fill:#a6659c; stroke:none;" d="M581 449L582 450L581 449M582 453L583 454L582 453M585 454L585 457L586 457L585 454M583.333 455.667L583.667 456.333L583.333 455.667M586 457L586 460L587 460L586 457M584.333 458.667L584.667 459.333L584.333 458.667M587 461C586.688 464.081 585.533 466.242 589 467L587 461M585.333 462.667L585.667 463.333L585.333 462.667z"/>
<path style="fill:#c8bfc6; stroke:none;" d="M587 467L591 479C591.628 474.755 590.557 469.671 587 467z"/>
<path style="fill:#a6659c; stroke:none;" d="M589.333 468.667L589.667 469.333L589.333 468.667M587.333 469.667L587.667 470.333L587.333 469.667M590 470L590 473L591 473L590 470M588 472L588 475L589 475L588 472M591.333 474.667L591.667 475.333L591.333 474.667M589.333 476.667L589.667 477.333L589.333 476.667M592 477L593 481L592 488L593 488L595 486L592 477z"/>
<path style="fill:#c8bfc6; stroke:none;" d="M591 480L591 482L593 480L591 480M593 485L594 491L595 491L593 485z"/>
<path style="fill:#a6659c; stroke:none;" d="M595 487L593 490L595 492L598 499L595 487M597.667 502.333L598.333 502.667L597.667 502.333M599 505L599 508L600 508L599 505z"/>
<path style="fill:#666366; stroke:none;" d="M202 562C203.573 568.987 204.873 572.508 212 575L209 573C210.651 568.163 209.417 565.335 207 561C211.131 561.464 219.174 565.964 216 571L225 575L224 579L228 574L231 574L228 568C234.197 572.024 237.819 565.935 239 560C226.066 559.733 214.577 557.312 202 562M492 558L494 571L495 571C495 566.503 495.899 560.968 492 558z"/>
<path style="fill:#171618; stroke:none;" d="M226 572L226 574L228 574L228 572L226 572z"/>
<path style="fill:#666366; stroke:none;" d="M203 574L203 580L209 580L203 574z"/>
</svg>
