<?xml version="1.0" standalone="no"?>
<!DOCTYPE svg PUBLIC "-//W3C//DTD SVG 20010904//EN"
 "http://www.w3.org/TR/2001/REC-SVG-20010904/DTD/svg10.dtd">
<svg version="1.0" xmlns="http://www.w3.org/2000/svg"
 width="225.000000pt" height="225.000000pt" viewBox="0 0 225.000000 225.000000"
 preserveAspectRatio="xMidYMid meet">
<metadata>
Created by potrace 1.16, written by Peter Selinger 2001-2019
</metadata>
<g transform="translate(0.000000,225.000000) scale(0.100000,-0.100000)"
fill="#000000" stroke="none">
<path d="M920 2062 c0 -7 -4 -10 -10 -7 -5 3 -10 3 -11 -2 0 -4 -2 -16 -4 -26
-2 -9 5 -23 14 -30 25 -17 41 -51 41 -86 0 -16 7 -60 16 -97 13 -57 13 -78 3
-129 -10 -54 -9 -68 10 -131 11 -39 21 -82 21 -95 1 -74 1 -139 0 -180 -1 -25
3 -56 8 -70 5 -14 5 -57 -1 -105 -9 -78 -10 -81 -33 -76 -13 2 -31 -1 -39 -8
-9 -7 -19 -10 -23 -6 -4 4 -7 65 -8 134 0 128 -10 179 -36 179 -19 0 -21 -37
-3 -44 16 -6 31 -66 20 -83 -5 -8 -12 -5 -22 9 -21 30 -61 27 -74 -5 -5 -15
-6 -36 -3 -48 6 -18 5 -19 -10 -7 -9 7 -16 11 -16 7 0 -4 -11 1 -25 10 -20 13
-23 20 -14 36 6 10 21 24 35 30 31 14 30 22 -3 37 -23 11 -29 10 -39 -4 -7 -9
-17 -14 -23 -10 -13 8 -13 8 -1 -34 5 -19 7 -31 4 -28 -11 11 -34 -21 -34 -47
0 -14 -5 -26 -11 -26 -7 0 -18 -8 -25 -17 -12 -16 -13 -17 -14 -1 0 9 -11 30
-25 46 -33 39 -32 51 6 64 16 6 28 13 25 15 -3 3 -18 -2 -35 -10 -29 -14 -30
-14 -42 15 -7 18 -15 26 -21 20 -6 -6 -6 -17 1 -30 15 -28 14 -59 -3 -65 -17
-7 -38 30 -34 63 2 17 -3 25 -16 28 -16 3 -18 -1 -14 -23 7 -32 -21 -87 -41
-83 -7 2 -27 30 -45 63 -31 60 -43 75 -60 75 -5 0 -2 -8 7 -18 28 -31 77 -156
64 -164 -20 -13 -47 -9 -47 6 0 7 -12 22 -27 31 -26 17 -27 17 -44 -4 -10 -12
-15 -29 -12 -37 9 -24 -15 -41 -62 -42 -40 0 -45 2 -45 22 0 12 7 31 15 42 27
36 14 74 -15 40 -6 -8 -18 -12 -27 -9 -13 5 -13 3 -4 -15 7 -14 8 -29 1 -46
-8 -23 -12 -25 -37 -16 -15 6 -38 23 -50 37 l-22 27 -1 -567 -1 -567 1126 0
1126 0 -2 593 c-1 546 -3 588 -17 542 l-15 -50 -9 33 c-14 50 -57 41 -49 -10
0 -5 -5 -8 -12 -8 -27 0 -87 107 -87 156 0 12 -4 25 -9 29 -12 7 -26 -15 -15
-24 5 -3 10 -18 11 -33 2 -31 27 -87 60 -137 24 -35 31 -85 13 -96 -5 -3 -25
-6 -44 -7 -28 -1 -36 -6 -41 -25 -3 -13 -3 -29 1 -36 4 -7 -3 -3 -15 9 -26 24
-20 50 15 58 13 4 24 11 24 17 0 15 -29 23 -43 11 -9 -8 -11 5 -9 58 4 72 -8
110 -34 110 -12 0 -15 6 -10 26 8 31 -20 124 -37 124 -7 0 -18 -4 -26 -9 -11
-7 -9 -10 7 -15 27 -9 39 -65 23 -109 -6 -18 -9 -23 -7 -11 5 33 -12 54 -45
54 -23 0 -32 -6 -40 -27 -5 -14 -8 -32 -5 -39 3 -8 0 -11 -10 -7 -18 7 -18 52
0 59 8 3 14 14 13 25 -2 33 -41 22 -76 -22 l-33 -40 21 -23 c28 -29 27 -44 -4
-56 -14 -5 -25 -14 -25 -20 0 -5 -4 -10 -10 -10 -5 0 -10 8 -10 17 0 9 -7 24
-16 34 -22 24 -11 69 16 69 10 0 21 4 24 9 9 13 -36 1 -55 -16 -15 -12 -19 -9
-38 29 -11 24 -21 35 -21 26 0 -10 -4 -18 -10 -18 -5 0 -10 5 -10 11 0 5 -4 7
-10 4 -5 -3 -10 -20 -10 -37 0 -26 -32 -83 -47 -83 -2 0 -14 18 -24 40 -20 38
-35 66 -52 93 -5 7 -13 10 -18 6 -7 -4 -5 -12 4 -22 8 -10 22 -39 32 -65 10
-26 22 -50 26 -53 19 -11 7 -31 -26 -47 -45 -21 -42 -22 -43 13 -1 36 -9 50
-28 50 -15 0 -35 -40 -38 -75 -1 -15 -9 -21 -37 -23 -35 -3 -35 -3 -31 33 2
20 11 39 18 42 22 8 16 31 -8 35 -18 2 -26 18 -47 89 -15 47 -32 93 -40 102
-11 14 -11 22 4 54 17 36 17 39 -4 103 -11 37 -21 76 -21 87 0 19 29 107 93
287 14 38 35 82 48 99 18 24 19 29 5 24 -9 -4 -15 -3 -11 2 3 5 1 20 -4 33 -9
22 -9 22 -16 3 -26 -76 -62 -146 -102 -201 -26 -35 -52 -80 -58 -101 l-11 -38
-15 30 c-9 19 -26 33 -46 40 -30 8 -35 16 -59 88 -25 75 -26 97 -9 157 7 24 7
24 -11 7 -18 -17 -20 -17 -46 15 -15 18 -28 27 -28 20z m97 -814 c-3 -8 -6 -5
-6 6 -1 11 2 17 5 13 3 -3 4 -12 1 -19z m607 -34 c3 -9 6 -27 6 -40 0 -24 0
-24 -19 -5 -12 12 -17 27 -14 40 6 25 19 27 27 5z m166 -4 c0 -19 -11 -26 -23
-14 -8 8 3 34 14 34 5 0 9 -9 9 -20z m184 -56 c15 -22 16 -32 5 -82 l-12 -57
-12 58 c-10 48 -10 107 0 107 1 0 10 -11 19 -26z m-1419 -44 c-3 -5 -15 -15
-25 -20 -18 -10 -19 -8 -10 16 17 43 22 48 32 30 5 -9 6 -21 3 -26z m185 -4
c0 -7 -7 -21 -16 -32 -15 -18 -15 -18 -8 5 4 16 3 21 -5 17 -6 -4 -11 -3 -11
3 0 5 5 13 10 16 6 4 7 12 3 18 -4 7 0 6 10 -2 9 -7 17 -19 17 -25z m923 -3
c-3 -7 -11 -13 -19 -13 -7 0 -11 6 -8 13 3 8 11 14 18 14 8 0 12 -6 9 -14z
m-1084 -45 c1 -5 -7 -8 -17 -8 -15 0 -17 -6 -14 -34 4 -31 2 -33 -22 -29 -25
5 -25 6 -10 41 8 20 22 43 32 52 15 16 18 16 24 1 4 -9 7 -19 7 -23z m1083
-10 c-9 -4 -11 -7 -4 -7 6 -1 12 -12 12 -26 0 -20 -5 -25 -26 -25 -22 0 -24 3
-19 23 4 12 14 33 22 46 12 19 17 21 24 10 5 -9 3 -16 -9 -21z m-1572 -22 c0
-2 -6 -6 -14 -9 -8 -3 -16 2 -19 14 -4 16 -2 17 14 8 10 -5 19 -11 19 -13z
m497 -8 c-3 -8 -6 -5 -6 6 -1 11 2 17 5 13 3 -3 4 -12 1 -19z m1253 -72 c-7
-7 -17 -4 -32 11 -20 21 -34 68 -16 57 4 -3 8 3 8 13 0 11 11 0 25 -26 18 -31
23 -47 15 -55z m-1072 65 c3 -8 -1 -12 -9 -9 -7 2 -15 10 -17 17 -3 8 1 12 9
9 7 -2 15 -10 17 -17z m-598 -1 c0 -16 -23 -60 -32 -60 -4 0 -8 16 -8 35 0 28
4 35 20 35 11 0 20 -4 20 -10z m1132 -13 c5 -27 0 -47 -13 -47 -5 0 -9 16 -9
35 0 39 15 48 22 12z m-573 -58 l-12 -23 -14 28 c-8 15 -11 36 -8 47 6 19 7
19 26 -5 17 -21 18 -29 8 -47z m257 26 c-7 -27 -25 -32 -44 -13 -18 18 -15 26
16 42 30 16 37 8 28 -29z m594 11 c0 -3 -4 -8 -10 -11 -5 -3 -10 -1 -10 4 0 6
5 11 10 11 6 0 10 -2 10 -4z m-1032 -23 c2 -8 -6 -13 -20 -13 -16 0 -25 6 -25
15 0 19 38 16 45 -2z m1112 -4 c7 -11 9 -23 6 -27 -3 -3 -6 0 -6 6 0 7 -13 12
-30 12 -20 0 -30 5 -30 15 0 23 47 19 60 -6z m580 -33 c0 -2 -7 -7 -16 -10 -8
-3 -12 -2 -9 4 6 10 25 14 25 6z"/>
<path d="M2230 1288 c0 -7 5 -20 10 -28 8 -12 10 -9 10 13 0 15 -4 27 -10 27
-5 0 -10 -6 -10 -12z"/>
<path d="M936 1139 c0 -49 14 -84 14 -38 l1 24 19 -24 c13 -15 20 -18 20 -9 0
8 -9 24 -20 36 -11 12 -20 28 -20 36 0 8 -3 17 -7 19 -5 3 -8 -17 -7 -44z"/>
</g>
</svg>
