<?xml version="1.0" standalone="yes"?>
<svg xmlns="http://www.w3.org/2000/svg" width="1000" height="871">
<path style="fill:#ffffff; stroke:none;" d="M0 0L0 25L25 25L25 50L0 50L0 75L25 75L25 100L0 100L0 125L25 125L25 150L0 150L0 175L25 175L25 200L0 200L0 225L25 225L25 250L0 250L0 275L25 275L25 300L0 300L0 325L25 325L25 350L0 350L0 375L25 375L25 400L0 400L0 425L25 425L25 450L0 450L0 475L25 475L25 500L0 500L0 525L25 525L25 550L0 550L0 575L25 575L25 600L0 600L0 625L25 625L25 650L0 650L0 675L25 675L25 700L0 700L0 725L25 725L25 750L0 750L0 775L25 775L25 800L0 800L0 825L25 825L25 850L0 850L0 871L25 871L25 850L50 850L50 871L75 871L75 850L100 850L100 871L125 871L125 850L150 850L150 871L175 871L175 850L200 850L200 871L225 871L225 850L250 850L250 871L275 871L275 850L300 850L300 871L325 871L325 850L350 850L350 871L375 871L375 850L400 850L400 871L425 871L425 850L450 850L450 871L475 871L475 850L500 850L500 871L525 871L525 850L550 850L550 871L575 871L575 850L600 850L600 871L625 871L625 850L650 850L650 871L675 871L675 850L700 850L700 871L725 871L725 850L750 850L750 871L775 871L775 850L800 850L800 871L825 871L825 850L850 850L850 871L875 871L875 850L900 850L900 871L925 871L925 850L950 850L950 871L975 871L975 850L1000 850L1000 825L975 825L975 800L1000 800L1000 775L975 775L975 750L1000 750L1000 725L975 725L975 700L1000 700L1000 675L975 675L975 650L1000 650L1000 625L975 625L975 600L1000 600L1000 575L975 575L975 550L1000 550L1000 525L975 525L975 500L1000 500L1000 475L975 475L975 450L1000 450L1000 425L975 425L975 400L1000 400L1000 375L975 375L975 350L1000 350L1000 325L975 325L975 300L1000 300L1000 275L975 275L975 250L1000 250L1000 225L975 225L975 200L1000 200L1000 175L975 175L975 150L1000 150L1000 125L975 125L975 100L1000 100L1000 75L975 75L975 50L1000 50L1000 25L975 25L975 0L950 0L950 25L925 25L925 0L900 0L900 25L875 25L875 0L850 0L850 25L825 25L825 0L800 0L800 25L775 25L775 0L750 0L750 25L725 25L725 0L700 0L700 25L675 25L675 0L650 0L650 25L625 25L625 0L600 0L600 25L575 25L575 0L550 0L550 25L525 25L525 0L500 0L500 25L475 25L475 0L450 0L450 25L425 25L425 0L400 0L400 25L375 25L375 0L350 0L350 25L325 25L325 0L300 0L300 25L275 25L275 0L250 0L250 25L225 25L225 0L200 0L200 25L175 25L175 0L150 0L150 25L125 25L125 0L100 0L100 25L75 25L75 0L50 0L50 25L25 25L25 0L0 0z"/>
<path style="fill:#e1e1e1; stroke:none;" d="M25 0L25 25L50 25L50 0L25 0M75 0L75 25L100 25L100 0L75 0M125 0L125 25L150 25L150 0L125 0M175 0L175 25L200 25L200 0L175 0M225 0L225 25L250 25L250 0L225 0M275 0L275 25L300 25L300 0L275 0M325 0L325 25L350 25L350 0L325 0M375 0L375 25L400 25L400 0L375 0M425 0L425 25L450 25L450 0L425 0M475 0L475 25L500 25L500 0L475 0M525 0L525 25L550 25L550 0L525 0M575 0L575 25L600 25L600 0L575 0M625 0L625 25L650 25L650 0L625 0M675 0L675 25L700 25L700 0L675 0M725 0L725 25L750 25L750 0L725 0M775 0L775 25L800 25L800 0L775 0M825 0L825 25L850 25L850 0L825 0M875 0L875 25L900 25L900 0L875 0M925 0L925 25L950 25L950 0L925 0M975 0L975 25L1000 25L1000 0L975 0M0 25L0 50L25 50L25 25L0 25M50 25L50 50L25 50L25 75L50 75L50 100L25 100L25 125L50 125L50 150L25 150L25 175L50 175L50 200L25 200L25 225L50 225L50 250L25 250L25 275L50 275L50 300L25 300L25 325L50 325L50 350L25 350L25 375L50 375L50 400L25 400L25 425L50 425L50 450L25 450L25 475L50 475L50 500L25 500L25 525L50 525L50 550L25 550L25 575L50 575L50 600L25 600L25 625L50 625L50 650L25 650L25 675L50 675L50 700L25 700L25 725L50 725L50 750L25 750L25 775L50 775L50 800L25 800L25 825L50 825L50 850L75 850L75 825L100 825L100 850L125 850L125 825L150 825L150 850L175 850L175 825L200 825L200 850L225 850L225 825L250 825L250 850L275 850L275 825L300 825L300 850L325 850L325 825L350 825L350 850L375 850L375 825L384 825L384 824L375 822C371.243 827.795 356.366 825 350 825L350 812L325 802L325 825L300 825L300 800L320 800L320 799L300 789L300 800L275 800C275 792.949 272.639 780.756 277 775L277 774L250 775C250 769.231 251.957 759.048 248.397 754.189C243.639 747.697 231.991 750 225 750C225 730.833 219.407 725 200 725C200 716.534 201.713 704.633 191.83 700.603C187.148 698.695 180.002 700 175 700C175 694.205 177.443 681.033 173.106 676.603C169.115 672.526 155.397 675 150 675L150 650L155 650L151 642L150 642L150 650L125 650L125 625L141 625C138.087 618.004 133.049 601.313 125 600C125 593.513 124.675 578.964 117.606 575.603C113.059 573.441 104.977 575 100 575L100 550L111 550C108.812 543.158 108.098 526.347 100 525L100 500L75 500L75 475L96 475L95 450L75 450L75 425L95 425L96 400L75 400L75 375L99 375L100 350L104 350L110 325L100 325L100 300C104.67 300 112.331 301.479 116.581 299.397C122.243 296.622 124.949 280.666 125 275C131.898 272.601 136.285 256.52 139 250L125 250L125 225L150 225L150 230L151 230L153 225C147.205 221.243 150 206.366 150 200C155.545 200 164.89 201.791 169.815 198.972C177.334 194.668 175 182.169 175 175C192.301 175 200 167.755 200 150C216.558 150 225 141.315 225 125C233.653 125 245.23 125.544 249.397 115.711C251.235 111.372 250 104.654 250 100C255.477 100 269.306 102.487 273.397 98.3966C277.487 94.3061 275 80.4766 275 75L300 75L300 82L313 76L313 75L300 75L300 50L325 50L325 69C335.771 66.0541 349.99 62.3524 350 50L375 50L375 25L350 25L350 50L325 50L325 25L300 25L300 50L275 50L275 25L250 25L250 50L225 50L225 25L200 25L200 50L175 50L175 25L150 25L150 50L125 50L125 25L100 25L100 50L75 50L75 25L50 25M400 25L400 42C405.205 41.5748 420.625 40.4283 423.972 36.2585C426.043 33.6787 425 28.1074 425 25L400 25M450 25L450 33L475 31L475 25L450 25M500 25L500 30L525 31L525 25L500 25M550 25C550.043 37.1336 565.094 35.7415 575 37L575 25L550 25M600 25L600 43L625 50L625 25L600 25M650 25L650 50L627 50L627 51L650 58L650 50L675 50C675 55.2489 673.346 63.8105 675.603 68.6096C679.305 76.4786 693.106 75 700 75C700.043 87.0737 715.402 92.6769 725 98L725 75L750 75L750 100L729 100L729 101L750 116L750 100L775 100L775 125L761 125L761 126L775 137L775 125L800 125L800 150L789 150L800 162L800 150L825 150L825 175L811 175L825 192L825 175L850 175L850 200L831 200C833.657 207.011 842.21 223.664 850 225C850.149 231.351 855.152 246.462 861.39 249.397C865.046 251.116 871.029 250 875 250C875 257.051 877.361 269.244 873 275L874 280L875 280L875 275L900 275L900 300L883 300L890 325L900 325L900 350L897 350L899 366L900 366L900 350L925 350L925 375L901 375L904 400L925 400L925 425L905 425L905 450L925 450L925 475C920.057 475 908.6 472.864 904.603 476.028C900.593 479.202 901.041 495.068 901 500L925 500L925 525L900 525L900 506L899 506L896 525L900 525L900 550L889 550L881 575L900 575L900 600L875 600L875 592L874 592L871 600L875 600L875 625C870.583 625 864.311 623.865 860.185 625.603C852.125 628.999 850.001 642.561 850 650C840.199 650.325 832.01 666.938 828 675L850 675L850 700L825 700L825 679L824 679L808 700L825 700L825 725L800 725L800 709L785 725L800 725L800 750L775 750L775 734L757 749L757 750L775 750L775 775L750 775L750 756L721.911 775.396L701.028 788.634L700 800L675 801L675 825L650 825L650 813L625 821L625 825C618.864 825 605.225 823.884 601.028 829.564C597.899 833.798 600 844.883 600 850L625 850L625 825L650 825L650 850L675 850L675 825L700 825L700 850L725 850L725 825L750 825L750 850L775 850L775 825L800 825L800 850L825 850L825 825L850 825L850 850L875 850L875 825L900 825L900 850L925 850L925 825L950 825L950 800L975 800L975 775L950 775L950 750L975 750L975 725L950 725L950 700L975 700L975 675L950 675L950 650L975 650L975 625L950 625L950 600L975 600L975 575L950 575L950 550L975 550L975 525L950 525L950 500L975 500L975 475L950 475L950 450L975 450L975 425L950 425L950 400L975 400L975 375L950 375L950 350L975 350L975 325L950 325L950 300L975 300L975 275L950 275L950 250L975 250L975 225L950 225L950 200L975 200L975 175L950 175L950 150L975 150L975 125L950 125L950 100L975 100L975 75L950 75L950 50L925 50L925 25L900 25L900 50L875 50L875 25L850 25L850 50L825 50L825 25L800 25L800 50L775 50L775 25L750 25L750 50L725 50L725 25L700 25L700 50L675 50L675 25L650 25M950 25L950 50L975 50L975 25L950 25z"/>
<path style="fill:#073757; stroke:none;" d="M484 30.4244C453.249 34.4621 423.271 35.9625 393 44.1512C305.862 67.7231 228.557 120.885 174.475 193C145.588 231.52 123.619 275.709 110.421 322C61.9758 491.92 129.405 679.954 279 776.308C319.164 802.178 363.443 820.68 410 831.349C456.93 842.103 506.34 843.985 554 837.718C742.011 812.996 896.592 651.111 904.961 460C911.162 318.371 847.746 182.181 730 101.026C697.623 78.7098 662.216 62.0721 625 49.6667C591.453 38.4844 556.243 32.5038 521 30.9606C508.787 30.4258 496.234 28.818 484 30.4244z"/>
<path style="fill:#ffffff; stroke:none;" d="M50 50L50 75L75 75L75 100L50 100L50 125L75 125L75 150L50 150L50 175L75 175L75 200L50 200L50 225L75 225L75 250L50 250L50 275L75 275L75 300L50 300L50 325L75 325L75 350L50 350L50 375L75 375L75 350L100 350L100 325L75 325L75 300L100 300L100 275L125 275L125 250L100 250L100 225L125 225L125 200L150 200L150 175L175 175L175 150L200 150L200 125L225 125L225 100L250 100L250 75L275 75L275 50L250 50L250 75L225 75L225 50L200 50L200 75L175 75L175 50L150 50L150 75L125 75L125 50L100 50L100 75L75 75L75 50L50 50M300 50L300 75C306.894 75 320.695 76.4785 324.397 68.6096C326.654 63.8106 325 55.2488 325 50L300 50M350 50L350 58L373 51L350 50M650 50C650.009 62.2038 664.153 66.4235 675 69L675 50L650 50M700 50L700 75L725 75L725 50L700 50M750 50L750 75L775 75L775 100L800 100L800 125L825 125L825 150L850 150L850 175L875 175L875 200L850 200L850 225L875 225L875 250L900 250L900 275L925 275L925 300L900 300L900 325L925 325L925 350L950 350L950 325L925 325L925 300L950 300L950 275L925 275L925 250L950 250L950 225L925 225L925 200L950 200L950 175L925 175L925 150L950 150L950 125L925 125L925 100L950 100L950 75L925 75L925 50L900 50L900 75L875 75L875 50L850 50L850 75L825 75L825 50L800 50L800 75L775 75L775 50L750 50z"/>
<path style="fill:#e1e1e1; stroke:none;" d="M975 50L975 75L1000 75L1000 50L975 50M0 75L0 100L25 100L25 75L0 75M100 75L100 100L75 100L75 125L100 125L100 150L75 150L75 175L100 175L100 200L75 200L75 225L100 225L100 200L125 200L125 175L150 175L150 150L175 150L175 125L200 125L200 100L225 100L225 75L200 75L200 100L175 100L175 75L150 75L150 100L125 100L125 75L100 75z"/>
<path style="fill:#ffffff; stroke:none;" d="M275 75L275 98C284.598 92.6769 299.957 87.0737 300 75L275 75M687 75L687 76L700 82L700 75L687 75M725 75C725 80.4767 722.513 94.3061 726.603 98.3966C730.694 102.487 744.523 100 750 100L750 75L725 75z"/>
<path style="fill:#e1e1e1; stroke:none;" d="M800 75L800 100L825 100L825 125L850 125L850 150L875 150L875 175L900 175L900 200L875 200L875 225L900 225L900 250L925 250L925 225L900 225L900 200L925 200L925 175L900 175L900 150L925 150L925 125L900 125L900 100L925 100L925 75L900 75L900 100L875 100L875 75L850 75L850 100L825 100L825 75L800 75z"/>
<path style="fill:#ffffff; stroke:none;" d="M100 100L100 125L125 125L125 150L100 150L100 175L125 175L125 150L150 150L150 125L175 125L175 100L150 100L150 125L125 125L125 100L100 100M250 100L250 116L271 101L250 100M750 100C750 104.654 748.765 111.372 750.603 115.711C754.77 125.544 766.347 125 775 125L775 100L750 100M850 100L850 125L875 125L875 150L900 150L900 125L875 125L875 100L850 100z"/>
<path style="fill:#e1e1e1; stroke:none;" d="M975 100L975 125L1000 125L1000 100L975 100M0 125L0 150L25 150L25 125L0 125z"/>
<path style="fill:#ffffff; stroke:none;" d="M225 125L225 137L238 125L225 125M775 125C775 141.388 783.386 150 800 150L800 125L775 125M200 150L200 162L211 150L200 150M800 150C800 167.755 807.699 175 825 175L825 150L800 150z"/>
<path style="fill:#e1e1e1; stroke:none;" d="M975 150L975 175L1000 175L1000 150L975 150M0 175L0 200L25 200L25 175L0 175z"/>
<path style="fill:#ffffff; stroke:none;" d="M175 175L175 192L189 175L175 175M825 175C825 182.243 822.56 194.676 830.174 198.972C835.142 201.776 844.423 200 850 200L850 175L825 175M150 200L150 225C157.692 223.681 166.371 206.934 169 200L150 200z"/>
<path style="fill:#e1e1e1; stroke:none;" d="M975 200L975 225L1000 225L1000 200L975 200z"/>
<path style="fill:#ffffff; stroke:none;" d="M409 385L591 385L591 321C591 295.519 591.154 272.319 576.946 250C539.97 191.914 447.789 195.829 417.889 259C408.53 278.774 409 298.655 409 320L409 385z"/>
<path style="fill:#e1e1e1; stroke:none;" d="M0 225L0 250L25 250L25 225L0 225z"/>
<path style="fill:#ffffff; stroke:none;" d="M125 225L125 250C129.068 250 135.159 251.113 138.787 248.972C145.034 245.287 149.839 231.839 150 225L125 225M847 225L849 230L850 230L850 225L847 225z"/>
<path style="fill:#073757; stroke:none;" d="M495 227.428C488.997 228.29 472.09 232.464 478.607 241.892C483.688 249.243 498.083 249.841 506 248.7C512.374 247.781 528.878 242.369 520.566 233.39C514.887 227.255 502.732 226.319 495 227.428z"/>
<path style="fill:#e1e1e1; stroke:none;" d="M75 250L75 275L100 275L100 250L75 250z"/>
<path style="fill:#ffffff; stroke:none;" d="M861 250C863.737 256.582 868.006 272.568 875 275L875 250L861 250z"/>
<path style="fill:#e1e1e1; stroke:none;" d="M975 250L975 275L1000 275L1000 250L975 250z"/>
<path style="fill:#073757; stroke:none;" d="M442 264.573C422.31 270.119 426.719 312.841 448 306.967C467.782 301.507 463.515 258.513 442 264.573M495 264.468C466.124 269.925 475.873 312.124 504 307.177C534.223 301.863 524.147 258.959 495 264.468M551.004 264.704C532.263 271.026 537.036 313.192 558 306.852C578.378 300.689 572.363 257.498 551.004 264.704z"/>
<path style="fill:#e1e1e1; stroke:none;" d="M0 275L0 300L25 300L25 275L0 275z"/>
<path style="fill:#ffffff; stroke:none;" d="M125 275L125 280L126 280L127 275L125 275M875 275C875.052 280.759 877.625 296.558 883.419 299.397C887.669 301.479 895.329 300 900 300L900 275L875 275M100 300L100 325L110 325L117 300L100 300z"/>
<path style="fill:#e1e1e1; stroke:none;" d="M975 300L975 325L1000 325L1000 300L975 300z"/>
<path style="fill:#073757; stroke:none;" d="M444 322.653C423.17 324.681 424.686 367.488 446 365.768C466.882 364.083 465.425 320.567 444 322.653M498 322.478C467.666 325.915 473.324 369.378 503 365.816C532.033 362.33 526.581 319.24 498 322.478M553 322.623C532.24 326.113 535.781 369.903 557 365.591C577.215 361.483 574.45 319.018 553 322.623z"/>
<path style="fill:#e1e1e1; stroke:none;" d="M0 325L0 350L25 350L25 325L0 325z"/>
<path style="fill:#ffffff; stroke:none;" d="M890 325L896 350L900 350L900 325L890 325M100 350L100 365L101 365L103 350L100 350M900 350L901 375L925 375L925 350L900 350z"/>
<path style="fill:#e1e1e1; stroke:none;" d="M975 350L975 375L1000 375L1000 350L975 350M0 375L0 400L25 400L25 375L0 375z"/>
<path style="fill:#ffffff; stroke:none;" d="M75 375L75 400L96 400L99 375L75 375M925 375L925 400L950 400L950 375L925 375M475 621C458.578 621 422.004 614.015 412.279 631.015C408.402 637.791 410 647.496 410 655L590 655C590 646.996 591.602 637.095 587.005 630.04C576.717 614.251 541.161 621 525 621L525 589C525 585.211 523.783 578.716 526.028 575.433C528.838 571.323 539.442 570.73 544 569.255C556.695 565.145 569.066 558.919 580 551.279C620.083 523.27 639 479.732 639 432C639 422.244 642.355 404.711 637.427 396.094C631.465 385.666 616.421 390.232 614.34 401C611.479 415.805 615.265 431.988 613.83 447C610.991 476.718 595.975 503.053 574 522.829C520.023 571.406 436.194 552.406 400.452 492C385.444 466.635 386.002 439.384 386 411C386 405.665 386.412 399.683 383.121 395.108C378.244 388.329 366.559 388.592 362.457 396.094C357.676 404.837 361 422.193 361 432C361 479.732 379.917 523.27 420 551.279C430.934 558.919 443.305 565.145 456 569.255C460.558 570.73 471.162 571.323 473.972 575.433C476.217 578.716 475 585.212 475 589L475 621M50 400L50 425L75 425L75 400L50 400M904 400L905 425L925 425L925 400L904 400z"/>
<path style="fill:#e1e1e1; stroke:none;" d="M975 400L975 425L1000 425L1000 400L975 400z"/>
<path style="fill:#ffffff; stroke:none;" d="M409 440C409 452.457 410.934 464.467 415.873 476C446.751 548.107 550.338 548.136 583.218 478C588.848 465.993 591 453.149 591 440C609.491 439.141 612.644 406.194 595 401.558C580.154 397.656 560.349 401 545 401L440 401C429.108 401 407.923 396.945 399.214 404.558C387.822 414.516 393.151 439.264 409 440z"/>
<path style="fill:#e1e1e1; stroke:none;" d="M0 425L0 450L25 450L25 425L0 425z"/>
<path style="fill:#ffffff; stroke:none;" d="M75 425L75 450L95 450L95 425L75 425M925 425L925 450L950 450L950 425L925 425M50 450L50 475L75 475L75 450L50 450M905 450L904 475L925 475L925 450L905 450z"/>
<path style="fill:#e1e1e1; stroke:none;" d="M975 450L975 475L1000 475L1000 450L975 450M0 475L0 500L25 500L25 475L0 475z"/>
<path style="fill:#ffffff; stroke:none;" d="M75 475L75 500L99 500C98.9586 495.001 99.2766 479.279 95.2577 476.028C91.3485 472.865 79.8714 475 75 475M925 475L925 500L950 500L950 475L925 475M50 500L50 525L75 525L75 550L50 550L50 575L75 575L75 600L50 600L50 625L75 625L75 650L50 650L50 675L75 675L75 700L50 700L50 725L75 725L75 750L50 750L50 775L75 775L75 800L50 800L50 825L75 825L75 800L100 800L100 825L125 825L125 800L150 800L150 825L175 825L175 800L200 800L200 825L225 825L225 800L250 800L250 825L275 825L275 800L250 800L250 775L225 775L225 750L200 750L200 725L175 725L175 700L150 700L150 675L125 675L125 650L100 650L100 625L125 625L125 600L100 600L100 575L75 575L75 550L100 550L100 525L75 525L75 500L50 500M900 500L900 525L925 525L925 500L900 500z"/>
<path style="fill:#e1e1e1; stroke:none;" d="M975 500L975 525L1000 525L1000 500L975 500z"/>
<path style="fill:#ffffff; stroke:none;" d="M100 506L100 525L104 525L100 506z"/>
<path style="fill:#e1e1e1; stroke:none;" d="M0 525L0 550L25 550L25 525L0 525z"/>
<path style="fill:#ffffff; stroke:none;" d="M889 550L900 550L900 525C891.902 526.347 891.188 543.158 889 550M925 525L925 550L900 550L900 575L925 575L925 600L900 600L900 625L875 625L875 650L850 650L850 675L875 675L875 700L850 700L850 725L825 725L825 750L800 750L800 775L775 775L775 800L750 800L750 775L725 775L725 800L700 800L700 825L725 825L725 800L750 800L750 825L775 825L775 800L800 800L800 825L825 825L825 800L850 800L850 825L875 825L875 800L900 800L900 825L925 825L925 800L950 800L950 775L925 775L925 750L950 750L950 725L925 725L925 700L950 700L950 675L925 675L925 650L950 650L950 625L925 625L925 600L950 600L950 575L925 575L925 550L950 550L950 525L925 525M100 550L100 575L119 575L111 550L100 550z"/>
<path style="fill:#e1e1e1; stroke:none;" d="M975 550L975 575L1000 575L1000 550L975 550M0 575L0 600L25 600L25 575L0 575z"/>
<path style="fill:#ffffff; stroke:none;" d="M875 600L900 600L900 575C894.949 575 886.915 573.462 882.278 575.603C875.318 578.818 875 593.656 875 600M125 592L125 600L129 600L125 592z"/>
<path style="fill:#e1e1e1; stroke:none;" d="M75 600L75 625L100 625L100 600L75 600z"/>
<path style="fill:#ffffff; stroke:none;" d="M859 625L875 625L875 600C866.841 601.328 861.944 617.93 859 625z"/>
<path style="fill:#e1e1e1; stroke:none;" d="M975 600L975 625L1000 625L1000 600L975 600M0 625L0 650L25 650L25 625L0 625z"/>
<path style="fill:#ffffff; stroke:none;" d="M125 625L125 650L150 650C149.999 642.561 147.874 628.999 139.815 625.603C135.689 623.865 129.417 625 125 625z"/>
<path style="fill:#e1e1e1; stroke:none;" d="M900 625L900 650L875 650L875 675L900 675L900 700L875 700L875 725L850 725L850 750L825 750L825 775L800 775L800 800L825 800L825 775L850 775L850 800L875 800L875 775L900 775L900 800L925 800L925 775L900 775L900 750L925 750L925 725L900 725L900 700L925 700L925 675L900 675L900 650L925 650L925 625L900 625z"/>
<path style="fill:#ffffff; stroke:none;" d="M849 642L845 650L850 650L849 642z"/>
<path style="fill:#e1e1e1; stroke:none;" d="M75 650L75 675L100 675L100 700L75 700L75 725L100 725L100 750L75 750L75 775L100 775L100 800L125 800L125 775L150 775L150 800L175 800L175 775L200 775L200 800L225 800L225 775L200 775L200 750L175 750L175 725L150 725L150 700L125 700L125 675L100 675L100 650L75 650z"/>
<path style="fill:#ffffff; stroke:none;" d="M150 650L150 675L172 675C167.99 666.938 159.801 650.325 150 650z"/>
<path style="fill:#e1e1e1; stroke:none;" d="M975 650L975 675L1000 675L1000 650L975 650M0 675L0 700L25 700L25 675L0 675z"/>
<path style="fill:#ffffff; stroke:none;" d="M825 700L850 700L850 675C844.59 675 830.743 672.517 826.742 676.603C822.539 680.897 825 694.354 825 700M175 679L175 700L192 700L175 679M100 700L100 725L125 725L125 750L100 750L100 775L125 775L125 750L150 750L150 775L175 775L175 750L150 750L150 725L125 725L125 700L100 700M800 725L825 725L825 700C819.998 700 812.852 698.695 808.17 700.603C798.287 704.633 800 716.534 800 725z"/>
<path style="fill:#e1e1e1; stroke:none;" d="M975 700L975 725L1000 725L1000 700L975 700z"/>
<path style="fill:#ffffff; stroke:none;" d="M200 709L200 725L215 725L200 709z"/>
<path style="fill:#e1e1e1; stroke:none;" d="M0 725L0 750L25 750L25 725L0 725z"/>
<path style="fill:#ffffff; stroke:none;" d="M775 750L800 750L800 725C780.593 725 775 730.833 775 750M875 725L875 750L850 750L850 775L875 775L875 750L900 750L900 725L875 725M225 734L225 750L243 750L243 749L225 734M750 775L775 775L775 750C768.009 750 756.361 747.697 751.603 754.189C748.043 759.048 750 769.231 750 775z"/>
<path style="fill:#e1e1e1; stroke:none;" d="M975 750L975 775L1000 775L1000 750L975 750z"/>
<path style="fill:#ffffff; stroke:none;" d="M250 756L250 775L275 775C270.989 767.665 257.647 759.233 250 756M723.667 774.333L724.333 774.667L723.667 774.333z"/>
<path style="fill:#e1e1e1; stroke:none;" d="M0 775L0 800L25 800L25 775L0 775z"/>
<path style="fill:#ffffff; stroke:none;" d="M275 775L275 800L300 800C300 786.558 288.509 777.605 275 775M699 789L680 799L680 800L700 800L699 789M300 800L300 825L325 825C325 819.59 327.483 805.743 323.397 801.742C319.103 797.539 305.646 800 300 800z"/>
<path style="fill:#e1e1e1; stroke:none;" d="M975 800L975 825L1000 825L1000 800L975 800z"/>
<path style="fill:#ffffff; stroke:none;" d="M650 812L650 825L675 825L675 802L650 812M350 813L350 825L375 825C372.719 817.953 356.73 814.595 350 813M616 824L616 825C619.644 825 624.096 826.217 625 822L616 824z"/>
<path style="fill:#e1e1e1; stroke:none;" d="M0 825L0 850L25 850L25 825L0 825M950 825L950 850L975 850L975 825L950 825M400 829L400 850L425 850L425 834L400 829M574 834L550 838L550 850L575 850L574 834M450 838L450 850L475 850L475 840L450 838M524 840L500 841L500 850L525 850L524 840M25 850L25 871L50 871L50 850L25 850M75 850L75 871L100 871L100 850L75 850M125 850L125 871L150 871L150 850L125 850M175 850L175 871L200 871L200 850L175 850M225 850L225 871L250 871L250 850L225 850M275 850L275 871L300 871L300 850L275 850M325 850L325 871L350 871L350 850L325 850M375 850L375 871L400 871L400 850L375 850M425 850L425 871L450 871L450 850L425 850M475 850L475 871L500 871L500 850L475 850M525 850L525 871L550 871L550 850L525 850M575 850L575 871L600 871L600 850L575 850M625 850L625 871L650 871L650 850L625 850M675 850L675 871L700 871L700 850L675 850M725 850L725 871L750 871L750 850L725 850M775 850L775 871L800 871L800 850L775 850M825 850L825 871L850 871L850 850L825 850M875 850L875 871L900 871L900 850L875 850M925 850L925 871L950 871L950 850L925 850M975 850L975 871L1000 871L1000 850L975 850z"/>
</svg>
