<?xml version="1.0" standalone="no"?>
<!DOCTYPE svg PUBLIC "-//W3C//DTD SVG 20010904//EN"
 "http://www.w3.org/TR/2001/REC-SVG-20010904/DTD/svg10.dtd">
<svg version="1.0" xmlns="http://www.w3.org/2000/svg"
 width="222.000000pt" height="227.000000pt" viewBox="0 0 222.000000 227.000000"
 preserveAspectRatio="xMidYMid meet">
<metadata>
Created by potrace 1.16, written by Peter Selinger 2001-2019
</metadata>
<g transform="translate(0.000000,227.000000) scale(0.100000,-0.100000)"
fill="#000000" stroke="none">
<path d="M870 2166 c-170 -44 -307 -113 -433 -218 -249 -208 -387 -500 -387
-817 0 -625 528 -1109 1155 -1059 419 34 782 319 914 716 85 256 78 494 -23
743 -55 138 -118 232 -231 345 -134 137 -279 222 -471 280 -78 23 -111 27
-259 30 -154 4 -179 2 -265 -20z m-28 -366 c88 -25 183 -120 208 -208 l10 -37
-178 -177 c-112 -113 -184 -178 -197 -178 -40 0 -121 48 -163 95 -55 63 -87
162 -78 238 15 114 103 226 203 260 56 18 142 21 195 7z m386 -516 c67 -87
177 -231 245 -318 67 -88 135 -175 151 -193 l29 -34 -69 -70 -70 -70 -345 271
c-189 149 -348 277 -354 285 -7 10 25 48 130 153 77 76 145 138 150 137 6 -1
65 -73 133 -161z m520 -657 c12 -11 22 -27 22 -36 0 -20 -90 -111 -109 -111
-18 0 -71 49 -71 65 0 20 109 117 123 109 6 -4 22 -16 35 -27z"/>
</g>
</svg>
