<?xml version="1.0" standalone="no"?>
<!DOCTYPE svg PUBLIC "-//W3C//DTD SVG 20010904//EN"
 "http://www.w3.org/TR/2001/REC-SVG-20010904/DTD/svg10.dtd">
<svg version="1.0" xmlns="http://www.w3.org/2000/svg"
 width="225.000000pt" height="225.000000pt" viewBox="0 0 225.000000 225.000000"
 preserveAspectRatio="xMidYMid meet">
<metadata>
Created by potrace 1.16, written by Peter Selinger 2001-2019
</metadata>
<g transform="translate(0.000000,225.000000) scale(0.100000,-0.100000)"
fill="#000000" stroke="none">
<path d="M770 2090 c0 -5 5 -10 11 -10 5 0 7 5 4 10 -3 6 -8 10 -11 10 -2 0
-4 -4 -4 -10z"/>
<path d="M803 2066 c3 -7 -4 -21 -15 -31 -19 -16 -20 -18 -5 -27 10 -5 17 -16
17 -23 0 -8 5 -15 10 -15 6 0 10 -4 10 -10 0 -5 -9 -10 -20 -10 -14 0 -18 -5
-13 -16 4 -10 -1 -22 -11 -30 -11 -7 -15 -18 -10 -25 4 -7 -5 -4 -19 7 -28 20
-35 37 -14 32 14 -3 17 3 17 32 0 11 -3 19 -7 19 -5 -1 -17 -1 -27 0 -19 1
-19 2 2 21 18 17 20 25 12 40 -12 23 -25 27 -17 6 3 -8 -1 -22 -10 -33 -14
-17 -14 -17 -9 0 4 11 2 16 -5 12 -5 -4 -7 -15 -4 -26 4 -11 2 -19 -5 -19 -8
0 -10 -9 -6 -25 4 -15 2 -25 -4 -25 -6 0 -8 5 -5 10 3 6 1 10 -5 10 -7 0 -10
7 -6 15 3 9 0 15 -9 15 -15 0 -18 -13 -16 -55 0 -11 -2 -14 -5 -7 -8 17 -24
15 -24 -4 0 -13 -7 -15 -35 -10 -23 5 -35 3 -35 -4 0 -6 -5 -8 -11 -4 -7 4
-20 -4 -30 -17 l-19 -24 0 22 c0 16 -4 21 -16 16 -11 -4 -14 -13 -10 -29 4
-13 2 -24 -3 -24 -7 0 -7 -9 -2 -22 13 -37 -7 -76 -54 -103 -65 -39 -149 -133
-184 -207 -99 -213 -121 -365 -66 -450 23 -35 25 -45 22 -135 -2 -54 0 -116 5
-138 23 -116 36 -158 74 -246 22 -52 54 -133 69 -178 22 -67 33 -86 59 -102
37 -23 81 -24 129 -4 27 11 35 12 32 3 -2 -7 15 -28 37 -46 35 -28 47 -32 75
-27 21 4 44 1 61 -8 15 -8 47 -23 72 -32 25 -10 59 -24 75 -31 18 -8 31 -9 33
-4 2 6 8 10 14 10 6 0 16 6 22 14 16 21 29 21 144 7 64 -8 131 -11 175 -6 40
4 94 9 121 11 27 3 58 11 70 19 28 20 86 20 86 0 0 -8 8 -15 18 -15 10 0 22
-4 27 -9 10 -9 28 3 34 24 10 29 14 34 24 28 5 -3 7 -1 4 4 -10 17 26 43 51
36 12 -3 22 -10 22 -17 0 -21 20 19 20 42 0 22 23 31 35 12 3 -5 -1 -10 -9
-10 -9 0 -16 -4 -16 -9 0 -5 11 -8 24 -5 18 3 26 -1 31 -16 3 -11 10 -20 13
-20 13 0 33 63 22 70 -5 3 -7 23 -3 44 5 33 8 37 18 23 7 -9 14 -15 16 -12 3
2 5 -6 6 -18 0 -12 -1 -16 -4 -9 -3 6 -9 12 -15 12 -7 0 -7 -5 1 -13 6 -8 7
-17 3 -22 -4 -4 3 -1 15 6 25 15 22 45 -5 65 -12 8 -12 15 -3 32 7 13 9 27 6
32 -4 6 7 10 26 10 27 0 30 2 19 15 -10 13 -9 15 9 15 16 0 21 -6 22 -27 l0
-28 10 25 c8 19 6 27 -7 37 -15 11 -16 13 -2 13 11 0 17 11 20 34 2 19 0 32
-4 30 -4 -3 -8 -10 -8 -16 0 -12 -30 -37 -45 -38 -5 0 -4 4 4 9 12 8 13 15 4
33 -8 18 -8 30 2 47 10 20 13 21 18 7 4 -10 3 -15 -3 -11 -6 3 -10 2 -10 -3 0
-17 28 -21 34 -6 9 22 7 36 -2 30 -5 -3 -8 11 -7 32 2 29 7 38 24 40 30 5 26
20 -6 24 -29 4 -28 5 25 25 9 3 23 5 31 4 7 -1 10 2 6 8 -3 6 1 11 9 11 20 0
21 19 1 26 -22 9 -19 23 4 17 14 -4 20 3 26 29 5 18 7 44 6 56 -1 13 2 21 7
18 6 -3 13 2 17 11 3 10 1 19 -4 21 -6 2 -11 10 -11 18 0 8 6 11 15 8 23 -9
36 5 25 26 -10 20 -3 53 10 45 4 -2 15 4 25 15 17 19 17 20 0 26 -12 5 -23 1
-33 -12 -13 -17 -14 -16 -9 21 3 27 0 44 -9 53 -8 7 -12 18 -8 23 3 5 2 9 -3
8 -34 -6 -46 15 -13 24 11 3 20 1 20 -5 0 -5 5 -6 11 -3 6 5 4 12 -8 20 -10 7
-21 11 -24 9 -4 -2 -5 5 -2 15 7 29 30 33 47 9 13 -18 18 -20 38 -9 22 11 22
11 2 7 -16 -2 -25 3 -33 20 -6 13 -16 24 -22 24 -6 0 -20 9 -30 21 -10 11 -22
18 -28 15 -5 -4 -13 -1 -17 5 -4 8 -3 9 4 5 7 -4 12 -3 12 3 0 5 9 13 20 16
19 6 29 26 13 24 -19 -3 -33 2 -33 11 0 6 6 10 14 10 13 0 13 4 1 27 -7 14
-20 30 -27 34 -7 5 -13 14 -13 21 0 7 -9 12 -19 10 -10 -2 -15 1 -12 6 3 6 2
22 -4 37 -8 22 -13 24 -29 15 -17 -8 -20 -7 -18 10 1 11 5 20 10 20 5 0 7 7 3
15 -3 8 -1 15 4 15 22 0 8 22 -20 31 -22 8 -30 17 -30 34 0 21 -30 59 -30 39
0 -5 -5 -2 -10 6 -7 11 -10 12 -10 2 0 -8 -9 -12 -22 -10 -13 2 -22 9 -20 17
2 9 -4 12 -18 8 -13 -3 -20 0 -20 9 0 16 -33 19 -60 4 -16 -9 -17 -7 -7 14 7
15 17 21 29 18 10 -2 18 0 18 6 0 6 -16 14 -36 18 -24 4 -34 11 -30 20 3 7 1
16 -5 20 -6 3 -13 -4 -16 -16 l-6 -22 -13 23 c-10 19 -13 20 -14 7 0 -10 -7
-18 -16 -18 -14 0 -13 5 5 36 12 19 21 37 21 39 0 3 -20 2 -45 -1 -39 -4 -44
-3 -38 12 4 12 3 15 -5 10 -8 -5 -12 4 -12 28 0 21 -5 36 -12 36 -6 0 -8 -3
-5 -7 4 -3 -2 -13 -14 -21 -15 -10 -24 -11 -32 -3 -16 16 -24 14 -32 -11 l-7
-23 -8 25 -8 25 -7 -22 c-4 -13 -11 -23 -16 -23 -5 0 -9 -5 -9 -11 0 -5 4 -8
9 -4 5 3 12 2 15 -3 2 -4 -4 -13 -14 -20 -11 -6 -21 -8 -24 -3 -3 5 -17 9 -30
9 -19 0 -25 -7 -30 -30 -3 -17 -3 -34 0 -39 3 -5 0 -9 -5 -9 -6 0 -11 6 -11
14 0 7 -7 19 -15 26 -20 17 -19 34 2 26 10 -4 14 -4 10 0 -4 4 -2 13 3 19 7 9
-5 7 -37 -3 -27 -9 -51 -20 -55 -26 -6 -7 -11 -6 -18 4 -7 11 -4 16 13 20 12
4 17 9 11 12 -14 9 -83 -24 -84 -40 0 -19 31 -27 41 -11 5 8 9 11 9 6 0 -12
-24 -51 -42 -68 -16 -15 -12 -18 65 -41 74 -23 83 -24 93 -9 7 9 10 19 8 23
-3 5 10 8 28 8 25 0 29 -3 18 -10 -13 -8 -12 -10 3 -10 22 0 20 -31 -2 -38 -8
-3 -11 0 -7 6 6 10 -23 26 -32 17 -3 -3 1 -5 9 -5 11 0 11 -2 1 -8 -8 -5 33
-23 109 -47 67 -21 130 -46 140 -56 18 -18 19 -44 19 -478 0 -315 -4 -469 -11
-492 -27 -78 -104 -129 -199 -129 -138 0 -239 96 -210 202 33 116 176 169 313
113 16 -7 17 12 17 309 l0 315 -263 86 c-145 47 -267 85 -271 85 -4 0 -6 -74
-4 -165 2 -91 1 -165 -2 -165 -3 0 -6 -101 -7 -225 -3 -240 -6 -257 -55 -302
-64 -60 -179 -71 -269 -26 -194 99 -71 343 155 306 47 -8 55 -7 42 3 -13 9
-14 13 -4 16 8 3 4 9 -11 17 -19 11 -25 11 -32 0 -10 -16 -13 -13 -27 29 -6
17 -7 32 -3 32 5 0 12 -10 16 -22 6 -20 8 -21 12 -5 3 10 -1 25 -9 34 -11 14
-10 15 12 9 21 -6 22 -5 8 4 -10 6 -18 20 -18 32 0 19 1 19 21 -6 11 -14 28
-25 37 -25 14 1 14 2 -1 6 -11 3 -16 10 -13 20 3 8 6 24 6 34 0 12 4 17 11 14
6 -4 8 -13 5 -20 -2 -7 2 -16 10 -19 12 -5 14 38 14 299 0 263 2 306 16 319
19 20 13 20 98 -5 104 -32 165 -31 166 3 0 3 -14 14 -31 22 -30 15 -31 15 -26
-4 8 -31 -16 -43 -37 -18 -14 16 -15 20 -3 15 9 -3 17 1 20 13 6 24 -4 38 -26
34 -9 -1 -15 1 -12 6 3 4 -2 11 -11 14 -22 9 -24 8 -24 -9 0 -8 -4 -15 -9 -15
-4 0 -6 11 -3 25 5 28 18 32 41 11 9 -7 25 -16 37 -20 18 -6 20 -3 16 24 -4
27 -22 44 -22 20 0 -5 -4 -10 -10 -10 -5 0 -10 7 -10 15 0 14 -31 14 -77 -1
-8 -2 -13 5 -13 16 0 24 -8 25 -32 3 -17 -15 -18 -15 -18 3 0 14 -2 16 -9 5
-6 -9 -11 -10 -15 -2 -4 6 -4 16 -1 22 4 5 4 21 1 34 -5 18 -11 22 -28 18
l-23 -5 24 20 c20 16 21 20 7 25 -9 4 -16 13 -16 22 0 8 -5 15 -11 15 -6 0 -9
-6 -6 -14z m47 -96 c0 -5 -4 -10 -10 -10 -5 0 -10 5 -10 10 0 6 5 10 10 10 6
0 10 -4 10 -10z m-39 -63 c-5 -13 -7 -36 -5 -53 4 -28 4 -28 -6 -5 -12 27 -4
81 11 81 5 0 5 -10 0 -23z m692 -82 c-25 -19 -28 -2 -6 32 18 27 18 27 21 4 2
-13 -4 -28 -15 -36z m-970 20 c-3 -9 -8 -14 -10 -11 -3 3 -2 9 2 15 9 16 15
13 8 -4z m311 -11 c3 -8 2 -12 -4 -9 -6 3 -10 10 -10 16 0 14 7 11 14 -7z
m702 -30 c-3 -8 -10 -12 -16 -9 -5 3 -10 2 -10 -3 0 -14 34 -25 38 -13 2 6 8
11 14 11 6 0 6 -6 -2 -15 -16 -20 -46 -19 -54 1 -3 8 2 26 12 39 17 24 29 17
18 -11z m44 22 c0 -3 -4 -8 -10 -11 -5 -3 -10 -1 -10 4 0 6 5 11 10 11 6 0 10
-2 10 -4z m-362 -40 c12 17 53 12 49 -6 -2 -10 -12 -14 -30 -13 -19 1 -27 -3
-27 -14 0 -11 8 -14 30 -11 34 5 43 -1 30 -22 -7 -11 -12 -11 -23 -2 -8 7 -22
10 -31 6 -9 -3 -16 -1 -16 5 0 6 -6 10 -12 9 -7 -2 -12 3 -10 10 1 6 -3 12
-10 12 -6 0 -3 9 7 20 14 16 20 17 27 8 5 -9 10 -10 16 -2z m232 -2 c0 -2 -7
-4 -15 -4 -8 0 -15 4 -15 10 0 5 7 7 15 4 8 -4 15 -8 15 -10z m-40 -33 c0 -18
-18 -21 -30 -6 -10 13 -9 15 9 15 11 0 21 -4 21 -9z m140 -21 c0 -5 -4 -10
-10 -10 -5 0 -10 5 -10 10 0 6 5 10 10 10 6 0 10 -4 10 -10z m-52 -40 c7 -11
9 -20 4 -20 -10 0 -32 22 -32 32 0 15 15 8 28 -12z m-98 -25 c0 -8 -4 -15 -8
-15 -5 0 -9 7 -9 15 0 8 4 15 9 15 4 0 8 -7 8 -15z m64 -10 c-4 -8 -7 -15 -9
-15 -2 0 -5 7 -9 15 -3 9 0 15 9 15 9 0 12 -6 9 -15z m-34 -5 c0 -5 -2 -10 -4
-10 -3 0 -8 5 -11 10 -3 6 -1 10 4 10 6 0 11 -4 11 -10z m404 -39 c4 -5 -3 -7
-14 -4 -23 6 -26 13 -6 13 8 0 17 -4 20 -9z m-54 -11 c0 -5 -5 -10 -11 -10 -5
0 -7 5 -4 10 3 6 8 10 11 10 2 0 4 -4 4 -10z m-30 -40 c0 -5 -4 -10 -10 -10
-5 0 -10 5 -10 10 0 6 5 10 10 10 6 0 10 -4 10 -10z m-567 -87 c-5 -12 -3 -14
7 -8 8 5 11 4 6 -3 -9 -15 -36 -4 -36 14 0 8 7 14 15 14 9 0 12 -6 8 -17z m82
-41 c-3 -3 -11 0 -18 7 -9 10 -8 11 6 5 10 -3 15 -9 12 -12z m-75 -14 c0 -6
-7 -7 -16 -4 -9 3 -20 6 -25 6 -5 0 -9 4 -9 9 0 4 11 6 25 3 14 -2 25 -9 25
-14z m105 -7 c3 -5 1 -12 -5 -16 -5 -3 -10 1 -10 9 0 18 6 21 15 7z m-105 -41
c0 -5 -5 -10 -11 -10 -5 0 -7 5 -4 10 3 6 8 10 11 10 2 0 4 -4 4 -10z m-60
-20 c0 -5 -5 -10 -11 -10 -5 0 -7 5 -4 10 3 6 8 10 11 10 2 0 4 -4 4 -10z
m-90 -45 c0 -8 -4 -15 -10 -15 -5 0 -7 7 -4 15 4 8 8 15 10 15 2 0 4 -7 4 -15z
m57 -27 c-3 -7 -5 -2 -5 12 0 14 2 19 5 13 2 -7 2 -19 0 -25z m-767 18 c0 -3
-4 -8 -10 -11 -5 -3 -10 -1 -10 4 0 6 5 11 10 11 6 0 10 -2 10 -4z m-10 -71
c0 -8 -4 -15 -10 -15 -5 0 -7 7 -4 15 4 8 8 15 10 15 2 0 4 -7 4 -15z m467
-47 c-3 -8 -6 -5 -6 6 -1 11 2 17 5 13 3 -3 4 -12 1 -19z m-47 2 c0 -5 -4 -10
-10 -10 -5 0 -10 5 -10 10 0 6 5 10 10 10 6 0 10 -4 10 -10z m233 -37 c-7 -2
-13 -12 -13 -20 0 -9 -3 -14 -6 -10 -10 10 4 37 18 36 10 0 10 -2 1 -6z m-243
-13 c0 -5 -2 -10 -4 -10 -3 0 -8 5 -11 10 -3 6 -1 10 4 10 6 0 11 -4 11 -10z
m260 -20 c0 -5 -4 -10 -10 -10 -5 0 -10 5 -10 10 0 6 5 10 10 10 6 0 10 -4 10
-10z m-267 -45 c4 -8 3 -16 -1 -19 -4 -3 -9 4 -9 15 -2 23 3 25 10 4z m-363
-21 c0 -8 -5 -12 -10 -9 -6 4 -8 11 -5 16 9 14 15 11 15 -7z m30 -30 c0 -8 -4
-12 -10 -9 -6 3 -10 -4 -10 -17 0 -17 3 -19 9 -9 5 7 11 9 14 4 3 -5 2 -15 -3
-23 -7 -11 -11 -11 -24 -1 -19 16 -21 57 -3 64 21 9 27 7 27 -9z m607 -276
c-3 -7 -5 -2 -5 12 0 14 2 19 5 13 2 -7 2 -19 0 -25z m993 1 c0 -5 -7 -9 -15
-9 -9 0 -12 6 -9 15 6 15 24 11 24 -6z m-80 -119 c0 -5 -4 -10 -10 -10 -5 0
-10 5 -10 10 0 6 5 10 10 10 6 0 10 -4 10 -10z m-33 -156 c-3 -3 -12 -4 -19
-1 -8 3 -5 6 6 6 11 1 17 -2 13 -5z m-1167 -19 c0 -8 -4 -15 -10 -15 -5 0 -10
7 -10 15 0 8 5 15 10 15 6 0 10 -7 10 -15z m1140 1 c0 -3 -4 -8 -10 -11 -5 -3
-10 -1 -10 4 0 6 5 11 10 11 6 0 10 -2 10 -4z m-1035 -66 c0 -7 -6 -15 -12
-17 -8 -3 -13 4 -13 17 0 13 5 20 13 18 6 -3 12 -11 12 -18z m961 -15 c-14
-14 -16 -14 -16 -2 0 9 6 17 13 20 19 7 21 -1 3 -18z m-1076 5 c0 -5 -4 -10
-10 -10 -5 0 -10 5 -10 10 0 6 5 10 10 10 6 0 10 -4 10 -10z m-140 -36 c0 -2
-9 -4 -21 -4 -11 0 -18 4 -14 10 5 8 35 3 35 -6z m170 -30 c0 -8 5 -14 10 -14
6 0 10 -5 10 -10 0 -7 -6 -7 -19 0 -11 5 -19 19 -18 29 1 22 17 18 17 -5z
m-10 -34 c8 -5 11 -10 5 -10 -5 0 -17 5 -25 10 -8 5 -10 10 -5 10 6 0 17 -5
25 -10z m-50 -10 c0 -5 -4 -10 -10 -10 -5 0 -10 5 -10 10 0 6 5 10 10 10 6 0
10 -4 10 -10z m160 0 c0 -5 -5 -10 -11 -10 -5 0 -7 5 -4 10 3 6 8 10 11 10 2
0 4 -4 4 -10z"/>
<path d="M846 2071 c-4 -7 -5 -15 -2 -18 9 -9 19 4 14 18 -4 11 -6 11 -12 0z"/>
<path d="M860 2031 c0 -5 8 -11 18 -15 9 -3 23 -9 30 -12 7 -3 12 2 12 13 0
14 -2 15 -9 5 -7 -11 -9 -11 -14 2 -7 17 -37 23 -37 7z"/>
<path d="M617 2013 c-4 -3 -7 -13 -7 -22 1 -13 3 -13 11 2 11 19 8 33 -4 20z"/>
<path d="M760 1984 c0 -8 5 -12 10 -9 6 4 8 11 5 16 -9 14 -15 11 -15 -7z"/>
<path d="M973 1993 c-7 -3 -13 -11 -13 -20 0 -12 2 -12 16 2 18 17 16 25 -3
18z"/>
<path d="M870 1970 c0 -11 2 -20 4 -20 2 0 6 9 9 20 3 11 1 20 -4 20 -5 0 -9
-9 -9 -20z"/>
<path d="M906 1975 c-11 -8 -17 -17 -14 -21 8 -8 48 14 48 26 0 14 -12 12 -34
-5z"/>
<path d="M1137 1949 c4 -15 8 -17 14 -8 8 14 3 29 -11 29 -4 0 -6 -9 -3 -21z"/>
<path d="M576 1945 c-3 -9 -10 -13 -16 -10 -5 3 -10 -1 -10 -9 0 -9 6 -13 14
-10 15 6 30 33 22 41 -2 2 -6 -3 -10 -12z"/>
<path d="M1035 1930 c3 -5 8 -10 11 -10 2 0 4 5 4 10 0 6 -5 10 -11 10 -5 0
-7 -4 -4 -10z"/>
<path d="M1635 1831 c-3 -5 -1 -12 5 -16 5 -3 10 1 10 9 0 18 -6 21 -15 7z"/>
<path d="M1707 1796 c-6 -15 1 -26 15 -26 4 0 8 9 8 20 0 23 -15 27 -23 6z"/>
<path d="M1078 1743 c7 -3 16 -2 19 1 4 3 -2 6 -13 5 -11 0 -14 -3 -6 -6z"/>
<path d="M2085 1280 c-3 -5 -1 -10 4 -10 6 0 11 5 11 10 0 6 -2 10 -4 10 -3 0
-8 -4 -11 -10z"/>
<path d="M2120 1130 c0 -5 4 -10 9 -10 6 0 13 5 16 10 3 6 -1 10 -9 10 -9 0
-16 -4 -16 -10z"/>
<path d="M838 1107 c-2 -12 -1 -45 2 -72 7 -48 7 -48 9 23 1 73 -3 91 -11 49z"/>
<path d="M2080 869 c0 -5 5 -7 10 -4 6 3 10 8 10 11 0 2 -4 4 -10 4 -5 0 -10
-5 -10 -11z"/>
<path d="M1984 641 c0 -11 4 -17 8 -15 4 3 8 12 8 20 0 8 -4 14 -8 14 -4 0 -8
-9 -8 -19z"/>
<path d="M1845 370 c-3 -5 1 -10 9 -10 9 0 16 5 16 10 0 6 -4 10 -9 10 -6 0
-13 -4 -16 -10z"/>
</g>
</svg>
