<?xml version="1.0" standalone="yes"?>
<svg xmlns="http://www.w3.org/2000/svg" width="512" height="512">
<path style="fill:#020101; stroke:none;" d="M0 0L0 512L512 512L512 0L0 0z"/>
<path style="fill:#756873; stroke:none;" d="M345 15L345 16L352 16L345 15z"/>
<path style="fill:#a17c8a; stroke:none;" d="M448 73L447 73C447 85.9932 449.772 102.497 442.441 113.996C438.853 119.624 427.661 123.03 425.693 128.278C423.796 133.336 427.206 142.388 426.961 148C426.377 161.334 421.087 175.283 413.243 186C405.171 197.029 394.599 205.735 382 211.127C317.116 238.896 256.191 156.88 299.015 102C305.721 93.4062 314.296 86.6797 324 81.7562C333.453 76.9598 343.35 74.0171 354 74C365.858 73.981 376.31 75.8573 387 81.2585C397.449 86.538 400.477 77.1232 410 73.4684C417.039 70.7668 423.967 72.3923 431 74C431 67.4414 432.68 58.1927 430.397 52C427.578 44.356 417.33 37.7953 411 33.1551C384.887 14.0138 354.812 11.7344 324 19.6296C263.922 35.024 220.211 92.4238 226.17 155C232.337 219.766 283.164 269.625 348 274.09C360.273 274.935 374.141 275.003 386 270.899C401.441 265.556 415.6 254.382 427 243C472.41 197.66 480.183 128.087 448 73z"/>
<path style="fill:#756873; stroke:none;" d="M364 15L364 16L370 16L364 15M337 16L337 17L341 17L337 16M374 16L374 17L378 17L374 16M447 16L446 32L447 32L447 16M331 17L331 18L334 18L331 17M380 17L380 18L383 18L380 17z"/>
<path style="fill:#f2fafe; stroke:none;" d="M447 17C447 30.5545 449.968 33.3959 464 34L464 20L447 17z"/>
<path style="fill:#ffcdbd; stroke:none;" d="M449 17L450 18L449 17z"/>
<path style="fill:#a17c8a; stroke:none;" d="M450 17L451 18L450 17z"/>
<path style="fill:#756873; stroke:none;" d="M451.667 17.3333L452.333 17.6667L451.667 17.3333M327.667 18.3333L328.333 18.6667L327.667 18.3333M384 18L384 19L387 19L384 18z"/>
<path style="fill:#ffcdbd; stroke:none;" d="M454 18L455 19L454 18z"/>
<path style="fill:#a17c8a; stroke:none;" d="M455 18L456 19L455 18z"/>
<path style="fill:#756873; stroke:none;" d="M456.667 18.3333L457.333 18.6667L456.667 18.3333M323.667 19.3333L324.333 19.6667L323.667 19.3333M387 19L387 20C410.365 29.7278 436.717 46.7889 430 75C433.781 71.6964 432 62.7399 432 58C432 52.8395 433.506 44.7508 430.972 40.0934C424.888 28.9085 398.964 20.0446 387 19z"/>
<path style="fill:#a17c8a; stroke:none;" d="M460.667 19.3333L461.333 19.6667L460.667 19.3333z"/>
<path style="fill:#756873; stroke:none;" d="M462 19L463 20L462 19M319.667 20.3333L320.333 20.6667L319.667 20.3333z"/>
<path style="fill:#a17c8a; stroke:none;" d="M464 20L464 35L465 35L464 20z"/>
<path style="fill:#756873; stroke:none;" d="M316.667 21.3333L317.333 21.6667L316.667 21.3333M313.667 22.3333L314.333 22.6667L313.667 22.3333M311 23L312 24L311 23M308 24L309 25L308 24M305.667 25.3333L306.333 25.6667L305.667 25.3333M303 26L304 27L303 26M301 27L302 28L301 27M299 28L300 29L299 28M297 29L298 30L297 29M295 30L296 31L295 30M293 31L294 32L293 31z"/>
<path style="fill:#a17c8a; stroke:none;" d="M447 31L448 32L447 31z"/>
<path style="fill:#ffcdbd; stroke:none;" d="M448 31L449 32L448 31z"/>
<path style="fill:#756873; stroke:none;" d="M291 32L292 33L291 32M450.667 32.3333L451.333 32.6667L450.667 32.3333z"/>
<path style="fill:#a17c8a; stroke:none;" d="M452 32L453 33L452 32z"/>
<path style="fill:#ffcdbd; stroke:none;" d="M453 32L454 33L453 32z"/>
<path style="fill:#756873; stroke:none;" d="M290 33L291 34L290 33M455.667 33.3333L456.333 33.6667L455.667 33.3333z"/>
<path style="fill:#a17c8a; stroke:none;" d="M457 33L458 34L457 33z"/>
<path style="fill:#ffcdbd; stroke:none;" d="M458 33L459 34L458 33z"/>
<path style="fill:#756873; stroke:none;" d="M288 34L289 35L288 34M461 34L462 35L461 34z"/>
<path style="fill:#a17c8a; stroke:none;" d="M462 34L463 35L462 34z"/>
<path style="fill:#ffcdbd; stroke:none;" d="M463 34L464 35L463 34z"/>
<path style="fill:#756873; stroke:none;" d="M286 35L287 36L286 35M285 36L286 37L285 36M283 37L284 38L283 37M282 38L283 39L282 38M354 38L354 39L358 39L354 38M280 39L281 40L280 39M341 39L341 40L345 40L341 39z"/>
<path style="fill:#020101; stroke:none;" d="M345 39.4252C310.276 44.1518 280.004 63.2723 262.427 94C255.815 105.559 251.84 118.814 250.285 132C249.655 137.343 250.74 145.248 257.985 144.547C266.639 143.71 265.396 130.156 266.898 124C271.564 104.885 282.439 89.17 297 76.1736C311.195 63.5035 330.88 54.8779 350 54.0394C358.186 53.6803 374.989 59.033 381.852 54.9722C387.865 51.4146 384.223 43.6176 378.985 41.7894C368.858 38.2554 355.537 37.9909 345 39.4252z"/>
<path style="fill:#756873; stroke:none;" d="M366 39L366 40L370 40L366 39M279 40L280 41L279 40M335 40L335 41L338 41L335 40M373 40L373 41L376 41L373 40M331.667 41.3333L332.333 41.6667L331.667 41.3333M378.667 41.3333L379.333 41.6667L378.667 41.3333M276 42L277 43L276 42M327.667 42.3333L328.333 42.6667L327.667 42.3333M381 42L382 43L381 42M275 43L276 44L275 43M324.667 43.3333L325.333 43.6667L324.667 43.3333M383 43L384 44L383 43M321 44L322 45L321 44M272 45L273 46L272 45M318.667 45.3333L319.333 45.6667L318.667 45.3333M384 45L385 46L384 45M271 46L272 47L271 46M316 46L317 47L316 46M270 47L271 48L270 47M313.667 47.3333L314.333 47.6667L313.667 47.3333M385 47L385 51L386 51L385 47M269 48L270 49L269 48M311 48L312 49L311 48M309 49L310 50L309 49M307 50L308 51L307 50M305 51L306 52L305 51M304 52L305 53L304 52M263 53L264 54L263 53M302 53L303 54L302 53M384 53L385 54L384 53M446 53L446 104L447 104L447 73L448 73C456.95 94.4901 466.281 113.207 467.91 137C471.642 191.496 437.774 248.861 387 270L387 271C431.171 264.477 468.823 222.176 480.573 181C485.213 164.737 484.967 149.569 485.002 133C485.014 126.724 489.689 124.3 490.508 118.91C491.356 113.336 487.745 106.167 486 101C477.295 102.104 475.3 93.4153 472.216 87C466.835 75.8064 457.596 58.4225 446 53M262 54L263 55L262 54M300 54L301 55L300 54M345 54L345 55L350 55L345 54M361 54L361 55L367 55L361 54M383 54L384 55L383 54M261 55L262 56L261 55M339.667 55.3333L340.333 55.6667L339.667 55.3333M370 55L370 56L373 56L370 55M382 55L383 56L382 55M260 56L261 57L260 56M297 56L298 57L297 56M334.667 56.3333L335.333 56.6667L334.667 56.3333M375 56L375 57L381 57L375 56M330.667 57.3333L331.333 57.6667L330.667 57.3333M294 58L295 59L294 58M327.667 58.3333L328.333 58.6667L327.667 58.3333M293 59L294 60L293 59M324.667 59.3333L325.333 59.6667L324.667 59.3333M291 60L292 61L291 60M322 60L323 61L322 60M256 61L257 62L256 61M290 61L291 62L290 61M320 61L321 62L320 61M255 62L256 63L255 62M289 62L290 63L289 62M317.667 62.3333L318.333 62.6667L317.667 62.3333M254 63L255 64L254 63M315 63L316 64L315 63M218 64L218 65L235 66L218 64M253 64L254 65L253 64M286 64L287 65L286 64M313 64L314 65L313 64M206.667 65.3333L207.333 65.6667L206.667 65.3333z"/>
<path style="fill:#a17c8a; stroke:none;" d="M208 65L208 66L211 66L208 65z"/>
<path style="fill:#ffcdbd; stroke:none;" d="M27 314C35.9584 315.854 56.4335 319.247 56.7978 331C56.9962 337.401 49.8257 344.923 52.7731 351C54.7142 355.002 58.6556 357.643 60.1065 362C61.2574 365.456 59.2245 369.488 61.0424 372.674C64.3747 378.514 72.0546 379.203 73.0301 387C74.5742 399.342 66.8179 419.349 77.108 428.772C84.7935 435.809 100.812 430.719 110 429.424C129.289 426.706 148.659 424.167 168 421.845C176.301 420.848 185.649 417.99 194 418.514C201.884 419.008 204.576 427.852 197.956 432.258C191.065 436.845 176.126 436.933 168 437L168 481C168 485.012 166.423 493.222 170.318 495.821C174.341 498.505 182.373 497 187 497L229 497C237.262 497 247.216 495.115 250 505L270 505C273.367 493.047 291.277 497.001 301 497C304.865 497 311.247 498.077 313.258 493.772C316.737 486.323 314 472.166 314 464C314 439.989 311.896 414.896 314.17 391C316.057 371.164 320.485 352.003 329.259 334C336.655 318.827 347.471 305.682 354 290C274.069 290 206.538 217.969 210.039 138C211.247 110.415 222.661 89.2586 234 65C166.21 65 95.4545 94.0227 75.4282 165C72.1352 176.671 69.8694 189.862 71.1736 202C72.6502 215.743 76.8277 226.046 72.2508 240C63.2388 267.476 36.8441 287.112 27 314z"/>
<path style="fill:#756873; stroke:none;" d="M285 65L286 66L285 65M312 65L313 66L312 65M198.667 66.3333L199.333 66.6667L198.667 66.3333z"/>
<path style="fill:#a17c8a; stroke:none;" d="M200 66L201 67L200 66M233 66L234 67L233 66z"/>
<path style="fill:#756873; stroke:none;" d="M252 66L253 67L252 66M284 66L285 67L284 66M310 66L311 67L310 66M192 67L193 68L192 67z"/>
<path style="fill:#a17c8a; stroke:none;" d="M193.667 67.3333L194.333 67.6667L193.667 67.3333z"/>
<path style="fill:#756873; stroke:none;" d="M251 67L252 68L251 67M283 67L284 68L283 67M308 67L309 68L308 67M186.667 68.3333L187.333 68.6667L186.667 68.3333z"/>
<path style="fill:#a17c8a; stroke:none;" d="M188 68L189 69L188 68z"/>
<path style="fill:#756873; stroke:none;" d="M232 68L233 69L232 68M250 68L251 69L250 68M282 68L283 69L282 68M307 68L308 69L307 68M182 69L183 70L182 69z"/>
<path style="fill:#a17c8a; stroke:none;" d="M183 69L184 70L183 69M231 69L232 70L231 69z"/>
<path style="fill:#756873; stroke:none;" d="M281 69L282 70L281 69M305 69L306 70L305 69M178 70L179 71L178 70z"/>
<path style="fill:#a17c8a; stroke:none;" d="M179 70L180 71L179 70z"/>
<path style="fill:#756873; stroke:none;" d="M280 70L281 71L280 70M304 70L305 71L304 70M174 71L175 72L174 71z"/>
<path style="fill:#a17c8a; stroke:none;" d="M175 71L176 72L175 71z"/>
<path style="fill:#756873; stroke:none;" d="M230 71L231 72L230 71M248 71L249 72L248 71M279 71L280 72L279 71M302 71L303 72L302 71M171 72L172 73L171 72z"/>
<path style="fill:#a17c8a; stroke:none;" d="M172 72L173 73L172 72z"/>
<path style="fill:#756873; stroke:none;" d="M247 72L248 73L247 72M278 72L279 73L278 72M301 72L302 73L301 72M412 72L412 73L415 73L412 72M424.667 72.3333L425.333 72.6667L424.667 72.3333M168 73L169 74L168 73M229 73L230 74L229 73M277 73L278 74L277 73M409.667 73.3333L410.333 73.6667L409.667 73.3333M428 73L429 74L428 73M165 74L166 75L165 74z"/>
<path style="fill:#a17c8a; stroke:none;" d="M228 74L229 75L228 74z"/>
<path style="fill:#756873; stroke:none;" d="M246 74L247 75L246 74M276 74L277 75L276 74M298 74L299 75L298 74M345 74L345 75L349 75L345 74M364 74L364 75L368 75L364 74M407 74L408 75L407 74M162 75L163 76L162 75M245 75L246 76L245 75M275 75L276 76L275 75M297 75L298 76L297 75M340.667 75.3333L341.333 75.6667L340.667 75.3333M370.667 75.3333L371.333 75.6667L370.667 75.3333M405 75L406 76L405 75M159 76L160 77L159 76z"/>
<path style="fill:#a17c8a; stroke:none;" d="M160 76L161 77L160 76M227 76L228 77L227 76z"/>
<path style="fill:#756873; stroke:none;" d="M274 76L275 77L274 76M296 76L297 77L296 76M336.667 76.3333L337.333 76.6667L336.667 76.3333M374.667 76.3333L375.333 76.6667L374.667 76.3333M403 76L404 77L403 76z"/>
<path style="fill:#a17c8a; stroke:none;" d="M157 77L158 78L157 77z"/>
<path style="fill:#756873; stroke:none;" d="M244 77L245 78L244 77M295 77L296 78L295 77M333.667 77.3333L334.333 77.6667L333.667 77.3333M378 77L379 78L378 77M402 77L403 78L402 77M154 78L155 79L154 78z"/>
<path style="fill:#a17c8a; stroke:none;" d="M155 78L156 79L155 78z"/>
<path style="fill:#756873; stroke:none;" d="M226 78L227 79L226 78M330.667 78.3333L331.333 78.6667L330.667 78.3333M380.667 78.3333L381.333 78.6667L380.667 78.3333M152 79L153 80L152 79M272 79L273 80L272 79M328 79L329 80L328 79M383 79L384 80L383 79M399 79L400 80L399 79z"/>
<path style="fill:#a17c8a; stroke:none;" d="M150 80L151 81L150 80z"/>
<path style="fill:#756873; stroke:none;" d="M225 80L226 81L225 80M242 80L243 81L242 80M271 80L272 81L271 80M326 80L327 81L326 80M385 80L386 81L385 80M398 80L399 81L398 80z"/>
<path style="fill:#a17c8a; stroke:none;" d="M148 81L149 82L148 81z"/>
<path style="fill:#756873; stroke:none;" d="M270 81L271 82L270 81M324 81L325 82L324 81M387 81L388 82L387 81z"/>
<path style="fill:#a17c8a; stroke:none;" d="M146 82L147 83L146 82z"/>
<path style="fill:#756873; stroke:none;" d="M224 82L225 83L224 82M241 82L242 83L241 82M322 82L323 83L322 82M389 82L390 83L389 82z"/>
<path style="fill:#a17c8a; stroke:none;" d="M144 83L145 84L144 83z"/>
<path style="fill:#756873; stroke:none;" d="M320 83L321 84L320 83M391 83L392 84L391 83M396 83L397 84L396 83z"/>
<path style="fill:#a17c8a; stroke:none;" d="M142 84L143 85L142 84z"/>
<path style="fill:#756873; stroke:none;" d="M223 84L224 85L223 84M240 84L241 85L240 84M268 84L269 85L268 84M318 84L319 85L318 84M392 84L393 85L392 84M395 84L396 85L395 84z"/>
<path style="fill:#a17c8a; stroke:none;" d="M140 85L141 86L140 85z"/>
<path style="fill:#756873; stroke:none;" d="M267 85L268 86L267 85M287 85L288 86L287 85M394 85L395 86L394 85M138 86L139 87L138 86z"/>
<path style="fill:#a17c8a; stroke:none;" d="M222 86L223 87L222 86z"/>
<path style="fill:#756873; stroke:none;" d="M239 86L240 87L239 86M286 86L287 87L286 86M315 86L316 87L315 86M136 87L137 88L136 87M266 87L267 88L266 87M285 87L286 88L285 87M415 87L416 88L415 87z"/>
<path style="fill:#a17c8a; stroke:none;" d="M416 87L417 88L416 87z"/>
<path style="fill:#ffcdbd; stroke:none;" d="M417 87L417 88L421 88L417 87z"/>
<path style="fill:#a17c8a; stroke:none;" d="M421 87L422 88L421 87z"/>
<path style="fill:#756873; stroke:none;" d="M422 87L423 88L422 87z"/>
<path style="fill:#a17c8a; stroke:none;" d="M135 88L136 89L135 88M221 88L222 89L221 88z"/>
<path style="fill:#756873; stroke:none;" d="M238 88L239 89L238 88M265 88L266 89L265 88M284 88L285 89L284 88M312 88L313 89L312 88z"/>
<path style="fill:#a17c8a; stroke:none;" d="M413 88L414 89L413 88z"/>
<path style="fill:#f2fafe; stroke:none;" d="M414.005 88.7423C400.16 94.1226 409.204 116.114 422.999 110.848C437.993 105.124 428.957 82.9316 414.005 88.7423z"/>
<path style="fill:#a17c8a; stroke:none;" d="M424 88L425 89L424 88z"/>
<path style="fill:#756873; stroke:none;" d="M133 89L134 90L133 89M221 89L222 90L221 89M283 89L284 90L283 89M311 89L312 90L311 89M348 89L348 90L351 90L348 89z"/>
<path style="fill:#a17c8a; stroke:none;" d="M351 89.4283C329.054 92.5708 309.644 105.165 302.52 127C290.672 163.315 320.22 205.584 360 200.714C393.241 196.644 420.655 162.95 408.945 129.015C406.75 122.654 399.603 119.443 395.8 114C393.042 110.052 392.654 104.838 389.57 101.185C381.603 91.7466 362.712 87.7512 351 89.4283z"/>
<path style="fill:#756873; stroke:none;" d="M361 89L361 90L364 90L361 89M411 89L412 90L411 89M426 89L427 90L426 89M131 90L132 91L131 90M237 90L238 91L237 90M264 90L265 91L264 90M343.667 90.3333L344.333 90.6667L343.667 90.3333M367.667 90.3333L368.333 90.6667L367.667 90.3333z"/>
<path style="fill:#ffcdbd; stroke:none;" d="M410 90L411 91L410 90z"/>
<path style="fill:#a17c8a; stroke:none;" d="M427 90L428 91L427 90M130 91L131 92L130 91z"/>
<path style="fill:#756873; stroke:none;" d="M220 91L221 92L220 91M282 91L283 92L282 91M339.667 91.3333L340.333 91.6667L339.667 91.3333M371.667 91.3333L372.333 91.6667L371.667 91.3333z"/>
<path style="fill:#a17c8a; stroke:none;" d="M409 91L410 92L409 91M428 91L429 92L428 91z"/>
<path style="fill:#756873; stroke:none;" d="M128 92L129 93L128 92M236 92L237 93L236 92M263 92L264 93L263 92M281 92L282 93L281 92M307 92L308 93L307 92M336 92L337 93L336 92M374 92L375 93L374 92M408 92L409 93L408 92M429 92L430 93L429 92z"/>
<path style="fill:#a17c8a; stroke:none;" d="M127 93L128 94L127 93M219 93L220 94L219 93z"/>
<path style="fill:#756873; stroke:none;" d="M262 93L263 94L262 93M306 93L307 94L306 93M334 93L335 94L334 93M377 93L378 94L377 93z"/>
<path style="fill:#ffcdbd; stroke:none;" d="M429 93L430 94L429 93z"/>
<path style="fill:#756873; stroke:none;" d="M219 94L220 95L219 94M235 94L236 95L235 94M305 94L306 95L305 94M379 94L380 95L379 94M407 94L408 95L407 94M430 94L431 95L430 94M124 95L125 96L124 95M261 95L262 96L261 95M279 95L280 96L279 95M304 95L305 96L304 95M381 95L382 96L381 95z"/>
<path style="fill:#ffcdbd; stroke:none;" d="M407 95L408 96L407 95M430 95L431 96L430 95z"/>
<path style="fill:#a17c8a; stroke:none;" d="M123 96L124 97L123 96z"/>
<path style="fill:#756873; stroke:none;" d="M218 96L219 97L218 96M234.333 96.6667L234.667 97.3333L234.333 96.6667M278 96L279 97L278 96M303 96L304 97L303 96M383 96L384 97L383 96M121 97L122 98L121 97M260 97L261 98L260 97M302 97L303 98L302 97M326 97L327 98L326 97M406.333 97.6667L406.667 98.3333L406.333 97.6667M431 97L431 102L432 102L431 97M120 98L121 99L120 98M277 98L278 99L277 98M301 98L302 99L301 98M386 98L387 99L386 98z"/>
<path style="fill:#a17c8a; stroke:none;" d="M119 99L120 100L119 99z"/>
<path style="fill:#756873; stroke:none;" d="M217 99L218 100L217 99M233 99L234 100L233 99M259 99L260 100L259 99M323 99L324 100L323 99z"/>
<path style="fill:#a17c8a; stroke:none;" d="M406 99L407 100L406 99z"/>
<path style="fill:#756873; stroke:none;" d="M276 100L277 101L276 100M406.333 100.667L406.667 101.333L406.333 100.667M116 101L117 102L116 101M258 101L259 102L258 101M275.333 101.667L275.667 102.333L275.333 101.667M299 101L300 102L299 101M320 101L321 102L320 101M390 101L391 102L390 101M115 102L116 103L115 102M216 102L217 103L216 102M232 102L233 103L232 102M298 102L299 103L298 102M319 102L320 103L319 102M391.333 102.667L391.667 103.333L391.333 102.667z"/>
<path style="fill:#a17c8a; stroke:none;" d="M486 102L487 103L486 102M114 103L115 104L114 103z"/>
<path style="fill:#756873; stroke:none;" d="M257.333 103.667L257.667 104.333L257.333 103.667M274 103L275 104L274 103M297 103L298 104L297 103z"/>
<path style="fill:#ffcdbd; stroke:none;" d="M430 103L431 104L430 103z"/>
<path style="fill:#a17c8a; stroke:none;" d="M113 104L114 105L113 104M407 104L408 105L407 104z"/>
<path style="fill:#756873; stroke:none;" d="M430 104L431 105L430 104z"/>
<path style="fill:#a17c8a; stroke:none;" d="M487.333 104.667L487.667 105.333L487.333 104.667M112 105L113 106L112 105M215 105L216 106L215 105z"/>
<path style="fill:#756873; stroke:none;" d="M231 105L232 106L231 105M273 105L274 106L273 105M296 105L297 106L296 105M348 105L348 106L351 106L348 105z"/>
<path style="fill:#020101; stroke:none;" d="M351 105.439C344.541 106.445 338.473 108.461 333 112.105C296.423 136.458 322.994 190.705 364 183.675C412.39 175.38 399.215 97.9272 351 105.439z"/>
<path style="fill:#756873; stroke:none;" d="M360 105L360 106L363 106L360 105z"/>
<path style="fill:#a17c8a; stroke:none;" d="M111 106L112 107L111 106z"/>
<path style="fill:#756873; stroke:none;" d="M215 106L216 107L215 106M256 106L257 107L256 106M295 106L296 107L295 106M344.667 106.333L345.333 106.667L344.667 106.333M365.667 106.333L366.333 106.667L365.667 106.333M408 106L409 107L408 106M429 106L430 107L429 106M272.333 107.667L272.667 108.333L272.333 107.667M341 107L342 108L341 107M369 107L370 108L369 107M392 107L393 108L392 107z"/>
<path style="fill:#a17c8a; stroke:none;" d="M409 107L410 108L409 107M428 107L429 108L428 107z"/>
<path style="fill:#756873; stroke:none;" d="M445 107L446 108L445 107M230.333 108.667L230.667 109.333L230.333 108.667M255.333 108.667L255.667 109.333L255.333 108.667M294 108L295 109L294 108M339 108L340 109L339 108M371 108L372 109L371 108z"/>
<path style="fill:#ffcdbd; stroke:none;" d="M410 108L411 109L410 108z"/>
<path style="fill:#a17c8a; stroke:none;" d="M427 108L428 109L427 108M214 109L215 110L214 109z"/>
<path style="fill:#756873; stroke:none;" d="M312 109L313 110L312 109M337 109L338 110L337 109M373 109L374 110L373 109z"/>
<path style="fill:#a17c8a; stroke:none;" d="M411 109L412 110L411 109M426 109L427 110L426 109z"/>
<path style="fill:#756873; stroke:none;" d="M214 110L215 111L214 110M271 110L272 111L271 110M293 110L294 111L293 110M311 110L312 111L311 110M335 110L336 111L335 110M375 110L376 111L375 110M393 110L394 111L393 110M412 110L413 111L412 110z"/>
<path style="fill:#ffcdbd; stroke:none;" d="M413 110L414 111L413 110M424 110L425 111L424 110z"/>
<path style="fill:#756873; stroke:none;" d="M425 110L426 111L425 110M444 110L445 111L444 110M254.333 111.667L254.667 112.333L254.333 111.667M292 111L293 112L292 111M333 111L334 112L333 111M377 111L378 112L377 111M414 111L415 112L414 111z"/>
<path style="fill:#a17c8a; stroke:none;" d="M415 111L416 112L415 111z"/>
<path style="fill:#ffcdbd; stroke:none;" d="M416 111L417 112L416 111M421 111L422 112L421 111z"/>
<path style="fill:#a17c8a; stroke:none;" d="M422 111L423 112L422 111z"/>
<path style="fill:#756873; stroke:none;" d="M423 111L424 112L423 111M229.333 112.667L229.667 113.333L229.333 112.667M270 112L271 113L270 112M332 112L333 113L332 112M394 112L395 113L394 112M443 112L444 113L443 112z"/>
<path style="fill:#a17c8a; stroke:none;" d="M489 112L490 113L489 112M104 113L105 114L104 113M213 113L214 114L213 113z"/>
<path style="fill:#756873; stroke:none;" d="M291 113L292 114L291 113z"/>
<path style="fill:#a17c8a; stroke:none;" d="M103 114L104 115L103 114z"/>
<path style="fill:#756873; stroke:none;" d="M213 114L214 115L213 114M253.333 114.667L253.667 115.333L253.333 114.667M308 114L309 115L308 114M329 114L330 115L329 114M442 114L443 115L442 114z"/>
<path style="fill:#a17c8a; stroke:none;" d="M102 115L103 116L102 115z"/>
<path style="fill:#756873; stroke:none;" d="M269 115L270 116L269 115M290 115L291 116L290 115M328 115L329 116L328 115M382 115L383 116L382 115M396 115L397 116L396 115M441 115L442 116L441 115M101 116L102 117L101 116M228.333 116.667L228.667 117.333L228.333 116.667M327 116L328 117L327 116M383 116L384 117L383 116z"/>
<path style="fill:#a17c8a; stroke:none;" d="M490 116L491 117L490 116z"/>
<path style="fill:#756873; stroke:none;" d="M100 117L101 118L100 117M326 117L327 118L326 117M384 117L385 118L384 117z"/>
<path style="fill:#a17c8a; stroke:none;" d="M212 118L213 119L212 118z"/>
<path style="fill:#756873; stroke:none;" d="M252.333 118.667L252.667 119.333L252.333 118.667M268 118L269 119L268 118M289 118L290 119L289 118M325 118L326 119L325 118M385 118L386 119L385 118M439 118L440 119L439 118M212.333 119.667L212.667 120.333L212.333 119.667M305 119L306 120L305 119M438 119L439 120L438 119z"/>
<path style="fill:#a17c8a; stroke:none;" d="M98 120L99 121L98 120z"/>
<path style="fill:#756873; stroke:none;" d="M227 120L227 124L228 124L227 120M288.333 120.667L288.667 121.333L288.333 120.667M350.667 120.333L351.333 120.667L350.667 120.333z"/>
<path style="fill:#a17c8a; stroke:none;" d="M352.667 120.333L353.333 120.667L352.667 120.333z"/>
<path style="fill:#ffcdbd; stroke:none;" d="M354 120L354 121L357 121L354 120z"/>
<path style="fill:#a17c8a; stroke:none;" d="M357.667 120.333L358.333 120.667L357.667 120.333z"/>
<path style="fill:#756873; stroke:none;" d="M359.667 120.333L360.333 120.667L359.667 120.333z"/>
<path style="fill:#a17c8a; stroke:none;" d="M97 121L98 122L97 121z"/>
<path style="fill:#756873; stroke:none;" d="M267.333 121.667L267.667 122.333L267.333 121.667M304 121L305 122L304 121z"/>
<path style="fill:#a17c8a; stroke:none;" d="M347 121L348 122L347 121z"/>
<path style="fill:#ffcdbd; stroke:none;" d="M348 121L349 122L348 121z"/>
<path style="fill:#f2fafe; stroke:none;" d="M349 121.529C317.975 128.651 331.188 175.93 362 168.623C392.97 161.279 379.976 114.419 349 121.529z"/>
<path style="fill:#ffcdbd; stroke:none;" d="M362 121L363 122L362 121z"/>
<path style="fill:#756873; stroke:none;" d="M363 121L364 122L363 121M435 121L436 122L435 121M96 122L97 123L96 122M251.333 122.667L251.667 123.333L251.333 122.667M322 122L323 123L322 122M344 122L345 123L344 122z"/>
<path style="fill:#ffcdbd; stroke:none;" d="M345 122L346 123L345 122M365 122L366 123L365 122z"/>
<path style="fill:#756873; stroke:none;" d="M366 122L367 123L366 122M388 122L389 123L388 122M403 122L404 123L403 122M434 122L435 123L434 122M287.333 123.667L287.667 124.333L287.333 123.667M342 123L343 124L342 123z"/>
<path style="fill:#ffcdbd; stroke:none;" d="M343 123L344 124L343 123M367 123L368 124L367 123z"/>
<path style="fill:#756873; stroke:none;" d="M368 123L369 124L368 123M405 123L406 124L405 123M432 123L433 124L432 123z"/>
<path style="fill:#a17c8a; stroke:none;" d="M211 124L212 125L211 124z"/>
<path style="fill:#756873; stroke:none;" d="M303 124L304 125L303 124z"/>
<path style="fill:#a17c8a; stroke:none;" d="M341 124L342 125L341 124M369 124L370 125L369 124z"/>
<path style="fill:#756873; stroke:none;" d="M430.667 124.333L431.333 124.667L430.667 124.333z"/>
<path style="fill:#a17c8a; stroke:none;" d="M94 125L95 126L94 125z"/>
<path style="fill:#756873; stroke:none;" d="M211 125L211 128L212 128L211 125M266 125L266 128L267 128L266 125M320 125L321 126L320 125M339 125L340 126L339 125M371 125L372 126L371 125M390 125L391 126L390 125M428 125L429 126L428 125M93 126L94 127L93 126M286.333 126.667L286.667 127.333L286.333 126.667M302 126L303 127L302 126M338 126L339 127L338 126M372 126L373 127L372 126M424 126L424 129L425 129L426 126L424 126M226 127L226 131L227 131L226 127M250 127L250 131L251 131L250 127M319 127L320 128L319 127M337 127L338 128L337 127M373 127L374 128L373 127M391 127L392 128L391 127M408 127L409 128L408 127z"/>
<path style="fill:#a17c8a; stroke:none;" d="M92 128L93 129L92 128z"/>
<path style="fill:#756873; stroke:none;" d="M336 128L337 129L336 128M374 128L375 129L374 128M91 129L92 130L91 129M301.333 129.667L301.667 130.333L301.333 129.667M318 129L319 130L318 129M392 129L393 130L392 129z"/>
<path style="fill:#ffcdbd; stroke:none;" d="M335 130L336 131L335 130M375 130L376 131L375 130z"/>
<path style="fill:#756873; stroke:none;" d="M409 130L410 131L409 130z"/>
<path style="fill:#a17c8a; stroke:none;" d="M90 131L91 132L90 131z"/>
<path style="fill:#756873; stroke:none;" d="M265 131L265 135L266 135L265 131M285 131L285 134L286 134L285 131z"/>
<path style="fill:#a17c8a; stroke:none;" d="M334 131L335 132L334 131M376 131L377 132L376 131z"/>
<path style="fill:#756873; stroke:none;" d="M425 131L425 134L426 134L425 131M89 132L90 133L89 132M317 132L318 133L317 132M393 132L394 133L393 132z"/>
<path style="fill:#a17c8a; stroke:none;" d="M210 133L210 137L211 137L210 133M333 133L334 134L333 133M377 133L378 134L377 133z"/>
<path style="fill:#756873; stroke:none;" d="M88 134L89 135L88 134M300.333 134.667L300.667 135.333L300.333 134.667M410.333 134.667L410.667 135.333L410.333 134.667z"/>
<path style="fill:#a17c8a; stroke:none;" d="M332 135L333 136L332 135z"/>
<path style="fill:#756873; stroke:none;" d="M378 135L379 136L378 135M394.333 135.667L394.667 136.333L394.333 135.667z"/>
<path style="fill:#a17c8a; stroke:none;" d="M87 136L88 137L87 136z"/>
<path style="fill:#756873; stroke:none;" d="M249 136L249 139L250 139L249 136M316 136L317 137L316 136M210 137L210 150L211 150L210 137M284 137L284 152L285 152L284 137M426 137L426 153L427 153L426 137z"/>
<path style="fill:#a17c8a; stroke:none;" d="M86 138L87 139L86 138z"/>
<path style="fill:#756873; stroke:none;" d="M331 138L332 139L331 138M379 138L380 139L379 138M85 139L86 140L85 139M225 139L225 149L226 149L225 139M264.333 139.667L264.667 140.333L264.333 139.667z"/>
<path style="fill:#ffcdbd; stroke:none;" d="M331 139L332 140L331 139M379 139L380 140L379 139z"/>
<path style="fill:#756873; stroke:none;" d="M250.333 140.667L250.667 141.333L250.333 140.667M84 141L85 142L84 141M263 141L264 142L263 141M395 141L395 148L396 148L395 141M411 141L411 148L412 148L411 141M251 142L252 143L251 142M299 142L299 147L300 147L299 142M315 142L315 147L316 147L315 142M330 142L330 148L331 148L330 142M83 143L84 144L83 143M252 143L253 144L252 143M380 143L380 148L381 148L380 143M254 144L255 145L254 144M259.667 144.333L260.333 144.667L259.667 144.333M82 145L83 146L82 145M450.667 145.333L451.333 145.667L450.667 145.333z"/>
<path style="fill:#020101; stroke:none;" d="M452.043 145.617C444.006 147.533 445.169 162.627 443.279 169C437.917 187.085 427.317 202.446 413 214.7C398.887 226.779 379.705 235.14 361 235.961C352.814 236.32 336.011 230.967 329.148 235.028C322.439 238.998 327.513 246.909 333.004 248.506C345.671 252.191 360.132 251.728 373 249.565C405.666 244.074 434.98 222.321 450.216 193C455.915 182.032 459.702 169.324 460.829 157C461.33 151.53 459.2 143.91 452.043 145.617z"/>
<path style="fill:#756873; stroke:none;" d="M456 145L457 146L456 145M458 146L459 147L458 146M81 147L82 148L81 147M459 147L460 148L459 147z"/>
<path style="fill:#a17c8a; stroke:none;" d="M81 148L82 149L81 148z"/>
<path style="fill:#756873; stroke:none;" d="M447 148L448 149L447 148M460.333 148.667L460.667 149.333L460.333 148.667M446.333 149.667L446.667 150.333L446.333 149.667z"/>
<path style="fill:#a17c8a; stroke:none;" d="M80 150L81 151L80 150M210 150L210 154L211 154L210 150z"/>
<path style="fill:#ffcdbd; stroke:none;" d="M331 150L332 151L331 150M379 150L380 151L379 150z"/>
<path style="fill:#a17c8a; stroke:none;" d="M331 151L332 152L331 151M379 151L380 152L379 151z"/>
<path style="fill:#756873; stroke:none;" d="M461 151L461 154L462 154L461 151M79 152L80 153L79 152M316.333 152.667L316.667 153.333L316.333 152.667M331 152L332 153L331 152M379 152L380 153L379 152M394.333 152.667L394.667 153.333L394.333 152.667M300.333 154.667L300.667 155.333L300.333 154.667z"/>
<path style="fill:#a17c8a; stroke:none;" d="M332 154L333 155L332 154M378 154L379 155L378 154z"/>
<path style="fill:#756873; stroke:none;" d="M410.333 154.667L410.667 155.333L410.333 154.667M78 155L79 156L78 155M445 155L445 159L446 159L445 155M285 156L285 159L286 159L285 156M317.333 156.667L317.667 157.333L317.333 156.667z"/>
<path style="fill:#a17c8a; stroke:none;" d="M333 156L334 157L333 156M377 156L378 157L377 156z"/>
<path style="fill:#756873; stroke:none;" d="M425 156L425 159L426 159L425 156M77 157L78 158L77 157M226 157L226 162L227 162L226 157M393 157L394 158L393 157z"/>
<path style="fill:#a17c8a; stroke:none;" d="M77 158L78 159L77 158z"/>
<path style="fill:#756873; stroke:none;" d="M334 158L335 159L334 158M376 158L377 159L376 158M409.333 158.667L409.667 159.333L409.333 158.667M211.333 159.667L211.667 160.333L211.333 159.667M301 159L302 160L301 159z"/>
<path style="fill:#ffcdbd; stroke:none;" d="M335 159L336 160L335 159M375 159L376 160L375 159z"/>
<path style="fill:#756873; stroke:none;" d="M460 159L460 163L461 163L460 159M76 160L77 161L76 160M392 160L393 161L392 160z"/>
<path style="fill:#a17c8a; stroke:none;" d="M76 161L77 162L76 161M211.333 161.667L211.667 162.333L211.333 161.667z"/>
<path style="fill:#756873; stroke:none;" d="M286.333 161.667L286.667 162.333L286.333 161.667M424.333 161.667L424.667 162.333L424.333 161.667M302 162L303 163L302 162M319 162L320 163L319 162M337 162L338 163L337 162M373 162L374 163L373 162M391 162L392 163L391 162M408 162L409 163L408 162M444 162L444 165L445 165L444 162M372 163L373 164L372 163M75 164L76 165L75 164M320 164L321 165L320 164z"/>
<path style="fill:#ffcdbd; stroke:none;" d="M340 164L341 165L340 164M370 164L371 165L370 164z"/>
<path style="fill:#756873; stroke:none;" d="M390 164L391 165L390 164M227 165L227 168L228 168L227 165M287.333 165.667L287.667 166.333L287.333 165.667M303 165L304 166L303 165z"/>
<path style="fill:#a17c8a; stroke:none;" d="M341 165L342 166L341 165M369 165L370 166L369 165z"/>
<path style="fill:#756873; stroke:none;" d="M423 165L424 166L423 165M459 165L459 168L460 168L459 165M212.333 166.667L212.667 167.333L212.333 166.667M342 166L343 167L342 166z"/>
<path style="fill:#ffcdbd; stroke:none;" d="M343 166L344 167L343 166M367 166L368 167L367 166z"/>
<path style="fill:#756873; stroke:none;" d="M368 166L369 167L368 166M74 167L75 168L74 167M304 167L305 168L304 167M322 167L323 168L322 167M344 167L345 168L344 167z"/>
<path style="fill:#ffcdbd; stroke:none;" d="M345 167L346 168L345 167M365 167L366 168L365 167z"/>
<path style="fill:#756873; stroke:none;" d="M366 167L367 168L366 167M388 167L389 168L388 167M406 167L407 168L406 167M443.333 167.667L443.667 168.333L443.333 167.667z"/>
<path style="fill:#a17c8a; stroke:none;" d="M74 168L75 169L74 168M212 168L213 169L212 168z"/>
<path style="fill:#756873; stroke:none;" d="M288.333 168.667L288.667 169.333L288.333 168.667z"/>
<path style="fill:#a17c8a; stroke:none;" d="M347 168L348 169L347 168M363 168L364 169L363 168z"/>
<path style="fill:#756873; stroke:none;" d="M422 168L423 169L422 168M350 169L351 170L350 169z"/>
<path style="fill:#a17c8a; stroke:none;" d="M351 169L352 170L351 169z"/>
<path style="fill:#ffcdbd; stroke:none;" d="M352 169L352 170L355 170L352 169M356 169L356 170L359 170L356 169z"/>
<path style="fill:#a17c8a; stroke:none;" d="M359 169L360 170L359 169z"/>
<path style="fill:#756873; stroke:none;" d="M360 169L361 170L360 169M405 169L406 170L405 169M324 170L325 171L324 170M386 170L387 171L386 170M421.333 170.667L421.667 171.333L421.333 170.667M458.333 170.667L458.667 171.333L458.333 170.667M73 171L74 172L73 171M228.333 171.667L228.667 172.333L228.333 171.667M289 171L290 172L289 171M325 171L326 172L325 171M385 171L386 172L385 171M404 171L405 172L404 171M442 171L443 172L442 171z"/>
<path style="fill:#a17c8a; stroke:none;" d="M73.3333 172.667L73.6667 173.333L73.3333 172.667z"/>
<path style="fill:#756873; stroke:none;" d="M213 172L214 173L213 172z"/>
<path style="fill:#a17c8a; stroke:none;" d="M213 173L214 174L213 173z"/>
<path style="fill:#756873; stroke:none;" d="M290 173L291 174L290 173M307 173L308 174L307 173M327 173L328 174L327 173M403 173L404 174L403 173M420 173L421 174L420 173M328 174L329 175L328 174M382 174L383 175L382 174M402 174L403 175L402 174M441 174L442 175L441 174M457.333 174.667L457.667 175.333L457.333 174.667M229.333 175.667L229.667 176.333L229.333 175.667M291.333 175.667L291.667 176.333L291.333 175.667M329 175L330 176L329 175M381 175L382 176L381 175M419 175L420 176L419 175M72.3333 176.667L72.6667 177.333L72.3333 176.667M214.333 176.667L214.667 177.333L214.333 176.667M309 176L310 177L309 176M380 176L381 177L380 176M401 176L402 177L401 176M292.333 177.667L292.667 178.333L292.333 177.667M400 177L401 178L400 177M418 177L419 178L418 177M440 177L441 178L440 177M456.333 177.667L456.667 178.333L456.333 177.667z"/>
<path style="fill:#a17c8a; stroke:none;" d="M72 178L73 179L72 178M214 178L215 179L214 178z"/>
<path style="fill:#756873; stroke:none;" d="M333 178L334 179L333 178M377 178L378 179L377 178M230.333 179.667L230.667 180.333L230.333 179.667M293 179L294 180L293 179M311 179L312 180L311 179M335 179L336 180L335 179M375 179L376 180L375 179M417 179L418 180L417 179M439 179L440 180L439 179M215 180L216 181L215 180M312 180L313 181L312 180M337 180L338 181L337 180M373 180L374 181L373 180M398 180L399 181L398 180M455.333 180.667L455.667 181.333L455.333 180.667z"/>
<path style="fill:#a17c8a; stroke:none;" d="M215 181L216 182L215 181z"/>
<path style="fill:#756873; stroke:none;" d="M294 181L295 182L294 181M339 181L340 182L339 181M371 181L372 182L371 181M397 181L398 182L397 181M416 181L417 182L416 181M438.333 181.667L438.667 182.333L438.333 181.667M71.3333 182.667L71.6667 183.333L71.3333 182.667M341.667 182.333L342.333 182.667L341.667 182.333M368 182L369 183L368 182M396 182L397 183L396 182M415 182L416 183L415 182M231 183L232 184L231 183M295 183L296 184L295 183M345 183L346 184L345 183M365 183L366 184L365 183M437.333 183.667L437.667 184.333L437.333 183.667M454 183L455 184L454 183z"/>
<path style="fill:#a17c8a; stroke:none;" d="M71.3333 184.667L71.6667 185.333L71.3333 184.667z"/>
<path style="fill:#756873; stroke:none;" d="M216 184L217 185L216 184M296 184L297 185L296 184M350 184L350 185L355 185L350 184M356 184L356 185L361 185L356 184M414 184L415 185L414 184z"/>
<path style="fill:#a17c8a; stroke:none;" d="M216 185L217 186L216 185z"/>
<path style="fill:#756873; stroke:none;" d="M413 185L414 186L413 185M453.333 185.667L453.667 186.333L453.333 185.667M232 186L233 187L232 186M297 186L298 187L297 186M392 186L393 187L392 186M436 186L437 187L436 186M217 187L218 188L217 187M298 187L299 188L298 187M391 187L392 188L391 187M412 187L413 188L412 187M435 187L436 188L435 187z"/>
<path style="fill:#a17c8a; stroke:none;" d="M217 188L218 189L217 188z"/>
<path style="fill:#756873; stroke:none;" d="M299 188L300 189L299 188M320 188L321 189L320 188M390 188L391 189L390 188M411 188L412 189L411 188M452 188L453 189L452 188M233 189L234 190L233 189M410 189L411 190L410 189M434 189L435 190L434 189M218 190L219 191L218 190M451 190L452 191L451 190M70 191L70 196L71 196L70 191z"/>
<path style="fill:#a17c8a; stroke:none;" d="M218 191L219 192L218 191z"/>
<path style="fill:#756873; stroke:none;" d="M234.333 191.667L234.667 192.333L234.333 191.667M301 191L302 192L301 191M324 191L325 192L324 191M386 191L387 192L386 191M433 191L434 192L433 191M302 192L303 193L302 192M450 192L451 193L450 192M219 193L220 194L219 193M303 193L304 194L303 193M327 193L328 194L327 193M383 193L384 194L383 193M407 193L408 194L407 193z"/>
<path style="fill:#a17c8a; stroke:none;" d="M219 194L220 195L219 194z"/>
<path style="fill:#756873; stroke:none;" d="M235 194L236 195L235 194M304 194L305 195L304 194M329 194L330 195L329 194M381 194L382 195L381 194M406 194L407 195L406 194M431 194L432 195L431 194M449 194L450 195L449 194M305 195L306 196L305 195M331 195L332 196L331 195M379 195L380 196L379 195M405 195L406 196L405 195z"/>
<path style="fill:#a17c8a; stroke:none;" d="M70.3333 196.667L70.6667 197.333L70.3333 196.667z"/>
<path style="fill:#756873; stroke:none;" d="M220 196L221 197L220 196M236 196L237 197L236 196M306 196L307 197L306 196M333 196L334 197L333 196M377 196L378 197L377 196M404 196L405 197L404 196M448 196L449 197L448 196M307 197L308 198L307 197M336 197L337 198L336 197M374 197L375 198L374 197M403 197L404 198L403 197M429 197L430 198L429 197M447 197L448 198L447 197M70 198L70 201L71 201L70 198M221 198L222 199L221 198M237.333 198.667L237.667 199.333L237.333 198.667M308 198L309 199L308 198M339 198L340 199L339 198M371 198L372 199L371 198M402 198L403 199L402 198M428 198L429 199L428 198z"/>
<path style="fill:#a17c8a; stroke:none;" d="M221 199L222 200L221 199z"/>
<path style="fill:#756873; stroke:none;" d="M309 199L310 200L309 199M342.667 199.333L343.333 199.667L342.667 199.333M367.667 199.333L368.333 199.667L367.667 199.333M446 199L447 200L446 199M348 200L348 201L351 201L348 200M361 200L361 201L364 201L361 200M399 200L400 201L399 200z"/>
<path style="fill:#a17c8a; stroke:none;" d="M222 201L223 202L222 201z"/>
<path style="fill:#756873; stroke:none;" d="M238 201L239 202L238 201M312 201L313 202L312 201M398 201L399 202L398 201M426 201L427 202L426 201M445 201L446 202L445 201M313 202L314 203L313 202M397 202L398 203L397 202M425 202L426 203L425 202M444 202L445 203L444 202M223 203L224 204L223 203M239 203L240 204L239 203M315 203L316 204L315 203M395 203L396 204L395 203M424 203L425 204L424 203z"/>
<path style="fill:#a17c8a; stroke:none;" d="M71 204L72 205L71 204z"/>
<path style="fill:#756873; stroke:none;" d="M316 204L317 205L316 204M394 204L395 205L394 204M443 204L444 205L443 204M71 205L72 206L71 205M224 205L225 206L224 205M240 205L241 206L240 205M318 205L319 206L318 205M392 205L393 206L392 205M442 205L443 206L442 205M319 206L320 207L319 206M391 206L392 207L391 206M225 207L226 208L225 207M241 207L242 208L241 207M321 207L322 208L321 207M389 207L390 208L389 207M72.3333 208.667L72.6667 209.333L72.3333 208.667M242 208L243 209L242 208M323 208L324 209L323 208M387 208L388 209L387 208M440 208L441 209L440 208M226 209L227 210L226 209M325 209L326 210L325 209M385 209L386 210L385 209M439 209L440 210L439 209M243 210L244 211L243 210M327 210L328 211L327 210M383 210L384 211L383 210M438 210L439 211L438 210z"/>
<path style="fill:#a17c8a; stroke:none;" d="M73 211L74 212L73 211z"/>
<path style="fill:#756873; stroke:none;" d="M227 211L228 212L227 211M330 211L331 212L330 211M380.667 211.333L381.333 211.667L380.667 211.333M73.3333 212.667L73.6667 213.333L73.3333 212.667M244 212L245 213L244 212M332.667 212.333L333.333 212.667L332.667 212.333M377.667 212.333L378.333 212.667L377.667 212.333M415 212L416 213L415 212M228 213L229 214L228 213M245 213L246 214L245 213M335.667 213.333L336.333 213.667L335.667 213.333M374.667 213.333L375.333 213.667L374.667 213.333M414 213L415 214L414 213M436 213L437 214L436 213M339 214L339 215L342 215L339 214M370.667 214.333L371.333 214.667L370.667 214.333M413 214L414 215L413 214M435 214L436 215L435 214M229 215L230 216L229 215M246 215L247 216L246 215M344 215L344 216L348 216L344 215M363 215L363 216L367 216L363 215M412 215L413 216L412 215M434 215L435 216L434 215M247 216L248 217L247 216M433 216L434 217L433 216z"/>
<path style="fill:#a17c8a; stroke:none;" d="M74.3333 217.667L74.6667 218.333L74.3333 217.667M230 217L231 218L230 217z"/>
<path style="fill:#756873; stroke:none;" d="M409 217L410 218L409 217M432 217L433 218L432 217M248 218L249 219L248 218M408 218L409 219L408 218M431 218L432 219L431 218M74 219L74 229L75 229L74 219z"/>
<path style="fill:#a17c8a; stroke:none;" d="M231 219L232 220L231 219z"/>
<path style="fill:#756873; stroke:none;" d="M249 219L250 220L249 219M406 219L407 220L406 219M430 219L431 220L430 219M232 220L233 221L232 220M405 220L406 221L405 220M429 220L430 221L429 220M250 221L251 222L250 221M403 221L404 222L403 221M428 221L429 222L428 221z"/>
<path style="fill:#a17c8a; stroke:none;" d="M233 222L234 223L233 222z"/>
<path style="fill:#756873; stroke:none;" d="M251 222L252 223L251 222M402 222L403 223L402 222M427 222L428 223L427 222M234 223L235 224L234 223M252 223L253 224L252 223M400 223L401 224L400 223M426 223L427 224L426 223M398 224L399 225L398 224M425 224L426 225L425 224z"/>
<path style="fill:#a17c8a; stroke:none;" d="M235 225L236 226L235 225z"/>
<path style="fill:#756873; stroke:none;" d="M253 225L254 226L253 225M396.667 225.333L397.333 225.667L396.667 225.333M424 225L425 226L424 225M236 226L237 227L236 226M254 226L255 227L254 226M394.667 226.333L395.333 226.667L394.667 226.333M255 227L256 228L255 227M392.667 227.333L393.333 227.667L392.667 227.333M421 227L422 228L421 227z"/>
<path style="fill:#a17c8a; stroke:none;" d="M237 228L238 229L237 228z"/>
<path style="fill:#756873; stroke:none;" d="M256 228L257 229L256 228M390.667 228.333L391.333 228.667L390.667 228.333M420 228L421 229L420 228z"/>
<path style="fill:#a17c8a; stroke:none;" d="M74.3333 229.667L74.6667 230.333L74.3333 229.667z"/>
<path style="fill:#756873; stroke:none;" d="M238 229L239 230L238 229M388 229L389 230L388 229M419 229L420 230L419 229M385 230L386 231L385 230M417 230L418 231L417 230z"/>
<path style="fill:#a17c8a; stroke:none;" d="M239 231L240 232L239 231z"/>
<path style="fill:#756873; stroke:none;" d="M258 231L259 232L258 231M382.667 231.333L383.333 231.667L382.667 231.333M416 231L417 232L416 231z"/>
<path style="fill:#a17c8a; stroke:none;" d="M240 232L241 233L240 232z"/>
<path style="fill:#756873; stroke:none;" d="M259 232L260 233L259 232M379 232L380 233L379 232M241 233L242 234L241 233M260 233L261 234L260 233M330 233L330 234L336 234L330 233M375.667 233.333L376.333 233.667L375.667 233.333M413 233L414 234L413 233M73 234L74 235L73 234M261 234L262 235L261 234M328 234L329 235L328 234M338 234L338 235L341 235L338 234M370.667 234.333L371.333 234.667L370.667 234.333M411 234L412 235L411 234z"/>
<path style="fill:#a17c8a; stroke:none;" d="M73 235L74 236L73 235M242 235L243 236L242 235z"/>
<path style="fill:#756873; stroke:none;" d="M262 235L263 236L262 235M327 235L328 236L327 235M344 235L344 236L350 236L344 235M361 235L361 236L366 236L361 235M410 235L411 236L410 235z"/>
<path style="fill:#a17c8a; stroke:none;" d="M243 236L244 237L243 236z"/>
<path style="fill:#756873; stroke:none;" d="M263 236L264 237L263 236M326 236L327 237L326 236M408 236L409 237L408 236M244 237L245 238L244 237M264 237L265 238L264 237M406 237L407 238L406 237M72 238L73 239L72 238M245 238L246 239L245 238M265 238L266 239L265 238M405 238L406 239L405 238z"/>
<path style="fill:#a17c8a; stroke:none;" d="M72 239L73 240L72 239z"/>
<path style="fill:#756873; stroke:none;" d="M266 239L267 240L266 239M325 239L325 243L326 243L325 239M403 239L404 240L403 239M267 240L268 241L267 240M401 240L402 241L401 240M71 241L72 242L71 241M268 241L269 242L268 241M399 241L400 242L399 241z"/>
<path style="fill:#a17c8a; stroke:none;" d="M71 242L72 243L71 242M248 242L249 243L248 242z"/>
<path style="fill:#756873; stroke:none;" d="M396.667 242.333L397.333 242.667L396.667 242.333z"/>
<path style="fill:#a17c8a; stroke:none;" d="M249 243L250 244L249 243z"/>
<path style="fill:#756873; stroke:none;" d="M394 243L395 244L394 243M70 244L71 245L70 244M250 244L251 245L250 244M272 244L273 245L272 244M326 244L327 245L326 244M391.667 244.333L392.333 244.667L391.667 244.333M251 245L252 246L251 245M273 245L274 246L273 245M388.667 245.333L389.333 245.667L388.667 245.333M69 246L70 247L69 246M252 246L253 247L252 246M274 246L275 247L274 246M327 246L328 247L327 246M385.667 246.333L386.333 246.667L385.667 246.333M253 247L254 248L253 247M329 247L330 248L329 247M382.667 247.333L383.333 247.667L382.667 247.333M68 248L69 249L68 248M254 248L255 249L254 248M277 248L278 249L277 248M331.667 248.333L332.333 248.667L331.667 248.333M378.667 248.333L379.333 248.667L378.667 248.333M255 249L256 250L255 249M278 249L279 250L278 249M335 249L335 250L338 250L335 249M373.667 249.333L374.333 249.667L373.667 249.333M67 250L68 251L67 250M256 250L257 251L256 250M341 250L341 251L345 251L341 250M366 250L366 251L370 251L366 250M257 251L258 252L257 251M281 251L282 252L281 251M353 251L353 252L357 252L353 251z"/>
<path style="fill:#a17c8a; stroke:none;" d="M66 252L67 253L66 252z"/>
<path style="fill:#756873; stroke:none;" d="M258 252L259 253L258 252M282 252L283 253L282 252M65 253L66 254L65 253z"/>
<path style="fill:#a17c8a; stroke:none;" d="M259 253L260 254L259 253z"/>
<path style="fill:#756873; stroke:none;" d="M284 253L285 254L284 253z"/>
<path style="fill:#a17c8a; stroke:none;" d="M260 254L261 255L260 254z"/>
<path style="fill:#756873; stroke:none;" d="M285 254L286 255L285 254z"/>
<path style="fill:#a17c8a; stroke:none;" d="M64 255L65 256L64 255M261 255L262 256L261 255z"/>
<path style="fill:#756873; stroke:none;" d="M287 255L288 256L287 255M63 256L64 257L63 256M289 256L290 257L289 256M264 257L265 258L264 257M290 257L291 258L290 257z"/>
<path style="fill:#a17c8a; stroke:none;" d="M62 258L63 259L62 258z"/>
<path style="fill:#756873; stroke:none;" d="M265 258L266 259L265 258M292 258L293 259L292 258z"/>
<path style="fill:#a17c8a; stroke:none;" d="M266 259L267 260L266 259z"/>
<path style="fill:#756873; stroke:none;" d="M294 259L295 260L294 259M296 260L297 261L296 260M60 261L61 262L60 261M269 261L270 262L269 261M298 261L299 262L298 261M270 262L271 263L270 262M300 262L301 263L300 262z"/>
<path style="fill:#a17c8a; stroke:none;" d="M271 263L272 264L271 263z"/>
<path style="fill:#756873; stroke:none;" d="M302 263L303 264L302 263M58 264L59 265L58 264M273 264L274 265L273 264M304 264L305 265L304 264z"/>
<path style="fill:#a17c8a; stroke:none;" d="M274 265L275 266L274 265z"/>
<path style="fill:#756873; stroke:none;" d="M307 265L308 266L307 265M276 266L277 267L276 266M309.667 266.333L310.333 266.667L309.667 266.333M56 267L57 268L56 267z"/>
<path style="fill:#a17c8a; stroke:none;" d="M277 267L278 268L277 267z"/>
<path style="fill:#756873; stroke:none;" d="M312 267L313 268L312 267M279 268L280 269L279 268M315 268L316 269L315 268z"/>
<path style="fill:#a17c8a; stroke:none;" d="M55 269L56 270L55 269M280 269L281 270L280 269z"/>
<path style="fill:#756873; stroke:none;" d="M318.667 269.333L319.333 269.667L318.667 269.333M54 270L55 271L54 270M282 270L283 271L282 270M321.667 270.333L322.333 270.667L321.667 270.333M284 271L285 272L284 271M325 271L325 272L328 272L325 271M384.667 271.333L385.333 271.667L384.667 271.333z"/>
<path style="fill:#a17c8a; stroke:none;" d="M53 272L54 273L53 272z"/>
<path style="fill:#756873; stroke:none;" d="M286 272L287 273L286 272M330 272L330 273L333 273L330 272M379 272L379 273L382 273L379 272M52 273L53 274L52 273z"/>
<path style="fill:#a17c8a; stroke:none;" d="M287 273L288 274L287 273z"/>
<path style="fill:#756873; stroke:none;" d="M335 273L335 274L339 274L335 273M373 273L373 274L376 274L373 273z"/>
<path style="fill:#a17c8a; stroke:none;" d="M289 274L290 275L289 274z"/>
<path style="fill:#756873; stroke:none;" d="M343 274L343 275L352 275L343 274M360 274L360 275L368 275L360 274z"/>
<path style="fill:#a17c8a; stroke:none;" d="M51 275L52 276L51 275M291 275L292 276L291 275z"/>
<path style="fill:#756873; stroke:none;" d="M50 276L51 277L50 276z"/>
<path style="fill:#a17c8a; stroke:none;" d="M293 276L294 277L293 276M295 277L296 278L295 277z"/>
<path style="fill:#756873; stroke:none;" d="M296 277L297 278L296 277z"/>
<path style="fill:#a17c8a; stroke:none;" d="M49 278L50 279L49 278z"/>
<path style="fill:#756873; stroke:none;" d="M298 278L299 279L298 278M48 279L49 280L48 279M300 279L301 280L300 279z"/>
<path style="fill:#a17c8a; stroke:none;" d="M302 280L303 281L302 280z"/>
<path style="fill:#756873; stroke:none;" d="M303 280L304 281L303 280z"/>
<path style="fill:#a17c8a; stroke:none;" d="M47 281L48 282L47 281M305 281L306 282L305 281z"/>
<path style="fill:#756873; stroke:none;" d="M46 282L47 283L46 282M308 282L309 283L308 282M311 283L312 284L311 283z"/>
<path style="fill:#a17c8a; stroke:none;" d="M45 284L46 285L45 284M314 284L315 285L314 284z"/>
<path style="fill:#756873; stroke:none;" d="M315 284L316 285L315 284M44 285L45 286L44 285z"/>
<path style="fill:#a17c8a; stroke:none;" d="M317 285L318 286L317 285z"/>
<path style="fill:#756873; stroke:none;" d="M318.667 285.333L319.333 285.667L318.667 285.333z"/>
<path style="fill:#a17c8a; stroke:none;" d="M321 286L322 287L321 286z"/>
<path style="fill:#756873; stroke:none;" d="M322.667 286.333L323.333 286.667L322.667 286.333z"/>
<path style="fill:#a17c8a; stroke:none;" d="M43 287L44 288L43 287M326 287L327 288L326 287z"/>
<path style="fill:#756873; stroke:none;" d="M327.667 287.333L328.333 287.667L327.667 287.333M42 288L43 289L42 288z"/>
<path style="fill:#a17c8a; stroke:none;" d="M332 288L333 289L332 288z"/>
<path style="fill:#756873; stroke:none;" d="M333.667 288.333L334.333 288.667L333.667 288.333z"/>
<path style="fill:#a17c8a; stroke:none;" d="M338 289L338 290L341 290L338 289z"/>
<path style="fill:#756873; stroke:none;" d="M341 289L341 290L346 290L341 289z"/>
<path style="fill:#a17c8a; stroke:none;" d="M41 290L42 291L41 290z"/>
<path style="fill:#756873; stroke:none;" d="M40 291L41 292L40 291z"/>
<path style="fill:#a17c8a; stroke:none;" d="M353 291L354 292L353 291M39 293L40 294L39 293M352 293L353 294L352 293z"/>
<path style="fill:#756873; stroke:none;" d="M38 294L39 295L38 294z"/>
<path style="fill:#a17c8a; stroke:none;" d="M351 295L352 296L351 295M37 296L38 297L37 296z"/>
<path style="fill:#756873; stroke:none;" d="M351 296L352 297L351 296z"/>
<path style="fill:#a17c8a; stroke:none;" d="M350 297L351 298L350 297z"/>
<path style="fill:#756873; stroke:none;" d="M350 298L351 299L350 298z"/>
<path style="fill:#a17c8a; stroke:none;" d="M35 299L36 300L35 299M349 299L350 300L349 299M348 301L349 302L348 301z"/>
<path style="fill:#756873; stroke:none;" d="M33 302L34 303L33 302z"/>
<path style="fill:#a17c8a; stroke:none;" d="M347 303L348 304L347 303z"/>
<path style="fill:#756873; stroke:none;" d="M31 305L32 306L31 305M346 305L347 306L346 305z"/>
<path style="fill:#a17c8a; stroke:none;" d="M345 306L346 307L345 306z"/>
<path style="fill:#756873; stroke:none;" d="M345 307L346 308L345 307M29 308L30 309L29 308z"/>
<path style="fill:#a17c8a; stroke:none;" d="M344 308L345 309L344 308M28 310L29 311L28 310z"/>
<path style="fill:#756873; stroke:none;" d="M343 310L344 311L343 310M27 311L28 312L27 311z"/>
<path style="fill:#a17c8a; stroke:none;" d="M342 311L343 312L342 311z"/>
<path style="fill:#756873; stroke:none;" d="M26 313L27 314L26 313z"/>
<path style="fill:#a17c8a; stroke:none;" d="M341 313L342 314L341 313z"/>
<path style="fill:#756873; stroke:none;" d="M29 314L30 315L29 314M32 315L33 316L32 315z"/>
<path style="fill:#a17c8a; stroke:none;" d="M33 315L34 316L33 315z"/>
<path style="fill:#756873; stroke:none;" d="M340 315L341 316L340 315M35 316L36 317L35 316z"/>
<path style="fill:#a17c8a; stroke:none;" d="M36 316L37 317L36 316M339 316L340 317L339 316z"/>
<path style="fill:#756873; stroke:none;" d="M38 317L39 318L38 317z"/>
<path style="fill:#a17c8a; stroke:none;" d="M39 317L40 318L39 317z"/>
<path style="fill:#756873; stroke:none;" d="M41 318L42 319L41 318z"/>
<path style="fill:#a17c8a; stroke:none;" d="M42 318L43 319L42 318z"/>
<path style="fill:#756873; stroke:none;" d="M338 318L339 319L338 318z"/>
<path style="fill:#a17c8a; stroke:none;" d="M45 319L46 320L45 319M337 319L338 320L337 319z"/>
<path style="fill:#756873; stroke:none;" d="M48 320L49 321L48 320M50 321L51 322L50 321z"/>
<path style="fill:#a17c8a; stroke:none;" d="M51 321L52 322L51 321z"/>
<path style="fill:#756873; stroke:none;" d="M336 321L337 322L336 321M52 322L53 323L52 322z"/>
<path style="fill:#a17c8a; stroke:none;" d="M335 322L336 323L335 322z"/>
<path style="fill:#756873; stroke:none;" d="M54 324L55 325L54 324z"/>
<path style="fill:#a17c8a; stroke:none;" d="M334 324L335 325L334 324M55 325L56 326L55 325z"/>
<path style="fill:#756873; stroke:none;" d="M333 326L334 327L333 326z"/>
<path style="fill:#a17c8a; stroke:none;" d="M56 327L57 328L56 327M332 327L333 328L332 327z"/>
<path style="fill:#756873; stroke:none;" d="M56 328L57 329L56 328M332 328L333 329L332 328z"/>
<path style="fill:#a17c8a; stroke:none;" d="M331 329L332 330L331 329M330 331L331 332L330 331z"/>
<path style="fill:#756873; stroke:none;" d="M56 333L57 334L56 333z"/>
<path style="fill:#a17c8a; stroke:none;" d="M329 333L330 334L329 333M56 334L57 335L56 334M328 335L329 336L328 335z"/>
<path style="fill:#756873; stroke:none;" d="M55 336L56 337L55 336M328 336L329 337L328 336z"/>
<path style="fill:#a17c8a; stroke:none;" d="M55 337L56 338L55 337M327 337L328 338L327 337z"/>
<path style="fill:#756873; stroke:none;" d="M327 338L328 339L327 338M54 339L55 340L54 339z"/>
<path style="fill:#a17c8a; stroke:none;" d="M54 340L55 341L54 340z"/>
<path style="fill:#756873; stroke:none;" d="M326 340L327 341L326 340M53 342L54 343L53 342z"/>
<path style="fill:#a17c8a; stroke:none;" d="M325 342L326 343L325 342M324 344L325 345L324 344z"/>
<path style="fill:#756873; stroke:none;" d="M52 345L53 346L52 345M324 345L325 346L324 345z"/>
<path style="fill:#a17c8a; stroke:none;" d="M323 347L324 348L323 347M51 348L52 349L51 348z"/>
<path style="fill:#756873; stroke:none;" d="M323 348L324 349L323 348z"/>
<path style="fill:#a17c8a; stroke:none;" d="M322 350L323 351L322 350z"/>
<path style="fill:#756873; stroke:none;" d="M52 351L53 352L52 351M53 352L54 353L53 352M54 353L55 354L54 353z"/>
<path style="fill:#a17c8a; stroke:none;" d="M321 353L322 354L321 353M55 354L56 355L55 354z"/>
<path style="fill:#756873; stroke:none;" d="M321 354L322 355L321 354z"/>
<path style="fill:#a17c8a; stroke:none;" d="M56 355L57 356L56 355M320 356L321 357L320 356z"/>
<path style="fill:#756873; stroke:none;" d="M320 357L321 358L320 357M58 358L59 359L58 358z"/>
<path style="fill:#a17c8a; stroke:none;" d="M59 359L60 360L59 359M319 359L320 360L319 359z"/>
<path style="fill:#756873; stroke:none;" d="M319.333 360.667L319.667 361.333L319.333 360.667z"/>
<path style="fill:#a17c8a; stroke:none;" d="M60 362L61 363L60 362z"/>
<path style="fill:#756873; stroke:none;" d="M60 363L60 367L61 367L60 363z"/>
<path style="fill:#a17c8a; stroke:none;" d="M318 363L319 364L318 363z"/>
<path style="fill:#756873; stroke:none;" d="M318.333 364.667L318.667 365.333L318.333 364.667z"/>
<path style="fill:#a17c8a; stroke:none;" d="M60 367L61 368L60 367M317.333 367.667L317.667 368.333L317.333 367.667z"/>
<path style="fill:#756873; stroke:none;" d="M317 369L318 370L317 369M59 370L60 371L59 370z"/>
<path style="fill:#a17c8a; stroke:none;" d="M59 371L60 372L59 371z"/>
<path style="fill:#756873; stroke:none;" d="M59 372L60 373L59 372z"/>
<path style="fill:#a17c8a; stroke:none;" d="M316.333 372.667L316.667 373.333L316.333 372.667M62 374L63 375L62 374z"/>
<path style="fill:#756873; stroke:none;" d="M316.333 374.667L316.667 375.333L316.333 374.667M63 375L64 376L63 375z"/>
<path style="fill:#a17c8a; stroke:none;" d="M65 376L66 377L65 376z"/>
<path style="fill:#756873; stroke:none;" d="M66 377L67 378L66 377z"/>
<path style="fill:#a17c8a; stroke:none;" d="M68 378L69 379L68 378z"/>
<path style="fill:#756873; stroke:none;" d="M69 379L70 380L69 379z"/>
<path style="fill:#a17c8a; stroke:none;" d="M315.333 379.667L315.667 380.333L315.333 379.667z"/>
<path style="fill:#756873; stroke:none;" d="M70 380L71 381L70 380z"/>
<path style="fill:#a17c8a; stroke:none;" d="M71 381L72 382L71 381z"/>
<path style="fill:#756873; stroke:none;" d="M315.333 381.667L315.667 382.333L315.333 381.667z"/>
<path style="fill:#a17c8a; stroke:none;" d="M72 383L73 384L72 383M73.3333 387.667L73.6667 388.333L73.3333 387.667M314 388L314 392L315 392L314 388z"/>
<path style="fill:#756873; stroke:none;" d="M314 392L314 493L315 493L315 423L314 392M72 399L72 405L73 405L72 399z"/>
<path style="fill:#a17c8a; stroke:none;" d="M72 405L72 411L73 411L72 405M192 418L192 419L197 419L192 418M185.667 419.333L186.333 419.667L185.667 419.333z"/>
<path style="fill:#756873; stroke:none;" d="M187.667 419.333L188.333 419.667L187.667 419.333M198 419L199 420L198 419z"/>
<path style="fill:#a17c8a; stroke:none;" d="M177.667 420.333L178.333 420.667L177.667 420.333z"/>
<path style="fill:#756873; stroke:none;" d="M179 420L179 421L182 421L179 420z"/>
<path style="fill:#a17c8a; stroke:none;" d="M72 421L73 422L72 421M170.667 421.333L171.333 421.667L170.667 421.333z"/>
<path style="fill:#756873; stroke:none;" d="M172.667 421.333L173.333 421.667L172.667 421.333M72 422L73 423L72 422z"/>
<path style="fill:#a17c8a; stroke:none;" d="M162.667 422.333L163.333 422.667L162.667 422.333z"/>
<path style="fill:#756873; stroke:none;" d="M164.667 422.333L165.333 422.667L164.667 422.333M201 422L202 423L201 422z"/>
<path style="fill:#a17c8a; stroke:none;" d="M155.667 423.333L156.333 423.667L155.667 423.333z"/>
<path style="fill:#756873; stroke:none;" d="M157.667 423.333L158.333 423.667L157.667 423.333z"/>
<path style="fill:#a17c8a; stroke:none;" d="M73 424L74 425L73 424M147.667 424.333L148.333 424.667L147.667 424.333z"/>
<path style="fill:#756873; stroke:none;" d="M149 424L149 425L152 425L149 424z"/>
<path style="fill:#a17c8a; stroke:none;" d="M202 424L202 428L203 428L202 424M140.667 425.333L141.333 425.667L140.667 425.333z"/>
<path style="fill:#756873; stroke:none;" d="M142.667 425.333L143.333 425.667L142.667 425.333M74 426L75 427L74 426z"/>
<path style="fill:#a17c8a; stroke:none;" d="M132.667 426.333L133.333 426.667L132.667 426.333z"/>
<path style="fill:#756873; stroke:none;" d="M134.667 426.333L135.333 426.667L134.667 426.333z"/>
<path style="fill:#a17c8a; stroke:none;" d="M75 427L76 428L75 427M125 427L126 428L125 427z"/>
<path style="fill:#756873; stroke:none;" d="M126 427L126 428L129 428L126 427z"/>
<path style="fill:#a17c8a; stroke:none;" d="M76 428L77 429L76 428M117.667 428.333L118.333 428.667L117.667 428.333z"/>
<path style="fill:#756873; stroke:none;" d="M119.667 428.333L120.333 428.667L119.667 428.333z"/>
<path style="fill:#a17c8a; stroke:none;" d="M77 429L78 430L77 429M109.667 429.333L110.333 429.667L109.667 429.333z"/>
<path style="fill:#756873; stroke:none;" d="M111 429L111 430L114 430L111 429M201 429L202 430L201 429M78 430L79 431L78 430z"/>
<path style="fill:#a17c8a; stroke:none;" d="M102.667 430.333L103.333 430.667L102.667 430.333z"/>
<path style="fill:#756873; stroke:none;" d="M104.667 430.333L105.333 430.667L104.667 430.333M80 431L81 432L80 431z"/>
<path style="fill:#a17c8a; stroke:none;" d="M94.6667 431.333L95.3333 431.667L94.6667 431.333z"/>
<path style="fill:#756873; stroke:none;" d="M96 431L96 432L99 432L96 431M83 432L84 433L83 432z"/>
<path style="fill:#a17c8a; stroke:none;" d="M84 432L84 433L89 433L84 432z"/>
<path style="fill:#756873; stroke:none;" d="M89.6667 432.333L90.3333 432.667L89.6667 432.333M198 432L199 433L198 432M194.667 433.333L195.333 433.667L194.667 433.333z"/>
<path style="fill:#a17c8a; stroke:none;" d="M196 433L197 434L196 433z"/>
<path style="fill:#756873; stroke:none;" d="M186 434L186 435L189 435L186 434z"/>
<path style="fill:#a17c8a; stroke:none;" d="M189.667 434.333L190.333 434.667L189.667 434.333z"/>
<path style="fill:#756873; stroke:none;" d="M179.667 435.333L180.333 435.667L179.667 435.333z"/>
<path style="fill:#a17c8a; stroke:none;" d="M181.667 435.333L182.333 435.667L181.667 435.333z"/>
<path style="fill:#756873; stroke:none;" d="M171 436L171 437L174 437L171 436z"/>
<path style="fill:#a17c8a; stroke:none;" d="M174.667 436.333L175.333 436.667L174.667 436.333z"/>
<path style="fill:#756873; stroke:none;" d="M167 437L168 438L167 437z"/>
<path style="fill:#a17c8a; stroke:none;" d="M167 438L167 494L168 494L168 456L167 438M313 494L314 495L313 494z"/>
<path style="fill:#756873; stroke:none;" d="M168 495L169 496L168 495M169 496L170 497L169 496z"/>
<path style="fill:#a17c8a; stroke:none;" d="M170 496L171 497L170 496M311 496L312 497L311 496z"/>
<path style="fill:#756873; stroke:none;" d="M244 497L245 498L244 497z"/>
<path style="fill:#a17c8a; stroke:none;" d="M245 497L246 498L245 497M274 497L275 498L274 497z"/>
<path style="fill:#756873; stroke:none;" d="M275 497L276 498L275 497z"/>
<path style="fill:#a17c8a; stroke:none;" d="M249 501L250 502L249 501M270 501L271 502L270 501z"/>
<path style="fill:#756873; stroke:none;" d="M249 502L250 503L249 502M270 502L271 503L270 502z"/>
</svg>
