<?xml version="1.0" standalone="no"?>
<!DOCTYPE svg PUBLIC "-//W3C//DTD SVG 20010904//EN"
 "http://www.w3.org/TR/2001/REC-SVG-20010904/DTD/svg10.dtd">
<svg version="1.0" xmlns="http://www.w3.org/2000/svg"
 width="259.000000pt" height="194.000000pt" viewBox="0 0 259.000000 194.000000"
 preserveAspectRatio="xMidYMid meet">
<metadata>
Created by potrace 1.16, written by Peter Selinger 2001-2019
</metadata>
<g transform="translate(0.000000,194.000000) scale(0.100000,-0.100000)"
fill="#000000" stroke="none">
<path d="M0 970 l0 -970 1295 0 1295 0 0 970 0 970 -1295 0 -1295 0 0 -970z
m1568 342 c6 -9 11 -34 11 -56 -1 -23 -4 -32 -7 -21 l-5 20 -8 -20 c-5 -14 -8
-7 -8 28 -1 26 -5 47 -10 47 -5 0 -7 -10 -4 -22 l6 -23 -22 23 c-13 13 -30 21
-39 18 -9 -3 -71 -17 -137 -31 -177 -38 -195 -43 -205 -68 -6 -14 -9 -16 -9
-6 -2 34 25 49 134 74 61 14 144 33 185 43 80 20 97 19 118 -6z m-441 -324
c-2 -29 -3 -6 -3 52 0 58 1 81 3 53 2 -29 2 -77 0 -105z m440 105 c-3 -10 -5
-2 -5 17 0 19 2 27 5 18 2 -10 2 -26 0 -35z m-70 -100 c-3 -10 -5 -4 -5 12 0
17 2 24 5 18 2 -7 2 -21 0 -30z m70 -45 c-2 -13 -4 -5 -4 17 -1 22 1 32 4 23
2 -10 2 -28 0 -40z m-77 -97 c0 -5 -26 -15 -57 -21 -41 -9 -65 -21 -85 -42
-31 -33 -36 -30 -12 7 17 26 81 54 147 64 4 0 7 -3 7 -8z m-374 -76 c-4 -15
-14 -25 -24 -25 -60 0 -129 -40 -137 -79 -6 -35 -15 -39 -15 -7 0 42 46 81
113 96 51 12 57 16 58 39 0 14 3 20 6 13 3 -7 2 -24 -1 -37z"/>
</g>
</svg>
