<?xml version="1.0" standalone="yes"?>
<svg xmlns="http://www.w3.org/2000/svg" width="512" height="512">
<path style="fill:#010101; stroke:none;" d="M0 0L0 206L1 206C16.5126 173.201 24.8914 139.609 46.0255 109C56.7103 93.525 69.5785 80.1073 83 67.0146C88.0761 62.0629 94.922 58.1285 99.2971 52.5609C110.882 37.8188 103.482 8.14191 125 1C114.973 -3.2077 97.8961 0 87 0L0 0z"/>
<path style="fill:#5850a5; stroke:none;" d="M59 193L113 193C109.993 170.673 107.162 152.666 116.427 131C121.47 119.209 129.193 107.907 139.001 99.5903C153.462 87.3281 170.982 79.0102 190 77.1698C252.463 71.125 300.586 134.49 282 193C292.801 193 306.523 195.291 317 192.682C321.899 191.462 325.167 186.789 330 185.109C333.987 183.723 342.204 186.191 344.697 182.667C346.877 179.586 350.339 168.945 349.212 165.274C347.599 160.016 337.947 156.967 335.189 151C326.39 131.961 345.578 117.766 363 121L369 99C351.978 93.991 351.152 79.3955 355 65C297.937 48.8065 240.481 32.771 184 14.6559C171.025 10.4944 158.093 6.40039 145 2.57562C137.047 0.25235 127.672 -2.13092 120.039 2.61343C106.326 11.137 102.992 41.3065 99.4969 56C88.585 101.878 73.5872 148.154 59 193z"/>
<path style="fill:#010101; stroke:none;" d="M138 0L138 1L177 11.4908L233 1L204 0L138 0z"/>
<path style="fill:#c8cec6; stroke:none;" d="M177 12C191.986 21.4184 215.067 23.818 232 29.0247C272.317 41.4215 313.708 56.4546 355 65C352.057 74.0466 350.279 82.524 356.108 90.9599C368.76 109.271 395.258 97.9469 397 78L455 95C445.574 74.4228 418.399 55.6215 400 43.3333C354.89 13.2048 304.828 0 251 0C226.83 0 199.475 2.3277 177 12z"/>
<path style="fill:#010101; stroke:none;" d="M279 0L279 1C298.801 1.05453 319.345 6.77673 338 13C407.954 36.3359 466.251 91.6796 493.799 160C502.898 182.564 510.932 208.453 511 233L512 233L512 0L279 0z"/>
<path style="fill:#50a2f5; stroke:none;" d="M186 15L187 16L186 15M196 18L197 19L196 18M213 23L214 24L213 23M230 28L231 29L230 28M247 33L248 34L247 33M264 38L265 39L264 38M281 43L282 44L281 43M291 46L292 47L291 46M308 51L309 52L308 51z"/>
<path style="fill:#c8cec6; stroke:none;" d="M6 198C17.8475 192.495 28.0752 193 41 193C45.5638 193 54.6151 194.719 58.4869 191.972C61.0258 190.171 61.4775 185.766 62.341 183C65.0316 174.382 67.4998 165.676 70 157C79.7095 123.309 95.319 87.7337 100 53C88.3333 58.1998 78.8741 70.1116 70 79C38.4035 110.647 15.0472 154.167 6 198z"/>
<path style="fill:#50a2f5; stroke:none;" d="M99 56L100 57L99 56M325 56L326 57L325 56M342 61L343 62L342 61M353 69L354 70L353 69M94 73L95 74L94 73M113 193L132 193C118.446 166.472 149.231 160.166 168 170C174.335 155.279 174.053 131.094 189 122.005C199.006 115.921 215.738 119 227 119C233.596 119 253.598 115.651 256.788 123.109C258.883 128.007 253.827 137.209 252.424 142C247.567 158.589 240.311 175.855 238 193L270 193C273.417 193 279.53 194.145 282.143 191.397C286.067 187.268 285.639 177.308 286.169 172C288.283 150.845 281.437 129.068 268.844 112C239.208 71.8339 179.171 65.6632 141 97.0841C128.268 107.565 119.116 121.457 113.695 137C107.09 155.94 109.054 173.88 113 193M397 78C394.747 93.2409 383.377 99.9984 369 100L363 121C368.717 124.589 373.96 128.432 376.438 135C382.915 152.169 365.894 165.877 350 164L344 185C347.581 187.275 351.023 190.952 355 192.397C364.817 195.966 380.568 193 391 193L462 193C472.355 193 495.711 188.72 504 195C507.204 184.449 495.916 163.755 491.719 154C483.985 136.023 472.272 107.416 455.91 95.7029C450.604 91.9047 442.209 90.7893 436 89C423.221 85.3172 410.169 79.9376 397 78M89 90L90 91L89 90M84 107L85 108L84 107z"/>
<path style="fill:#5850a5; stroke:none;" d="M168 170C159.001 163.649 145.881 161.626 136.004 167.367C128.845 171.527 123.751 184.951 131.419 191.397C134.708 194.162 141.009 193 145 193L178 193L189.421 154L195.278 140.028L207 139L237 140L225 182C213.653 179.406 196.627 177.222 195 193L238 193C241.56 175.798 247.654 158.815 252.72 142C254.172 137.179 259.598 127.057 256.932 122.228C253.348 115.735 233.403 119 227 119C215.52 119 198.186 115.79 188.001 122.005C174.538 130.221 172.479 155.993 168 170z"/>
<path style="fill:#50a2f5; stroke:none;" d="M349 120L350 121L349 120z"/>
<path style="fill:#c8cec6; stroke:none;" d="M350 120.529C322.105 126.967 332.551 170.669 360 164.1C388.787 157.21 378.839 113.874 350 120.529z"/>
<path style="fill:#50a2f5; stroke:none;" d="M346 121L347 122L346 121M344 122L345 123L344 122M79 124L80 125L79 124M341 124L342 125L341 124M178 193L195 193C197.875 177.131 213.336 180.285 225 182L237 140C225.56 140 205.807 134.738 195.278 139.603C191.236 141.471 190.511 149.183 189.421 153C185.688 166.079 179.986 179.555 178 193M71 151L72 152L71 151M335 152L336 153L335 152M66 168L67 169L66 168M331 184L332 185L331 184z"/>
<path style="fill:#c8cec6; stroke:none;" d="M261 222L261 244C253.846 244.909 247.293 246.344 242.329 252.043C228.631 267.77 242.129 288.842 261 289C261 294.404 263.046 305.066 259.972 309.682C256.858 314.359 246.791 313.922 242.329 319.043C228.563 334.843 242.077 355.841 261 356C261 361.162 263.26 373.504 259.397 377.397C256.99 379.823 252.053 379.472 249 380.92C241.22 384.608 236.902 392.597 237.019 401C237.133 409.224 241.36 417.275 249 420.811C252.062 422.228 256.994 422.151 259.397 424.6C262.358 427.618 261.485 437.086 260.852 440.981C259.84 447.205 251.475 446.268 247.004 449.133C238.112 454.832 235.671 465.22 238 475L123 475L123 476C255.977 557.386 438.884 495.359 495.189 350C506.49 320.825 512 290.195 512 259L511 259C511 309.845 495.027 360.502 465.421 402C457.476 413.137 447.724 428.992 436 436.397C429.336 440.605 415.68 438 408 438L339 438C328.816 438 317.501 437.851 313.943 426C309.881 412.471 313 394.077 313 380L313 283C313 270.2 308.384 246.264 317.225 236.019C325.848 226.024 345.036 230 357 230L467 230L498 230C502.394 230 507.383 228.963 510 233C512.848 225.059 508.043 211.163 506.4 203C505.814 200.089 505.607 195.12 502.57 193.603C498.379 191.51 490.605 193 486 193L447 193C418.025 193 387.854 195.452 359 192.941C350.842 192.232 346.015 184.228 337 184.054C326.063 183.842 319.835 192.995 309 193L260 193C254.449 193 244.442 191.062 239.434 193.603C235.397 195.652 236.963 203.66 238.108 207C241.635 217.283 250.658 221.913 261 222z"/>
<path style="fill:#50a2f5; stroke:none;" d="M61 185L62 186L61 185M328 185L329 186L328 185z"/>
<path style="fill:#f141ab; stroke:none;" d="M238 475C236.161 465.096 238.348 455.921 247.004 449.8C250.937 447.019 259.958 447.187 260.852 441.941C261.508 438.089 262.462 427.804 259.972 424.6C258.034 422.105 252.782 422.097 250 420.811C242.486 417.337 237.244 409.294 237.055 401C236.863 392.604 242.486 384.478 250 380.92C252.763 379.612 258.041 379.855 259.972 377.397C263.246 373.232 261 361.152 261 356C242.686 355.61 229.308 335.402 242.329 320.015C246.341 315.275 258.32 313.912 260.397 309.682C262.922 304.54 261 294.68 261 289C245.346 288.667 230.77 272.459 239.533 257C244.414 248.39 251.879 245.719 261 244L261 222C244.778 221.654 235.124 208.49 238 193L70 193L30 193C21.4787 193 13.304 192.294 6.18519 197.905C-0.368252 203.071 0 210.462 0 218L0 258L0 417C0 432.434 -6.15284 462.565 9.00077 472.005C15.5321 476.074 23.6565 475 31 475L74 475L238 475z"/>
<path style="fill:#50a2f5; stroke:none;" d="M505 196L505 199L506 199L505 196M506 200L506 204L507 204L506 200M507 205L507 209L508 209L507 205z"/>
<path style="fill:#5850a5; stroke:none;" d="M508 210L509 211L508 210z"/>
<path style="fill:#50a2f5; stroke:none;" d="M508 211L508 215L509 215L508 211M509 217L509 221L510 221L509 217M510 224L510 229L511 229L510 224M510 230L374 230L338 230C332.6 230 325.834 228.943 321.004 231.858C308.599 239.345 313 260.75 313 273L313 391C313 403.598 308.057 428.446 321.004 435.91C326.04 438.814 332.424 438 338 438L373 438L417 438C422.579 438 430.898 439.524 436 436.972C449.736 430.101 462.859 407.752 470.807 395C494.994 356.198 510.456 312.026 511.004 266C511.14 254.557 513.872 240.84 510 230z"/>
<path style="fill:#c8cec6; stroke:none;" d="M511 242L511 254L512 254L511 242M92 346C85.9859 345.24 80.0252 344.384 74 345.669C59.5815 348.745 48.0874 364.541 61.1049 376.787C70.0028 385.158 85.4104 385.929 96 380.622C120.101 368.543 99.1991 331.673 107.603 312.144C109.299 308.205 115.358 307.617 119 306.579C129 303.728 139.095 301.167 149 298L149 343C135.285 338.955 113.097 353.529 127.479 367.471C136.956 376.658 158.638 375.294 163.852 362C166.292 355.779 165 347.566 165 341L165 299C165 292.815 166.895 282.868 164.397 277.148C161.826 271.264 152.279 275.647 148 276.86C133.712 280.909 107.404 283.746 97.213 295.044C87.0171 306.347 92 331.711 92 346z"/>
<path style="fill:#010101; stroke:none;" d="M511 279C510.983 305.169 502.084 333.168 491.85 357C457.11 437.892 369.779 510.939 278 511L278 512L512 512L512 348L512 301L511 279M0 461L0 512L233 512L233 511C205.977 510.925 177.577 501.538 153 490.999C142.85 486.647 130.842 476.501 120 475.133C95.1741 472.001 68.0405 475 43 475C24.906 475 11.4592 477.23 0 461z"/>
</svg>
