<?xml version="1.0" standalone="yes"?>
<svg xmlns="http://www.w3.org/2000/svg" width="225" height="225">
<path style="fill:#f3f9fb; stroke:none;" d="M0 0L0 225L225 225L225 0L0 0z"/>
<path style="fill:#58baf3; stroke:none;" d="M154 21L155 22L154 21z"/>
<path style="fill:#61719c; stroke:none;" d="M155 21L155 22L158 22L155 21z"/>
<path style="fill:#392a61; stroke:none;" d="M125 67L94 68C93.9728 26.9046 36.7433 27.3982 35 68C16.5895 68.0142 21 86.3873 21 100C21 104.668 21.9277 110.529 20.412 115C17.8047 122.691 12.9052 127.229 13.0185 136C13.1255 144.276 18.0963 148.679 20.4367 156C22.1499 161.359 21 168.413 21 174C8.19359 174.01 7.30852 188.859 18.0154 194.86C23.5572 197.966 30.9046 197 37 197L77 197C82.3641 197 91.7636 198.992 95 194L44 194C36.9393 194 27.5301 195.596 21.0046 192.427C14.5737 189.305 14.0175 183.36 14 177L204 177C203.981 183.782 203.149 190.034 195.999 192.852C189.018 195.603 179.387 194 172 194L121 194C124.319 199.12 134.49 197 140 197L180 197C186.364 197 194.198 198.103 199.985 194.86C210.622 188.899 209.821 174.037 197 174C197 139.426 198.514 104.324 195.546 70C194.445 57.2731 198.362 47.5407 189.471 36C166.176 5.76559 112.931 28.834 125 67z"/>
<path style="fill:#61719c; stroke:none;" d="M163.667 21.3333L164.333 21.6667L163.667 21.3333z"/>
<path style="fill:#58baf3; stroke:none;" d="M165 21L166 22L165 21M149 22L150 23L149 22z"/>
<path style="fill:#61719c; stroke:none;" d="M150 22L151 23L150 22M169 22L170 23L169 22z"/>
<path style="fill:#58baf3; stroke:none;" d="M170 22L171 23L170 22z"/>
<path style="fill:#61719c; stroke:none;" d="M147 23L148 24L147 23M172 23L173 24L172 23z"/>
<path style="fill:#58baf3; stroke:none;" d="M173 23L174 24L173 23M144 24L145 25L144 24z"/>
<path style="fill:#61719c; stroke:none;" d="M156 24L156 25L164 25L156 24M175 24L176 25L175 24z"/>
<path style="fill:#58baf3; stroke:none;" d="M142 25L143 26L142 25z"/>
<path style="fill:#61719c; stroke:none;" d="M151 25L152 26L151 25z"/>
<path style="fill:#58baf3; stroke:none;" d="M152 25L153 26L152 25z"/>
<path style="fill:#f3f9fb; stroke:none;" d="M153 25.4676C110.622 33.4626 124.811 97.7221 167 90.6744C209.539 83.5681 195.503 17.4489 153 25.4676z"/>
<path style="fill:#58baf3; stroke:none;" d="M167 25L168 26L167 25z"/>
<path style="fill:#61719c; stroke:none;" d="M168 25L169 26L168 25M177 25L178 26L177 25M148 26L149 27L148 26M171 26L172 27L171 26z"/>
<path style="fill:#58baf3; stroke:none;" d="M179 26L180 27L179 26z"/>
<path style="fill:#61719c; stroke:none;" d="M139 27L140 28L139 27z"/>
<path style="fill:#58baf3; stroke:none;" d="M146 27L147 28L146 27M173 27L174 28L173 27z"/>
<path style="fill:#61719c; stroke:none;" d="M174 27L175 28L174 27M180 27L181 28L180 27z"/>
<path style="fill:#58baf3; stroke:none;" d="M144 28L145 29L144 28M136 29L137 30L136 29z"/>
<path style="fill:#61719c; stroke:none;" d="M142 29L143 30L142 29z"/>
<path style="fill:#58baf3; stroke:none;" d="M177 29L178 30L177 29z"/>
<path style="fill:#61719c; stroke:none;" d="M183 29L184 30L183 29M135 30L136 31L135 30M179 30L180 31L179 30M184 30L185 31L184 30M134 31L135 32L134 31M139 31L140 32L139 31M180 31L181 32L180 31M185 31L186 32L185 31M133 32L134 33L133 32z"/>
<path style="fill:#58baf3; stroke:none;" d="M138 32L139 33L138 32z"/>
<path style="fill:#61719c; stroke:none;" d="M186 32L187 33L186 32M132 33L133 34L132 33z"/>
<path style="fill:#58baf3; stroke:none;" d="M137 33L138 34L137 33z"/>
<path style="fill:#61719c; stroke:none;" d="M187 33L188 34L187 33z"/>
<path style="fill:#58baf3; stroke:none;" d="M131 34L132 35L131 34z"/>
<path style="fill:#61719c; stroke:none;" d="M188 34L189 35L188 34z"/>
<path style="fill:#58baf3; stroke:none;" d="M135 35L136 36L135 35M189 35L190 36L189 35M58 36L59 37L58 36z"/>
<path style="fill:#61719c; stroke:none;" d="M59.6667 36.3333L60.3333 36.6667L59.6667 36.3333M68.6667 36.3333L69.3333 36.6667L68.6667 36.3333z"/>
<path style="fill:#58baf3; stroke:none;" d="M70 36L71 37L70 36M134 36L135 37L134 36z"/>
<path style="fill:#61719c; stroke:none;" d="M55.6667 37.3333L56.3333 37.6667L55.6667 37.3333M73 37L74 38L73 37z"/>
<path style="fill:#58baf3; stroke:none;" d="M74 37L75 38L74 37z"/>
<path style="fill:#61719c; stroke:none;" d="M129 37L130 38L129 37M133 37L134 38L133 37z"/>
<path style="fill:#58baf3; stroke:none;" d="M186 37L187 38L186 37z"/>
<path style="fill:#61719c; stroke:none;" d="M190 37L191 38L190 37z"/>
<path style="fill:#58baf3; stroke:none;" d="M52 38L53 39L52 38z"/>
<path style="fill:#61719c; stroke:none;" d="M53 38L54 39L53 38M76 38L77 39L76 38M132 38L133 39L132 38M148 38L148 39L151 39L148 38z"/>
<path style="fill:#392a61; stroke:none;" d="M137 41C139.77 66.6843 157.448 86.9913 184 73L184 72L174 69C176.631 66.0373 179.097 63.7812 177 60L182 53L178 52L180 41L178 41C173.641 46.5994 169.209 49.8265 162 50C159.611 34.1319 147.848 41.1365 137 41z"/>
<path style="fill:#61719c; stroke:none;" d="M152.667 38.3333L153.333 38.6667L152.667 38.3333z"/>
<path style="fill:#58baf3; stroke:none;" d="M154 38L155 39L154 38z"/>
<path style="fill:#61719c; stroke:none;" d="M187 38L188 39L187 38z"/>
<path style="fill:#58baf3; stroke:none;" d="M191 38L192 39L191 38M50 39L51 40L50 39z"/>
<path style="fill:#61719c; stroke:none;" d="M61 39L62 40L61 39z"/>
<path style="fill:#58baf3; stroke:none;" d="M62 39L62 40L67 40L62 39z"/>
<path style="fill:#61719c; stroke:none;" d="M67.6667 39.3333L68.3333 39.6667L67.6667 39.3333M78 39L79 40L78 39z"/>
<path style="fill:#58baf3; stroke:none;" d="M145 39L146 40L145 39z"/>
<path style="fill:#61719c; stroke:none;" d="M156 39L157 40L156 39M49 40L50 41L49 40M56 40L57 41L56 40z"/>
<path style="fill:#58baf3; stroke:none;" d="M57 40L58 41L57 40z"/>
<path style="fill:#f3f9fb; stroke:none;" d="M58 40.5293C25.4759 48.0351 38.763 98.9689 71 91.1003C104.315 82.9687 91.1636 32.876 58 40.5293z"/>
<path style="fill:#61719c; stroke:none;" d="M72 40L73 41L72 40z"/>
<path style="fill:#58baf3; stroke:none;" d="M80 40L81 41L80 40M127 40L128 41L127 40z"/>
<path style="fill:#61719c; stroke:none;" d="M131 40L132 41L131 40M137 40L138 41L137 40z"/>
<path style="fill:#58baf3; stroke:none;" d="M138 40L139 41L138 40z"/>
<path style="fill:#61719c; stroke:none;" d="M178.667 40.3333L179.333 40.6667L178.667 40.3333z"/>
<path style="fill:#58baf3; stroke:none;" d="M188 40L189 41L188 40z"/>
<path style="fill:#61719c; stroke:none;" d="M192 40L193 41L192 40z"/>
<path style="fill:#58baf3; stroke:none;" d="M47 41L48 42L47 41z"/>
<path style="fill:#61719c; stroke:none;" d="M54 41L55 42L54 41M75 41L76 42L75 41M81 41L82 42L81 41M136.333 41.6667L136.667 42.3333L136.333 41.6667M141 41L142 42L141 41z"/>
<path style="fill:#58baf3; stroke:none;" d="M142 41L143 42L142 41z"/>
<path style="fill:#61719c; stroke:none;" d="M177 41L178 42L177 41M180 41L181 42L180 41M189 41L190 42L189 41M46 42L47 43L46 42z"/>
<path style="fill:#58baf3; stroke:none;" d="M52 42L53 43L52 42z"/>
<path style="fill:#61719c; stroke:none;" d="M77 42L78 43L77 42z"/>
<path style="fill:#58baf3; stroke:none;" d="M83 42L84 43L83 42M126 42L127 43L126 42M130 42L131 43L130 42z"/>
<path style="fill:#61719c; stroke:none;" d="M142 45C145.895 65.6752 152.084 74.941 174 74L169 70L169 68L174 64L170 63L170 60L176 56L172 56L176 49L159 53C158.72 41.4075 150.933 41.0396 142 45M193 42L194 43L193 42M50 43L51 44L50 43z"/>
<path style="fill:#58baf3; stroke:none;" d="M78 43L79 44L78 43z"/>
<path style="fill:#61719c; stroke:none;" d="M84 43L85 44L84 43z"/>
<path style="fill:#58baf3; stroke:none;" d="M136 43L137 44L136 43z"/>
<path style="fill:#61719c; stroke:none;" d="M160 43L161 44L160 43M176 43L177 44L176 43M190 43L191 44L190 43z"/>
<path style="fill:#58baf3; stroke:none;" d="M49 44L50 45L49 44z"/>
<path style="fill:#61719c; stroke:none;" d="M72 44L70 47L72 44z"/>
<path style="fill:#392a61; stroke:none;" d="M63 77C68.2681 78.9636 76.3519 82.0949 81.7369 78.821C86.2477 76.0786 90.2426 61.9083 86.2431 57.7423C84.0427 55.4504 79.8686 56.0082 77 56C77.2456 54.6761 77.5869 53.3016 77.7091 51.956C79.0071 37.6684 67.1263 52.001 62 53.3866C57.7773 54.5279 46.8424 51.7676 44.6034 56.3179C42.7675 60.0489 42.6514 74.1136 45.0278 77.5664C48.1142 82.0508 60.1953 80.9698 63 77z"/>
<path style="fill:#61719c; stroke:none;" d="M75 44L76 45L75 44M80 44L81 45L80 44M85 44L86 45L85 44z"/>
<path style="fill:#58baf3; stroke:none;" d="M129 44L130 45L129 44z"/>
<path style="fill:#61719c; stroke:none;" d="M175 44L176 45L175 44M194.333 44.6667L194.667 45.3333L194.333 44.6667z"/>
<path style="fill:#58baf3; stroke:none;" d="M81 45L82 46L81 45z"/>
<path style="fill:#61719c; stroke:none;" d="M86 45L87 46L86 45M125 45L126 46L125 45z"/>
<path style="fill:#58baf3; stroke:none;" d="M137 45L138 46L137 45z"/>
<path style="fill:#61719c; stroke:none;" d="M161.333 45.6667L161.667 46.3333L161.333 45.6667M174 45L175 46L174 45M191 45L192 46L191 45M42 46L43 47L42 46z"/>
<path style="fill:#58baf3; stroke:none;" d="M82 46L83 47L82 46M87 46L88 47L87 46z"/>
<path style="fill:#61719c; stroke:none;" d="M128 46L129 47L128 46M173 46L174 47L173 46z"/>
<path style="fill:#58baf3; stroke:none;" d="M191 46L192 47L191 46z"/>
<path style="fill:#61719c; stroke:none;" d="M41 47L42 48L41 47M45 47L46 48L45 47M74 47L75 48L74 47z"/>
<path style="fill:#58baf3; stroke:none;" d="M78 47L79 48L78 47M124 47L125 48L124 47z"/>
<path style="fill:#61719c; stroke:none;" d="M180 47L181 48L180 47M195.333 47.6667L195.667 48.3333L195.333 47.6667z"/>
<path style="fill:#58baf3; stroke:none;" d="M40 48L41 49L40 48z"/>
<path style="fill:#f3729c; stroke:none;" d="M73 48L74 49L73 48z"/>
<path style="fill:#f3f9fb; stroke:none;" d="M74 48C71.562 51.7459 66.2703 54.3699 64.6034 58.213C58.463 72.3698 69.9667 76 81 76L81 75L78 75L83 71L83 70L78 69L78 67L83 66L83 65L78 64L78 62L84 61L84 60L72 59L74 48z"/>
<path style="fill:#61719c; stroke:none;" d="M78 48L78 51L79 51L78 48z"/>
<path style="fill:#58baf3; stroke:none;" d="M84 48L85 49L84 48z"/>
<path style="fill:#61719c; stroke:none;" d="M124 48L125 49L124 48M139 48L140 49L139 48M170 48L171 49L170 48M69 49L70 50L69 49M75 49L76 50L75 49M85 49L86 50L85 49M89 49L90 50L89 49M127 49L128 50L127 49z"/>
<path style="fill:#58baf3; stroke:none;" d="M167 49L168 50L167 49z"/>
<path style="fill:#61719c; stroke:none;" d="M168 49L169 50L168 49M192 49L193 50L192 49M39 50L40 51L39 50z"/>
<path style="fill:#58baf3; stroke:none;" d="M43 50L44 51L43 50M68 50L69 51L68 50z"/>
<path style="fill:#61719c; stroke:none;" d="M72 50L73 51L72 50M86 50L87 51L86 50z"/>
<path style="fill:#58baf3; stroke:none;" d="M90 50L91 51L90 50M127 50L128 51L127 50M179 50L181 52L179 50M38 51L39 52L38 51z"/>
<path style="fill:#61719c; stroke:none;" d="M42 51L43 52L42 51z"/>
<path style="fill:#58baf3; stroke:none;" d="M66 51L67 52L66 51z"/>
<path style="fill:#61719c; stroke:none;" d="M67 51L68 52L67 51z"/>
<path style="fill:#f3729c; stroke:none;" d="M74 51L75 52L74 51z"/>
<path style="fill:#58baf3; stroke:none;" d="M78 51L79 52L78 51z"/>
<path style="fill:#61719c; stroke:none;" d="M178 51L179 52L178 51z"/>
<path style="fill:#f3f9fb; stroke:none;" d="M179 51L180 52L179 51z"/>
<path style="fill:#58baf3; stroke:none;" d="M196 51L197 52L196 51z"/>
<path style="fill:#61719c; stroke:none;" d="M38 52L39 53L38 52M64 52L65 53L64 52z"/>
<path style="fill:#f3729c; stroke:none;" d="M71 52L72 53L71 52z"/>
<path style="fill:#61719c; stroke:none;" d="M74 52L75 53L74 52M87 52L88 53L87 52z"/>
<path style="fill:#58baf3; stroke:none;" d="M91 52L92 53L91 52M123 52L124 53L123 52z"/>
<path style="fill:#61719c; stroke:none;" d="M181 52L182 53L181 52M196.333 52.6667L196.667 53.3333L196.333 52.6667M41 53L42 54L41 53z"/>
<path style="fill:#58baf3; stroke:none;" d="M45 53L46 54L45 53z"/>
<path style="fill:#61719c; stroke:none;" d="M46 53L46 54L62 54L46 53z"/>
<path style="fill:#f3729c; stroke:none;" d="M70 53L71 54L70 53z"/>
<path style="fill:#61719c; stroke:none;" d="M77 53L78 54L77 53M123 53L123 56L124 56L123 53M140.333 53.6667L140.667 54.3333L140.333 53.6667M193 53L193 56L194 56L193 53M37 54L38 55L37 54M44 54L45 55L44 54M68 54L69 55L68 54z"/>
<path style="fill:#f3729c; stroke:none;" d="M73 54L74 55L73 54z"/>
<path style="fill:#58baf3; stroke:none;" d="M77 54L78 55L77 54M88 54L89 55L88 54M92 54L93 55L92 54z"/>
<path style="fill:#61719c; stroke:none;" d="M126 54L126 62L127 62L126 54M181 54L182 55L181 54M40 55L41 56L40 55z"/>
<path style="fill:#f3729c; stroke:none;" d="M66 55L67 56L66 55z"/>
<path style="fill:#61719c; stroke:none;" d="M92 55L93 56L92 55z"/>
<path style="fill:#58baf3; stroke:none;" d="M140 55L141 56L140 55M181 55L182 56L181 55M36 56L37 57L36 56z"/>
<path style="fill:#61719c; stroke:none;" d="M43 56L43 77L44 77L43 56M64 56L65 57L64 56z"/>
<path style="fill:#f3729c; stroke:none;" d="M72 56L73 57L72 56z"/>
<path style="fill:#61719c; stroke:none;" d="M85 56L86 57L85 56M89 56L90 57L89 56z"/>
<path style="fill:#58baf3; stroke:none;" d="M193 56L193 60L194 60L193 56z"/>
<path style="fill:#61719c; stroke:none;" d="M47 57L48 77L60 77L61 57L47 57M72 57L73 58L72 57z"/>
<path style="fill:#58baf3; stroke:none;" d="M93 57L94 58L93 57M39 58L40 59L39 58z"/>
<path style="fill:#f3729c; stroke:none;" d="M72 58L73 59L72 58z"/>
<path style="fill:#61719c; stroke:none;" d="M87 58L88 59L87 58M93 58L94 59L93 58M141 58L142 59L141 58z"/>
<path style="fill:#58baf3; stroke:none;" d="M179 58L180 59L179 58z"/>
<path style="fill:#f3729c; stroke:none;" d="M74 59L74 60L84 60L74 59z"/>
<path style="fill:#61719c; stroke:none;" d="M84.3333 59.6667L84.6667 60.3333L84.3333 59.6667M90 59L91 60L90 59z"/>
<path style="fill:#58baf3; stroke:none;" d="M141 59L142 60L141 59M178 59L179 60L178 59z"/>
<path style="fill:#61719c; stroke:none;" d="M35 60L35 63L36 63L35 60z"/>
<path style="fill:#58baf3; stroke:none;" d="M90 60L91 61L90 60z"/>
<path style="fill:#61719c; stroke:none;" d="M123 60L123 63L124 63L123 60M177 60L178 61L177 60M193 60L193 63L194 63L193 60M38 61L38 65L39 65L38 61M79 61L80 62L79 61M142 61L143 62L142 61M78.3333 62.6667L78.6667 63.3333L78.3333 62.6667z"/>
<path style="fill:#58baf3; stroke:none;" d="M87 62L88 63L87 62M94.3333 62.6667L94.6667 63.3333L94.3333 62.6667z"/>
<path style="fill:#61719c; stroke:none;" d="M196.333 62.6667L196.667 63.3333L196.333 62.6667z"/>
<path style="fill:#58baf3; stroke:none;" d="M123 63L124 64L123 63z"/>
<path style="fill:#61719c; stroke:none;" d="M178 63L179 64L178 63M79 64L79 65L83 65L79 64M94.3333 64.6667L94.6667 65.3333L94.3333 64.6667z"/>
<path style="fill:#58baf3; stroke:none;" d="M143 64L144 65L143 64M196 64L197 65L196 64M38.3333 65.6667L38.6667 66.3333L38.3333 65.6667z"/>
<path style="fill:#f3729c; stroke:none;" d="M83 65L84 66L83 65z"/>
<path style="fill:#58baf3; stroke:none;" d="M127 65L128 66L127 65z"/>
<path style="fill:#61719c; stroke:none;" d="M177 65L178 66L177 65z"/>
<path style="fill:#f3729c; stroke:none;" d="M79 66L80 67L79 66z"/>
<path style="fill:#61719c; stroke:none;" d="M80 66L80 67L83 67L80 66z"/>
<path style="fill:#58baf3; stroke:none;" d="M94 66L95 67L94 66z"/>
<path style="fill:#61719c; stroke:none;" d="M124 66L125 67L124 66M127 66L128 67L127 66z"/>
<path style="fill:#58baf3; stroke:none;" d="M144 66L145 67L144 66z"/>
<path style="fill:#61719c; stroke:none;" d="M176 66L177 67L176 66z"/>
<path style="fill:#58baf3; stroke:none;" d="M192 66L193 67L192 66M28 67L29 68L28 67z"/>
<path style="fill:#61719c; stroke:none;" d="M29 67L29 68L35 68L29 67M38 67L38 70L39 70L38 67z"/>
<path style="fill:#f3729c; stroke:none;" d="M78 67L79 68L78 67z"/>
<path style="fill:#61719c; stroke:none;" d="M86 67L87 68L86 67M94 67L94 68L124 68L94 67M145 67L146 68L145 67M175 67L176 68L175 67M192 67L193 68L192 67M195.333 67.6667L195.667 68.3333L195.333 67.6667z"/>
<path style="fill:#58baf3; stroke:none;" d="M25 68L26 69L25 68z"/>
<path style="fill:#61719c; stroke:none;" d="M78 68L79 69L78 68z"/>
<path style="fill:#58baf3; stroke:none;" d="M86 68L87 69L86 68z"/>
<path style="fill:#61719c; stroke:none;" d="M174 68L175 69L174 68M24 69L25 70L24 69M79 69L80 70L79 69M128 69L129 70L128 69M175 69L176 70L175 69z"/>
<path style="fill:#58baf3; stroke:none;" d="M191 69L192 70L191 69z"/>
<path style="fill:#61719c; stroke:none;" d="M23 70L24 71L23 70M83.3333 70.6667L83.6667 71.3333L83.3333 70.6667z"/>
<path style="fill:#58baf3; stroke:none;" d="M90 70L91 71L90 70M147 70L148 71L147 70z"/>
<path style="fill:#61719c; stroke:none;" d="M178 70L179 71L178 70z"/>
<path style="fill:#58baf3; stroke:none;" d="M179 70L180 71L179 70z"/>
<path style="fill:#61719c; stroke:none;" d="M191 70L192 71L191 70M22 71L23 72L22 71M27 71L28 72L27 71z"/>
<path style="fill:#58baf3; stroke:none;" d="M24 113C26.877 111.82 31.9274 110.595 33.3966 107.582C37.7067 98.7421 29.6399 87.5319 38 80L36 71C17.3897 71.0534 24 99.3295 24 113z"/>
<path style="fill:#f3729c; stroke:none;" d="M80 71L80 72L83 72L80 71z"/>
<path style="fill:#61719c; stroke:none;" d="M90 71L91 72L90 71z"/>
<path style="fill:#58baf3; stroke:none;" d="M94 71L91 80C103.531 80 120.353 77.0647 132 82L126 71L94 71M129 71L130 72L129 71M148 71L149 72L148 71z"/>
<path style="fill:#61719c; stroke:none;" d="M183 71L184 72L183 71M195 71L196 72L195 71z"/>
<path style="fill:#58baf3; stroke:none;" d="M39 72L40 73L39 72z"/>
<path style="fill:#f3729c; stroke:none;" d="M78 72L79 73L78 72z"/>
<path style="fill:#61719c; stroke:none;" d="M86 72L87 73L86 72M93.3333 72.6667L93.6667 73.3333L93.3333 72.6667z"/>
<path style="fill:#58baf3; stroke:none;" d="M149 72L150 73L149 72z"/>
<path style="fill:#61719c; stroke:none;" d="M190 72L191 73L190 72M21 73L22 74L21 73M39 73L40 74L39 73M64 73L65 74L64 73M78 73L79 74L78 73M126 73L127 74L126 73z"/>
<path style="fill:#58baf3; stroke:none;" d="M130 73L131 74L130 73z"/>
<path style="fill:#61719c; stroke:none;" d="M183 73L184 74L183 73M196 73L197 74L196 73M24 74L25 75L24 74M36 74L37 75L36 74z"/>
<path style="fill:#f3729c; stroke:none;" d="M66 74L67 75L66 74M78 74L79 75L78 74z"/>
<path style="fill:#58baf3; stroke:none;" d="M89 74L90 75L89 74z"/>
<path style="fill:#61719c; stroke:none;" d="M152 74L153 75L152 74M181 74L182 75L181 74z"/>
<path style="fill:#58baf3; stroke:none;" d="M182 74L183 75L182 74z"/>
<path style="fill:#61719c; stroke:none;" d="M189 74L190 75L189 74z"/>
<path style="fill:#58baf3; stroke:none;" d="M40 75L41 76L40 75z"/>
<path style="fill:#61719c; stroke:none;" d="M67 75L68 76L67 75z"/>
<path style="fill:#f3729c; stroke:none;" d="M68 75L69 76L68 75z"/>
<path style="fill:#58baf3; stroke:none;" d="M84 75L85 76L84 75z"/>
<path style="fill:#61719c; stroke:none;" d="M89 75L90 76L89 75M127 75L128 76L127 75z"/>
<path style="fill:#58baf3; stroke:none;" d="M131 75L132 76L131 75z"/>
<path style="fill:#61719c; stroke:none;" d="M154 75L155 76L154 75M178 75L179 76L178 75z"/>
<path style="fill:#58baf3; stroke:none;" d="M179 75L180 76L179 75z"/>
<path style="fill:#61719c; stroke:none;" d="M192 75L193 76L192 75z"/>
<path style="fill:#58baf3; stroke:none;" d="M193 75C190.299 78.756 186.162 82.6213 184.6 87C181.909 94.5414 181.597 117.284 184.6 124.715C186.516 129.457 190.898 133.129 193 138L194 138L194 95L193 75z"/>
<path style="fill:#61719c; stroke:none;" d="M40 76L41 77L40 76M70 76L70 77L81 77L70 76M92 76L93 77L92 76M156 76L157 77L156 76M175 76L176 77L175 76z"/>
<path style="fill:#58baf3; stroke:none;" d="M176 76L177 77L176 76z"/>
<path style="fill:#61719c; stroke:none;" d="M37 77L38 78L37 77M63.6667 77.3333L64.3333 77.6667L63.6667 77.3333M88 77L89 78L88 77M132 77L133 78L132 77z"/>
<path style="fill:#58baf3; stroke:none;" d="M159 77L160 78L159 77z"/>
<path style="fill:#61719c; stroke:none;" d="M160 77L160 78L163 78L160 77M168 77L168 78L171 78L168 77z"/>
<path style="fill:#58baf3; stroke:none;" d="M171 77L172 78L171 77z"/>
<path style="fill:#61719c; stroke:none;" d="M187 77L188 78L187 77M191 77L192 78L191 77M41 78L42 79L41 78M44 78L45 79L44 78M66 78L67 79L66 78M91 78L92 79L91 78M129 78L130 79L129 78M133 78L134 79L133 78z"/>
<path style="fill:#58baf3; stroke:none;" d="M186 78L187 79L186 78z"/>
<path style="fill:#61719c; stroke:none;" d="M38 79L39 80L38 79z"/>
<path style="fill:#58baf3; stroke:none;" d="M42 79L43 80L42 79M45 79L46 80L45 79z"/>
<path style="fill:#61719c; stroke:none;" d="M46 79L47 80L46 79M61 79L62 80L61 79M69.6667 79.3333L70.3333 79.6667L69.6667 79.3333M81 79L82 80L81 79z"/>
<path style="fill:#58baf3; stroke:none;" d="M134 79L135 80L134 79z"/>
<path style="fill:#f3f9fb; stroke:none;" d="M34 109C61.5058 105.752 77.8978 140.304 54 157.362C47.8089 161.781 41.2892 162 34 162C40.2851 168.418 58.3981 165 67 165L158 165L158 164C142.412 152.921 144.323 129.472 163 122.559C170.723 119.701 176.815 122.053 184 125L184 87C170.468 93.318 158.615 98.6762 144 91.179C138.461 88.3376 134.005 81.821 128 80.3179C118.817 78.0193 106.464 79.8261 97.0008 80.0046C85.0855 80.2294 78.7914 95.3276 65 95.74C54.4005 96.0569 44.1059 88.8273 39 80C30.3838 83.1679 34 101.258 34 109z"/>
<path style="fill:#61719c; stroke:none;" d="M86 80L87 81L86 80M90 80L91 81L90 80z"/>
<path style="fill:#58baf3; stroke:none;" d="M39 81L40 82L39 81z"/>
<path style="fill:#61719c; stroke:none;" d="M43 81L44 82L43 81M188 81L189 82L188 81M40 82L41 83L40 82M44 82L45 83L44 82z"/>
<path style="fill:#58baf3; stroke:none;" d="M89 82L90 83L89 82z"/>
<path style="fill:#61719c; stroke:none;" d="M132 82L133 83L132 82M187 82L188 83L187 82z"/>
<path style="fill:#58baf3; stroke:none;" d="M45 83L46 84L45 83z"/>
<path style="fill:#61719c; stroke:none;" d="M88 83L89 84L88 83M133 83L134 84L133 83z"/>
<path style="fill:#58baf3; stroke:none;" d="M138 83L139 84L138 83M41 84L42 85L41 84M46 84L47 85L46 84z"/>
<path style="fill:#61719c; stroke:none;" d="M83 84L84 85L83 84M87 84L88 85L87 84M134 84L135 85L134 84M139 84L140 85L139 84z"/>
<path style="fill:#58baf3; stroke:none;" d="M180 84L181 85L180 84M42 85L43 86L42 85M47 85L48 86L47 85z"/>
<path style="fill:#61719c; stroke:none;" d="M82 85L83 86L82 85M135 85L136 86L135 85M140 85L141 86L140 85M179 85L180 86L179 85M184 85L185 86L184 85M43 86L44 87L43 86M48 86L49 87L48 86z"/>
<path style="fill:#58baf3; stroke:none;" d="M136 86L137 87L136 86M142 86L143 87L142 86M177 86L178 87L177 86z"/>
<path style="fill:#61719c; stroke:none;" d="M183 86L184 87L183 86z"/>
<path style="fill:#58baf3; stroke:none;" d="M44 87L45 88L44 87M79 87L80 88L79 87z"/>
<path style="fill:#61719c; stroke:none;" d="M176 87L177 88L176 87z"/>
<path style="fill:#58baf3; stroke:none;" d="M182 87L183 88L182 87M45 88L46 89L45 88z"/>
<path style="fill:#61719c; stroke:none;" d="M51 88L52 89L51 88M83 88L84 89L83 88M139 88L140 89L139 88M145 88L146 89L145 88M174 88L175 89L174 88M180 88L181 89L180 88M53 89L54 90L53 89M76 89L77 90L76 89M82 89L83 90L82 89z"/>
<path style="fill:#58baf3; stroke:none;" d="M140 89L141 90L140 89z"/>
<path style="fill:#61719c; stroke:none;" d="M148 89L149 90L148 89z"/>
<path style="fill:#58baf3; stroke:none;" d="M171 89L172 90L171 89z"/>
<path style="fill:#61719c; stroke:none;" d="M172 89L173 90L172 89z"/>
<path style="fill:#58baf3; stroke:none;" d="M179 89L180 90L179 89z"/>
<path style="fill:#61719c; stroke:none;" d="M48 90L49 91L48 90M55 90L56 91L55 90z"/>
<path style="fill:#58baf3; stroke:none;" d="M73 90L74 91L73 90M81 90L82 91L81 90z"/>
<path style="fill:#61719c; stroke:none;" d="M142 90L143 91L142 90M151 90L152 91L151 90M168.667 90.3333L169.333 90.6667L168.667 90.3333M177 90L178 91L177 90M50 91L51 92L50 91M58 91L59 92L58 91z"/>
<path style="fill:#58baf3; stroke:none;" d="M59.6667 91.3333L60.3333 91.6667L59.6667 91.3333M69 91L70 92L69 91z"/>
<path style="fill:#61719c; stroke:none;" d="M70 91L71 92L70 91M79 91L80 92L79 91M144 91L145 92L144 91M155 91L155 92L158 92L155 91z"/>
<path style="fill:#58baf3; stroke:none;" d="M158 91L158 92L162 92L158 91z"/>
<path style="fill:#61719c; stroke:none;" d="M162 91L162 92L165 92L162 91M175 91L176 92L175 91z"/>
<path style="fill:#58baf3; stroke:none;" d="M51 92L52 93L51 92z"/>
<path style="fill:#61719c; stroke:none;" d="M52 92L53 93L52 92M77 92L78 93L77 92z"/>
<path style="fill:#58baf3; stroke:none;" d="M146 92L147 93L146 92z"/>
<path style="fill:#61719c; stroke:none;" d="M147 92L148 93L147 92M172 92L173 93L172 92z"/>
<path style="fill:#58baf3; stroke:none;" d="M173 92L174 93L173 92z"/>
<path style="fill:#61719c; stroke:none;" d="M54 93L55 94L54 93M75 93L76 94L75 93z"/>
<path style="fill:#58baf3; stroke:none;" d="M149 93L150 94L149 93z"/>
<path style="fill:#61719c; stroke:none;" d="M150 93L151 94L150 93M169.667 93.3333L170.333 93.6667L169.667 93.3333z"/>
<path style="fill:#58baf3; stroke:none;" d="M56 94L57 95L56 94z"/>
<path style="fill:#61719c; stroke:none;" d="M57.6667 94.3333L58.3333 94.6667L57.6667 94.3333M71 94L72 95L71 94z"/>
<path style="fill:#58baf3; stroke:none;" d="M72 94L73 95L72 94M153 94L154 95L153 94z"/>
<path style="fill:#61719c; stroke:none;" d="M154.667 94.3333L155.333 94.6667L154.667 94.3333M164.667 94.3333L165.333 94.6667L164.667 94.3333z"/>
<path style="fill:#58baf3; stroke:none;" d="M166.667 94.3333L167.333 94.6667L166.667 94.3333M61 95L61 96L64 96L61 95z"/>
<path style="fill:#61719c; stroke:none;" d="M64 95L65 96L64 95z"/>
<path style="fill:#58baf3; stroke:none;" d="M65 95L65 96L68 96L65 95M102 102L103 103L102 102z"/>
<path style="fill:#61719c; stroke:none;" d="M103.667 102.333L104.333 102.667L103.667 102.333z"/>
<path style="fill:#392a61; stroke:none;" d="M105 102.465C71.9358 108.375 80.9775 158.462 114 152.671C145.686 147.115 136.649 96.8072 105 102.465z"/>
<path style="fill:#61719c; stroke:none;" d="M113.667 102.333L114.333 102.667L113.667 102.333z"/>
<path style="fill:#58baf3; stroke:none;" d="M115 102L116 103L115 102M99 103L100 104L99 103z"/>
<path style="fill:#61719c; stroke:none;" d="M100 103L101 104L100 103M117 103L118 104L117 103z"/>
<path style="fill:#58baf3; stroke:none;" d="M118 103L119 104L118 103M97 104L98 105L97 104M120 104L121 105L120 104M95 105L96 106L95 105M122 105L123 106L122 105z"/>
<path style="fill:#61719c; stroke:none;" d="M94 106L95 107L94 106M106 106L107 114L108 114L106 106M110 106L110 114L111 114L112 106L110 106M123 106L124 107L123 106M99.6667 107.333L100.333 107.667L99.6667 107.333z"/>
<path style="fill:#58baf3; stroke:none;" d="M105 107L102 113L107 114L107 107L105 107M111 107L111 114L116 113L113 107L111 107z"/>
<path style="fill:#61719c; stroke:none;" d="M117.667 107.333L118.333 107.667L117.667 107.333z"/>
<path style="fill:#58baf3; stroke:none;" d="M37 108L37 109L42 109L37 108M91 108L92 109L91 108z"/>
<path style="fill:#61719c; stroke:none;" d="M97 108L98 109L97 108z"/>
<path style="fill:#58baf3; stroke:none;" d="M96 110L100 108L96 110M118 108L122 110L118 108z"/>
<path style="fill:#61719c; stroke:none;" d="M120 108L121 109L120 108z"/>
<path style="fill:#58baf3; stroke:none;" d="M126 108L127 109L126 108z"/>
<path style="fill:#61719c; stroke:none;" d="M32.6667 109.333L33.3333 109.667L32.6667 109.333M45 109L46 110L45 109z"/>
<path style="fill:#58baf3; stroke:none;" d="M46 109L47 110L46 109M90 109L91 110L90 109z"/>
<path style="fill:#61719c; stroke:none;" d="M99 109L100 110L99 109M103 109L104 110L103 109M114 109L115 110L114 109M118 109L119 110L118 109z"/>
<path style="fill:#58baf3; stroke:none;" d="M127 109L128 110L127 109z"/>
<path style="fill:#61719c; stroke:none;" d="M29 110L30 111L29 110M48 110L49 111L48 110z"/>
<path style="fill:#58baf3; stroke:none;" d="M49 110L50 111L49 110M89 110L90 111L89 110z"/>
<path style="fill:#61719c; stroke:none;" d="M96 110L97 111L96 110M121 110L122 111L121 110z"/>
<path style="fill:#58baf3; stroke:none;" d="M128 110L129 111L128 110z"/>
<path style="fill:#61719c; stroke:none;" d="M27 111L28 112L27 111M50 111L51 112L50 111z"/>
<path style="fill:#58baf3; stroke:none;" d="M51 111L52 112L51 111z"/>
<path style="fill:#61719c; stroke:none;" d="M98 111L99 112L98 111M119 111L120 112L119 111M25 112L26 113L25 112M34 112L35 113L34 112z"/>
<path style="fill:#58baf3; stroke:none;" d="M35 112L36 113L35 112z"/>
<path style="fill:#f3f9fb; stroke:none;" d="M36 112.468C5.5583 117.634 13.8903 163.403 44 157.9C72.4675 152.698 64.415 107.647 36 112.468z"/>
<path style="fill:#58baf3; stroke:none;" d="M42 112L43 113L42 112z"/>
<path style="fill:#61719c; stroke:none;" d="M43.6667 112.333L44.3333 112.667L43.6667 112.333M52 112L53 113L52 112M88 112L89 113L88 112M91 114L94 113L91 114M124 112L124 113L127 114L124 112M129 112L130 113L129 112M30.6667 113.333L31.3333 113.667L30.6667 113.333M47 113L48 114L47 113M54 113L55 114L54 113M87 113L88 114L87 113z"/>
<path style="fill:#58baf3; stroke:none;" d="M87 126C95.9974 125.968 95.9796 122.074 97 114C89.5643 112.779 87.55 119.739 87 126z"/>
<path style="fill:#61719c; stroke:none;" d="M103.667 113.333L104.333 113.667L103.667 113.333M113.667 113.333L114.333 113.667L113.667 113.333z"/>
<path style="fill:#58baf3; stroke:none;" d="M131 126C130.817 123.921 130.6 121.981 129.891 119.996C125.21 106.882 116.91 119.69 123.603 124.972C125.493 126.464 128.761 125.992 131 126z"/>
<path style="fill:#61719c; stroke:none;" d="M130 113L131 114L130 113M28 114L29 115L28 114z"/>
<path style="fill:#58baf3; stroke:none;" d="M49 114L50 115L49 114z"/>
<path style="fill:#61719c; stroke:none;" d="M55 114L56 115L55 114z"/>
<path style="fill:#58baf3; stroke:none;" d="M27 115L28 116L27 115z"/>
<path style="fill:#61719c; stroke:none;" d="M51 115L52 116L51 115M86 115L87 116L86 115M131 115L132 116L131 115M20 116L21 117L20 116M25 116L26 117L25 116z"/>
<path style="fill:#58baf3; stroke:none;" d="M85 116L86 117L85 116z"/>
<path style="fill:#61719c; stroke:none;" d="M89 116L90 117L89 116M100 116L101 117L100 116z"/>
<path style="fill:#58baf3; stroke:none;" d="M101 116L99 126L107 126L107 117L101 116z"/>
<path style="fill:#61719c; stroke:none;" d="M102 116L103 117L102 116M115 116L116 117L115 116z"/>
<path style="fill:#58baf3; stroke:none;" d="M111 117L111 126L119 126L117 116L111 117z"/>
<path style="fill:#61719c; stroke:none;" d="M117 116L118 117L117 116M128 116L129 117L128 116z"/>
<path style="fill:#58baf3; stroke:none;" d="M19 117L20 118L19 117M24 117L25 118L24 117z"/>
<path style="fill:#61719c; stroke:none;" d="M54 117L55 118L54 117M85 117L86 118L85 117M96.3333 117.667L96.6667 118.333L96.3333 117.667M132 117L133 118L132 117z"/>
<path style="fill:#58baf3; stroke:none;" d="M18 118L19 119L18 118M23 118L24 119L23 118z"/>
<path style="fill:#61719c; stroke:none;" d="M55 118L56 119L55 118M88 118L89 119L88 118M107 118L107 125L108 125L107 118M110 118L110 126L111 126L110 118M121.333 118.667L121.667 119.333L121.333 118.667M129 118L130 119L129 118z"/>
<path style="fill:#58baf3; stroke:none;" d="M22 119L23 120L22 119z"/>
<path style="fill:#61719c; stroke:none;" d="M56 119L57 120L56 119M60 119L61 120L60 119z"/>
<path style="fill:#58baf3; stroke:none;" d="M84 119L85 120L84 119z"/>
<path style="fill:#61719c; stroke:none;" d="M99 119L99 122L100 122L99 119M118 119L118 122L119 122L118 119z"/>
<path style="fill:#58baf3; stroke:none;" d="M133 119L134 120L133 119M21 120L22 121L21 120z"/>
<path style="fill:#61719c; stroke:none;" d="M57 120L58 121L57 120z"/>
<path style="fill:#58baf3; stroke:none;" d="M61 120L62 121L61 120z"/>
<path style="fill:#61719c; stroke:none;" d="M84 120L85 121L84 120M133 120L134 121L133 120z"/>
<path style="fill:#58baf3; stroke:none;" d="M16 121L17 122L16 121z"/>
<path style="fill:#61719c; stroke:none;" d="M20 121L21 122L20 121M87 121L88 122L87 121M130 121L131 122L130 121z"/>
<path style="fill:#58baf3; stroke:none;" d="M166 121L167 122L166 121z"/>
<path style="fill:#61719c; stroke:none;" d="M167 121L167 122L175 122L167 121z"/>
<path style="fill:#58baf3; stroke:none;" d="M175 121L176 122L175 121M27 122L28 123L27 122z"/>
<path style="fill:#61719c; stroke:none;" d="M28 122L28 123L50 123L28 122z"/>
<path style="fill:#58baf3; stroke:none;" d="M50 122L51 123L50 122M58 122L59 123L58 122z"/>
<path style="fill:#61719c; stroke:none;" d="M62 122L63 123L62 122z"/>
<path style="fill:#58baf3; stroke:none;" d="M83.3333 122.667L83.6667 123.333L83.3333 122.667M134.333 122.667L134.667 123.333L134.333 122.667M162 122L163 123L162 122z"/>
<path style="fill:#61719c; stroke:none;" d="M163 122L164 123L163 122M177 122L178 123L177 122z"/>
<path style="fill:#58baf3; stroke:none;" d="M178 122L179 123L178 122z"/>
<path style="fill:#61719c; stroke:none;" d="M15 123L16 124L15 123M25 123L23 126L25 123z"/>
<path style="fill:#392a61; stroke:none;" d="M26.1481 124.028C21.3326 126.879 21.1768 142.908 25.3179 146.397C29.3906 149.828 48.294 149.559 52.7716 146.821C57.7008 143.807 57.7683 128.255 53.5664 124.603C49.6571 121.206 30.5396 121.428 26.1481 124.028z"/>
<path style="fill:#58baf3; stroke:none;" d="M53 123L54 124L53 123z"/>
<path style="fill:#61719c; stroke:none;" d="M59 123L60 124L59 123M160 123L161 124L160 123M180 123L181 124L180 123M18 124L19 125L18 124z"/>
<path style="fill:#58baf3; stroke:none;" d="M54 124L55 125L54 124z"/>
<path style="fill:#61719c; stroke:none;" d="M63 124L64 125L63 124M83.3333 124.667L83.6667 125.333L83.3333 124.667M134 124L134 131L135 131L134 124z"/>
<path style="fill:#58baf3; stroke:none;" d="M158 124L159 125L158 124z"/>
<path style="fill:#61719c; stroke:none;" d="M168 124L168 125L174 125L168 124M182 124L183 125L182 124M14 125L15 126L14 125M60 125L61 126L60 125M95 125L96 126L95 125M122 125L123 126L122 125M157 125L158 126L157 125M164 125L165 126L164 125z"/>
<path style="fill:#f3f9fb; stroke:none;" d="M165 125.638C139.949 132.879 152.041 171.083 177 163.481C200.944 156.189 189.237 118.633 165 125.638z"/>
<path style="fill:#61719c; stroke:none;" d="M176 125L177 126L176 125M17 126L18 127L17 126z"/>
<path style="fill:#f3729c; stroke:none;" d="M27 126C33.8842 140.762 43.5721 138.964 52 127L27 126z"/>
<path style="fill:#61719c; stroke:none;" d="M51 126L52 127L51 126M55 126L56 127L55 126z"/>
<path style="fill:#58baf3; stroke:none;" d="M64 126L65 127L64 126M155 126L156 127L155 126M162 126L163 127L162 126z"/>
<path style="fill:#61719c; stroke:none;" d="M179 126L180 127L179 126M185 126L186 127L185 126z"/>
<path style="fill:#58baf3; stroke:none;" d="M17 127L18 128L17 127M22 127L23 128L22 127M154 127L155 128L154 127M160 127L161 128L160 127z"/>
<path style="fill:#61719c; stroke:none;" d="M186 127L187 128L186 127M13.3333 128.667L13.6667 129.333L13.3333 128.667M22 128L22 142L23 142L22 128z"/>
<path style="fill:#58baf3; stroke:none;" d="M61 128L62 129L61 128M153 128L154 129L153 128z"/>
<path style="fill:#61719c; stroke:none;" d="M158 128L159 129L158 128M182 128L183 129L182 128M187 128L188 129L187 128M16.3333 129.667L16.6667 130.333L16.3333 129.667z"/>
<path style="fill:#58baf3; stroke:none;" d="M65 129L66 130L65 129z"/>
<path style="fill:#61719c; stroke:none;" d="M83 129L83 132L84 132L83 129z"/>
<path style="fill:#58baf3; stroke:none;" d="M87 129C87.5288 135.019 89.6499 143.01 97 140L95 129L87 129z"/>
<path style="fill:#61719c; stroke:none;" d="M88 129L88 130L94 130L88 129M95 129L96 130L95 129M99 129L99 130L106 130L99 129z"/>
<path style="fill:#58baf3; stroke:none;" d="M106 129L99 130L100 138C105.808 137.809 108.391 134.712 106 129M111 129C111.021 134.937 111.534 137.788 118 138L119 130L111 129z"/>
<path style="fill:#61719c; stroke:none;" d="M112 129L112 130L119 130L112 129M122 129L122 130L130 130L122 129z"/>
<path style="fill:#58baf3; stroke:none;" d="M130 129L122 130C121.945 132.661 120.651 137.2 122.117 139.547C126.066 145.875 131.349 132.804 130 129M152 129L153 130L152 129z"/>
<path style="fill:#61719c; stroke:none;" d="M157 129L158 130L157 129z"/>
<path style="fill:#58baf3; stroke:none;" d="M183 129L184 130L183 129z"/>
<path style="fill:#61719c; stroke:none;" d="M188 129L189 130L188 129M65.3333 130.667L65.6667 131.333L65.3333 130.667M107 130L107 137L108 137L107 130M110 130L110 137L111 137L110 130M156 130L157 131L156 130z"/>
<path style="fill:#58baf3; stroke:none;" d="M16 131L17 132L16 131z"/>
<path style="fill:#61719c; stroke:none;" d="M62 131L62 134L63 134L62 131z"/>
<path style="fill:#58baf3; stroke:none;" d="M134.333 131.667L134.667 132.333L134.333 131.667z"/>
<path style="fill:#61719c; stroke:none;" d="M151 131L152 132L151 131M155 131L156 132L155 131z"/>
<path style="fill:#f3729c; stroke:none;" d="M26 132L26 138C28.2971 135.546 28.2971 134.454 26 132z"/>
<path style="fill:#61719c; stroke:none;" d="M51 132L52 138L51 132z"/>
<path style="fill:#f3729c; stroke:none;" d="M52 132L53 138L52 132z"/>
<path style="fill:#58baf3; stroke:none;" d="M83 132L84 133L83 132M150 132L151 133L150 132z"/>
<path style="fill:#61719c; stroke:none;" d="M154 132L155 133L154 132M159.667 132.333L160.333 132.667L159.667 132.333z"/>
<path style="fill:#392a61; stroke:none;" d="M171 138C169.413 136.52 167.895 134.915 165.975 133.848C160.931 131.045 154.603 133.988 154.323 140.004C154.066 145.516 165.198 158.763 171 158.079C174.831 157.627 178.491 152.573 180.985 150C183.909 146.982 187.285 143.583 186.728 139.005C185.534 129.2 175.015 132.683 171 138z"/>
<path style="fill:#61719c; stroke:none;" d="M163.667 132.333L164.333 132.667L163.667 132.333z"/>
<path style="fill:#58baf3; stroke:none;" d="M176 132L177 133L176 132z"/>
<path style="fill:#61719c; stroke:none;" d="M177 132L178 133L177 132M181 132L182 133L181 132z"/>
<path style="fill:#58baf3; stroke:none;" d="M182 132L183 133L182 132M186 132L187 133L186 132z"/>
<path style="fill:#61719c; stroke:none;" d="M190 132L191 133L190 132z"/>
<path style="fill:#58baf3; stroke:none;" d="M12 133L12 138L13 138L12 133z"/>
<path style="fill:#61719c; stroke:none;" d="M87 133L88 134L87 133M99 133L99 136L100 136L99 133M118.333 133.667L118.667 134.333L118.333 133.667M130 133L131 134L130 133M157 133L158 134L157 133M166 133L167 134L166 133M187 133L188 134L187 133z"/>
<path style="fill:#58baf3; stroke:none;" d="M62 134L62 137L63 137L62 134z"/>
<path style="fill:#61719c; stroke:none;" d="M149 134L150 135L149 134z"/>
<path style="fill:#58baf3; stroke:none;" d="M153 134L154 135L153 134z"/>
<path style="fill:#61719c; stroke:none;" d="M167 134L168 135L167 134z"/>
<path style="fill:#58baf3; stroke:none;" d="M173 134L174 135L173 134z"/>
<path style="fill:#61719c; stroke:none;" d="M84 135L85 136L84 135M96 135L96 138L97 138L96 135M121.333 135.667L121.667 136.333L121.333 135.667M133 135L134 136L133 135M152 135L153 136L152 135M155 135L156 136L155 135M161.667 135.333L162.333 135.667L161.667 135.333M168 135L169 136L168 135z"/>
<path style="fill:#58baf3; stroke:none;" d="M172 135L173 136L172 135z"/>
<path style="fill:#61719c; stroke:none;" d="M178 135L178 136L181 136L178 135M188 135L189 136L188 135M88 136L89 137L88 136M129 136L130 137L129 136z"/>
<path style="fill:#58baf3; stroke:none;" d="M148 136L149 137L148 136M152 136L153 137L152 136M154 136L155 137L154 136z"/>
<path style="fill:#f3729c; stroke:none;" d="M159.438 137.032C153.224 141.258 167.943 156.636 174 152.623C176.805 150.765 189.733 137.507 179.941 136.466C176.184 136.066 173.946 140.665 170.424 140.235C166.622 139.771 163.831 134.045 159.438 137.032z"/>
<path style="fill:#61719c; stroke:none;" d="M169 136L170 137L169 136z"/>
<path style="fill:#58baf3; stroke:none;" d="M171 136L172 137L171 136z"/>
<path style="fill:#61719c; stroke:none;" d="M176 136L177 137L176 136M182 136L183 137L182 136M186 136L187 137L186 136M192 136L193 137L192 136M62.3333 137.667L62.6667 138.333L62.3333 137.667M85 137L86 138L85 137M106 137L107 138L106 137M111 137L112 138L111 137M132 137L133 138L132 137M148 137L149 138L148 137M154 137L155 138L154 137M170 137L171 138L170 137M175 137L176 138L175 137M189 137L190 138L189 137z"/>
<path style="fill:#f3729c; stroke:none;" d="M26 144C33.6576 145.823 44.4335 146.237 52 144C48.2052 136.155 45.8805 141.682 40 142.374C33.0355 143.195 31.9774 135.82 26 144z"/>
<path style="fill:#61719c; stroke:none;" d="M40 138L41 139L40 138M45 138L46 139L45 138z"/>
<path style="fill:#58baf3; stroke:none;" d="M85 138L86 139L85 138z"/>
<path style="fill:#61719c; stroke:none;" d="M89 138L90 139L89 138M100.667 138.333L101.333 138.667L100.667 138.333M116.667 138.333L117.333 138.667L116.667 138.333M128 138L129 139L128 138z"/>
<path style="fill:#58baf3; stroke:none;" d="M132 138L133 139L132 138z"/>
<path style="fill:#61719c; stroke:none;" d="M151 138L152 139L151 138M157 138L158 139L157 138M174 138L175 139L174 138z"/>
<path style="fill:#58baf3; stroke:none;" d="M187 138L188 139L187 138z"/>
<path style="fill:#61719c; stroke:none;" d="M193.333 138.667L193.667 139.333L193.333 138.667z"/>
<path style="fill:#58baf3; stroke:none;" d="M16 139L17 140L16 139z"/>
<path style="fill:#61719c; stroke:none;" d="M39 139L40 140L39 139M44 139L45 140L44 139M65.3333 139.667L65.6667 140.333L65.3333 139.667z"/>
<path style="fill:#58baf3; stroke:none;" d="M147 139L148 140L147 139z"/>
<path style="fill:#61719c; stroke:none;" d="M173 139L174 140L173 139M187.333 139.667L187.667 140.333L187.333 139.667M16.3333 140.667L16.6667 141.333L16.3333 140.667M43 140L44 141L43 140z"/>
<path style="fill:#58baf3; stroke:none;" d="M86 140L87 141L86 140z"/>
<path style="fill:#61719c; stroke:none;" d="M96 140L97 141L96 140M121 140L122 141L121 140z"/>
<path style="fill:#58baf3; stroke:none;" d="M131 140L132 141L131 140z"/>
<path style="fill:#61719c; stroke:none;" d="M147 140L147 149L148 149L147 140M172 140L173 141L172 140M190.333 140.667L190.667 141.333L190.333 140.667M13 141L14 142L13 141M42 141L43 142L42 141z"/>
<path style="fill:#58baf3; stroke:none;" d="M65 141L66 142L65 141z"/>
<path style="fill:#61719c; stroke:none;" d="M87 141L88 142L87 141M91 141L92 142L91 141M94 141L95 142L94 141M103 141L104 142L103 141z"/>
<path style="fill:#58baf3; stroke:none;" d="M102 142L107 148L107 141L102 142z"/>
<path style="fill:#61719c; stroke:none;" d="M107 141L107 148L108 148L107 141M110 141L111 149L115 145L111 148L110 141z"/>
<path style="fill:#58baf3; stroke:none;" d="M111 141L111 148L116 142L111 141z"/>
<path style="fill:#61719c; stroke:none;" d="M114 141L115 142L114 141M123 141L124 142L123 141M126 141L127 142L126 141M130 141L131 142L130 141M150 141L150 148L151 148L150 141M170 141L171 142L170 141z"/>
<path style="fill:#58baf3; stroke:none;" d="M187 141L188 142L187 141M13 142L14 143L13 142M22.3333 142.667L22.6667 143.333L22.3333 142.667z"/>
<path style="fill:#61719c; stroke:none;" d="M41 142L42 143L41 142M61 142L62 143L61 142M92.6667 142.333L93.3333 142.667L92.6667 142.333M124.667 142.333L125.333 142.667L124.667 142.333M183 142L184 143L183 142z"/>
<path style="fill:#58baf3; stroke:none;" d="M190.333 142.667L190.667 143.333L190.333 142.667M17 143L18 144L17 143z"/>
<path style="fill:#61719c; stroke:none;" d="M40 143L41 144L40 143M64 143L65 144L64 143z"/>
<path style="fill:#58baf3; stroke:none;" d="M88 143L89 144L88 143z"/>
<path style="fill:#61719c; stroke:none;" d="M98 143L99 144L98 143M102 143L103 144L102 143M115 143L116 144L115 143M119 143L120 144L119 143z"/>
<path style="fill:#58baf3; stroke:none;" d="M129 143L130 144L129 143z"/>
<path style="fill:#61719c; stroke:none;" d="M154 143L155 144L154 143M158 143L159 144L158 143M186 143L187 144L186 143M27 144L28 145L27 144M55 144L56 145L55 144z"/>
<path style="fill:#58baf3; stroke:none;" d="M64 144L65 145L64 144z"/>
<path style="fill:#61719c; stroke:none;" d="M89 144L90 145L89 144M96 144L95 146L96 144z"/>
<path style="fill:#58baf3; stroke:none;" d="M96 145L96 146L101 148L99 144L96 145M119 144L117 148L122 146L119 144z"/>
<path style="fill:#61719c; stroke:none;" d="M121 144L122 145L121 144M128 144L129 145L128 144M159 144L160 145L159 144z"/>
<path style="fill:#58baf3; stroke:none;" d="M14 145L15 146L14 145M18 145L19 146L18 145M23 145L24 146L23 145z"/>
<path style="fill:#61719c; stroke:none;" d="M60 145L61 146L60 145M90 145L91 146L90 145M99 145L100 146L99 145M103 145L104 146L103 145M118 145L119 146L118 145M122 145L123 146L122 145M127 145L128 146L127 145M160 145L161 146L160 145z"/>
<path style="fill:#58baf3; stroke:none;" d="M185 145L186 146L185 145M190.333 145.667L190.667 146.333L190.333 145.667z"/>
<path style="fill:#61719c; stroke:none;" d="M24 146L25 147L24 146M63 146L64 147L63 146M91 146L92 147L91 146M104 146L105 147L104 146M126 146L127 147L126 146M161 146L162 147L161 146M184 146L185 147L184 146M15 147L16 148L15 147z"/>
<path style="fill:#58baf3; stroke:none;" d="M19 147L20 148L19 147M25 147L26 148L25 147z"/>
<path style="fill:#61719c; stroke:none;" d="M52 147L53 148L52 147M92 147L93 148L92 147M98 147L99 148L98 147M119 147L120 148L119 147z"/>
<path style="fill:#58baf3; stroke:none;" d="M125 147L126 148L125 147z"/>
<path style="fill:#61719c; stroke:none;" d="M162 147L163 148L162 147M183 147L184 148L183 147M190.333 147.667L190.667 148.333L190.333 147.667M58 148L59 149L58 148M62 148L63 149L62 148M100.667 148.333L101.333 148.667L100.667 148.333M106 148L107 149L106 148M116.667 148.333L117.333 148.667L116.667 148.333M163 148L164 149L163 148M182 148L183 149L182 148z"/>
<path style="fill:#58baf3; stroke:none;" d="M16 149L17 150L16 149z"/>
<path style="fill:#61719c; stroke:none;" d="M20 149L21 150L20 149M95 149L96 150L95 149M122 149L123 150L122 149z"/>
<path style="fill:#58baf3; stroke:none;" d="M147 149L148 150L147 149z"/>
<path style="fill:#61719c; stroke:none;" d="M164 149L165 150L164 149M181 149L182 150L181 149M17 150L18 151L17 150M21 150L22 151L21 150z"/>
<path style="fill:#58baf3; stroke:none;" d="M61 150L62 151L61 150z"/>
<path style="fill:#61719c; stroke:none;" d="M97 150L98 151L97 150M120 150L121 151L120 150z"/>
<path style="fill:#58baf3; stroke:none;" d="M151 150L152 151L151 150z"/>
<path style="fill:#61719c; stroke:none;" d="M165 150L166 151L165 150M180 150L181 151L180 150M193 150L194 151L193 150M22 151L23 152L22 151M60 151L61 152L60 151M99 151L100 152L99 151M118 151L119 152L118 151M151 151L152 152L151 151M166 151L167 152L166 151M179 151L180 152L179 151M189 151L190 152L189 151z"/>
<path style="fill:#58baf3; stroke:none;" d="M193 151C185.692 173.888 166.035 165.001 149 165L75 165C63.7997 165 49.905 167.234 39 164.687C33.7661 163.464 29.2909 159.513 24 158L24 174L194 174L193 151z"/>
<path style="fill:#61719c; stroke:none;" d="M23 152L24 153L23 152M59 152L60 153L59 152z"/>
<path style="fill:#58baf3; stroke:none;" d="M101 152L102 153L101 152z"/>
<path style="fill:#61719c; stroke:none;" d="M102 152L103 153L102 152M115 152L116 153L115 152z"/>
<path style="fill:#58baf3; stroke:none;" d="M116 152L117 153L116 152z"/>
<path style="fill:#61719c; stroke:none;" d="M148 152L149 153L148 152M167 152L168 153L167 152M178 152L179 153L178 152M24 153L25 154L24 153M58 153L59 154L58 153z"/>
<path style="fill:#58baf3; stroke:none;" d="M106 153L106 154L112 154L106 153z"/>
<path style="fill:#61719c; stroke:none;" d="M152 153L153 154L152 153M168 153L169 154L168 153M177 153L178 154L177 153z"/>
<path style="fill:#58baf3; stroke:none;" d="M188 153L189 154L188 153z"/>
<path style="fill:#61719c; stroke:none;" d="M192 153L193 154L192 153z"/>
<path style="fill:#58baf3; stroke:none;" d="M20 154L21 155L20 154M52 154L53 155L52 154z"/>
<path style="fill:#61719c; stroke:none;" d="M149 154L150 155L149 154M169 154L170 155L169 154M176 154L177 155L176 154M27 155L28 156L27 155M51 155L52 156L51 155M56 155L57 156L56 155M153 155L154 156L153 155M175 155L176 156L175 155z"/>
<path style="fill:#58baf3; stroke:none;" d="M187 155L188 156L187 155z"/>
<path style="fill:#61719c; stroke:none;" d="M191 155L192 156L191 155M29 156L30 157L29 156M49 156L50 157L49 156M55 156L56 157L55 156M150 156L151 157L150 156z"/>
<path style="fill:#58baf3; stroke:none;" d="M154 156L155 157L154 156z"/>
<path style="fill:#61719c; stroke:none;" d="M174 156L175 157L174 156M24 157L25 158L24 157M31 157L32 158L31 157z"/>
<path style="fill:#58baf3; stroke:none;" d="M32 157L33 158L32 157M46 157L47 158L46 157z"/>
<path style="fill:#61719c; stroke:none;" d="M47 157L48 158L47 157z"/>
<path style="fill:#58baf3; stroke:none;" d="M54 157L55 158L54 157z"/>
<path style="fill:#61719c; stroke:none;" d="M173 157L174 158L173 157M34 158L34 159L37 159L34 158z"/>
<path style="fill:#58baf3; stroke:none;" d="M37 158L38 159L37 158M40.6667 158.333L41.3333 158.667L40.6667 158.333z"/>
<path style="fill:#61719c; stroke:none;" d="M42.6667 158.333L43.3333 158.667L42.6667 158.333M52 158L53 159L52 158z"/>
<path style="fill:#58baf3; stroke:none;" d="M151 158L152 159L151 158z"/>
<path style="fill:#61719c; stroke:none;" d="M172 158L173 159L172 158M185 158L186 159L185 158M189 158L190 159L189 158M50 159L51 160L50 159M152 159L153 160L152 159M170 159L171 160L170 159z"/>
<path style="fill:#58baf3; stroke:none;" d="M171 159L172 160L171 159z"/>
<path style="fill:#61719c; stroke:none;" d="M184 159L185 160L184 159M30 160L31 161L30 160M47 160L48 161L47 160z"/>
<path style="fill:#58baf3; stroke:none;" d="M48 160L49 161L48 160z"/>
<path style="fill:#61719c; stroke:none;" d="M153 160L154 161L153 160z"/>
<path style="fill:#58baf3; stroke:none;" d="M158 160L159 161L158 160z"/>
<path style="fill:#61719c; stroke:none;" d="M33 161L33 162L36 162L33 161M43.6667 161.333L44.3333 161.667L43.6667 161.333z"/>
<path style="fill:#58baf3; stroke:none;" d="M45 161L46 162L45 161z"/>
<path style="fill:#61719c; stroke:none;" d="M154 161L155 162L154 161M159 161L160 162L159 161z"/>
<path style="fill:#58baf3; stroke:none;" d="M181 161L182 162L181 161z"/>
<path style="fill:#61719c; stroke:none;" d="M155 162L156 163L155 162z"/>
<path style="fill:#58baf3; stroke:none;" d="M161 162L162 163L161 162z"/>
<path style="fill:#61719c; stroke:none;" d="M180 162L181 163L180 162z"/>
<path style="fill:#58baf3; stroke:none;" d="M156 163L157 164L156 163z"/>
<path style="fill:#61719c; stroke:none;" d="M163 163L164 164L163 163z"/>
<path style="fill:#58baf3; stroke:none;" d="M177 163L178 164L177 163z"/>
<path style="fill:#61719c; stroke:none;" d="M184 163L185 164L184 163M166 164L167 165L166 164z"/>
<path style="fill:#58baf3; stroke:none;" d="M167.667 164.333L168.333 164.667L167.667 164.333M172.667 164.333L173.333 164.667L172.667 164.333z"/>
<path style="fill:#61719c; stroke:none;" d="M174 164L175 165L174 164M159 165L160 166L159 165M181 165L182 166L181 165M179 166L180 167L179 166M165 167L166 168L165 167M175.667 167.333L176.333 167.667L175.667 167.333z"/>
<path style="fill:#58baf3; stroke:none;" d="M11 174L12 175L11 174z"/>
<path style="fill:#61719c; stroke:none;" d="M205 174L206 175L205 174M14 177L14 178L204 178L186 177L147 177L14 177z"/>
<path style="fill:#f3f9fb; stroke:none;" d="M14 178L14 181L203 181L203 178L14 178z"/>
<path style="fill:#58baf3; stroke:none;" d="M203 178L203 181L204 181L203 178M14 179L15 180L14 179z"/>
<path style="fill:#f3729c; stroke:none;" d="M14 181C15.5169 198.244 37.3174 193 50 193L163 193C176.23 193 202.413 199.044 204 181L14 181z"/>
<path style="fill:#61719c; stroke:none;" d="M14 185L15 186L14 185M203 185L204 186L203 185M11 187L12 188L11 187M206 187L207 188L206 187M15 188L16 189L15 188M202 188L203 189L202 188M12 189L13 190L12 189M205 189L206 190L205 189M13 191L14 192L13 191M204 191L205 192L204 191M14 192L15 193L14 192M203 192L204 193L203 192M15 193L16 194L15 193M23 193L23 194L94 194L72 193L23 193M103 193L103 194L113 194L103 193M122 193L122 194L195 194L172 193L122 193M202 193L203 194L202 193M16 194L17 195L16 194z"/>
<path style="fill:#392a61; stroke:none;" d="M102 194C104.684 198.139 111.316 198.139 114 194L102 194z"/>
<path style="fill:#61719c; stroke:none;" d="M201 194L202 195L201 194M18 195L19 196L18 195M120 195L121 196L120 195M199 195L200 196L199 195z"/>
<path style="fill:#58baf3; stroke:none;" d="M20 196L21 197L20 196z"/>
<path style="fill:#61719c; stroke:none;" d="M21.6667 196.333L22.3333 196.667L21.6667 196.333z"/>
<path style="fill:#58baf3; stroke:none;" d="M94 196L95 197L94 196M102 196L103 197L102 196z"/>
<path style="fill:#61719c; stroke:none;" d="M113 196L114 197L113 196M121 196L122 197L121 196M195.667 196.333L196.333 196.667L195.667 196.333z"/>
<path style="fill:#58baf3; stroke:none;" d="M197 196L198 197L197 196z"/>
</svg>
