<?xml version="1.0" standalone="yes"?>
<svg xmlns="http://www.w3.org/2000/svg" width="512" height="512">
<path style="fill:#1f1e37; stroke:none;" d="M0 0L0 87L1 87C3.3175 71.5386 18.5753 57.8309 34 56.1736C49.9789 54.4568 66.9265 56 83 56L179 56L339 56L387 56C393.685 56 402.645 54.4582 409 56.7276C424.234 62.1681 439.971 81.1497 450.282 93C482.842 130.42 510.966 183.013 511 234L512 234L512 0L0 0z"/>
<path style="fill:#f72a55; stroke:none;" d="M287 221C277.563 221 265.158 223.459 258.649 214.907C252.966 207.44 255 195.786 255 187L255 123C255 113.873 253.091 102.323 260.214 95.2137C266.265 89.1736 276.208 91 284 91C306.72 91 329.178 93.2396 336.791 119C339.888 129.481 333.95 137.348 334.646 147C335.131 153.73 343.301 159.912 345 167C362.269 164.819 375.863 178.033 390 186.12C396.833 190.028 406.479 191.919 413.996 188.856C418.578 186.989 422.716 181.96 419.393 177.105C413.426 168.388 397.099 167.024 388 163.127C365.281 153.397 353.039 126.941 370.329 106C385.657 87.4345 410.6 86.7072 431 96.7562C439.683 101.034 451.23 107.382 448.466 119C443.312 140.66 422.781 125.013 411 121.924C405.53 120.49 394.558 120.223 393.582 128C392.552 136.21 415.367 139.774 421 142.312C446.95 154.002 464.213 182.947 440.91 206.961C426.103 222.219 403.242 224.18 384 217.302C378.702 215.408 370.422 207.444 365 208.033C361.083 208.459 357.582 213.42 355 216C346.67 224.326 336.788 232.363 330 242C338.011 239.461 346.009 238.965 352.96 244.532C358.377 248.871 359.262 255.848 367.004 255.995C415.296 256.914 463.698 256 512 256C512 246.258 514.969 225.886 508.976 217.648C505.976 213.525 498.155 211.332 494 208.239C485.712 202.072 478.323 193.364 473.89 184C468.246 172.075 466.156 158.03 468.464 145C469.781 137.563 476.485 127.978 472.365 121C461.816 103.133 446.9 87.9044 431.91 73.8163C425.804 68.0768 418.051 59.6053 410 56.7276C403.647 54.4568 394.683 56 388 56L342 56L186 56L56 56C34.4392 56 13.2646 56.0806 2.90432 79C-5.02168 96.5342 0 124.042 0 143L0 203C0 214.18 -1.36763 225.923 4.46451 236C10.6898 246.756 20.7303 253.629 33 255.561C55.6255 259.124 81.0873 256 104 256C121.824 256 142.349 258.862 159.896 255.852C167.388 254.566 171 243.909 180 242.329C187.479 241.015 194.373 243.145 199.985 248.185C202.558 250.496 204.75 254.675 208.209 255.682C217.372 258.35 230.454 256 240 256C244.051 256 249.266 256.839 253 254.972C264.51 249.217 279.628 231.466 287 221z"/>
<path style="fill:#e45c77; stroke:none;" d="M419 63L420 64L419 63M433 75L434 76L433 75M435 77L436 78L435 77M445 87L446 88L445 87M67 90L67 91L72 91L67 90z"/>
<path style="fill:#fdad6d; stroke:none;" d="M72 90L72 91L75 91L72 90z"/>
<path style="fill:#e45c77; stroke:none;" d="M75 90L75 91L79 91L75 90M397 90L398 91L397 90z"/>
<path style="fill:#fdad6d; stroke:none;" d="M398 90L398 91L409 91L398 90z"/>
<path style="fill:#e45c77; stroke:none;" d="M409.667 90.3333L410.333 90.6667L409.667 90.3333M62 91L63 92L62 91z"/>
<path style="fill:#f4d3c0; stroke:none;" d="M63 91.5178C39.4724 96.5373 23.8721 124.141 36.3596 145.999C42.3175 156.428 53.9108 162.163 65 165.424C71.5914 167.363 92.2672 172.27 90.3773 181.986C88.8961 189.601 78.3184 191.601 72 190.7C58.6518 188.797 45.5273 168.622 32.044 179.419C21.6397 187.75 27.4401 200.192 36.0039 206.985C50.4837 218.471 68.8377 223.27 87 219.55C123.116 212.154 133.503 165.874 100 147.312C91.0738 142.367 81.4636 139.574 72 135.935C68.9424 134.759 63.4314 132.842 63.037 128.958C62.4289 122.967 71.4059 119.903 76 120.505C87.5361 122.015 101.872 136.786 112.895 126.772C121.011 119.398 118.483 107.835 109.996 102.105C96.9986 93.3289 78.6217 88.1849 63 91.5178z"/>
<path style="fill:#fdad6d; stroke:none;" d="M83 91L84 92L83 91z"/>
<path style="fill:#e45c77; stroke:none;" d="M84 91L85 92L84 91M146 91L147 92L146 91z"/>
<path style="fill:#fdad6d; stroke:none;" d="M147 91L148 92L147 91z"/>
<path style="fill:#f4d3c0; stroke:none;" d="M148 91.534C129.935 95.8368 136 126.307 136 140C136 156.173 133.591 174.441 138.75 190C146.573 213.592 174.132 224.534 197 219.714C240.612 210.521 236 167.387 236 133C236 120.666 240.565 97.8547 226 92.1482C210.309 86.0006 206 102.459 206 114C206 133.246 210.323 158.403 205.442 177C203.228 185.435 193.491 191.366 185 190.892C177.58 190.477 169.347 185.21 166.993 177.999C161.267 160.46 166 134.431 166 116C166 104.533 164.526 87.5977 148 91.534z"/>
<path style="fill:#fdad6d; stroke:none;" d="M155 91L156 92L155 91z"/>
<path style="fill:#e45c77; stroke:none;" d="M156 91L157 92L156 91M215.667 91.3333L216.333 91.6667L215.667 91.3333z"/>
<path style="fill:#fdad6d; stroke:none;" d="M224 91L225 92L224 91z"/>
<path style="fill:#e45c77; stroke:none;" d="M225 91L226 92L225 91M265 91L266 92L265 91z"/>
<path style="fill:#fdad6d; stroke:none;" d="M266 91L267 92L266 91z"/>
<path style="fill:#f4d3c0; stroke:none;" d="M345 168C343.256 160.657 334.854 153.723 334.236 147C333.4 137.905 338.669 129.956 336.547 120C330.938 93.6873 306.149 91 284 91C276.288 91 266.248 89.2803 260.214 95.2245C253.523 101.816 256 114.449 256 123L256 197C256 206.907 255.62 218.435 268 220.671C304.464 227.255 316.064 180.727 345 168z"/>
<path style="fill:#fdad6d; stroke:none;" d="M305.667 91.3333L306.333 91.6667L305.667 91.3333z"/>
<path style="fill:#e45c77; stroke:none;" d="M307 91L308 92L307 91M392 91L393 92L392 91z"/>
<path style="fill:#fdad6d; stroke:none;" d="M393 91L394 92L393 91z"/>
<path style="fill:#f4d3c0; stroke:none;" d="M370 176C373.136 187.732 373.655 195.357 365 205C386.192 231.013 440.725 225.09 450.215 191C456.724 167.616 439.766 149.266 419 141.695C412.874 139.462 395.691 136.756 393.256 129.896C390.714 122.733 403.428 120.028 408 120.823C420.35 122.97 443.854 141.833 448.28 118C450.807 104.392 434.261 97.5973 424 94.0787C401.634 86.4091 372.588 91.8778 364.36 117C356.299 141.609 373.918 158.901 396 165.717C402.09 167.596 424.601 173.271 420.712 182.985C412.871 202.571 388.267 183.246 379 178.086C376.154 176.501 373.186 176.146 370 176z"/>
<path style="fill:#fdad6d; stroke:none;" d="M414 91L415 92L414 91z"/>
<path style="fill:#e45c77; stroke:none;" d="M415.667 91.3333L416.333 91.6667L415.667 91.3333z"/>
<path style="fill:#fdad6d; stroke:none;" d="M59 92L60 93L59 92z"/>
<path style="fill:#e45c77; stroke:none;" d="M88 92L89 93L88 92M144 92L145 93L144 92M158 92L159 93L158 92M213 92L214 93L213 92M227 92L228 93L227 92M263 92L264 93L263 92z"/>
<path style="fill:#fdad6d; stroke:none;" d="M310 92L311 93L310 92z"/>
<path style="fill:#e45c77; stroke:none;" d="M311 92L312 93L311 92z"/>
<path style="fill:#fdad6d; stroke:none;" d="M389 92L390 93L389 92M418 92L419 93L418 92z"/>
<path style="fill:#e45c77; stroke:none;" d="M419.667 92.3333L420.333 92.6667L419.667 92.3333M56 93L57 94L56 93z"/>
<path style="fill:#fdad6d; stroke:none;" d="M91 93L92 94L91 93z"/>
<path style="fill:#e45c77; stroke:none;" d="M142 93L143 94L142 93z"/>
<path style="fill:#fdad6d; stroke:none;" d="M212 93L213 94L212 93z"/>
<path style="fill:#e45c77; stroke:none;" d="M229 93L230 94L229 93M261 93L262 94L261 93z"/>
<path style="fill:#fdad6d; stroke:none;" d="M313 93L314 94L313 93z"/>
<path style="fill:#e45c77; stroke:none;" d="M314 93L315 94L314 93M386 93L387 94L386 93z"/>
<path style="fill:#fdad6d; stroke:none;" d="M422 93L423 94L422 93z"/>
<path style="fill:#e45c77; stroke:none;" d="M423 93L424 94L423 93z"/>
<path style="fill:#fdad6d; stroke:none;" d="M54 94L55 95L54 94M94 94L95 95L94 94z"/>
<path style="fill:#e45c77; stroke:none;" d="M141 94L142 95L141 94M161 94L162 95L161 94M210 94L211 95L210 94M230 94L231 95L230 94M260 94L261 95L260 94z"/>
<path style="fill:#fdad6d; stroke:none;" d="M315 94L316 95L315 94z"/>
<path style="fill:#e45c77; stroke:none;" d="M316 94L317 95L316 94M384 94L385 95L384 94z"/>
<path style="fill:#fdad6d; stroke:none;" d="M425 94L426 95L425 94z"/>
<path style="fill:#e45c77; stroke:none;" d="M426 94L427 95L426 94z"/>
<path style="fill:#fdad6d; stroke:none;" d="M52 95L53 96L52 95z"/>
<path style="fill:#e45c77; stroke:none;" d="M97 95L98 96L97 95z"/>
<path style="fill:#fdad6d; stroke:none;" d="M140 95L141 96L140 95z"/>
<path style="fill:#e45c77; stroke:none;" d="M162 95L163 96L162 95M209 95L210 96L209 95z"/>
<path style="fill:#fdad6d; stroke:none;" d="M231 95L232 96L231 95z"/>
<path style="fill:#e45c77; stroke:none;" d="M259 95L260 96L259 95z"/>
<path style="fill:#fdad6d; stroke:none;" d="M317 95L318 96L317 95z"/>
<path style="fill:#e45c77; stroke:none;" d="M318 95L319 96L318 95M382 95L383 96L382 95z"/>
<path style="fill:#fdad6d; stroke:none;" d="M427 95L428 96L427 95z"/>
<path style="fill:#e45c77; stroke:none;" d="M428 95L429 96L428 95M50 96L51 97L50 96z"/>
<path style="fill:#fdad6d; stroke:none;" d="M99 96L100 97L99 96z"/>
<path style="fill:#e45c77; stroke:none;" d="M139 96L140 97L139 96M163 96L164 97L163 96M232 96L233 97L232 96M258 96L259 97L258 96z"/>
<path style="fill:#fdad6d; stroke:none;" d="M319 96L320 97L319 96z"/>
<path style="fill:#e45c77; stroke:none;" d="M380 96L381 97L380 96M430 96L431 97L430 96z"/>
<path style="fill:#fdad6d; stroke:none;" d="M101 97L102 98L101 97z"/>
<path style="fill:#e45c77; stroke:none;" d="M138 97L139 98L138 97z"/>
<path style="fill:#fdad6d; stroke:none;" d="M208 97L209 98L208 97z"/>
<path style="fill:#e45c77; stroke:none;" d="M233 97L234 98L233 97M321 97L322 98L321 97z"/>
<path style="fill:#fdad6d; stroke:none;" d="M379 97L380 98L379 97z"/>
<path style="fill:#e45c77; stroke:none;" d="M432 97L433 98L432 97M454 97L455 98L454 97M47 98L48 99L47 98z"/>
<path style="fill:#fdad6d; stroke:none;" d="M103 98L104 99L103 98z"/>
<path style="fill:#e45c77; stroke:none;" d="M164 98L165 99L164 98M207 98L208 99L207 98M257 98L258 99L257 98z"/>
<path style="fill:#fdad6d; stroke:none;" d="M322 98L323 99L322 98z"/>
<path style="fill:#e45c77; stroke:none;" d="M377 98L378 99L377 98M434 98L435 99L434 98z"/>
<path style="fill:#fdad6d; stroke:none;" d="M46 99L47 100L46 99z"/>
<path style="fill:#e45c77; stroke:none;" d="M105 99L106 100L105 99M137 99L138 100L137 99M234 99L235 100L234 99M324 99L325 100L324 99M376 99L377 100L376 99M436 99L437 100L436 99M107 100L108 101L107 100M165 100L166 101L165 100M206 100L207 101L206 100M256 100L257 101L256 100M325 100L326 101L325 100M375 100L376 101L375 100M438 100L439 101L438 100z"/>
<path style="fill:#fdad6d; stroke:none;" d="M206 101L207 102L206 101z"/>
<path style="fill:#e45c77; stroke:none;" d="M326 101L327 102L326 101z"/>
<path style="fill:#fdad6d; stroke:none;" d="M374 101L375 102L374 101M439 101L440 102L439 101z"/>
<path style="fill:#e45c77; stroke:none;" d="M110 102L111 103L110 102M136 102L137 103L136 102M235 102L236 103L235 102M327 102L328 103L327 102z"/>
<path style="fill:#fdad6d; stroke:none;" d="M373 102L374 103L373 102z"/>
<path style="fill:#e45c77; stroke:none;" d="M441 102L442 103L441 102M166 103L166 106L167 106L166 103M205 103L205 176L206 176L206 126L205 103z"/>
<path style="fill:#fdad6d; stroke:none;" d="M235 103L236 104L235 103z"/>
<path style="fill:#e45c77; stroke:none;" d="M255.333 103.667L255.667 104.333L255.333 103.667M328 103L329 104L328 103z"/>
<path style="fill:#fdad6d; stroke:none;" d="M372 103L373 104L372 103M442 103L443 104L442 103z"/>
<path style="fill:#e45c77; stroke:none;" d="M459 103L460 104L459 103M113 104L114 105L113 104M329 104L330 105L329 104M371 104L372 105L371 104M444 104L445 105L444 104z"/>
<path style="fill:#fdad6d; stroke:none;" d="M40 105L41 106L40 105z"/>
<path style="fill:#e45c77; stroke:none;" d="M114 105L115 106L114 105z"/>
<path style="fill:#fdad6d; stroke:none;" d="M255 105L255 207L256 207L256 136L255 105M329 105L330 106L329 105z"/>
<path style="fill:#e45c77; stroke:none;" d="M370 105L371 106L370 105M39 106L40 107L39 106z"/>
<path style="fill:#fdad6d; stroke:none;" d="M166 106L166 177L167 177L167 128L166 106z"/>
<path style="fill:#e45c77; stroke:none;" d="M330 106L331 107L330 106M369 106L370 107L369 106z"/>
<path style="fill:#fdad6d; stroke:none;" d="M445 106L446 107L445 106z"/>
<path style="fill:#e45c77; stroke:none;" d="M331 107L332 108L331 107M446 107L447 108L446 107M462 107L463 108L462 107M116 108L117 109L116 108z"/>
<path style="fill:#fdad6d; stroke:none;" d="M368 108L369 109L368 108M37 109L38 110L37 109z"/>
<path style="fill:#e45c77; stroke:none;" d="M332 109L333 110L332 109M367 109L368 110L367 109z"/>
<path style="fill:#fdad6d; stroke:none;" d="M447 109L448 110L447 109z"/>
<path style="fill:#e45c77; stroke:none;" d="M117 110L118 111L117 110M333 110L334 111L333 110z"/>
<path style="fill:#fdad6d; stroke:none;" d="M36 111L37 112L36 111M117 111L118 112L117 111M333 111L334 112L333 111z"/>
<path style="fill:#e45c77; stroke:none;" d="M366 111L367 112L366 111M448 111L449 112L448 111M334 112L335 113L334 112z"/>
<path style="fill:#fdad6d; stroke:none;" d="M448.333 112.667L448.667 113.333L448.333 112.667M35 113L36 114L35 113M334 113L335 114L334 113z"/>
<path style="fill:#e45c77; stroke:none;" d="M365 113L366 114L365 113z"/>
<path style="fill:#fdad6d; stroke:none;" d="M34 115L35 116L34 115z"/>
<path style="fill:#e45c77; stroke:none;" d="M335 115L336 116L335 115z"/>
<path style="fill:#fdad6d; stroke:none;" d="M364 116L365 117L364 116z"/>
<path style="fill:#e45c77; stroke:none;" d="M336.333 117.667L336.667 118.333L336.333 117.667z"/>
<path style="fill:#fdad6d; stroke:none;" d="M448.333 117.667L448.667 118.333L448.333 117.667M33 118L34 119L33 118z"/>
<path style="fill:#e45c77; stroke:none;" d="M363 118L364 119L363 118M470 118L471 119L470 118z"/>
<path style="fill:#fdad6d; stroke:none;" d="M336 119L337 120L336 119M363 119L364 120L363 119z"/>
<path style="fill:#e45c77; stroke:none;" d="M448 119L449 120L448 119z"/>
<path style="fill:#fdad6d; stroke:none;" d="M71 120L72 121L71 120z"/>
<path style="fill:#e45c77; stroke:none;" d="M72 120L72 121L76 121L72 120z"/>
<path style="fill:#fdad6d; stroke:none;" d="M76 120L77 121L76 120z"/>
<path style="fill:#e45c77; stroke:none;" d="M117 120L118 121L117 120z"/>
<path style="fill:#fdad6d; stroke:none;" d="M402 120L402 121L407 121L402 120z"/>
<path style="fill:#e45c77; stroke:none;" d="M32 121L33 122L32 121M68 121L69 122L68 121M80 121L81 122L80 121z"/>
<path style="fill:#f72a55; stroke:none;" d="M286 121L286 137C291.308 137 298.042 138.032 302.891 135.427C308.026 132.669 308.026 125.331 302.891 122.573C298.042 119.968 291.308 121 286 121z"/>
<path style="fill:#e45c77; stroke:none;" d="M300.667 121.333L301.333 121.667L300.667 121.333z"/>
<path style="fill:#fdad6d; stroke:none;" d="M302 121L303 122L302 121z"/>
<path style="fill:#e45c77; stroke:none;" d="M337 121L337 124L338 124L337 121M399 121L400 122L399 121M409.667 121.333L410.333 121.667L409.667 121.333z"/>
<path style="fill:#fdad6d; stroke:none;" d="M411 121L412 122L411 121M447 121L448 122L447 121z"/>
<path style="fill:#e45c77; stroke:none;" d="M472 121L473 122L472 121z"/>
<path style="fill:#fdad6d; stroke:none;" d="M32 122L33 123L32 122z"/>
<path style="fill:#e45c77; stroke:none;" d="M66 122L67 123L66 122M83 122L84 123L83 122z"/>
<path style="fill:#fdad6d; stroke:none;" d="M116 122L117 123L116 122z"/>
<path style="fill:#e45c77; stroke:none;" d="M303 122L304 123L303 122z"/>
<path style="fill:#fdad6d; stroke:none;" d="M304 122L305 123L304 122z"/>
<path style="fill:#e45c77; stroke:none;" d="M397 122L398 123L397 122M413 122L414 123L413 122z"/>
<path style="fill:#fdad6d; stroke:none;" d="M414 122L415 123L414 122z"/>
<path style="fill:#e45c77; stroke:none;" d="M447 122L448 123L447 122z"/>
<path style="fill:#fdad6d; stroke:none;" d="M86 123L87 124L86 123M305 123L306 124L305 123z"/>
<path style="fill:#e45c77; stroke:none;" d="M362 123L363 124L362 123z"/>
<path style="fill:#fdad6d; stroke:none;" d="M395 123L396 124L395 123z"/>
<path style="fill:#e45c77; stroke:none;" d="M415 123L416 124L415 123z"/>
<path style="fill:#fdad6d; stroke:none;" d="M416 123L417 124L416 123M446 123L447 124L446 123z"/>
<path style="fill:#e45c77; stroke:none;" d="M88 124L89 125L88 124M115 124L116 125L115 124z"/>
<path style="fill:#fdad6d; stroke:none;" d="M337.333 124.667L337.667 125.333L337.333 124.667M362.333 124.667L362.667 125.333L362.333 124.667M394 124L395 125L394 124z"/>
<path style="fill:#e45c77; stroke:none;" d="M418 124L419 125L418 124M446 124L447 125L446 124M90 125L91 126L90 125z"/>
<path style="fill:#fdad6d; stroke:none;" d="M114 125L115 126L114 125z"/>
<path style="fill:#e45c77; stroke:none;" d="M306 125L307 126L306 125z"/>
<path style="fill:#fdad6d; stroke:none;" d="M393 125L394 126L393 125z"/>
<path style="fill:#e45c77; stroke:none;" d="M420 125L421 126L420 125M445 125L446 126L445 125z"/>
<path style="fill:#fdad6d; stroke:none;" d="M92 126L93 127L92 126M113 126L114 127L113 126z"/>
<path style="fill:#e45c77; stroke:none;" d="M393 126L394 127L393 126z"/>
<path style="fill:#fdad6d; stroke:none;" d="M422 126L423 127L422 126z"/>
<path style="fill:#e45c77; stroke:none;" d="M444 126L445 127L444 126M474 126L475 127L474 126z"/>
<path style="fill:#fdad6d; stroke:none;" d="M475 126L474 128L475 126z"/>
<path style="fill:#e45c77; stroke:none;" d="M62 127L63 128L62 127M93 127L94 128L93 127M112 127L113 128L112 127z"/>
<path style="fill:#fdad6d; stroke:none;" d="M307 127L308 128L307 127M392 127L392 131L393 131L392 127z"/>
<path style="fill:#e45c77; stroke:none;" d="M423 127L424 128L423 127z"/>
<path style="fill:#fdad6d; stroke:none;" d="M424 127L425 128L424 127z"/>
<path style="fill:#e45c77; stroke:none;" d="M443 127L444 128L443 127z"/>
<path style="fill:#f4d3c0; stroke:none;" d="M475 127C458.423 158.133 473.263 205.685 509 216C508.037 193.625 498.128 168.812 488.247 149C484.598 141.683 481.292 132.39 475 127z"/>
<path style="fill:#e45c77; stroke:none;" d="M95 128L96 129L95 128M307.333 128.667L307.667 129.333L307.333 128.667M425 128L426 129L425 128z"/>
<path style="fill:#fdad6d; stroke:none;" d="M441 128L442 129L441 128z"/>
<path style="fill:#e45c77; stroke:none;" d="M473.333 128.667L473.667 129.333L473.333 128.667M97 129L98 130L97 129M109 129L110 130L109 129M427 129L428 130L427 129z"/>
<path style="fill:#fdad6d; stroke:none;" d="M439 129L440 130L439 129z"/>
<path style="fill:#e45c77; stroke:none;" d="M440 129L441 130L440 129M62 130L63 131L62 130M100.667 130.333L101.333 130.667L100.667 130.333z"/>
<path style="fill:#fdad6d; stroke:none;" d="M102 130L102 131L105 131L102 130z"/>
<path style="fill:#e45c77; stroke:none;" d="M105.667 130.333L106.333 130.667L105.667 130.333z"/>
<path style="fill:#fdad6d; stroke:none;" d="M307 130L308 131L307 130z"/>
<path style="fill:#e45c77; stroke:none;" d="M429.667 130.333L430.333 130.667L429.667 130.333z"/>
<path style="fill:#fdad6d; stroke:none;" d="M431.667 130.333L432.333 130.667L431.667 130.333M435.667 130.333L436.333 130.667L435.667 130.333z"/>
<path style="fill:#e45c77; stroke:none;" d="M437 130L438 131L437 130M393 131L394 132L393 131M472 131L473 132L472 131M64 132L65 133L64 132M306 132L307 133L306 132z"/>
<path style="fill:#fdad6d; stroke:none;" d="M337 132L337 135L338 135L337 132M362.333 132.667L362.667 133.333L362.333 132.667z"/>
<path style="fill:#e45c77; stroke:none;" d="M394 132L395 133L394 132z"/>
<path style="fill:#fdad6d; stroke:none;" d="M472 132L473 133L472 132z"/>
<path style="fill:#e45c77; stroke:none;" d="M396 133L397 134L396 133M471.333 133.667L471.667 134.333L471.333 133.667z"/>
<path style="fill:#fdad6d; stroke:none;" d="M305 134L306 135L305 134z"/>
<path style="fill:#e45c77; stroke:none;" d="M362 134L363 135L362 134M398 134L399 135L398 134z"/>
<path style="fill:#fdad6d; stroke:none;" d="M32 135L33 136L32 135M70 135L71 136L70 135z"/>
<path style="fill:#e45c77; stroke:none;" d="M303 135L304 136L303 135z"/>
<path style="fill:#fdad6d; stroke:none;" d="M304 135L305 136L304 135z"/>
<path style="fill:#e45c77; stroke:none;" d="M337.333 135.667L337.667 136.333L337.333 135.667M401 135L402 136L401 135M32 136L33 137L32 136M73 136L74 137L73 136M300.667 136.333L301.333 136.667L300.667 136.333z"/>
<path style="fill:#fdad6d; stroke:none;" d="M302 136L303 137L302 136z"/>
<path style="fill:#e45c77; stroke:none;" d="M404 136L405 137L404 136M470.333 136.667L470.667 137.333L470.333 136.667M76 137L77 138L76 137z"/>
<path style="fill:#fdad6d; stroke:none;" d="M406 137L407 138L406 137z"/>
<path style="fill:#e45c77; stroke:none;" d="M407 137L408 138L407 137M79 138L80 139L79 138z"/>
<path style="fill:#fdad6d; stroke:none;" d="M336 138L337 139L336 138M363 138L364 139L363 138M409 138L410 139L409 138z"/>
<path style="fill:#e45c77; stroke:none;" d="M410 138L411 139L410 138z"/>
<path style="fill:#fdad6d; stroke:none;" d="M470 138L471 139L470 138M33 139L34 140L33 139z"/>
<path style="fill:#e45c77; stroke:none;" d="M82 139L83 140L82 139M336.333 139.667L336.667 140.333L336.333 139.667z"/>
<path style="fill:#fdad6d; stroke:none;" d="M412 139L413 140L412 139z"/>
<path style="fill:#e45c77; stroke:none;" d="M413 139L414 140L413 139z"/>
<path style="fill:#fdad6d; stroke:none;" d="M84 140L85 141L84 140z"/>
<path style="fill:#e45c77; stroke:none;" d="M85 140L86 141L85 140z"/>
<path style="fill:#fdad6d; stroke:none;" d="M415 140L416 141L415 140z"/>
<path style="fill:#e45c77; stroke:none;" d="M416 140L417 141L416 140M469.333 140.667L469.667 141.333L469.333 140.667z"/>
<path style="fill:#fdad6d; stroke:none;" d="M87 141L88 142L87 141M364 141L365 142L364 141M418 141L419 142L418 141z"/>
<path style="fill:#e45c77; stroke:none;" d="M419 141L420 142L419 141M34 142L35 143L34 142M90 142L91 143L90 142M335 142L336 143L335 142M421 142L422 143L421 142z"/>
<path style="fill:#fdad6d; stroke:none;" d="M469 142L470 143L469 142M92 143L93 144L92 143M365 143L366 144L365 143z"/>
<path style="fill:#e45c77; stroke:none;" d="M423 143L424 144L423 143M35 144L36 145L35 144z"/>
<path style="fill:#fdad6d; stroke:none;" d="M94 144L95 145L94 144M334 144L335 145L334 144M425 144L426 145L425 144z"/>
<path style="fill:#e45c77; stroke:none;" d="M468 144L468 147L469 147L468 144z"/>
<path style="fill:#fdad6d; stroke:none;" d="M96 145L97 146L96 145z"/>
<path style="fill:#e45c77; stroke:none;" d="M334 145L335 146L334 145z"/>
<path style="fill:#fdad6d; stroke:none;" d="M366 145L367 146L366 145M427 145L428 146L427 145z"/>
<path style="fill:#e45c77; stroke:none;" d="M36 146L37 147L36 146z"/>
<path style="fill:#fdad6d; stroke:none;" d="M98 146L99 147L98 146M333 146L334 147L333 146z"/>
<path style="fill:#e45c77; stroke:none;" d="M429 146L430 147L429 146M100 147L101 148L100 147M333 147L334 148L333 147M367 147L368 148L367 147M431 147L432 148L431 147z"/>
<path style="fill:#fdad6d; stroke:none;" d="M468.333 147.667L468.667 148.333L468.333 147.667M333 148L334 149L333 148M368 148L369 149L368 148M432 148L433 149L432 148z"/>
<path style="fill:#e45c77; stroke:none;" d="M38 149L39 150L38 149z"/>
<path style="fill:#fdad6d; stroke:none;" d="M103 149L104 150L103 149M334 149L335 150L334 149z"/>
<path style="fill:#e45c77; stroke:none;" d="M434 149L435 150L434 149M39 150L40 151L39 150z"/>
<path style="fill:#fdad6d; stroke:none;" d="M335 150L336 151L335 150z"/>
<path style="fill:#e45c77; stroke:none;" d="M369 150L370 151L369 150z"/>
<path style="fill:#fdad6d; stroke:none;" d="M435 150L436 151L435 150M40 151L41 152L40 151z"/>
<path style="fill:#e45c77; stroke:none;" d="M106 151L107 152L106 151z"/>
<path style="fill:#fdad6d; stroke:none;" d="M336 151L337 152L336 151z"/>
<path style="fill:#e45c77; stroke:none;" d="M370 151L371 152L370 151M437 151L438 152L437 151z"/>
<path style="fill:#fdad6d; stroke:none;" d="M107 152L108 153L107 152z"/>
<path style="fill:#e45c77; stroke:none;" d="M337 152L338 153L337 152M371 152L372 153L371 152M438 152L439 153L438 152z"/>
<path style="fill:#fdad6d; stroke:none;" d="M42 153L43 154L42 153M108 153L109 154L108 153z"/>
<path style="fill:#e45c77; stroke:none;" d="M338 153L339 154L338 153M372 153L373 154L372 153M439 153L440 154L439 153z"/>
<path style="fill:#fdad6d; stroke:none;" d="M43 154L44 155L43 154z"/>
<path style="fill:#e45c77; stroke:none;" d="M373 154L374 155L373 154M440 154L441 155L440 154M467 154L467 158L468 158L467 154M44 155L45 156L44 155z"/>
<path style="fill:#fdad6d; stroke:none;" d="M339 155L340 156L339 155z"/>
<path style="fill:#e45c77; stroke:none;" d="M374 155L375 156L374 155M441 155L442 156L441 155z"/>
<path style="fill:#fdad6d; stroke:none;" d="M111 156L112 157L111 156z"/>
<path style="fill:#e45c77; stroke:none;" d="M340 156L341 157L340 156M442 156L443 157L442 156z"/>
<path style="fill:#fdad6d; stroke:none;" d="M47 157L48 158L47 157M112 157L113 158L112 157M377 157L378 158L377 157z"/>
<path style="fill:#e45c77; stroke:none;" d="M443 157L444 158L443 157M48 158L49 159L48 158M113 158L114 159L113 158z"/>
<path style="fill:#fdad6d; stroke:none;" d="M341 158L342 159L341 158z"/>
<path style="fill:#e45c77; stroke:none;" d="M378 158L379 159L378 158M444 158L445 159L444 158z"/>
<path style="fill:#fdad6d; stroke:none;" d="M50 159L51 160L50 159z"/>
<path style="fill:#e45c77; stroke:none;" d="M342 159L343 160L342 159M380 159L381 160L380 159z"/>
<path style="fill:#fdad6d; stroke:none;" d="M52 160L53 161L52 160M342 160L343 161L342 160M382 160L383 161L382 160M445 160L446 161L445 160M54 161L55 162L54 161M115 161L116 162L115 161z"/>
<path style="fill:#e45c77; stroke:none;" d="M343 161L344 162L343 161z"/>
<path style="fill:#fdad6d; stroke:none;" d="M384 161L385 162L384 161z"/>
<path style="fill:#e45c77; stroke:none;" d="M446 161L447 162L446 161z"/>
<path style="fill:#fdad6d; stroke:none;" d="M56 162L57 163L56 162M343 162L344 163L343 162z"/>
<path style="fill:#e45c77; stroke:none;" d="M386 162L387 163L386 162M58 163L59 164L58 163M388 163L389 164L388 163z"/>
<path style="fill:#fdad6d; stroke:none;" d="M389 163L390 164L389 163z"/>
<path style="fill:#e45c77; stroke:none;" d="M447 163L448 164L447 163z"/>
<path style="fill:#fdad6d; stroke:none;" d="M468.333 163.667L468.667 164.333L468.333 163.667z"/>
<path style="fill:#e45c77; stroke:none;" d="M61 164L62 165L61 164M117 164L118 165L117 164M344 164L345 165L344 164M391 164L392 165L391 164M64 165L65 166L64 165z"/>
<path style="fill:#fdad6d; stroke:none;" d="M65 165L66 166L65 165M344 165L345 166L344 165z"/>
<path style="fill:#e45c77; stroke:none;" d="M394 165L395 166L394 165z"/>
<path style="fill:#fdad6d; stroke:none;" d="M395 165L396 166L395 165z"/>
<path style="fill:#e45c77; stroke:none;" d="M448 165L449 166L448 165M468 165L468 168L469 168L468 165z"/>
<path style="fill:#fdad6d; stroke:none;" d="M68 166L69 167L68 166z"/>
<path style="fill:#e45c77; stroke:none;" d="M118 166L119 167L118 166M348.667 166.333L349.333 166.667L348.667 166.333z"/>
<path style="fill:#fdad6d; stroke:none;" d="M214 295C210.712 282.29 211.564 265.453 204.914 254C196.461 239.44 174.591 237.877 164.916 252.004C158.349 261.593 160 276.835 160 288L160 367C160 388.863 135.679 404.32 121 419C116.985 423.015 104.207 431.965 104.207 437.996C104.207 443.123 114.364 448.894 118 451.625C133.721 463.434 150.912 473.686 169 481.421C181.649 486.831 194.66 491.038 208 494.373C213.069 495.641 219.721 498.325 225 497.512C236.21 495.787 243.042 478.174 253 473.179C265.483 466.917 280.231 467.548 293 459.796C319.78 443.537 341.92 414.08 364 392C375.163 380.837 394.32 367.63 400.633 353C409.749 331.873 388.663 320.356 371 324C376.502 318.248 381.133 312.223 381.812 304C383.398 284.793 363.882 278.453 349 284C353.621 279.366 358.889 274.624 360.468 268C365.506 246.85 345.673 236.194 328 243L357 214C362.946 208.054 369.825 202.4 372.211 194C377.425 175.653 357.576 159.918 341 169.367C325.305 178.315 311.748 197.252 299 210L214 295z"/>
<path style="fill:#e45c77; stroke:none;" d="M353 166L353 167L356 167L353 166M397 166L398 167L397 166z"/>
<path style="fill:#fdad6d; stroke:none;" d="M398 166L399 167L398 166z"/>
<path style="fill:#e45c77; stroke:none;" d="M70 167L71 168L70 167z"/>
<path style="fill:#fdad6d; stroke:none;" d="M71 167L72 168L71 167z"/>
<path style="fill:#e45c77; stroke:none;" d="M286 167L286 168L307 168L286 167z"/>
<path style="fill:#fdad6d; stroke:none;" d="M307 167L308 168L307 167z"/>
<path style="fill:#e45c77; stroke:none;" d="M358 167L359 168L358 167M400 167L401 168L400 167z"/>
<path style="fill:#fdad6d; stroke:none;" d="M401 167L402 168L401 167z"/>
<path style="fill:#e45c77; stroke:none;" d="M449 167L450 168L449 167M73 168L74 169L73 168z"/>
<path style="fill:#fdad6d; stroke:none;" d="M74 168L75 169L74 168z"/>
<path style="fill:#f72a55; stroke:none;" d="M286 168L286 190C292.894 190 303.739 192.045 309.985 188.821C318.195 184.583 317.694 172.112 308.996 168.742C302.548 166.244 292.854 168 286 168z"/>
<path style="fill:#e45c77; stroke:none;" d="M309 168L310 169L309 168z"/>
<path style="fill:#fdad6d; stroke:none;" d="M310 168L311 169L310 168z"/>
<path style="fill:#e45c77; stroke:none;" d="M361 168L362 169L361 168M403 168L404 169L403 168z"/>
<path style="fill:#fdad6d; stroke:none;" d="M404 168L405 169L404 168M449 168L450 169L449 168z"/>
<path style="fill:#e45c77; stroke:none;" d="M76 169L77 170L76 169M119 169L120 170L119 169M311 169L312 170L311 169M406 169L407 170L406 169z"/>
<path style="fill:#fdad6d; stroke:none;" d="M407 169L408 170L407 169M469.333 169.667L469.667 170.333L469.333 169.667z"/>
<path style="fill:#e45c77; stroke:none;" d="M79 170L80 171L79 170M312 170L313 171L312 170M364 170L365 171L364 170M409 170L410 171L409 170M450 170L451 171L450 170M81 171L82 172L81 171M313 171L314 172L313 171M411 171L412 172L411 171z"/>
<path style="fill:#fdad6d; stroke:none;" d="M450 171L451 172L450 171z"/>
<path style="fill:#e45c77; stroke:none;" d="M469 171L470 172L469 171M83 172L84 173L83 172M314 172L315 173L314 172M413 172L414 173L413 172z"/>
<path style="fill:#fdad6d; stroke:none;" d="M85 173L86 174L85 173z"/>
<path style="fill:#e45c77; stroke:none;" d="M120 173L121 174L120 173M415 173L416 174L415 173z"/>
<path style="fill:#fdad6d; stroke:none;" d="M470 173L471 174L470 173M120 174L121 175L120 174z"/>
<path style="fill:#e45c77; stroke:none;" d="M315 174L316 175L315 174z"/>
<path style="fill:#fdad6d; stroke:none;" d="M417 174L418 175L417 174z"/>
<path style="fill:#e45c77; stroke:none;" d="M451.333 174.667L451.667 175.333L451.333 174.667M470.333 174.667L470.667 175.333L470.333 174.667z"/>
<path style="fill:#fdad6d; stroke:none;" d="M88 175L89 176L88 175z"/>
<path style="fill:#e45c77; stroke:none;" d="M369 175L370 176L369 175M418 175L419 176L418 175M37 176L38 177L37 176z"/>
<path style="fill:#fdad6d; stroke:none;" d="M44 176L45 177L44 176z"/>
<path style="fill:#e45c77; stroke:none;" d="M45 176L46 177L45 176z"/>
<path style="fill:#fdad6d; stroke:none;" d="M89 176L90 177L89 176M205.333 176.667L205.667 177.333L205.333 176.667M316.333 176.667L316.667 177.333L316.333 176.667M375 176L376 177L375 176z"/>
<path style="fill:#e45c77; stroke:none;" d="M376 176L377 177L376 176M419 176L420 177L419 176z"/>
<path style="fill:#fdad6d; stroke:none;" d="M451 176L451 179L452 179L451 176z"/>
<path style="fill:#e45c77; stroke:none;" d="M34 177L35 178L34 177z"/>
<path style="fill:#fdad6d; stroke:none;" d="M47 177L48 178L47 177z"/>
<path style="fill:#e45c77; stroke:none;" d="M378 177L379 178L378 177z"/>
<path style="fill:#fdad6d; stroke:none;" d="M420 177L421 178L420 177z"/>
<path style="fill:#e45c77; stroke:none;" d="M471.333 177.667L471.667 178.333L471.333 177.667M49 178L50 179L49 178M90 178L91 179L90 178z"/>
<path style="fill:#fdad6d; stroke:none;" d="M235 178L235 181L236 181L235 178z"/>
<path style="fill:#e45c77; stroke:none;" d="M316.333 178.667L316.667 179.333L316.333 178.667M380 178L381 179L380 178M31 179L32 180L31 179M167 179L168 180L167 179M204 179L205 180L204 179z"/>
<path style="fill:#fdad6d; stroke:none;" d="M381 179L382 180L381 179M421 179L421 183L422 183L421 179M472 179L473 180L472 179z"/>
<path style="fill:#e45c77; stroke:none;" d="M30 180L31 181L30 180z"/>
<path style="fill:#fdad6d; stroke:none;" d="M136 180L137 181L136 180M167 180L168 181L167 180M204 180L205 181L204 180M316.333 180.667L316.667 181.333L316.333 180.667M382 180L383 181L382 180z"/>
<path style="fill:#e45c77; stroke:none;" d="M472 180L473 181L472 180M29 181L30 182L29 181M136 181L137 182L136 181M168 181L169 182L168 181M203 181L204 182L203 181M235.333 181.667L235.667 182.333L235.333 181.667z"/>
<path style="fill:#fdad6d; stroke:none;" d="M383 181L384 182L383 181M384 182L385 183L384 182M451 182L451 186L452 186L451 182z"/>
<path style="fill:#e45c77; stroke:none;" d="M473.333 182.667L473.667 183.333L473.333 182.667M90 183L91 184L90 183z"/>
<path style="fill:#fdad6d; stroke:none;" d="M169 183L170 184L169 183M202 183L203 184L202 183z"/>
<path style="fill:#e45c77; stroke:none;" d="M315 183L316 184L315 183M420 183L421 184L420 183M56 184L57 185L56 184z"/>
<path style="fill:#fdad6d; stroke:none;" d="M170 184L171 185L170 184M201 184L202 185L201 184z"/>
<path style="fill:#e45c77; stroke:none;" d="M387 184L388 185L387 184z"/>
<path style="fill:#fdad6d; stroke:none;" d="M420 184L421 185L420 184M474 184L475 185L474 184M137 185L138 186L137 185z"/>
<path style="fill:#e45c77; stroke:none;" d="M199 185L200 186L199 185z"/>
<path style="fill:#fdad6d; stroke:none;" d="M200 185L201 186L200 185M234 185L235 186L234 185z"/>
<path style="fill:#e45c77; stroke:none;" d="M314 185L315 186L314 185z"/>
<path style="fill:#fdad6d; stroke:none;" d="M388 185L389 186L388 185z"/>
<path style="fill:#e45c77; stroke:none;" d="M419 185L420 186L419 185M474 185L475 186L474 185M59 186L60 187L59 186z"/>
<path style="fill:#fdad6d; stroke:none;" d="M88 186L89 187L88 186z"/>
<path style="fill:#e45c77; stroke:none;" d="M137 186L138 187L137 186M173 186L174 187L173 186M198 186L199 187L198 186M234 186L235 187L234 186M313 186L314 187L313 186M390 186L391 187L390 186M418 186L419 187L418 186M451.333 186.667L451.667 187.333L451.333 186.667z"/>
<path style="fill:#fdad6d; stroke:none;" d="M475 186L476 187L475 186z"/>
<path style="fill:#e45c77; stroke:none;" d="M26 187L27 188L26 187M61 187L62 188L61 187z"/>
<path style="fill:#fdad6d; stroke:none;" d="M120 187L121 188L120 187M174 187L175 188L174 187z"/>
<path style="fill:#e45c77; stroke:none;" d="M196 187L197 188L196 187z"/>
<path style="fill:#fdad6d; stroke:none;" d="M197 187L198 188L197 187z"/>
<path style="fill:#e45c77; stroke:none;" d="M312 187L313 188L312 187M392 187L393 188L392 187z"/>
<path style="fill:#fdad6d; stroke:none;" d="M417 187L418 188L417 187z"/>
<path style="fill:#e45c77; stroke:none;" d="M475 187L476 188L475 187z"/>
<path style="fill:#fdad6d; stroke:none;" d="M26 188L27 189L26 188M63 188L64 189L63 188M85 188L86 189L85 188z"/>
<path style="fill:#e45c77; stroke:none;" d="M120 188L121 189L120 188M176 188L177 189L176 188z"/>
<path style="fill:#fdad6d; stroke:none;" d="M195 188L196 189L195 188M233 188L234 189L233 188z"/>
<path style="fill:#e45c77; stroke:none;" d="M311 188L312 189L311 188z"/>
<path style="fill:#fdad6d; stroke:none;" d="M394 188L395 189L394 188z"/>
<path style="fill:#e45c77; stroke:none;" d="M415 188L416 189L415 188M476 188L477 189L476 188z"/>
<path style="fill:#fdad6d; stroke:none;" d="M66 189L67 190L66 189M83 189L84 190L83 189z"/>
<path style="fill:#e45c77; stroke:none;" d="M138 189L139 190L138 189M178 189L179 190L178 189M192 189L193 190L192 189z"/>
<path style="fill:#fdad6d; stroke:none;" d="M193 189L194 190L193 189z"/>
<path style="fill:#e45c77; stroke:none;" d="M233 189L234 190L233 189M309 189L310 190L309 189z"/>
<path style="fill:#fdad6d; stroke:none;" d="M397 189L398 190L397 189z"/>
<path style="fill:#e45c77; stroke:none;" d="M398 189L399 190L398 189M412 189L413 190L412 189z"/>
<path style="fill:#fdad6d; stroke:none;" d="M413 189L414 190L413 189M70 190L71 191L70 190z"/>
<path style="fill:#e45c77; stroke:none;" d="M71 190L72 191L71 190M79 190L80 191L79 190z"/>
<path style="fill:#fdad6d; stroke:none;" d="M80 190L81 191L80 190M181 190L182 191L181 190z"/>
<path style="fill:#e45c77; stroke:none;" d="M182 190L182 191L185 191L182 190M186 190L186 191L189 191L186 190z"/>
<path style="fill:#fdad6d; stroke:none;" d="M189.667 190.333L190.333 190.667L189.667 190.333z"/>
<path style="fill:#e45c77; stroke:none;" d="M286 190L286 191L307 191L286 190z"/>
<path style="fill:#fdad6d; stroke:none;" d="M307 190L308 191L307 190M401 190L402 191L401 190z"/>
<path style="fill:#e45c77; stroke:none;" d="M402 190L402 191L406 191L402 190M407 190L407 191L410 191L407 190z"/>
<path style="fill:#fdad6d; stroke:none;" d="M410 190L411 191L410 190M450 190L451 191L450 190z"/>
<path style="fill:#e45c77; stroke:none;" d="M477 190L478 191L477 190z"/>
<path style="fill:#fdad6d; stroke:none;" d="M119 191L120 192L119 191M232 191L233 192L232 191z"/>
<path style="fill:#e45c77; stroke:none;" d="M450 191L451 192L450 191z"/>
<path style="fill:#fdad6d; stroke:none;" d="M478 191L479 192L478 191z"/>
<path style="fill:#e45c77; stroke:none;" d="M119 192L120 193L119 192M232 192L233 193L232 192z"/>
<path style="fill:#fdad6d; stroke:none;" d="M26 193L27 194L26 193M231 193L232 194L231 193M449 193L450 194L449 193z"/>
<path style="fill:#e45c77; stroke:none;" d="M479 193L480 194L479 193M26 194L27 195L26 194z"/>
<path style="fill:#fdad6d; stroke:none;" d="M118 194L119 195L118 194z"/>
<path style="fill:#e45c77; stroke:none;" d="M140 194L141 195L140 194M231 194L232 195L231 194M449 194L450 195L449 194M480 194L481 195L480 194z"/>
<path style="fill:#fdad6d; stroke:none;" d="M230 195L231 196L230 195M448 195L449 196L448 195M481 195L482 196L481 195M117 196L118 197L117 196z"/>
<path style="fill:#e45c77; stroke:none;" d="M230 196L231 197L230 196M448 196L449 197L448 196M481 196L482 197L481 196M27 197L28 198L27 197z"/>
<path style="fill:#fdad6d; stroke:none;" d="M142 197L143 198L142 197z"/>
<path style="fill:#e45c77; stroke:none;" d="M229 197L230 198L229 197M482 197L483 198L482 197z"/>
<path style="fill:#fdad6d; stroke:none;" d="M116 198L117 199L116 198z"/>
<path style="fill:#e45c77; stroke:none;" d="M447 198L448 199L447 198M483 198L484 199L483 198M28 199L29 200L28 199M143 199L144 200L143 199M228 199L229 200L228 199z"/>
<path style="fill:#fdad6d; stroke:none;" d="M446 199L447 200L446 199z"/>
<path style="fill:#e45c77; stroke:none;" d="M484 199L485 200L484 199z"/>
<path style="fill:#fdad6d; stroke:none;" d="M29 200L30 201L29 200z"/>
<path style="fill:#e45c77; stroke:none;" d="M115 200L116 201L115 200z"/>
<path style="fill:#fdad6d; stroke:none;" d="M144 200L145 201L144 200z"/>
<path style="fill:#e45c77; stroke:none;" d="M227 200L228 201L227 200M446 200L447 201L446 200M485 200L486 201L485 200z"/>
<path style="fill:#fdad6d; stroke:none;" d="M226 201L227 202L226 201z"/>
<path style="fill:#e45c77; stroke:none;" d="M445 201L446 202L445 201M486 201L487 202L486 201z"/>
<path style="fill:#fdad6d; stroke:none;" d="M444 202L445 203L444 202z"/>
<path style="fill:#e45c77; stroke:none;" d="M487 202L488 203L487 202M113 203L114 204L113 203M225 203L226 204L225 203M488 203L489 204L488 203z"/>
<path style="fill:#fdad6d; stroke:none;" d="M112 204L113 205L112 204z"/>
<path style="fill:#e45c77; stroke:none;" d="M224 204L225 205L224 204M443 204L444 205L443 204M489 204L490 205L489 204z"/>
<path style="fill:#fdad6d; stroke:none;" d="M34 205L35 206L34 205M111 205L112 206L111 205z"/>
<path style="fill:#e45c77; stroke:none;" d="M148 205L149 206L148 205M223 205L224 206L223 205M442 205L443 206L442 205M490 205L491 206L490 205M35 206L36 207L35 206M222 206L223 207L222 206M364.667 206.333L365.333 206.667L364.667 206.333M441 206L442 207L441 206M491 206L492 207L491 206M36 207L37 208L36 207M150 207L151 208L150 207M221 207L222 208L221 207M255.333 207.667L255.667 208.333L255.333 207.667M363 207L364 208L363 207M366 207L367 208L366 207M440 207L441 208L440 207M492 207L493 208L492 207z"/>
<path style="fill:#fdad6d; stroke:none;" d="M493 207L494 208L493 207M108 208L109 209L108 208z"/>
<path style="fill:#e45c77; stroke:none;" d="M151 208L152 209L151 208z"/>
<path style="fill:#fdad6d; stroke:none;" d="M219 208L220 209L219 208z"/>
<path style="fill:#e45c77; stroke:none;" d="M362 208L363 209L362 208z"/>
<path style="fill:#fdad6d; stroke:none;" d="M368 208L369 209L368 208z"/>
<path style="fill:#e45c77; stroke:none;" d="M439 208L440 209L439 208M494 208L495 209L494 208z"/>
<path style="fill:#fdad6d; stroke:none;" d="M39 209L40 210L39 209M107 209L108 210L107 209M218 209L219 210L218 209z"/>
<path style="fill:#e45c77; stroke:none;" d="M361 209L362 210L361 209M369 209L370 210L369 209M438 209L439 210L438 209M495 209L496 210L495 209M40 210L41 211L40 210M106 210L107 211L106 210z"/>
<path style="fill:#fdad6d; stroke:none;" d="M154 210L155 211L154 210z"/>
<path style="fill:#e45c77; stroke:none;" d="M217 210L218 211L217 210M360 210L361 211L360 210M370 210L371 211L370 210M437 210L438 211L437 210z"/>
<path style="fill:#fdad6d; stroke:none;" d="M497 210L498 211L497 210M42 211L43 212L42 211z"/>
<path style="fill:#e45c77; stroke:none;" d="M155 211L156 212L155 211z"/>
<path style="fill:#fdad6d; stroke:none;" d="M215 211L216 212L215 211z"/>
<path style="fill:#e45c77; stroke:none;" d="M216 211L217 212L216 211M256 211L257 212L256 211M359 211L360 212L359 211M372 211L373 212L372 211z"/>
<path style="fill:#fdad6d; stroke:none;" d="M435 211L436 212L435 211z"/>
<path style="fill:#e45c77; stroke:none;" d="M498 211L499 212L498 211z"/>
<path style="fill:#fdad6d; stroke:none;" d="M499 211L500 212L499 211M103 212L104 213L103 212M157 212L158 213L157 212z"/>
<path style="fill:#e45c77; stroke:none;" d="M214 212L215 213L214 212M358 212L359 213L358 212z"/>
<path style="fill:#fdad6d; stroke:none;" d="M374 212L375 213L374 212z"/>
<path style="fill:#e45c77; stroke:none;" d="M434 212L435 213L434 212M500 212L501 213L500 212M45 213L46 214L45 213M102 213L103 214L102 213M158 213L159 214L158 213z"/>
<path style="fill:#fdad6d; stroke:none;" d="M212 213L213 214L212 213z"/>
<path style="fill:#e45c77; stroke:none;" d="M257 213L258 214L257 213M357 213L358 214L357 213M375 213L376 214L375 213z"/>
<path style="fill:#fdad6d; stroke:none;" d="M432 213L433 214L432 213z"/>
<path style="fill:#e45c77; stroke:none;" d="M433 213L434 214L433 213M502 213L503 214L502 213M47 214L48 215L47 214M100 214L101 215L100 214z"/>
<path style="fill:#fdad6d; stroke:none;" d="M160 214L161 215L160 214z"/>
<path style="fill:#e45c77; stroke:none;" d="M211 214L212 215L211 214M356 214L357 215L356 214M377 214L378 215L377 214M431 214L432 215L431 214M503.667 214.333L504.333 214.667L503.667 214.333M49 215L50 216L49 215M98 215L99 216L98 215M161 215L162 216L161 215M209 215L210 216L209 215M258 215L259 216L258 215M355 215L356 216L355 215M379 215L380 216L379 215M429 215L430 216L429 215M506 215L507 216L506 215M96 216L97 217L96 216M163 216L164 217L163 216z"/>
<path style="fill:#fdad6d; stroke:none;" d="M206 216L207 217L206 216z"/>
<path style="fill:#e45c77; stroke:none;" d="M207 216L208 217L207 216M259 216L260 217L259 216M354 216L355 217L354 216M381 216L382 217L381 216z"/>
<path style="fill:#fdad6d; stroke:none;" d="M382 216L383 217L382 216z"/>
<path style="fill:#e45c77; stroke:none;" d="M427 216L428 217L427 216M508 216L509 217L508 216M54 217L55 218L54 217M94 217L95 218L94 217M165 217L166 218L165 217z"/>
<path style="fill:#fdad6d; stroke:none;" d="M166 217L167 218L166 217M204 217L205 218L204 217z"/>
<path style="fill:#e45c77; stroke:none;" d="M205 217L206 218L205 217M260 217L261 218L260 217M353 217L354 218L353 217M384 217L385 218L384 217z"/>
<path style="fill:#fdad6d; stroke:none;" d="M385 217L386 218L385 217M424 217L425 218L424 217z"/>
<path style="fill:#e45c77; stroke:none;" d="M425 217L426 218L425 217M57 218L58 219L57 218M91 218L92 219L91 218M168 218L169 219L168 218z"/>
<path style="fill:#fdad6d; stroke:none;" d="M201 218L202 219L201 218z"/>
<path style="fill:#e45c77; stroke:none;" d="M202 218L203 219L202 218M352 218L353 219L352 218M387 218L388 219L387 218z"/>
<path style="fill:#fdad6d; stroke:none;" d="M388 218L389 219L388 218M421 218L422 219L421 218z"/>
<path style="fill:#e45c77; stroke:none;" d="M422 218L423 219L422 218M61 219L62 220L61 219z"/>
<path style="fill:#fdad6d; stroke:none;" d="M87 219L88 220L87 219z"/>
<path style="fill:#e45c77; stroke:none;" d="M88 219L89 220L88 219M171 219L172 220L171 219z"/>
<path style="fill:#fdad6d; stroke:none;" d="M172 219L173 220L172 219M198 219L199 220L198 219z"/>
<path style="fill:#e45c77; stroke:none;" d="M199 219L200 220L199 219M263 219L264 220L263 219M351 219L352 220L351 219M391 219L392 220L391 219z"/>
<path style="fill:#fdad6d; stroke:none;" d="M392 219L393 220L392 219M418 219L419 220L418 219z"/>
<path style="fill:#e45c77; stroke:none;" d="M419 219L420 220L419 219M66 220L67 221L66 220z"/>
<path style="fill:#fdad6d; stroke:none;" d="M67 220L67 221L70 221L67 220M81.6667 220.333L82.3333 220.667L81.6667 220.333z"/>
<path style="fill:#e45c77; stroke:none;" d="M83 220L84 221L83 220M175.667 220.333L176.333 220.667L175.667 220.333z"/>
<path style="fill:#fdad6d; stroke:none;" d="M177 220L178 221L177 220M192.667 220.333L193.333 220.667L192.667 220.333z"/>
<path style="fill:#e45c77; stroke:none;" d="M194.667 220.333L195.333 220.667L194.667 220.333M265 220L266 221L265 220z"/>
<path style="fill:#fdad6d; stroke:none;" d="M266 220L267 221L266 220z"/>
<path style="fill:#e45c77; stroke:none;" d="M350 220L351 221L350 220M395.667 220.333L396.333 220.667L395.667 220.333z"/>
<path style="fill:#fdad6d; stroke:none;" d="M397 220L397 221L400 221L397 220M412.667 220.333L413.333 220.667L412.667 220.333z"/>
<path style="fill:#e45c77; stroke:none;" d="M414.667 220.333L415.333 220.667L414.667 220.333M287 221L288 222L287 221M349 221L350 222L349 221M286 222L287 223L286 222M348 222L349 223L348 222M285 223L286 224L285 223M347 223L348 224L347 223M284 224L285 225L284 224M346 224L347 225L346 224z"/>
<path style="fill:#1f1e37; stroke:none;" d="M0 225L0 512L512 512L512 256L361 256C363.368 268.948 355.81 274.332 349 284C364.763 277.93 384.247 286.469 381.815 306C380.879 313.51 375.098 318.16 371 324C388.717 319.95 411.067 333.607 400.084 354C392.533 368.02 376.19 379.81 365 391C341.259 414.741 317.585 446.106 288 462.561C276.788 468.797 264.042 468.307 253 473.434C243.123 478.019 235.31 497.285 224 497.424C213.423 497.554 200.924 492.639 191 489.333C156.595 477.874 131.223 458.343 102 438L102 437C117.135 426.338 129.907 410.093 143 397C148.067 391.933 156.868 385.858 159.397 379C162.808 369.748 160 354.841 160 345C160 316.19 156.178 284.223 162 256L68 256C52.7719 256 34.9564 258.681 21 251.367C9.40985 245.292 5.7981 235.652 0 225z"/>
<path style="fill:#e45c77; stroke:none;" d="M283 225L284 226L283 225M345 225L346 226L345 225M282 226L283 227L282 226M344 226L345 227L344 226M281 227L282 228L281 227M343 227L344 228L343 227M280 228L281 229L280 228M342 228L343 229L342 228M279 229L280 230L279 229M341 229L342 230L341 229M278 230L279 231L278 230M340 230L341 231L340 230M277 231L278 232L277 231M339 231L340 232L339 231M276 232L277 233L276 232M338 232L339 233L338 232M275 233L276 234L275 233M337 233L338 234L337 233M274 234L275 235L274 234M336 234L337 235L336 234M273 235L274 236L273 235M335 235L336 236L335 235M272 236L273 237L272 236M334 236L335 237L334 236M271 237L272 238L271 237M333 237L334 238L333 237M270 238L271 239L270 238M332 238L333 239L332 238M269 239L270 240L269 239M331 239L332 240L331 239M330 240L331 241L330 240M334 240L335 241L334 240M344.667 240.333L345.333 240.667L344.667 240.333M329 241L328 243L330 243L329 241M331 241L332 242L331 241M348 241L349 242L348 241M178.667 242.333L179.333 242.667L178.667 242.333M189.667 242.333L190.333 242.667L189.667 242.333M350 242L351 243L350 242M175 243L176 244L175 243M192.667 243.333L193.333 243.667L192.667 243.333M351 243L352 244L351 243M173 244L174 245L173 244M195 244L196 245L195 244M353 244L354 245L353 244M171 245L172 246L171 245M354 245L355 246L354 245M198 246L199 247L198 246M355 246L356 247L355 246M168 247L169 248L168 247M199 247L200 248L199 247M356 247L357 248L356 247M167 248L168 249L167 248M200 248L201 249L200 248M201 249L202 250L201 249M259 249L260 250L259 249M202 250L203 251L202 250M358 250L359 251L358 250M203 251L204 252L203 251M164 252L165 253L164 252M204 252L205 253L204 252M359 252L360 253L359 252M163 254L164 255L163 254M205 254L206 255L205 254M360.333 254.667L360.667 255.333L360.333 254.667z"/>
<path style="fill:#1f1e37; stroke:none;" d="M206 256L214 294C227.187 284.711 242.711 269.187 252 256L206 256z"/>
<path style="fill:#e45c77; stroke:none;" d="M252 256L253 257L252 256M206 257L207 258L206 257M251 257L252 258L251 257M161 258L162 259L161 258M250 258L251 259L250 258M361 258L361 265L362 265L361 258M207.333 259.667L207.667 260.333L207.333 259.667M249 259L250 260L249 259M248 260L249 261L248 260M247 261L248 262L247 261M160 262L160 271L161 271L160 262M246 262L247 263L246 262M245 263L246 264L245 263M208 264L208 267L209 267L208 264M244 264L245 265L244 264M243 265L244 266L243 265M242 266L243 267L242 266M241 267L242 268L241 267M240 268L241 269L240 268M360 268L361 269L360 268M239 269L240 270L239 269M209.333 270.667L209.667 271.333L209.333 270.667M238 270L239 271L238 270M237 271L238 272L237 271M359 271L360 272L359 271M236 272L237 273L236 272M235 273L236 274L235 273M358 273L359 274L358 273M234 274L235 275L234 274M357 274L358 275L357 274M210 275L210 278L211 278L210 275M233 275L234 276L233 275M232 276L233 277L232 276M231 277L232 278L231 277M230 278L231 279L230 278M229 279L230 280L229 279M228 280L229 281L228 280M211.333 281.667L211.667 282.333L211.333 281.667M227 281L228 282L227 281M355.667 281.333L356.333 281.667L355.667 281.333M364 281L365 282L364 281M226 282L227 283L226 282M352 282L353 283L352 282M225 283L226 284L225 283M350 283L351 284L350 283M370 283L371 284L370 283M224 284L225 285L224 284M348 284L349 285L348 284M223 285L224 286L223 285M373 285L374 286L373 285M212 286L212 289L213 289L212 286M222 286L223 287L222 286M374 286L375 287L374 286M221 287L222 288L221 287M220 288L221 289L220 288M219 289L220 290L219 289M377 289L378 290L377 289M218 290L219 291L218 290M217 291L218 292L217 291M213.333 292.667L213.667 293.333L213.333 292.667M216 292L217 293L216 292M379 292L380 293L379 292M215 293L216 294L215 293M214 294L215 295L214 294M380 294L381 295L380 294M381.333 297.667L381.667 298.333L381.333 297.667M381 306L381 309L382 309L381 306M380.333 310.667L380.667 311.333L380.333 310.667M379 313L380 314L379 313M377 316L378 317L377 316M376 317L377 318L376 317M376.667 322.333L377.333 322.667L376.667 322.333M383.667 322.333L384.333 322.667L383.667 322.333M373 323L374 324L373 323M388 323L389 324L388 323z"/>
<path style="fill:#1f1e37; stroke:none;" d="M370 324L371 325L370 324z"/>
<path style="fill:#e45c77; stroke:none;" d="M390 324L391 325L390 324M369 325L370 326L369 325M392 325L393 326L392 325M399 332L400 333L399 332M400 334L401 335L400 334M401 337L402 338L401 337M402 340L402 348L403 348L402 340M401 351L402 352L401 351M400 353L401 354L400 353M399 355L400 356L399 355M397 358L398 359L397 358M396 359L397 360L396 359M395 360L396 361L395 360M394 361L395 362L394 361M393 362L394 363L393 362M392 363L393 364L392 363M391 364L392 365L391 364M390 365L391 366L390 365M389 366L390 367L389 366M388 367L389 368L388 367M387 368L388 369L387 368M386 369L387 370L386 369M385 370L386 371L385 370M384 371L385 372L384 371M383 372L384 373L383 372M382 373L383 374L382 373M381 374L382 375L381 374M380 375L381 376L380 375M379 376L380 377L379 376M378 377L379 378L378 377M377 378L378 379L377 378M376 379L377 380L376 379M159 380L160 381L159 380M375 380L376 381L375 380M158 381L159 382L158 381M374 381L375 382L374 381M157 382L158 383L157 382M373 382L374 383L373 382M156 383L157 384L156 383M372 383L373 384L372 383M155 384L156 385L155 384M371 384L372 385L371 384M154 385L155 386L154 385M370 385L371 386L370 385M153 386L154 387L153 386M369 386L370 387L369 386M152 387L153 388L152 387M368 387L369 388L368 387M151 388L152 389L151 388M367 388L368 389L367 388M150 389L151 390L150 389M366 389L367 390L366 389M149 390L150 391L149 390M365 390L366 391L365 390M148 391L149 392L148 391M364 391L365 392L364 391M147 392L148 393L147 392M363 392L364 393L363 392M146 393L147 394L146 393M362 393L363 394L362 393M145 394L146 395L145 394M361 394L362 395L361 394M144 395L145 396L144 395M360 395L361 396L360 395M143 396L144 397L143 396M359 396L360 397L359 396M142 397L143 398L142 397M358 397L359 398L358 397M141 398L142 399L141 398M357 398L358 399L357 398M140 399L141 400L140 399M356 399L357 400L356 399M139 400L140 401L139 400M355 400L356 401L355 400M138 401L139 402L138 401M354 401L355 402L354 401M137 402L138 403L137 402M353 402L354 403L353 402M136 403L137 404L136 403M352 403L353 404L352 403M135 404L136 405L135 404M351 404L352 405L351 404M134 405L135 406L134 405M350 405L351 406L350 405M133 406L134 407L133 406M349 406L350 407L349 406M132 407L133 408L132 407M348 407L349 408L348 407M131 408L132 409L131 408M347 408L348 409L347 408M130 409L131 410L130 409M346 409L347 410L346 409M129 410L130 411L129 410M345 410L346 411L345 410M128 411L129 412L128 411M344 411L345 412L344 411M127 412L128 413L127 412M343 412L344 413L343 412M126 413L127 414L126 413M342 413L343 414L342 413M125 414L126 415L125 414M341 414L342 415L341 414M124 415L125 416L124 415M340 415L341 416L340 415M123 416L124 417L123 416M339 416L340 417L339 416M122 417L123 418L122 417M338 417L339 418L338 417M121 418L122 419L121 418M337 418L338 419L337 418M120 419L121 420L120 419M336 419L337 420L336 419M119 420L120 421L119 420M335 420L336 421L335 420M118 421L119 422L118 421M334 421L335 422L334 421M117 422L118 423L117 422M333 422L334 423L333 422M116 423L117 424L116 423M332 423L333 424L332 423M115 424L116 425L115 424M331 424L332 425L331 424M114 425L115 426L114 425M330 425L331 426L330 425M113 426L114 427L113 426M329 426L330 427L329 426M112 427L113 428L112 427M328 427L329 428L328 427M111 428L112 429L111 428M327 428L328 429L327 428M110 429L111 430L110 429M326 429L327 430L326 429M109 430L110 431L109 430M325 430L326 431L325 430M108 431L109 432L108 431M324 431L325 432L324 431M107 432L108 433L107 432M323 432L324 433L323 432M106 433L107 434L106 433M322 433L323 434L322 433M105 434L106 435L105 434M321 434L322 435L321 434M104 435L105 436L104 435M320 435L321 436L320 435M103 436L104 437L103 436M319 436L320 437L319 436M102 437L103 438L102 437M318 437L319 438L318 437M317 438L318 439L317 438M316 439L317 440L316 439M315 440L316 441L315 440M314 441L315 442L314 441M313 442L314 443L313 442M312 443L313 444L312 443M311 444L312 445L311 444M310 445L311 446L310 445M309 446L310 447L309 446M308 447L309 448L308 447M307 448L308 449L307 448M306 449L307 450L306 449M305 450L306 451L305 450M300 454L301 455L300 454M299 455L300 456L299 455M296 457L297 458L296 457M129 459L130 460L129 459M293 459L294 460L293 459M291 460L292 461L291 460z"/>
<path style="fill:#f4d3c0; stroke:none;" d="M132 461L133 462L132 461z"/>
<path style="fill:#e45c77; stroke:none;" d="M288 462L289 463L288 462M286 463L287 464L286 463M284 464L285 465L284 464z"/>
<path style="fill:#f4d3c0; stroke:none;" d="M140 466L141 467L140 466z"/>
<path style="fill:#e45c77; stroke:none;" d="M279 466L280 467L279 466M276.667 467.333L277.333 467.667L276.667 467.333M274 468L275 469L274 468M270.667 469.333L271.333 469.667L270.667 469.333M266.667 470.333L267.333 470.667L266.667 470.333M261.667 471.333L262.333 471.667L261.667 471.333M253 472L253 473L256 473L253 472M251 473L252 474L251 473M250 474L251 475L250 474M249 475L250 476L249 475M248 476L249 477L248 476M247 477L248 478L247 477M246 478L247 479L246 478M245 479L246 480L245 479M244 480L245 481L244 480M243 481L244 482L243 481M242 482L243 483L242 482M241 483L242 484L241 483M240 484L241 485L240 484M239 485L240 486L239 485M238 486L239 487L238 486M237 487L238 488L237 487M236 488L237 489L236 488M235 489L236 490L235 489M234 490L235 491L234 490M197 491L198 492L197 491M233 491L234 492L233 491M232 492L233 493L232 492M231 493L232 494L231 493M208 494L209 495L208 494M230 494L231 495L230 494M229 495L230 496L229 495M228 496L229 497L228 496M227 497L228 498L227 497z"/>
</svg>
