<?xml version="1.0" standalone="yes"?>
<svg xmlns="http://www.w3.org/2000/svg" width="512" height="512">
<path style="fill:#010101; stroke:none;" d="M0 0L0 512L512 512L512 0L0 0z"/>
<path style="fill:#fdd92f; stroke:none;" d="M254 109L253 109L109 253L109 254C112.571 257.571 118.92 261.972 120.338 267C121.48 271.05 117.191 275.868 113 275.029C107.451 273.919 103.128 262.836 97 265.752C89.9625 269.1 83.4796 278.52 78 284C63.7686 298.231 27.0923 322.688 48.044 345C55.7705 353.228 64.0187 361.019 72 369C74.9617 371.962 78.8043 377.513 83 378.669C87.3331 379.863 93.8637 373.538 98 372.101C110.422 367.786 122.951 371.723 131.957 381.015C140.842 390.181 144.203 402.944 139.532 415C138.043 418.844 132.965 423.885 133.167 428C133.386 432.483 140.085 437.085 143 440C151.819 448.819 163.607 466.225 176 469.481C197.579 475.15 216.758 445.242 230 432C234.921 427.079 243.237 421.33 246.248 415C247.134 413.139 246.72 411.657 245.623 410C243.17 406.292 238.067 403.678 237.238 399C236.236 393.354 242.522 390.064 247 392.747C248.873 393.869 250.439 395.504 251.995 397.011C254.026 398.976 256.002 401.002 258 403L259 403L403 259C399.8 254.457 393.401 250.415 391.801 245C390.421 240.332 395.543 235.954 400 237.507C404.814 239.184 409.329 248.946 415 246.248C421.33 243.237 427.079 234.921 432 230C444.981 217.019 481.722 192.785 467.297 171C460.161 160.223 448.128 151.127 439 142C436.248 139.248 432.216 133.427 428 133.117C423.901 132.814 418.891 137.909 415 139.3C403.124 143.546 390.224 140.544 381.093 131.816C371.588 122.729 368.306 109.291 372.7 97C374.091 93.1087 379.186 88.0992 378.883 84C378.551 79.4875 371.955 74.9553 369 72C359.253 62.253 347.206 44.3208 333 41.8225C313.262 38.3513 293.305 68.6949 281 81C276.358 85.6418 268.595 91.024 265.752 97C262.836 103.128 273.919 107.451 275.029 113C275.868 117.191 271.05 121.48 267 120.338C261.972 118.92 257.571 112.571 254 109z"/>
<path style="fill:#ffce06; stroke:none;" d="M263 99C260.579 101.423 256.21 104.529 255.346 108C251.941 121.679 283.259 124.908 274.254 110C273.125 108.132 271.503 106.552 269.986 105.005C267.789 102.763 265.556 100.8 263 99z"/>
<path style="fill:#ffbf41; stroke:none;" d="M370 110L371 111L370 110z"/>
<path style="fill:#ffce06; stroke:none;" d="M283.228 127.028C279.664 129.199 279.785 133.805 281.743 137C285.387 142.947 300.788 161.495 308.867 156.968C312.519 154.921 313.064 150.405 311.127 147C307.515 140.646 291.708 121.862 283.228 127.028M321.109 163.743C316.845 165.544 316.567 170.449 318.743 174C322.436 180.026 336.867 197.306 344.945 194.242C349.256 192.607 350.262 187.754 348.127 184C344.416 177.473 329.669 160.127 321.109 163.743M359.019 199.836C354.002 201.382 353.283 207.007 355.742 211C359.386 216.915 373.923 234.388 381.891 231.242C386.399 229.463 386.677 223.621 384.397 220C380.807 214.298 366.681 197.476 359.019 199.836z"/>
<path style="fill:#ffbf41; stroke:none;" d="M279 208L279 209L284 209L279 208M276 209L277 210L276 209z"/>
<path style="fill:#ff9a0e; stroke:none;" d="M277 209.742C268.595 212.95 264.917 223.948 256 226.307C244.361 229.386 228.851 207.218 219.009 222.105C212.078 232.588 225.796 242.794 226.566 253C227.271 262.332 215.057 268.018 210.742 275C209.598 276.852 209.127 278.841 209.059 281C208.399 302.188 234.968 286.654 244.985 292.282C255.661 298.282 255.809 323.028 272.985 316.258C283.873 311.966 278.554 295.083 284.653 287.105C291.495 278.154 304.696 283.403 312.891 277.297C319.807 272.145 317.629 261.455 310.985 257.352C305.341 253.867 297.922 252.104 293.569 246.815C286.885 238.693 301.436 200.417 277 209.742z"/>
<path style="fill:#ffbf41; stroke:none;" d="M286 209L287 210L286 209M288 210L289 211L288 210z"/>
<path style="fill:#ffce06; stroke:none;" d="M273 211L274 212L273 211z"/>
<path style="fill:#ffbf41; stroke:none;" d="M289 211L290 212L289 211M272 212L273 213L272 212M290 212L291 213L290 212M271 213L272 214L271 213z"/>
<path style="fill:#ffce06; stroke:none;" d="M291 213L292 214L291 213z"/>
<path style="fill:#ffbf41; stroke:none;" d="M270 214L271 215L270 214M269 215L270 216L269 215M292 215L293 216L292 215M268 216L269 217L268 216M224 217L225 218L224 217M232 217L233 218L232 217M267 217L268 218L267 217M222 218L223 219L222 218M234 218L235 219L234 218M266 218L267 219L266 218z"/>
<path style="fill:#ffce06; stroke:none;" d="M293 218L294 219L293 218z"/>
<path style="fill:#ffbf41; stroke:none;" d="M236 219L237 220L236 219M265 219L266 220L265 219M293 219L293 222L294 222L293 219M238 220L239 221L238 220M264 220L265 221L264 220M240 221L241 222L240 221M263 221L264 222L263 221M218 222L219 223L218 222M242 222L243 223L242 222M262 222L263 223L262 222M244 223L245 224L244 223M261 223L262 224L261 223M217 224L218 225L217 224M246 224L247 225L246 224M260 224L261 225L260 224M248 225L249 226L248 225M258 225L259 226L258 225M251 226L251 227L257 227L251 226M292.333 226.667L292.667 227.333L292.333 226.667z"/>
<path style="fill:#ffce06; stroke:none;" d="M292 228L293 229L292 228z"/>
<path style="fill:#ffbf41; stroke:none;" d="M217 232L218 233L217 232M291 232L291 235L292 235L291 232M218 234L219 235L218 234M219 236L220 237L219 236z"/>
<path style="fill:#ffce06; stroke:none;" d="M413 249C411.201 246.446 409.244 244.204 406.995 242.017C405.457 240.52 403.881 238.942 402 237.873C386.683 229.163 390.876 259.921 404 256.654C407.471 255.79 410.577 251.421 413 249z"/>
<path style="fill:#ffbf41; stroke:none;" d="M220 238L221 239L220 238M290.333 239.667L290.667 240.333L290.333 239.667M221 240L222 241L221 240M222 242L223 243L222 242z"/>
<path style="fill:#ffce06; stroke:none;" d="M291 243L292 244L291 243z"/>
<path style="fill:#ffbf41; stroke:none;" d="M223 244L224 245L223 244M291 244L292 245L291 244M224 246L225 247L224 246M293 247L294 248L293 247M225 248L226 249L225 248M294 248L295 249L294 248M297 250L298 251L297 250M226 251L226 257L227 257L226 251M299 251L300 252L299 251M301 252L302 253L301 252M303 253L304 254L303 253z"/>
<path style="fill:#ffce06; stroke:none;" d="M99 263C100.8 265.556 102.763 267.789 105.005 269.986C106.552 271.503 108.132 273.125 110 274.254C124.908 283.259 121.679 251.941 108 255.346C104.529 256.21 101.423 260.579 99 263z"/>
<path style="fill:#ffbf41; stroke:none;" d="M305 254L306 255L305 254M307 255L308 256L307 255M309 256L310 257L309 256M311 257L312 258L311 257M225 258L226 259L225 258M224 260L225 261L224 260M223 261L224 262L223 261M222 262L223 263L222 262M316 262L317 263L316 262M221 263L222 264L221 263M220 264L221 265L220 264M219 265L220 266L219 265M317 265L317 271L318 271L317 265M218 266L219 267L218 266M217 267L218 268L217 267M216 268L217 269L216 268M215 269L216 270L215 269M214 270L215 271L214 270M213 271L214 272L213 271z"/>
<path style="fill:#ffce06; stroke:none;" d="M317 271L318 272L317 271z"/>
<path style="fill:#ffbf41; stroke:none;" d="M212 272L213 273L212 272z"/>
<path style="fill:#ffce06; stroke:none;" d="M211 273L212 274L211 273z"/>
<path style="fill:#ffbf41; stroke:none;" d="M316 273L317 274L316 273M209 276L210 277L209 276z"/>
<path style="fill:#ffce06; stroke:none;" d="M314 276L315 277L314 276z"/>
<path style="fill:#ffbf41; stroke:none;" d="M311 278L312 279L311 278M208 279L208 284L209 284L208 279M308 279L309 280L308 279z"/>
<path style="fill:#ffce06; stroke:none;" d="M309 279L310 280L309 279M130.059 280.758C125.444 282.53 125.285 288.324 127.603 292C131.329 297.905 145.961 315.454 153.941 311.642C158.23 309.594 158.534 304.695 156.258 301C152.565 295.004 138.121 277.661 130.059 280.758z"/>
<path style="fill:#ffbf41; stroke:none;" d="M301 280L301 281L304 281L301 280z"/>
<path style="fill:#ffce06; stroke:none;" d="M304 280L305 281L304 280z"/>
<path style="fill:#ffbf41; stroke:none;" d="M295 281L295 282L298 282L295 281M290.667 282.333L291.333 282.667L290.667 282.333M288 283L289 284L288 283M286 284L287 285L286 284M285 285L286 286L285 285M209 286L210 287L209 286M284 286L285 287L284 286z"/>
<path style="fill:#ffce06; stroke:none;" d="M210 288L211 289L210 288z"/>
<path style="fill:#ffbf41; stroke:none;" d="M283 288L284 289L283 288M211 289L212 290L211 289M212 290L213 291L212 290M238 290L238 291L241 291L238 290M282.333 290.667L282.667 291.333L282.333 290.667z"/>
<path style="fill:#ffce06; stroke:none;" d="M213 291L214 292L213 291z"/>
<path style="fill:#ffbf41; stroke:none;" d="M232.667 291.333L233.333 291.667L232.667 291.333z"/>
<path style="fill:#ffce06; stroke:none;" d="M234 291L235 292L234 291M243 291L244 292L243 291z"/>
<path style="fill:#ffbf41; stroke:none;" d="M244 291L245 292L244 291M215 292L216 293L215 292M226.667 292.333L227.333 292.667L226.667 292.333z"/>
<path style="fill:#ffce06; stroke:none;" d="M228 292L229 293L228 292M218 293L219 294L218 293z"/>
<path style="fill:#ffbf41; stroke:none;" d="M219 293L219 294L222 294L219 293M247 293L248 294L247 293M248 294L249 295L248 294M249 295L250 296L249 295M281 295L281 298L282 298L281 295M250 297L251 298L250 297M251 299L252 300L251 299M252 301L253 302L252 301M280 301L280 304L281 304L280 301M253 303L254 304L253 303z"/>
<path style="fill:#ffce06; stroke:none;" d="M280 304L281 305L280 304z"/>
<path style="fill:#ffbf41; stroke:none;" d="M254 305L255 306L254 305M255 307L256 308L255 307M279 308L280 309L279 308M256 309L257 310L256 309z"/>
<path style="fill:#ffce06; stroke:none;" d="M279 309L280 310L279 309z"/>
<path style="fill:#ffbf41; stroke:none;" d="M257 311L258 312L257 311M278 311L279 312L278 311z"/>
<path style="fill:#ffce06; stroke:none;" d="M276 314L277 315L276 314z"/>
<path style="fill:#ffbf41; stroke:none;" d="M262 316L263 317L262 316M273 316L274 317L273 316z"/>
<path style="fill:#ffce06; stroke:none;" d="M167.109 317.758C162.601 319.537 162.323 325.379 164.603 329C168.554 335.275 182.396 351.845 190.891 348.257C195.155 346.456 195.433 341.551 193.257 338C189.63 332.081 175.067 314.616 167.109 317.758z"/>
<path style="fill:#ffbf41; stroke:none;" d="M265 317L265 318L271 318L265 317M41 328L42 329L41 328M41 330L42 331L41 330z"/>
<path style="fill:#ffce06; stroke:none;" d="M203.133 355.032C199.481 357.079 198.936 361.595 200.873 365C204.564 371.492 220.19 390.049 228.772 384.821C232.323 382.657 232.222 378.206 230.257 375C226.613 369.053 211.212 350.505 203.133 355.032z"/>
<path style="fill:#ffbf41; stroke:none;" d="M139 391L140 392L139 391z"/>
<path style="fill:#ffce06; stroke:none;" d="M248 413C250.153 411.483 252.148 409.943 253.941 407.981C266.814 393.9 228.905 384.311 237.873 402C238.632 403.498 239.927 404.78 241.053 405.998C243.281 408.41 245.679 410.679 248 413z"/>
</svg>
