<?xml version="1.0" standalone="yes"?>
<svg xmlns="http://www.w3.org/2000/svg" width="512" height="512">
<path style="fill:#010101; stroke:none;" d="M0 0L0 229L1 229C9.00409 202.052 43.841 213.696 64 210.79C76.3585 209.009 89.3176 201.42 101 197.05C180.921 167.157 260.431 136.01 340 105.189C361.313 96.9334 382.637 88.7021 404 80.5756C414.034 76.7587 424.893 70.3817 436 72.3287C457.255 76.0544 462.945 108.967 469.424 126C471.519 131.507 477.524 140.971 476.787 146.896C476.351 150.403 471.346 152.692 469.105 155.043C465.391 158.94 463.301 163.626 463.04 169C462.117 187.985 478.621 198.496 496 193L511 229L512 229L512 0L0 0z"/>
<path style="fill:#fbc64d; stroke:none;" d="M347 102C349.422 110.872 355.822 114.86 358.995 123C360.954 128.022 358.899 132.135 360.148 136.999C361.641 142.814 367.052 144.748 369.38 150.005C373.108 158.42 371.925 165.994 374.382 173.995C376.662 181.423 391.61 190.273 384 199C388.496 212.291 392.844 212 406 212C406 220.534 415.666 238.67 406 244C406 252.831 409.633 259.929 409.981 268.001C410.253 274.327 411.258 282.75 409.687 288.896C408.898 291.981 406.359 293.701 406.059 297.043C405.35 304.916 409.672 309.818 409.981 317.001C410.245 323.134 411.109 331.002 409.687 336.985C408.804 340.7 406.195 343.003 406.019 347.015C405.714 353.969 408.905 357.706 409.853 364.004C411.353 373.979 409.826 383.156 406.584 392.17C403.002 402.13 417.5 420.659 406 427L406 440L475 440C486.637 440 498.899 440.861 507.072 430.826C513.347 423.122 512 413.28 512 404L512 349C481.575 347.606 481.912 303.378 512 302C512 279.316 516.574 251.076 511.471 229C508.663 216.855 499.427 205.557 496 193C478.017 197.43 455.942 183.899 464.483 163C467.044 156.734 472.461 152.52 478 149C473.669 130.288 464.256 111.944 457.424 94C453.792 84.4602 449.612 75.8045 439 72.7886C427.595 69.5472 416.334 75.2984 406 79.3989C386.496 87.138 366.874 95.2765 347 102z"/>
<path style="fill:#ad93ed; stroke:none;" d="M451 81L452 82L451 81M457 94L458 95L457 94M359 97L360 98L359 97M346 102L347 103L346 102z"/>
<path style="fill:#977bdd; stroke:none;" d="M64 211L64 212L389 212C385.625 203.25 386.803 194.456 383.174 186.015C380.817 180.534 374.786 178.431 374.045 172C373.068 163.531 373.456 145.811 362 144L357.753 120.005L347 103L314 114.797L260 135.576L64 211z"/>
<path style="fill:#ad93ed; stroke:none;" d="M347 104L348 105L347 104M348 106L349 107L348 106M462 107L463 108L462 107M349 109L350 110L349 109M350 112L351 113L350 112M354 114L355 115L354 114M355 115L356 116L355 115M356 116L357 117L356 116M357 119L358 120L357 119M467 120L468 121L467 120M358 121L359 122L358 121M359 124L360 125L359 124M360.333 126.667L360.667 127.333L360.333 126.667M360 131L361 132L360 131M359 132L360 133L359 132M472 133L473 134L472 133M359 135L360 136L359 135M361 140L362 141L361 140M362 143L363 144L362 143M366 144L367 145L366 144M367 145L368 146L367 145M477 146L478 147L477 146M368 147L369 148L368 147M369 150L370 151L369 150M370.333 152.667L370.667 153.333L370.333 152.667M371 155L372 156L371 155M372 158L373 159L372 158M373 160L374 161L373 160M374 163L375 164L374 163M373 171L374 172L373 171M374 174L375 175L374 174M376 179L377 180L376 179M379 180L380 181L379 180M464 180L465 181L464 180M382 184L383 185L382 184M383 186L384 187L383 186M384 189L385 190L384 189M385.333 191.667L385.667 192.333L385.333 191.667M386 194L386 197L387 197L386 194M385 198L386 199L385 198M384 200L385 201L384 200M386 205L387 206L386 205M387 208L388 209L387 208M388 210L389 211L388 210M0 302C30.1416 303.381 30.6216 348.28 0 349L0 405C0 415.883 -0.98995 425.925 8.01543 433.787C17.1762 441.785 29.7404 440 41 440L114 440L406 440L406 427C417.455 423.198 403.737 401.239 406.584 393.09C409.91 383.571 411.453 373.514 409.853 363.015C408.999 357.415 405.754 354.191 406.019 348.004C406.193 343.944 408.782 341.69 409.687 337.961C411.268 331.44 410.271 322.698 409.981 316.004C409.697 309.453 405.435 305.141 406.059 298.015C406.359 294.586 408.85 292.897 409.687 289.791C411.462 283.199 410.276 273.815 409.981 267.004C409.644 259.241 406 252.5 406 244C416.061 240.661 406 219.328 406 212L112 212C87.9478 212 64.011 211 40 211C28.4575 211 16.2033 209.691 7.04321 218.185C-0.927163 225.576 0 235.053 0 245L0 302M502 211L503 212L502 211z"/>
<path style="fill:#f2f3fa; stroke:none;" d="M16 212L17 213L16 212z"/>
<path style="fill:#977bdd; stroke:none;" d="M10 215L11 216L10 215M202.213 232.89C197.761 234.214 200.488 241.003 204.697 239.338C208.436 237.859 206.018 231.76 202.213 232.89M349.129 249.06C345.198 249.706 345.832 256.018 349.999 255.534C354.601 254.999 353.45 248.35 349.129 249.06M61 265C51.77 265.11 51.9762 272.504 61 273C61.2921 281.969 68.7079 281.969 69 273C78.1456 272.702 78.3722 265.111 69 265C68.8873 255.489 61.2294 255.543 61 265z"/>
<path style="fill:#f2f3fa; stroke:none;" d="M110 265L110 301C110 304.041 108.646 312.001 113.129 312.534C118.707 313.197 117.998 305.421 118 302L118 265C121.967 265 128.228 266.137 131.681 263.821C140.477 257.922 123.613 257 121 257C114.23 257 102.418 254.712 96.2438 257.603C92.8145 259.209 94.1667 263.156 97.1127 264.397C100.759 265.932 106.107 265 110 265M144.313 258.047C140.857 260.208 142 266.577 142 270L142 303C142.007 306.191 142.024 314.521 147.687 312.338C151.388 310.911 150 303.06 150 300L150 266C149.994 262.921 149.814 254.608 144.313 258.047M177.001 257.653C163.641 261.862 163.252 294.401 168.688 304.985C172.464 312.336 182.648 315.238 189.999 311.543C194.536 309.263 202.915 299.833 197.397 294.623C191.409 288.969 186.068 314.622 176.603 300.941C172.24 294.634 172.3 266.786 182.001 265.427C188.806 264.473 192.349 280.144 197.397 275.377C200.428 272.515 198.36 266.974 196.517 264.09C192.444 257.719 184.128 255.407 177.001 257.653M222 290L224 290C226.087 296.594 230.92 305.693 235.785 310.681C238.15 313.106 243.163 313.345 243.289 308.941C243.56 299.448 228.64 291.55 230.248 282C231.561 274.198 243.157 269.096 243.252 261.059C243.308 256.391 237.855 257.161 235.464 259.319C229.064 265.093 224.858 273.621 219 280C219 273.963 220.407 265.946 218.682 260.148C217.732 256.956 213.868 256.576 212.028 259.319C210.043 262.279 211 267.618 211 271L211 298C211 300.22 211.556 319.284 217.972 311.392C221.058 307.597 220.124 295.284 222 290M264 305L264 289C267.637 289 279.364 290.851 279.364 285C279.364 279.149 267.637 281 264 281L264 265C267.904 265 290.504 267.373 287.338 259.302C286.377 256.853 283.144 257.045 280.999 257.005C276.115 256.912 260.417 254.515 257.179 258.603C254.895 261.488 256 267.565 256 271C256 281.579 252.373 300.162 256.603 309.852C259.13 315.64 274.754 313.035 280 312.999C282.33 312.983 286.282 313.426 287.338 310.687C290.495 302.499 268.026 305 264 305M309 265L309 301C309 304.041 307.646 312.001 312.129 312.534C317.707 313.197 316.998 305.421 317 302L317 265C320.902 265 326.22 265.903 329.852 264.258C332.54 263.04 333.839 259.164 330.681 257.603C324.495 254.545 311.86 257 305 257C301.88 257 285.997 259.66 296.148 264.258C299.78 265.903 305.098 265 309 265z"/>
<path style="fill:#977bdd; stroke:none;" d="M345 305C336.256 305.483 336.094 312.71 345 313C345.523 322.524 353.477 322.524 354 313C362.604 312.718 362.391 305.635 354 305C353.045 296.454 345.661 296.256 345 305z"/>
<path style="fill:#010101; stroke:none;" d="M0 302L0 349C30.8363 348.343 30.6724 302.653 0 302M512 349L512 302C481.407 302.652 481.149 348.343 512 349z"/>
<path style="fill:#977bdd; stroke:none;" d="M15 307L16 308L15 307M16 308L17 309L16 308z"/>
<path style="fill:#f2f3fa; stroke:none;" d="M495 308L496 309L495 308z"/>
<path style="fill:#977bdd; stroke:none;" d="M168.604 323.032C165.128 325.796 169.944 331.336 173.243 328.215C176.521 325.113 172.038 320.301 168.604 323.032z"/>
<path style="fill:#f2f3fa; stroke:none;" d="M23 329L24 330L23 329z"/>
<path style="fill:#977bdd; stroke:none;" d="M274.474 331.047C270.929 333.527 275.208 339.083 278.642 336.339C282.119 333.56 277.927 328.631 274.474 331.047M22 333L23 334L22 333M18 340L19 341L18 340z"/>
<path style="fill:#f2f3fa; stroke:none;" d="M493 340L494 341L493 340z"/>
<path style="fill:#977bdd; stroke:none;" d="M6 348L7 349L6 348M112.323 355.028C107.888 358.05 112.607 361.64 116.005 361.941C126.828 362.902 138.132 362 149 362L271 362L306 362C309.592 362 316.641 363.303 319.377 360.397C324.055 355.431 314.92 354.021 312 354.001C300.001 353.918 287.999 354 276 354L156 354L125 354C121.414 354 115.442 352.902 112.323 355.028M169.319 371.028C159.557 377.575 180.536 378 183 378L241 378C245.507 378 260.036 380.344 262.953 376.4C268.613 368.75 247.808 370 245 370L190 370C184.651 370 173.896 367.958 169.319 371.028M116.318 404.086C112.56 406.256 115.924 412.083 119.682 409.914C123.44 407.744 120.076 401.917 116.318 404.086M140.445 404.046C136.557 406.625 140.733 412.267 144.475 409.777C148.285 407.242 144.239 401.53 140.445 404.046M165.318 404.086C161.56 406.256 164.924 412.083 168.682 409.914C172.44 407.744 169.076 401.917 165.318 404.086M189.329 404.086C185.725 406.204 189.03 412.067 192.693 409.914C196.42 407.723 193.063 401.891 189.329 404.086M213.604 404.047C210.44 406.451 214.061 411.885 217.556 409.762C221.493 407.37 217.154 401.351 213.604 404.047M238.318 404.086C234.56 406.256 237.924 412.083 241.682 409.914C245.44 407.744 242.076 401.917 238.318 404.086M262.444 404.046C259.036 406.321 261.998 411.874 265.697 409.863C269.695 407.691 266.476 401.355 262.444 404.046M286.607 404.047C283.445 406.422 287.084 411.991 290.566 409.914C294.685 407.457 290.293 401.28 286.607 404.047M311.318 404.086C307.56 406.256 310.924 412.083 314.682 409.914C318.44 407.744 315.076 401.917 311.318 404.086z"/>
<path style="fill:#010101; stroke:none;" d="M0 422L0 512L512 512L512 422L511 422C506.897 435.846 494.047 439.999 481 440L397 440L104 440L45 440C35.3829 440 23.9872 441.705 15 437.648C7.4545 434.242 4.37937 428.473 0 422z"/>
<path style="fill:#f2f3fa; stroke:none;" d="M6 432L7 433L6 432z"/>
</svg>
